<svg width="534" height="534" viewBox="0 0 534 534" fill="none" xmlns="http://www.w3.org/2000/svg"><path d="M340.616 177.339c14.031.806 23.058 9.857 17.643 16.997-11.867 15.648-2.327 29.332 1.663 41.234 10.708 31.943 2.346 61.155-5.515 91.294-2.179 8.352-3.903 20.027.197 26.156 9.191 13.741 3.93 15.942-8.365 14.668-10.507-1.089-20.92-3.559-31.204-6.106-4.5-1.114-8.449-5.374-12.861-5.756-28.79-2.502-57.662-4.053-86.452-6.551-8.54-.741-17.529-2.146-25.229-5.633-25.487-11.538-24.218-12.329-16.913-39.903 10.581-39.945 28.38-78.515 25.474-121.343-.894-13.178 6.707-18.559 18.675-17.188 20.347 2.331 40.576 5.699 60.861 8.586 8.714 1.241 17.56 3.836 26.134 3.159 9.857-.78 20.176-7.654 26.301 6.177 2.171-1.93 4.342-3.86 9.591-5.791Zm0 126.007c15.689-34.387.558-66.712-7.773-99.127-1.542-5.998-11.319-13.194-17.997-13.994-28.674-3.436-57.635-4.41-86.439-6.888-10.482-.901-10.651 4.288-11.215 12.503-1.208 17.569-2.247 35.494-6.673 52.408-5.239 20.019-14.331 39.004-21.076 58.668-4.886 14.246-2.984 11.584 13.451 19.752 23.706 11.781 47.918 10.944 72.487 10.263 19.029-.527 36.378 5.294 54.132 10.351 2.751.784 6.385-1.522 9.611-2.399-14.778-12.439 6.873-23.346 1.492-41.537Zm3.079-101.42 2.462-3.688c-1.847.205-3.694.41-2.462 3.688Z" fill="#000"/></svg>