<svg width="534" height="534" viewBox="0 0 534 534" fill="none" xmlns="http://www.w3.org/2000/svg"><path d="M159.607 279.862c4.399 7.361 8.461 14.291 14.132 20.17 6.493 6.732 12.424 14.037 19.227 20.426 5.179 4.864 11.132 8.999 17.108 12.898 8.305 5.418 18.103 6.432 27.608 7.396 8.164.828 16.523.694 24.717.023 8-.655 15.874-2.718 23.852-3.811 7.268-.995 13.9-3.566 20.611-6.397 7.923-3.341 14.622-8.451 21.413-13.377 5.521-4.006 10.173-9.186 15.398-13.625 7.103-6.035 10.945-14.336 16.168-21.714 5.243-7.408 6.811-15.74 9.783-23.755a5.61 5.61 0 0 0 .336-1.356c.514-5.036 1.114-10.066 1.488-15.113.889-12.013-3.427-22.559-8.606-33.148-7.348-15.025-20.011-24.51-32.952-33.838-7.062-5.089-14.595-9.526-21.658-14.613-7.425-5.347-15.931-7.785-24.635-9.276-8.771-1.502-17.996-3.696-26.52-2.37-8.862 1.379-17.649-.072-26.569 1.728-7.583 1.531-15.6 2.411-23.374 3.676-7.546 1.226-14.876 3.804-22.271 5.889-.426.12-.731 1.132-.828 1.768-.052.345.392 1.032.723 1.113.707.173 1.606-.19 2.21.107 1.051.516 1.938 1.365 2.893 2.075-1.05.289-2.087.669-3.157.835-.696.109-1.775.191-2.114-.203-3.617-4.205-7.339-1.259-10.299.409-5.333 3.006-10.426 6.591-15.124 10.524-6.592 5.519-13.373 11.03-18.917 17.529-8.842 10.364-18.427 20.002-25.627 31.966-6.953 11.554-9.237 23.557-10.09 36.332-.299 4.475-.148 8.989-.029 13.481.404 15.246 4.44 29.147 14.098 41.398 5.36 6.797 9.656 14.436 14.375 21.732 9.479 14.651 21.195 26.54 36.601 35.546 11.541 6.747 23.534 12.072 35.78 16.934 5.812 2.308 12.633 1.945 18.7 3.775 9.239 2.786 18.768 1.461 28.091 2.38 11.574 1.142 23.47 1.23 35.371-.737 16.345-2.701 31.286-8.709 46.279-15.157 8.14-3.5 16.257-6.888 23.482-12.09 7.124-5.129 14.828-9.636 21.219-15.557 9.041-8.376 17.315-17.616 25.54-26.822 9.46-10.588 16.005-23.111 21.072-36.2 3.092-7.989 4.461-16.672 6.245-25.119.474-2.245-.34-4.775-.638-7.164-.175-1.403-.76-2.796-.713-4.178.478-14.046-4.897-26.826-9.36-39.618-1.834-5.259-4.218-10.886-7.548-15.543-3.82-5.342-8.586-10.035-13.147-14.813-5.174-5.42-10.67-10.534-15.859-15.94-10.222-10.651-23.054-17.101-36.551-22.191-8.668-3.268-17.733-5.535-26.709-7.914-4.782-1.268-9.728-2.331-14.647-2.581-8.227-.42-16.492-.074-24.74-.169-.995-.011-1.98-.758-2.97-1.164 1.053-.593 2.066-1.607 3.165-1.71 6.779-.637 13.574-1.116 20.37-1.558 15.788-1.025 30.653 3.317 45.343 8.205 10.569 3.518 21.001 7.674 30.018 14.342 9.586 7.088 18.852 14.618 25.726 24.649 1.804 2.633 4.386 4.799 6.843 6.91 9.323 8.008 14.051 19.017 18.285 29.904 4.108 10.565 6.749 21.794 9.002 32.94.968 4.794.991 10.097.269 15.197-.739 5.227-.73 10.605-1.924 15.712-3.07 13.135-8.175 25.652-14.936 37.223-5.566 9.525-11.387 19.029-20.799 25.886-6.186 4.506-10.849 11.037-16.625 16.18-10.44 9.296-21.861 16.997-34.524 23.325-16.958 8.475-35.032 13.525-52.949 18.735-12.238 3.559-25.43 3.246-38.379.694-5.775-1.138-11.984.151-17.956-.253-21.523-1.458-42.432-5.245-61.439-16.375-10.987-6.434-21.733-13.211-31.701-21.111-3.136-2.486-5.61-5.876-8.13-9.055-6.892-8.695-12.373-18.408-18.898-27.301-5.754-7.844-10.459-16.127-15.047-24.571-3.525-6.488-5.234-13.348-6.003-20.831-.675-6.56-1.213-13.069-1.185-19.638.06-14.033 4.469-26.751 11.907-38.515.39-.618 1.459-1.037 1.505-1.606.326-4.026 1.421-7.441 5.809-8.728 3.954-8.037 11.299-13.199 16.929-19.814 3.039-3.57 6.605-6.693 9.933-10.018 3.151-3.148 5.926-6.833 9.522-9.347 12.236-8.555 23.968-18.135 38.717-22.29 5.86-1.651 11.867-2.844 17.864-3.935 9.099-1.654 18.235-4.156 27.378-4.261 12.26-.141 24.639-2.003 36.902 1.104 4.857 1.23 10.115.784 15.083 1.69 9.258 1.69 17.499 5.909 25.559 10.692 9.66 5.73 17.858 13.454 27.221 19.447 5.63 3.604 10.397 7.84 15.049 12.411 7.906 7.768 13.644 16.798 16.648 27.579 1.674 6.005 5.054 11.737 5.647 17.79.673 6.868-.865 13.961-1.531 20.948-.271 2.844-1.003 5.657-1.12 8.5-.172 4.134-.844 7.86-3.538 11.326-2.552 3.283-4.369 7.143-6.45 10.783-8.189 14.328-20.092 24.892-33.056 34.913-12.724 9.834-27.222 15.181-41.964 20.126-6.669 2.237-14.222 1.69-21.154 3.333-9.542 2.262-19.128 1.477-28.651 1.219-10.631-.289-21.094-2.683-31.124-6.204-3.654-1.282-7.034-4.035-9.883-6.793-10.919-10.569-21.929-21.086-32.185-32.28-5.886-6.424-11.112-13.72-15.264-21.367-2.801-5.16-5.235-11.064-4.812-17.474.23-3.481.279-7.009-.003-10.483-.895-10.997 2.215-21.498 6.367-31.094 5.917-13.678 15.073-25.282 28.573-33.15 8.491-4.949 16.887-9.758 26.4-12.352 3.382-.922 6.777-2.018 10.235-2.391 7.015-.758 14.07-1.376 21.119-1.513 14.174-.274 27.674 3.298 40.811 8.221 8.02 3.004 15.97 5.96 23.28 10.885 10.209 6.88 16.55 16.453 21.636 27.021 4.158 8.639 5.626 18.217 7.597 27.562 1.313 6.224-1.491 11.73-3.442 17.299-5.907 16.857-19.05 26.229-35.055 31.65-11.456 3.88-23.324 6.952-35.25 8.919-9.974 1.645-19.846-1.579-29.41-4.694-8.156-2.655-15.194-7.203-21.75-12.677-15.136-12.636-13.567-17.999-21.984-37.242-1.865-4.265-3.865-8.756-3.052-13.699.222-1.352.601-2.801 1.338-3.924 5.356-8.158 10.848-15.924 21.063-19.085 6.66-2.061 13.035-4.669 19.981-6.197 7.458-1.641 14.729-1.206 21.945-.879 7.181.325 14.309 2.565 21.384 4.281 9.698 2.352 19.39 4.929 25.894 13.419 1.095 1.431 2.005 3.258 2.281 5.015 1.152 7.329-.811 14.475-3.166 21.138-2.183 6.172-7.573 10.618-13.879 12.711-8.089 2.685-16.408 5.208-25.088 4.551-12.39-.937-22.111-6.684-28.209-17.65-2.255-4.056-3.393-8.963-.013-12.873 3.779-4.373 9.191-6.57 14.891-5.137 2.355.592 4.254 3.671 5.896 5.952.414.576-.792 2.569-1.624 3.617-.224.282-1.885-.378-2.752-.852-1.035-.566-2.091-1.255-2.845-2.14-1.795-2.109-3.463-3.039-5.975-.865-2.24 1.938-4.008 3.996-2.863 7.036 6.22 16.52 20.923 20.805 34.312 17.619 6.704-1.596 13.323-3.251 18.041-8.98 6.023-7.315 8.756-15.509 7.313-24.942-.17-1.111-.523-2.515-1.306-3.156-4.18-3.425-8.255-7.143-13.699-8.491-8.4-2.08-16.744-5.035-25.275-5.803-17.648-1.587-35.219-.392-50.251 10.45-4.525 3.263-9.649 6.995-10.711 13.387-.435 2.618-1.371 5.607-.57 7.902 4.346 12.445 8.234 25.054 15.948 36.147 3.03 4.356 7.123 6.971 11.049 9.651 8.858 6.047 19.077 9.782 29.475 11.828 5.427 1.068 11.619-.116 17.433-.516 12.352-.85 22.565-7.846 34.378-9.756 2.392-.387 4.8-1.901 6.774-3.44 10.691-8.337 18.74-18.763 21.094-32.265 1.626-9.322.428-18.998-3.017-27.86-3.122-8.029-7.767-15.457-13.14-22.263-6.245-7.911-15.254-11.994-24.159-15.828-6.778-2.918-13.984-4.932-21.124-6.894-4.323-1.188-8.892-1.468-13.336-2.24-2.31-.4-4.571-1.102-6.887-1.437-1.456-.21-2.994-.141-4.458.063-2.569.359-5.119 1.369-7.662 1.32-19.207-.375-36.139 6.868-51.201 17.466-12.489 8.788-20.273 21.862-24.385 36.921-3.198 11.706-3.447 23.607-2.689 35.473.296 4.622 3.262 9.075 5.387 13.979Z" fill="#000"/></svg>