<svg width="534" height="534" viewBox="0 0 534 534" fill="none" xmlns="http://www.w3.org/2000/svg"><path d="M311.207 234.886c5.985 1.657 11.333 2.317 16.524 3.605 17.224 4.275 35.491 3.732 52 11.294.391.179 1.069-.17 1.386.052 2.98 2.091 7.47 3.716 8.436 6.536 1.055 3.083-7.061 6.017-12.61 4.535a5284.782 5284.782 0 0 1-30.588-8.265c-6.785-1.854-13.474-4.143-20.341-5.593-10.484-2.215-22.285-1.579-31.347-6.326-12.47-6.533-26.056-4.463-38.725-9.245-14.786-5.579-31.281-6.449-46.828-10.213-19.243-4.658-38.265-10.226-57.408-15.307-3.015-.8-6.146-1.284-9.255-1.573-2.81-.261-6.347 1-8.341-.296-3.23-2.097-5.459-5.738-8.11-8.728 2.864-1.748 5.538-4.171 8.648-5.052 3.051-.864 7.45-1.48 9.699.067 14.663 10.084 33.737 7.035 48.374 16.796 24.461 2.204 47.011 12.357 70.872 17.092 15.673 3.111 31.272 6.594 47.614 10.621ZM318.302 384.109c8.829 5.318 17.853 8.22 24.512 15.561 2.277 2.51 7.491 2.13 11.091 3.695 9.223 4.011 18.157 8.714 27.47 12.485 7.297 2.955 15.091 4.665 22.435 7.521 1.929.75 4.364 3.846 4.18 5.617-.357 3.447-1.863 7.19-7.131 5.66-2.169-.631-5.659.661-6.771-.554-7.181-7.844-18.029-6.864-26.544-11.638-8.305-4.657-17.975-6.794-26.739-10.724-13.175-5.908-26.133-12.312-39.077-18.722-4.733-2.343-9.052-5.516-13.752-7.938-10.514-5.42-21.279-10.36-31.703-15.943-15.51-8.306-30.847-16.939-46.141-25.637-1.19-.677-1.408-2.993-2.188-4.49-.553-1.059-1.292-2.019-1.948-3.024 1.281-.265 2.828-1.136 3.802-.706 23.996 10.601 47.931 21.34 71.876 32.055 11.973 5.357 23.946 10.714 36.628 16.782ZM338.88 121.902c11.45-5.402 22.423-8.33 31.957-15.558 9.22-6.989 21.749-8.08 33.668-6.97.7.066 1.993 3.499 1.519 4.834-2.613 7.366-8.151 11.177-15.896 12.056-3.076.349-6.431.563-9.079 1.95-12.888 6.75-26.443 11.66-40.532 14.971-9.967 2.342-20.087 5.16-30.205 5.448-12.842.366-24.503 4.898-36.686 7.501-16.287 3.479-32.429 6.208-48.251-1.574-1.243-.611-1.926-2.366-2.87-3.589 1.022-.672 2.024-1.883 3.07-1.924 5.185-.2 10.387-.248 15.572-.059 10.523.384 20.408-2.551 30.501-4.946 8.747-2.077 17.972-2.048 26.841-3.714 13.058-2.452 25.988-5.584 40.391-8.426Z" fill="#000"/></svg>