<svg width="534" height="534" viewBox="0 0 534 534" fill="none" xmlns="http://www.w3.org/2000/svg"><path d="M222.011 156.848c.624-.461 1.775-.904 1.791-1.384.182-5.473 3.213-10.163 4.134-15.429.277-1.587 1.335-3.022 1.881-4.58 1.996-5.688 3.537-11.578 6.026-17.038 1.551-3.403 3.406-6.713 5.056-10.118 8.22-16.962 16.72-33.788 25.093-50.676.464-.936.645-2.01 1-3.004.718-2.01 2.937-3.326 4.35-2.212 1.715 1.353 3.645 3.037 4.338 4.985 4.65 13.06 10.339 25.682 15.739 38.428 1.174 2.769 2.287 5.633 2.87 8.565.835 4.194 3.5 7.859 3.408 12.293-.005.238.483.454.56.731.477 1.716-1.116 4.35.99 5.005 1.109.345 3.151-1.62 4.493-2.847 2.741-2.507 5.242-5.274 7.935-7.836 5.243-4.99 10.596-9.863 15.801-14.892 1.568-1.516 2.681-3.493 4.199-5.07 3.5-3.638 7.312-6.99 10.647-10.769 4.788-5.424 9.267-11.12 13.869-16.707a311.107 311.107 0 0 0 4.146-5.123c1.388-1.761 3.382-1.157 4.91-.78.768.188 2.534.39 2.619 2.648.114 3.013 1.686 5.944-.121 8.996-.356.603-.216 1.639-.025 2.406 1.475 5.928 1.239 11.823.015 17.766-.467 2.27-.281 4.582-.83 6.957-1.14 4.93-3.105 9.493-4.987 14.088-3.136 7.656-6.741 15.119-9.931 22.754-2.435 5.83-4.532 11.8-6.782 17.707-.321.844-.517 1.774-1.007 2.506-.779 1.162-1.463 2.491-3.306.884-1.369-1.195-2.278-2.145-1.712-3.456 4.706-10.914 8.072-22.441 13.964-32.789 3.96-6.956 6.583-14.408 8.234-21.958 1.661-7.593 2.724-15.583.618-23.532-.644-2.431-.108-5.166-.198-7.759-.019-.53-.418-1.047-.642-1.57-.428.483-1.23.97-1.222 1.445.043 2.69-2.779 3.047-3.727 4.76-2.666 4.82-6.698 8.403-10.421 12.29-5.099 5.325-10.049 10.792-15.18 16.085-4.967 5.126-10.332 9.887-15.063 15.215-5.163 5.814-11.92 10.195-15.597 17.359-1.03 2.006-3.213 1.372-4.826 1.139-1.698-.245-1.677-1.909-1.772-3.44-.864-13.888-4.187-27.076-10.302-39.69-4.257-8.78-7.483-18.06-11.17-27.116-.114-.279-.215-.564-.349-.833-.336-.675-.688-1.343-1.034-2.014-.517.544-1.2 1.004-1.524 1.646a1305.266 1305.266 0 0 0-7.844 15.8c-5.229 10.697-10.72 21.278-15.555 32.151-3.725 8.376-6.688 17.095-9.838 25.718-1.605 4.392-2.713 8.966-4.338 13.349-1.814 4.891-2.141 9.975-2.509 15.068-.118 1.645.115 3.465-2.128 3.598-1.785.105-3.557.54-4.826-1.884-5.193-9.924-11.172-19.412-16.258-29.416-4.428-8.71-9.486-17.107-16.849-23.811-.834-.759-1.547-1.65-2.315-2.479-.479 1.068-1.053 2.105-1.422 3.21-2.383 7.156-4.863 14.285-7.036 21.506a628.776 628.776 0 0 0-6.83 24.522c-.958 3.721-1.379 7.583-1.998 11.389-.375 2.3-.501 4.651-1.029 6.911-.612 2.619-3.344 3.327-5.479 1.706-4.134-3.139-8.195-6.312-10.322-11.284-.178-.417-.669-.7-1.015-1.045-4.473-4.47-8.722-9.198-13.475-13.349-6.736-5.884-13.837-11.352-20.801-16.975-1.079-.872-2.646-1.386-3.307-2.477-1.287-2.123-3.672-.978-5.032-2.093-1.413-1.159-2.331-2.91-3.553-4.326-.157-.181-.844.094-1.285.158.084.556.071 1.149.266 1.662 2.628 6.89 5.898 13.606 7.774 20.692 2.175 8.211 4.791 16.25 7.299 24.346 2.459 7.936 5.469 15.642 8.354 23.412 1.787 4.811 2.965 9.845 4.447 14.77 1.045 3.471 2.162 6.922 3.205 10.394.307 1.021.585 2.076.676 3.132.169 1.951-.75 3.116-2.79 2.895-1.673-.18-3.31-.672-4.977-.938-6.272-1-12.55-1.963-18.826-2.937-.159-.024-.326-.01-.489-.002-10.449.546-19.936-3.375-29.62-6.373-.432-.134-.847-.43-1.275-.44-.781-.018-1.567.122-2.351.196.283.786.48 1.617.864 2.35 1.547 2.946 3.453 5.742 4.672 8.812 2.493 6.277 5.623 12.076 9.77 17.47 9.968 12.971 20.654 25.436 28.492 39.952 1.965 3.639 4.787 6.81 7.161 10.235 2.211 3.191 1.297 5.275-2.537 5.953-1.821.322-3.632.713-5.462.966-14.27 1.972-27.432 7.409-40.771 12.488-7.164 2.728-14.23 6.089-22.002 7.11-.673.088-1.255.871-1.879 1.331.544.517 1.008 1.341 1.642 1.505 11.582 3.004 22.518 7.747 33.523 12.309 8.203 3.401 16.483 6.634 24.575 10.282 3.721 1.678 7.146 4.062 10.56 6.342 1.611 1.077 2.602 2.083.591 4.503-3.592 4.324-6.197 9.452-9.423 14.1-1.603 2.31-3.644 4.321-5.531 6.428-3.09 3.452-6.271 6.826-9.312 10.32-3.252 3.737-6.837 7.27-8.534 12.088-.22.625-1.808 1.402-.173 2.12.454.2 1.16-.187 1.754-.29 5.624-.979 11.309-1.695 16.853-3.009 4.979-1.181 9.878-2.706 14.652-4.718 5.545-2.338 11.358-4.055 17.09-5.935 5.744-1.884 11.492-3.777 17.323-5.351 1.595-.431 3.569.048 5.211.589.474.155.472 1.972.556 3.038.089 1.132-.013 2.278.025 3.417.317 9.471.365 18.963 1.076 28.405.438 5.816 1.875 11.558 2.908 17.326.186 1.034.562 2.04.908 3.039.345.995.763 1.963 1.149 2.944.691-.485 1.375-.982 2.075-1.454 6.257-4.219 12.39-8.666 18.445-13.113 6.497-4.773 14.319-7.858 19.55-14.226 2.837-3.455 6.744-6.186 8.035-10.815.076-.273.419-.494.676-.691.774-.595 6.353.153 6.701 1.014 1.599 3.953 4.833 6.558 7.62 9.553 7.645 8.212 15.139 16.565 22.858 24.706 4.828 5.094 9.416 10.475 15.332 14.437.497.333.751 1.005 1.198 1.438 2.107 2.038 4.21 4.082 6.385 6.046.663.599 1.706.804 2.31 1.44 3.371 3.544 7.764 5.629 11.715 8.341.11.076.38-.061.472.02 1.064.93 2.108 1.882 3.156 2.829.459-1.764 1.119-3.503 1.341-5.297.971-7.841 2.359-15.61 2.134-23.611-.134-4.756 1.279-9.539 1.784-14.331.759-7.209 1.302-14.439 2.001-21.654a53.545 53.545 0 0 1 1.012-6.424c.153-.687.796-1.505 1.429-1.794 1.211-.553 3.378.974 3.599-1.724.345.147.82.196 1.017.456 3.056 4.033 8.08 4.12 12.173 6.049 3.808 1.795 7.627 3.859 11.675 4.793 6.708 1.548 12.416 5.498 19.102 7.093 3.892.929 7.408 3.327 11.22 4.713 6.252 2.273 12.653 4.108 19.04 5.984 2.856.839 5.446 2.558 8.2 3.781.545.242 1.285.044 1.934.049-.155-.605-.302-1.212-.469-1.814-.648-2.336-1.52-4.635-1.908-7.013-.803-4.916-1.195-9.9-2.048-14.805-.757-4.355-1.972-8.629-2.867-12.963a226.323 226.323 0 0 1-1.961-10.911c-1.413-9.051-4.869-17.552-7.059-26.396-.977-3.945-2.807-7.701-3.552-11.674-.334-1.783-1.363-2.732-2.099-4.053-.336-.602-.801-1.82-.728-1.859 1.847-.984 3.757-1.847 5.657-2.732 3.392 3.157 7.904 3.773 12.045 5.128 5.898 1.931 11.931 3.445 17.874 5.246 10.418 3.156 20.703 6.837 31.259 9.419 5.62 1.376 11.472 1.847 16.927 4.048.492.199 1.722-.113 1.734-.26.072-.867.18-1.962-.266-2.602-1.955-2.806-4.055-5.515-6.178-8.2-7.625-9.645-15.674-18.919-24.548-27.444-4.279-4.112-8.913-7.872-13.011-12.151-5.731-5.985-11.122-12.296-16.623-18.499-.486-.548-.779-1.302-1.023-2.008-.104-.3.039-.95.257-1.056 4.934-2.4 9.116-5.989 13.879-8.703 3.951-2.252 8.464-3.41 11.969-6.665 3.507-3.256 7.659-5.814 11.493-8.723 6.575-4.988 13.092-10.054 19.694-15.006 5.078-3.81 10.402-7.308 15.316-11.313 2.547-2.075 4.477-4.92 6.577-7.505.212-.261-.198-1.548-.53-1.645-2.628-.771-5.282-1.498-7.974-1.994-5.771-1.064-11.565-2.002-17.359-2.936-.953-.154-1.952-.022-2.93-.022-5.703 0-11.409.127-17.108-.037-5.247-.151-10.581-1.407-15.709-.785-13.402 1.623-26.799.378-40.188.766-2.46.071-4.975-.444-7.405-.966-2.092-.45-3.745-3.338-2.814-5.306 1.878-3.97 3.256-8.14 6.423-11.549a360.885 360.885 0 0 0 17.976-20.878c3.615-4.541 6.712-9.532 9.69-14.531 3.17-5.321 5.455-11.141 8.858-16.349.598-.914 1.579-1.601-.648-1.741-5.425-.342-10.53 1.255-15.709 2.293-6.73 1.348-13.378 3.1-20.081 4.591-5.682 1.264-11.611 1.138-17.217 2.251-4.494.892-9.225-.737-13.423 1.671-4.355-2.083-9.032.033-13.432-1.048-.982-.241-2.538-1.502-2.451-2.089.244-1.644 1.765-2.032 3.347-1.667 6.438 1.49 12.875 1.371 19.332.093 1.087-.215 2.236-.191 3.354-.162 6.935.176 13.565-1.717 20.329-2.701 8.422-1.225 16.307-3.988 24.458-5.947 4.876-1.173 10.121-.812 15.201-1.125.472-.029.98-.037 1.423.1 3.023.936 3.356 2.312 1.555 5.118-3.377 5.263-6.603 10.623-9.97 15.892-1.902 2.976-3.874 5.917-5.971 8.759-2.319 3.143-4.784 6.18-7.243 9.217-4.333 5.353-8.879 10.543-13.006 16.048-2.554 3.409-5.599 6.664-6.776 10.825-.265.939-1.956 2.292-.487 3.619 1.378 1.245 2.327 2.873 4.744 2.781 5.857-.225 11.729-.073 17.595-.073 3.748 0 7.629.627 11.214-.136 6.732-1.432 13.449-.461 20.155-.838 3.859-.217 7.817.034 11.552.329 4.101.324 8.319-.095 12.311.739 7.413 1.548 14.969 2.103 22.413 3.488 5.352.995 10.362 2.555 15.42 4.259.463.156.804.673 1.202 1.022-.282.302-.517.677-.853.895-5.137 3.323-10.426 6.431-15.401 9.978a657.535 657.535 0 0 0-23.151 17.261c-7.411 5.793-14.55 11.933-21.877 17.836-1.779 1.433-3.678 3.145-5.783 3.66-5.069 1.242-8.684 4.969-13.259 6.98-1.721.756-2.065 1.487-.88 3.566 2.3 4.033 4.71 7.916 7.729 11.438 1.007 1.174 1.722 2.615 2.801 3.707 6.639 6.721 13.335 13.384 20.028 20.051 9.771 9.735 18.863 20.012 26.719 31.407 2.53 3.67 6.359 6.431 9.491 9.706 1.513 1.582 2.894 3.319 4.14 5.121 1.261 1.824.637 2.992-1.517 2.858-1.171-.073-2.568-.373-3.417-1.094-4.718-4.006-9.279-8.114-15.577-9.664-5.734-1.412-11.347-3.31-17.066-4.79-5.875-1.521-11.781-2.814-17.585-4.72-4.013-1.317-7.875-3.121-12.001-4.108-4-.956-8.02-1.844-11.975-2.961-3.043-.859-6.002-2.017-8.989-3.07-.565-.2-1.058-.69-1.625-.778-4.443-.693-5.176.41-4.2 4.808 1.684 7.587 4.297 14.913 5.639 22.621 1.297 7.446 4.055 14.626 5.638 22.036 1.39 6.509 2.021 13.178 3.036 19.768.208 1.349.664 2.657.954 3.995.357 1.65.694 3.305.976 4.969.362 2.138.609 4.296.998 6.429.607 3.321 1.377 6.614 1.881 9.948.119.787-.585 2.435-.845 2.422-1.681-.087-3.515-.191-4.97-.933-1.777-.908-4.161-2.178-4.622-3.772-.861-2.97-3.444-2.909-5.071-3.195-2.226-.392-4.051-1.361-5.985-2.198-7.875-3.409-15.542-7.393-23.619-10.212-5.742-2.005-11.118-4.648-16.675-6.97-5.971-2.494-12.273-4.197-18.433-6.238-2.007-.665-4.19-1.013-5.982-2.045-1.56-.897-2.387-.385-2.65.83-.814 3.766-1.337 7.593-2.02 11.388-.954 5.298-1.968 10.585-2.908 15.885-.14.79-.032 1.625-.018 2.439.127 6.968-.792 13.805-1.782 20.707-1.048 7.304-3.073 14.592-2.163 22.125.155 1.276.187 2.267-1.53 3.314-2.124 1.294-2.748-.891-4.147-.761-.207.019-.57-.385-.672-.663-1.91-5.2-7.05-6.814-10.822-9.983a429.087 429.087 0 0 1-7.506-6.475c-5.918-5.211-11.596-10.699-17.264-16.185a665.218 665.218 0 0 1-15.147-15.138c-4.582-4.73-9.032-9.589-13.489-14.438-2.457-2.671-4.784-5.461-7.223-8.149-1.019-1.124-1.223-1.114-2.523.423-3.267 3.865-7.145 7.368-11.278 10.314-6.845 4.878-14.437 8.753-21.028 13.925-4.299 3.373-8.862 6.356-13.133 9.745-2.681 2.127-5.359 4.283-8.219 6.15-.886.579-2.366.25-3.574.336.207-1.065-.855-1.642-.655-3.08.445-3.215-.078-6.647-.674-9.905-1.101-6.012-2.537-11.962-3.833-17.938 1.788-2.01-.33-3.988-.066-6.037.289-2.242.181-4.558.03-6.828-.122-1.835.499-3.685-.812-5.55-.613-.873.153-2.72.308-4.124.171-1.554.611-3.128.48-4.655-.191-2.23-2.581-3.483-4.808-2.741-9.306 3.098-18.636 6.129-27.893 9.366-3.115 1.089-5.933 3.083-9.079 4.008-4.25 1.251-8.679 1.911-13.046 2.745-2.434.464-4.905.734-7.35 1.151-3.34.569-6.662 1.264-10.013 1.762-1.406.209-3.288.429-3.752-1.298-.376-1.399-.384-3.391.362-4.508 2.758-4.129 5.87-8.024 8.898-11.969 6.242-8.135 14.373-14.696 19.699-23.597 1.484-2.482 3.092-4.895 4.46-7.439 1.088-2.023.983-3.584-1.511-4.967-5.299-2.937-10.759-5.445-16.338-7.784-5.415-2.27-10.594-5.1-16.002-7.387-6.099-2.579-12.418-4.643-18.492-7.274-5.252-2.276-11.016-3.276-15.868-6.553-2.216-1.497-2.098-2.434-.024-4.393 3.447-3.255 7.998-3.604 12.094-5.081 10.921-3.94 21.866-7.834 32.919-11.381 7.936-2.547 16.045-4.57 24.117-6.67 1.407-.366 2.169-.378 1.17-1.976-4.77-7.625-9.323-15.393-14.299-22.88-3.1-4.664-6.776-8.949-10.264-13.349-5.656-7.135-11.814-13.846-15.632-22.347-3.473-7.733-7.617-15.17-12.327-22.261-.481-.724-.733-1.704-.792-2.585-.19-2.846.05-2.99 2.857-2.141 10.281 3.107 20.557 6.23 30.851 9.294.748.223 1.621.044 2.435.028 6.007-.116 11.957.056 17.784 1.897 2.193.693 4.603.689 6.908 1.044 1.706.262 2.174-.871 1.655-1.982-2.458-5.256-3.372-10.979-5.065-16.456-2.058-6.658-5.451-12.84-7.353-19.405-2.695-9.305-6.464-18.298-8.53-27.737-2.154-9.84-6.037-18.974-9.76-28.219a53.817 53.817 0 0 1-2.442-7.774c-.778-3.313.866-4.852 4.098-3.896 1.13.334 2.161 1.132 3.128 1.863 5.588 4.231 10.969 8.761 16.759 12.693 5.962 4.049 10.808 9.407 16.892 13.356 4.01 2.604 7.121 6.651 10.451 10.223 5.118 5.489 11.394 9.937 15.119 16.686.147.266.306.525.459.787.173-.397.468-.785.5-1.193.729-9.228 3.88-17.807 6.513-26.589 1.556-5.188 2.971-10.528 4.284-15.842.506-2.046 1.341-4.008 1.92-6.038 1.663-5.829 3.382-11.645 4.829-17.528.406-1.651.423-3.631 2.21-4.002 2.663-.552 5.516-.228 7.352 2.117 5.275 6.738 10.476 13.538 15.537 20.437 1.41 1.921 2.18 4.299 3.338 6.417 2.326 4.252 5.034 8.33 6.969 12.749 1.306 2.982 3.212 5.508 4.7 8.315.64 1.207.704 2.718.786 4.334-.375.766-.505 1.287-.636 1.808l.639.143.241-1.706Zm86.53 254.003c.163-1.523.418-3.044.457-4.571.027-1.052-.244-2.112-.381-3.169-.189.986-.476 1.965-.541 2.958-.093 1.426-.024 2.862.465 4.782Zm-11.733-288.196c-1.639-.068-1.946.552-1.043 1.909.395.594.65 1.28.969 1.925.188-.805.394-1.606.553-2.416.059-.299.01-.619-.479-1.418Zm68.931-52.266-.567-4.319c-.085 1.492-.178 2.983-.24 4.475-.005.106.207.221.807-.156Zm-61.598 377.097c-.113-.113-.211-.255-.345-.328-.082-.045-.318.008-.32.032-.116 1.237-.254 2.476-.279 3.716-.005.26.415.528.64.792.101-.278.276-.552.29-.835.04-.798.014-1.599.014-3.377Zm-2.933 24.424-.568-3.34c-.084 1.166-.176 2.332-.236 3.499-.005.104.205.219.804-.159Zm2.933-38.101.568 3.34c.084-1.166.177-2.331.236-3.499.005-.104-.205-.219-.804.159ZM365.25 82.6l1.338-1.593c-.251-.12-.67-.395-.725-.336-.408.443-.744.953-.613 1.93Zm-263.011 41.032-.957-.956-.435 1.519c.627-.025 1.254-.05 1.392-.563Zm238.078 27.843.259 1.235c.211-.058.609-.151.606-.167-.102-.524-.241-1.04-.865-1.068Zm7.822-13.678-.586-.39c.032.293.065.586.586.39Zm51.82 152.403.587.39c-.033-.293-.065-.586-.587-.39ZM162.37 389.847l-.587-.391c.032.293.065.586.587.391Z" fill="#000"/></svg>