<svg width="534" height="534" viewBox="0 0 534 534" fill="none" xmlns="http://www.w3.org/2000/svg"><path d="M321.556 336.508c3.838 5.463 7.014 9.696 9.279 14.368 1.396 2.878 1.406 6.426 2.038 9.674-3.758-1.03-8.996-.858-10.997-3.316-6.18-7.591-10.653-16.555-16.715-24.26-4.062-5.161-9.698-9.088-14.63-13.567 1.023 6.151 1.96 12.316 3.091 18.446 1.191 6.45 2.815 12.827 3.803 19.304a721.03 721.03 0 0 1 4.11 31.709c.173 1.614-1.432 3.418-2.215 5.134-2.009-1.189-5.406-2.03-5.806-3.622-3.185-12.677-5.689-25.523-8.627-38.266-2.632-11.42-5.352-22.831-8.563-34.095-.453-1.591-3.907-2.328-5.972-3.46.529 1.95 1.321 3.872 1.526 5.856a82.43 82.43 0 0 1 .439 10.266c-.094 4.439 2.096 12.069-7.077 5.687-.302-.21-3.993 2.656-4.106 4.232-1.093 15.231-12.063 25.744-17.698 38.722-1.887 4.346-2.068 8.229-7.227 5.337-2.164-1.213-6.745-2.601-2.962-8.928 4.127-6.902 5.208-16.36 5.364-24.745.38-20.336-5.586-23.741-23.835-15.58-11.169 4.995-22.687 9.213-33.87 14.181-4.14 1.839-10.095 4.048-11.223 7.422-4.669 13.958-9.778 6.423-14.846.968-1.241-1.337-2.34-4.735-1.595-5.673 5.078-6.391 8.885-15.097 17.679-16.644 23.813-4.19 44.289-16.175 62.604-30.184 10.237-7.83 14.885-22.949 22.051-34.784-3.192-1.826-3.348-6.131-10.587-2.96-24.193 10.594-51.923 11.247-75.363 25.319-2.667 1.601-9.311-3.158-13.868-5.451-.343-.172.686-5.656 2.09-6.239 5.354-2.224 11.565-2.592 16.658-5.205 18.437-9.457 36.894-18.977 54.596-29.704 6.019-3.647 13.45-8.559 6.12-19.437-4.367-6.482-3.3-16.596-4.74-25.067-2.434-14.332-9.84-25.78-20.435-35.473-1.582-1.447-2.269-3.867-3.37-5.838 2.682-.261 6.568-1.781 7.838-.568 5.73 5.472 10.956 11.532 15.873 17.766 2.353 2.984 3.3 7.044 5.49 10.196 1.339 1.929 3.828 3.062 5.801 4.552.457-1.901 1.45-3.848 1.287-5.694-1.24-14.064-2.993-28.088-3.997-42.167-.627-8.796 2.702-2.742 6.241-2.006 8.757 1.821 9.162 7.199 10.745 14.431 4.293 19.622 10.21 38.891 15.579 58.274.682 2.463 1.93 4.769 2.916 7.147 1.973-1.968 5.028-3.611 5.735-5.959 3.367-11.192 5.158-22.952 9.491-33.714 1.869-4.643 5.608-7.228.376-11.855-3.224-2.85-5.487-6.785-8.181-10.232 6.266-1.712 12.537-4.652 18.793-4.619 3.14.016 6.736 5.081 9.287 8.489 7.33 9.797 1.517 19.933.048 29.897-1.185 8.051-2.677 16.059-4.184 24.059-.507 2.689-1.479 5.291-2.238 7.934 2.764.062 7.18 1.246 8.028.004 5.967-8.751 16.648-7.568 24.359-12.362 1.108-.688 2.224-1.362 3.337-2.042-1.066-.714-2.079-1.92-3.209-2.042-2.757-.3-5.725.468-8.32-.241-3.268-.893-6.25-2.83-9.356-4.316 2.447-1.654 4.793-4.555 7.357-4.762 17.673-1.423 35.388-2.366 53.106-3.012.695-.026 2.356 4.603 2.093 6.895-.219 1.908-3.785 5.168-3.864 5.11-8.47-6.227-13.913 1.169-20.049 4.458-17.704 9.489-35.27 19.234-52.931 28.804-2.253 1.221-5.954 1.351-6.902 3.108-2.921 5.409-4.833 11.362-7.136 17.104 5.546-1.024 12.547-.257 16.391-3.374 18.998-15.404 40.857-26.055 61.564-38.591 2.271-1.374 5.668-.893 8.543-1.273-.689 2.379-.613 5.68-2.192 6.986-10.298 8.514-20.789 16.82-31.542 24.755-10.608 7.828-21.711 14.986-32.368 22.752-3.997 2.913-7.351 6.073-1.953 11.63 6.586 6.78 6.396 15.936 5.637 24.724-.777 9.013 1.323 17.134 7.386 25.627Zm-57.57-24.042c-4.747-2.072-8.363-4.867-12.971 2.165-4.605 7.028-1.886 11.946.605 17.605.288.653 4.398.764 4.794.051 2.808-5.056 5.109-10.393 7.572-19.821Zm-16.748-58.537 2.944-2.941c-2.524-.266-5.227-1.218-7.525-.619-2.629.685-4.899 2.749-7.325 4.213 3.271.479 6.542.958 11.906-.653Zm48.15 56.446 5.635-1.446c-2.77-2.306-5.451-4.741-8.404-6.783-.469-.325-2.162 1.113-3.289 1.736 1.321 1.467 2.643 2.935 6.058 6.493Zm-27.215-81.534-1.107-5.286c-.903.246-2.608.646-2.595.714.434 2.241 1.034 4.449 3.702 4.572Zm2.093 39.722c.575-2.213 1.174-4.422 1.608-6.663.013-.068-1.691-.468-2.594-.714-.369 1.762-.738 3.524.986 7.377Z" fill="#000"/></svg>