<svg width="534" height="534" viewBox="0 0 534 534" fill="none" xmlns="http://www.w3.org/2000/svg"><path d="M336.96 224.67c-15.546 13.948-29.703 26.861-44.235 39.335-15.082 12.946-16.968 19.364-8.338 36.611 11.188 22.36 22.018 44.962 34.553 66.555 5.894 10.152 15.543 18.081 23.134 27.312 1.081 1.315.139 4.303.133 6.517-1.731-.682-3.903-.914-5.124-2.117-12.701-12.508-28.049-23.438-37.162-38.215-12.575-20.393-20.799-43.559-30.053-65.885-2.929-7.065-5.836-6.506-9.97-2.434-16.782 16.532-33.17 33.474-50.147 49.8-6.146 5.91-14.513 9.647-20.12 15.939-7.541 8.462-16.552 4.222-24.941 4.742-.703.043-3.528-7.428-2.446-10.302 3.454-9.17 4.667 1.316 7.371 1.447 2.337.115 6.136 2.575 6.71 1.875 22.617-27.611 55.217-44.424 77.637-72.262 4.335-5.382 5.782-7.673 2.238-15.74-11.83-26.931-20.111-55.402-30.848-82.853-5.432-13.888-10.217-27.663-9.256-42.613.209-3.257 4.352-6.261 6.683-9.382 1.153 2.558 2.455 5.06 3.436 7.683 6.354 16.989 15.945 33.598 18.088 51.116 2.539 20.743 14.517 36.807 20.036 55.72.842 2.883 2.302 5.581 3.41 8.391 5.295 13.434 5.246 13.398 17.319 1.171 10.903-11.042 21.956-21.935 32.847-32.99 5.529-5.612 12-10.17 11.029-20.223-.367-3.797 4.815-9.083 8.692-12.121 5.945-4.66 12.679-8.599 19.622-11.563 3.243-1.384 8.533-1.065 11.548.741 7.964 4.77-1.377 11.796-2.175 12.778-8.628 10.611-18.74 20.01-29.671 30.967Z" fill="#000"/></svg>