<svg width="534" height="534" viewBox="0 0 534 534" fill="none" xmlns="http://www.w3.org/2000/svg"><path d="M198.236 248.252c-10.044 10.624-20.578 18.433-33.224 23.359-3.338 1.3-6.476 3.525-9.145 5.944-1.144 1.037-1.119 3.671-1.005 5.542.024.386 3.166 1.334 4.246.787 10.343-5.229 20.058-2.705 30.83-.202 17.031 3.958 34.759 4.905 52.188 7.155 1.553.2 3.078.614 4.616.929-1.09 1.574-1.937 3.412-3.311 4.678-8.589 7.914-18.561 2.008-26.677.389-16.321-3.258-32.399-6.512-49.093-6.026-3.335.097-6.879.731-9.963-.153-4.732-1.356-9.148-3.813-13.698-5.803 2.193-4.098 3.432-9.328 6.732-12.113 22.488-18.98 47.315-34.46 73.738-47.389 21.27 1.208 16.838-16.834 19.199-27.814 3.912-18.187 4.746-37.025 7.308-55.529.393-2.833 3.098-5.345 4.733-8.006 1.702 2.01 3.661 3.856 5.068 6.054 16.189 25.303 31.082 51.199 41.122 79.772 6.5 18.497 13.353 20.844 32.841 15.506 15.033-4.118 30.188-7.873 45.451-11.002 2.919-.599 6.979 1.988 9.653 4.163.721.586-1.226 5.39-2.799 7.673-3.623 5.261-8.634 9.71-11.539 15.292-9.183 17.654-27.053 24.973-41.79 35.839-14.315 10.555-14.765 9.842-2.029 22.697 9.834 9.926 20.946 18.878 25.94 32.639 1.21 3.334 3.458 9.455 2.841 9.782-4.487 2.375-10.622 6.208-14.315 4.74-18.513-7.355-37.59-14.313-48.728-33.038-5.709-9.599-9.378-9.063-15.006.071-11.435 18.554-21.905 37.721-38.663 52.571-6.599 5.848-10.853 14.31-16.398 21.408-1.065 1.363-3.173 1.91-4.801 2.833-.597-1.397-1.802-2.842-1.698-4.184.952-12.348.966-24.928 3.537-36.951 3.23-15.108 8.569-29.769 13.087-44.595.897-2.943 1.99-5.871 3.405-8.59.586-1.126 3.052-2.578 3.301-2.356 1.33 1.189 2.731 2.732 3.149 4.394.526 2.092.998 4.967-.006 6.56-11.652 18.49-9.205 41.492-19.407 60.44-.603 1.12 1.079 3.471 1.698 5.249 1.497-1.053 3.372-1.817 4.435-3.204 17.541-22.869 34.788-45.939 46.767-72.403.634-1.401 1.028-2.912 1.534-4.371.607 1.873.826 4.026 1.922 5.545 1.241 1.72 4.08 4.426 4.83 4.034 9.398-4.91 14.642 2.857 17.188 8.032 7.531 15.304 21.873 20.729 35.279 27.796 1.455.768 3.738-.033 5.637-.106-.534-1.9-.513-4.29-1.689-5.623a2178.416 2178.416 0 0 0-31.792-35.258c-9.783-10.612-9.201-11.891 3.824-19.819 13.865-8.44 27.115-17.897 40.527-27.067 2.257-1.542 4.213-3.691 5.89-5.879 3.473-4.527 6.664-9.269 9.971-13.922-4.919.672-9.842 1.311-14.755 2.024-15.21 2.209-30.397 4.594-45.632 6.608-7.443.984-11.498-1.172-13.205-10.097-1.581-8.266-8.151-15.441-11.317-23.567-7.299-18.738-18.467-35.672-25.034-54.735-.652-1.891-3.023-3.189-4.596-4.763-.787 1.727-1.854 3.383-2.304 5.193a204.95 204.95 0 0 0-2.941 13.807c-4.495 25.411-8.887 50.839-13.44 76.239-.351 1.958-1.565 3.803-2.588 5.581-.535.931-1.528 1.599-2.315 2.386-.568-.854-1.586-1.686-1.627-2.564-.179-3.886-.573-7.863.025-11.664 1.292-8.227-1.648-11.645-8.759-8.62-8.994 3.824-17.61 8.537-27.223 13.702Z" fill="#000"/></svg>