<svg width="534" height="534" viewBox="0 0 534 534" fill="none" xmlns="http://www.w3.org/2000/svg"><path d="M77.1 177.922c-1.518-5.856-2.003-10.993-3.045-16.078-2.577-12.574-.165-25.482 4.349-38.068 2.693-7.508 9.095-5.118 13.43-7.526 3.14-1.745 7.542 6.039 4.307 10.83-7.81 11.567-3.324 25.056-7.06 37.382-2.09 6.899 2.25 16.472 5.471 24.09 6.906 16.327 15.52 31.851 26.927 45.609 11.702 14.115 27.446 21.167 44.836 25.346 7.686 1.847 15.332 3.879 22.936 6.036 1.492.423 2.711 1.808 4.055 2.749-1.73 1.054-3.529 3.11-5.179 2.997-9.584-.66-19.148-1.712-28.679-2.938-1.682-.217-3.279-2.883-4.742-2.733-21.835 2.232-32.51-14.601-43.617-27.725-11.586-13.693-19.486-30.535-28.625-46.217-2.276-3.907-3.115-8.648-5.364-13.754ZM369.491 293.154c8.149 9.131 15.845 17.274 22.858 25.967 6.152 7.626 15.195 9.7 23.505 11.816 10.145 2.584 21.005 2.375 31.557 3.365.494.047 1.059-.145 1.485.029 3.715 1.525 7.406 3.108 11.104 4.673-2.5 3.548-5.831 4.308-10.177 4.479-8.086.317-16.197 2.956-24.164 2.468-7.739-.475-16.311-2.025-22.771-5.958-20.903-12.724-38.978-28.839-50.528-50.931-3.602-6.89-6.197-14.367-8.635-21.778-1.59-4.83 2.157-7.053 6.136-7.702 6.05-.986 13.045 4.519 14.371 10.808 1.546 7.33 3.01 14.676 5.259 22.764ZM316.26 400.155c-6.322-3.991-11.322-7.788-15.935-12.007-16.298-14.901-31.737-30.292-38.658-52.374-1.123-3.583-1.171-5.132 1.228-6.261 1.526-.718 4.779-.123 5.927 1.114 4.221 4.543 8.06 9.475 11.725 14.492 7.514 10.285 13.79 21.706 22.508 30.817 8.833 9.23 19.67 16.707 30.246 24.069 8.329 5.799 17.404 10.635 27.796 12.265 1.207.189 2.104 2.343 3.145 3.586-1.034.752-2.15 2.243-3.089 2.139-7.085-.782-14.758-.467-21.042-3.228-8.04-3.533-14.953-9.624-23.851-14.612ZM241.289 208.601c3.498 0 5.726-.551 7.432.155 1.707.705 2.892 2.666 4.306 4.077-1.585.585-3.144 1.256-4.759 1.74-27.015 8.098-44.52-7.565-60.387-25.223-10.331-11.499-16.454-25.873-20.16-40.926-.889-3.607-.815-10.265.986-11.158 4.384-2.173 10.059-.852 12.693 4.244 3.379 6.539 6.04 13.454 8.891 20.257 3.396 8.102 5.714 16.327 10.899 24.045 7.825 11.649 17.144 18.376 30.834 19.896 2.663.296 5.181 1.895 9.265 2.893Z" fill="#000"/></svg>