<svg width="534" height="534" viewBox="0 0 534 534" fill="none" xmlns="http://www.w3.org/2000/svg"><path d="M237.396 108.969c-2.963-.063-3.263-.579-2.724-3.656.246-1.4.024-2.877.067-4.318.035-1.16-.416-2.472.911-3.291.153-.095.368-.394.33-.45-1.8-2.742.372-5.42.145-8.157-.174-2.082 1.055-2.627 2.832-1.575.528.312 1.141.792 1.669.739 2.694-.272 4.899.914 7.156 2.085 4.751 2.464 9.566 4.803 14.29 7.316 2.562 1.362 4.88 3.216 7.505 4.417 3.281 1.5 6.098 3.563 9.027 5.616 5.679 3.98 10.284 9.186 15.86 13.195 2.062 1.482 3.827 3.663 6.592 4.141.358.062.639.589.947.909 2.353 2.437 5.098 3.309 8.866 3.226 2.435-.053 4.878.336 7.32.456 2.79.137 5.513-.186 8.139-1.252.571-.233 1.31-.031 1.969-.075 3.129-.212 6.277-.297 9.378-.719 1.703-.232 3.324-1.054 4.99-1.588.493-.158 1.046-.416 1.514-.327 3.751.718 7.214-.826 10.766-1.445 3.176-.553 6.383-1.075 9.516-1.905.411-.109.998.098 1.272-.125 2.238-1.825 4.958-1.49 7.529-2.027 3.934-.82 7.84-1.004 11.797-1.289 2.436-.175 3.703 1.88 5.781 2.132.024.002.077.574-.04.798-1.689 3.253-3.714 6.261-6.594 8.59-.635.514-1.434.819-2.142 1.247-.448.271-1.234.583-1.24.89-.052 2.364-2.079 3.256-3.388 4.601-3.334 3.426-6.79 6.739-9.376 10.799-1.264 1.983-2.336 4.092-4.255 5.565-.943 4.376-5.385 6.691-6.467 10.984-1.768 1.143-1.727 3.301-2.736 4.861-1.028 1.59-2.262 3.049-3.265 4.653-1.864 2.981-3.838 5.911-5.184 9.18-.589 1.431.174 2.397 1.928 2.439 2.993.073 6.032-.261 8.819 1.243 1.893-.973 3.598-.687 5.125.771 1.769-1.273 3.883-.163 5.681-.772 2.67-.904 5.359-1.371 8.149-1.205 1.034.062 2.047.441 3.083.568.869.107 1.769.15 2.636.053 1.14-.128 2.257-.58 3.392-.611 2.67-.074 5.216-.569 7.658-1.651.467-.207 1.004-.368 1.507-.363 3.005.029 5.895-.534 8.821-1.2 1.551-.353 3.328.421 5.011.492 3.105.13 6.123-.346 9.126-1.25 1.81-.546 3.791-.584 5.704-.703 1.77-.11 3.553-.023 5.329-.023 1.777 0 3.557-.062 5.33.018 1.605.073 3.481.381 4.737-.2 2.262-1.046 4.117.293 6.154.204 2.217-.097 4.441-.022 6.662-.022.444 0 .889.016 1.332-.003 1.75-.076 2.732.442 4.145 1.433.703.493 1.823.376 2.745.578.476.105 1.206.192 1.327.488.162.398.021 1.172-.29 1.474-4.394 4.262-9.049 8.278-13.189 12.769-2.342 2.541-5.479 4.214-7.242 7.473-1.053 1.948-3.937 2.895-5.03 4.837-1.201 2.135-3.366 3.175-4.493 5.074-1.151 1.94-2.348 3.549-4.223 4.903-1.705 1.231-2.867 3.205-4.318 4.808-.335.369-.857.581-1.318.818-.455.234-1.089.281-1.388.63-2.152 2.514-4.249 5.074-6.337 7.641-.597.734-1.021 1.622-1.677 2.29-.9.916-2.225 1.392-2.465 2.948-.069.448-.919 1.132-1.365 1.099-1.512-.115-1.148.851-1.261 1.688-.125.92-.132 2.144-.707 2.665-2.609 2.36-3.262 5.819-5.123 8.578-.755 1.119-1.356 2.345-2.145 3.437-.986 1.366-1.003 2.551.313 3.649 4.512 3.763 9.369 6.945 15.041 8.724.678.213 1.272.68 1.94.941 8.037 3.139 15.562 7.424 23.663 10.443 3.064 1.142 5.798 3.141 8.767 4.573 3.511 1.694 7.315 2.867 10.618 4.88 3.224 1.964 6.664 3.248 10.108 4.598 2.964 1.161 5.984 2.183 9.003 3.198 1.565.526 3.18.903 4.773 1.347-.131.377-.246.761-.399 1.128-.158.379-.353.743-.532 1.113.386-.08.792-.278 1.156-.218.919.153 1.809.477 2.728.629 1.012.168 1.022.658.482 1.3-1.623 1.926-3.056 3.872-6.213 3.48-2.288-.285-4.691.331-7.039.581-.38.041-1.025.213-1.063.415-.263 1.402-1.208 1.482-2.371 1.653-.619.091-1.179.932-1.658 1.522-.583.718-1.104 1.324-1.84.225-.566-.844-1.028-.171-1.149.193-.46 1.383-1.403 1.759-2.738 2.202-1.008.335-1.591 1.902-2.42 2.872-.159.188-.586.227-.88.207-2.755-.184-3.264.082-4.349 2.068-.15.276-.948.545-1.113.41-1.161-.953-1.818-.042-2.813.396-1.787.787-3.052 2.664-5.3 2.534-.414-.025-.891.514-1.288.852-1.286 1.095-2.133 2.907-4.334 2.48-.261-.051-.684.491-.962.818-2.511 2.953-5.775 4.774-9.144 6.592-2.763 1.491-5.019 3.901-7.727 5.524-3.702 2.219-6.208 5.832-9.657 8.133-2.564 1.711-4.162 4.264-6.749 5.916-2.014 1.287-3.244 3.968-3.423 6.447-.226 3.119-1.5 6.169-.245 9.494.55 1.455.752 3.616-.448 5.378-.362.532-.244 1.564-.041 2.28 1.014 3.57.221 7.397 1.766 10.93.695 1.591.583 3.529.874 5.303.66 4.022.923 8.113 2.449 11.98.567 1.437.765 3.077.836 4.638.088 1.916 1.06 3.371 2.052 4.827 1.791 2.629 1.248 5.583 1.28 8.454.002.183-.583.464-.93.544-3.302.76-5.193-1.717-6.2-3.843-1.543-3.252-3.899-5.572-6.307-7.994-.466-.469-1.233-.66-.66-1.956.572-1.294-1.071-1.005-1.682-.615-.84.537-.982.72-1.585-.39-.912-1.678-2.458-2.783-4.515-3.258-1.465-.339-2.864-1.003-4.122-2.174-2.064-1.92-4.554-3.384-6.891-5.003-.229-.159-.64-.033-.959-.086-2.167-.361-4.333-.439-6.127-2.208-.833-.821-2.517-.789-3.823-1.112-.412-.102-1.028.065-1.246-.172-2.283-2.481-5.956-2.521-8.371-4.856-.699-.675-2.177-.573-3.308-.766-1.874-.32-3.781-.481-5.628-.907-2.415-.557-4.838-1.16-7.159-2.012-2.485-.913-2.967-.693-3.085 1.951-.191 4.242-.239 8.504-.732 12.713-.297 2.538-1.124 4.996-.103 7.528-1.26 1.226-1.214 2.776-1.173 4.373.065 2.554.04 5.11.013 7.665-.066 6.067-1.447 11.9-3.399 17.591-.31.903-1.535 2.025-2.392 2.073-1.093.062-2.655-.56-3.29-1.422-1.803-2.446-3.801-4.382-6.512-5.935-1.948-1.117-3.559-2.946-5.752-3.863-.285-.119-.45-.562-.637-.876-.809-1.357-1.802-2.304-3.54-2.463-3.698-.339-6.828-1.721-8.455-5.381-.39-.878-.994-1.486-1.995-1.236-1.629.408-2.398-.748-3.319-1.665-.459-.457-.835-1.141-1.386-1.339-4.795-1.717-8.246-5.39-12.227-8.287-1.032-.752-2.068-1.511-3.013-2.366-1.208-1.093-2.461-2.105-2.108-4.15.259-1.499-.532-.302-.982-.247-1.07.129-2.15.183-2.945-.914-1.044-1.44-3.058-2.2-2.762-4.571.075-.605-.776-1.619-1.73-.39-.137.176-.886.138-1.121-.066-2.221-1.923-4.436-3.857-6.553-5.892-.712-.685-1.118-.749-1.68.035-.192.267-.653.462-.671.714-.265 3.582-2.423 6.599-2.911 10.159-.328 2.4-1.326 4.766-2.349 6.998-1.031 2.249-2.393 4.36-3.767 6.427-.366.552-.441 2.662-2.032.962-.586.696-1.233 1.352-1.737 2.102-.334.499-.454 1.14-.693 1.707-.102.245-.263.465-.397.696-.088-.297-.156-.602-.269-.889-.125-.318-.29-.621-.438-.931-.074.303-.221.609-.207.907.025.524.03 1.112.277 1.538.146.251.969.454 1.096.317.848-.92 2.276-1.494 1.992-3.183-.044-.258.565-.626.872-.943.137.446.466.937.373 1.329-.211.89-.499 1.815-.985 2.579-2.465 3.877-5.02 7.697-7.511 11.557-2.028 3.143-4.639 5.875-6.195 9.37-.672 1.512-2.109 2.682-3.189 4.014-.265.327-.565.652-.728 1.031-1.352 3.138-3.894 3.687-6.371 1.33-1.113-1.058-2.247-2.108-3.233-3.278a4.801 4.801 0 0 1-1.031-2.217c-.252-1.543-.151-1.511-1.634-1.224-.785.151-1.595.479-1.907-.948-.15-.686-1.477-1.074-2.201-1.681-3.024-2.536-5.603-5.467-8.029-8.589-1.713-2.203-4.275-3.753-5.532-6.336-1.842-3.785-5.344-6.392-7.212-10.019-1.599-3.106-4.301-5.409-5.579-8.675-.259-.663-1.057-1.116-1.607-1.666-1.413-1.414-2.869-2.789-4.23-4.251-2.042-2.193-2.783-2.309-5.026-.451-1.865 1.546-3.653 3.189-6.201 3.545-.389.054-.821.25-1.109.515-3.259 2.996-7.351 4.077-11.432 5.412-4.174 1.365-8.224 3.245-12.109 5.312-2.947 1.568-5.549 3.784-8.306 5.709-.429.3-.832.766-1.304.858-3.384.659-5.925 2.905-8.78 4.558a38.373 38.373 0 0 1-2.727 1.461c-2.127 1.013-2.136.997-3.063-1.232-.078-.189-.051-.503-.18-.579-2.408-1.429-1.61-3.8-1.855-5.919-.458-3.959.786-7.524 1.982-11.189 1.465-4.49 3.905-8.416 6.342-12.374.595-.967 1.171-1.955 1.641-2.986.693-1.517 1.527-2.809 3.359-3.047.199-.026.506-.083.562-.212 1.19-2.75 4.047-4.625 4.153-7.949.02-.621.057-1.341.371-1.833 1.018-1.596 2.16-3.114 3.269-4.651 2.05-2.84 2.823-6.169 3.685-9.472.365-1.396.872-2.753 1.252-4.145.584-2.141-.89-4.228-3.148-4.382-3.903-.265-7.808-.526-11.717-.644-1.615-.049-3.146-.579-4.923.485-1.405.84-3.648.138-5.431.527-1.687.368-3.425.399-5.072 1.465-1.291.836-3.28.605-4.963.817-1.904.242-3.808.531-5.721.65-2.289.143-4.465-.443-6.909.49-1.978.755-4.733.108-6.95-.557-2.827-.849-5.614-.457-8.414-.556-3.116-.11-3.742-.845-4.02-4.01-.459-5.233.922-9.846 4.031-14.013.893-1.197 1.584-2.441 3.357-2.743 1.097-.187 2.093-1.111 2.031-2.597-.006-.155.71-.34 1.092-.511.497 1.928 1.246.814 1.468-.006.357-1.318 1.402-1.861 2.233-2.708 1.665-1.699 3.164-3.562 4.743-5.348.367-.415.713-.991 1.185-1.15 4.335-1.461 5.542-5.963 8.55-8.702.65-.592 1.182-1.498 1.939-1.752 1.572-.526 1.684-3.108 3.863-2.612-.105-.458-.063-1.18-.337-1.332-2.246-1.244-3.868-3.902-7-3.203-.212.047-.576.096-.646-.007-1.78-2.63-4.963-1.973-7.39-3.115-4.08-1.92-8.517-3.03-12.39-5.493-1.182-.752-2.455-1.618-4.089-1.423-.54.065-1.17-.347-1.713-.629-3.453-1.795-6.597-4.016-9.749-6.318-3.273-2.39-5.983-5.317-9.08-7.82-2.556-2.066-5.523-3.729-8.524-5.099-2.077-.948-3.497-2.453-5.006-3.956-.274-.273-.444-1.091-.255-1.313.918-1.083 1.967-2.057 2.985-3.053.368-.36.782-.673 1.174-1.008-.071.458-.183.915-.194 1.374-.004.177.223.513.344.513.643-.001 1.371.089 1.915-.174 1.948-.94 3.785-2.119 5.76-2.992 1.258-.557 2.592-1.649 4.12-.227.26.241 1.322-.325 1.986-.588 3.509-1.391 6.925-2.922 10.896-2.765 1.387.055 2.826-1.106 4.234-1.726 1.221-.538 2.413-1.147 3.653-1.637a385.014 385.014 0 0 1 8.63-3.294c.775-.285 1.675-.259 2.419-.595 1.593-.72 3.315-.776 4.931-1.847 2.649-1.754 5.859-2.602 9.138-2.811.581-.037 1.146-.3 1.719-.459-.348-.522-.67-1.064-1.052-1.56-.269-.349-.62-.635-.934-.95-2.421-2.421-4.941-4.753-7.227-7.296-1.543-1.716-2.712-3.762-4.13-5.597-.771-.996-1.607-1.998-2.598-2.758-2.746-2.105-4.963-4.624-6.742-7.589-.761-1.269-1.718-2.459-2.757-3.518-3.371-3.44-6.025-7.391-8.57-11.45-1.397-2.229-3.054-4.296-4.605-6.429-2.979-4.099-5.971-8.189-8.943-12.293-.363-.501-.733-1.034-.929-1.611-.431-1.271.836-2.947 1.873-2.406 2.261 1.18 4.57.543 6.864.609 4.048.117 7.624 1.925 11.305 3.278 1.934.711 3.987 1.311 5.407 3.178.46.603 1.996.492 3.045.522 3.731.105 7.123 2.015 10.974 1.771 2.991-.19 6.027.466 9.048.539 1.456.035 3.059.584 4.407-.599.188-.165.717-.147.968-.003 2.335 1.335 4.923 1.064 7.441 1.411 3.037.417 6.019 1.254 9.123 1.236.777-.004 1.575-.113 2.328.022 1.823.327 1.37.368 1.39-1.42.038-3.201-2.667-5.188-3.043-8.115-.024-.184-.195-.394-.357-.51-2.737-1.955-4.128-4.941-5.055-7.896-.892-2.844-3.08-5.332-2.6-8.615.143-.98.41-2.259-1.251-2.408-.828-2.981-2.915-5.564-2.733-8.872.085-1.551-.108-3.122.051-4.661.143-1.389-.041-2.746-.044-4.117-.002-1.287.178-2.52-1.058-3.605-.655-.575-.757-1.891-.91-2.902-.303-2.007-.473-4.033-.685-6.053-.035-.33-.087-.692.008-.995 1.024-3.266-.392-6.514-.065-9.788.109-1.097-.843-2.407-.523-3.354.738-2.185.087-3.937-.671-5.901-.379-.981-.056-2.382.312-3.47.701-2.069.845-1.988 2.572-.748.635.455 1.551.522 2.343.752 1.091.317 2.435.32 3.237.983 4.227 3.492 9.122 5.966 13.533 9.126 3.085 2.209 6.418 3.939 9.65 5.784 4.125 2.355 7.399 5.868 11.694 7.915 2.322 1.107 4.473 2.561 6.756 3.745 2.032 1.055 4.096 2.491 6.141 3.745 4.108 2.52 8.204 5.037 12.015 8.003.521.406 1.334.437 2.012.642-.128-.758-.155-1.552-.41-2.265-.344-.962-1.12-1.827-1.254-2.796-.262-1.902 1.223-3.845-.048-5.777-.05-.077-.055-.265.001-.322 1.702-1.751.324-3.47.035-5.241-.236-1.449-1.175-2.852-.122-4.491.429-.667-.006-1.905-.087-2.881-.152-1.82-.879-3.799-.399-5.427 1.608-5.463 1.961-11.14 3.26-16.638.247-1.045.76-2.022 1.969-2.486.72-.277 1.093-.561 1.361.453.243.921.947 1.455 1.966 1.258 4.377-.845 7.639 1.912 11.17 3.597 2.983 1.422 5.619 3.566 8.591 5.019 3.127 1.53 5.966 3.396 8.726 5.493 3.682 2.799 7.557 5.345 11.301 8.065.888.644 1.564 1.575 2.389 2.316.18.162.678.203.859.069.197-.147.36-.642.258-.846-1.18-2.361-1.653-4.878-2.151-7.46-.88-4.558-.59-9.014.218-13.493.055-.306.731-.472 1.065-.763.332-.291.598-.658 1.059-1.157.183-.373.199-.579.216-.785l-.382.618Zm-42.647 296.954.618.049c-.206-.128-.412-.255-.618-.716l-.617-.049c.206.128.412.255.617.716Zm49.643-263.626.049-.618c-.127.206-.255.412-.715.618l-.049.618c.127-.206.255-.412.715-.618Zm163.255 94.652.266-1.066-.435-.098c-.055.388-.11.776-.497 1.164l-.049.618c.127-.206.254-.412.715-.618Zm-24.322 160.308c-.222-.111-.444-.222-.666-.666l-1.95-.049c.545.127 1.089.258 1.635.379.101.022.21.003.315.336.222.112.444.223.666.667l1.066.267.098-.436c-.388-.055-.776-.109-1.164-.498ZM367.666 143.63l-.266 1.067.435.097c.055-.388.11-.776.497-1.164l.049-.618c-.127.206-.254.412-.715.618Zm-289.86 59.324-.049 1.951c.127-.545.258-1.09.379-1.636.022-.1.003-.21.336-.315l.049-.617c-.127.205-.255.411-.715.617Zm162.921-59.657-.617-.049c.206.127.411.255.617.715.524.334 1.043.675 1.583.98.034.019.228-.247.348-.381-.643-.311-1.287-.621-1.931-1.265Zm-51.975 253.96-.617-.048c.206.127.412.254.617.715l.228 1.561c.234-.164.689-.38.665-.482-.116-.488-.355-.948-.574-1.407-.02-.042-.208-.005-.319-.339Zm206.567 6-.617-.049c.206.127.412.254.617.715.667.333 1.333.667 1.999 1.333l.618.049c-.206-.127-.412-.255-.618-.715-.666-.334-1.332-.667-1.999-1.333Zm-79.961 19.33-1.066-.267-.098.436c.388.055.776.109 1.164.497 0 .426-.05.86.016 1.275.054.344.245.667.376 1 .091-.282.309-.593.25-.838-.147-.606-.42-1.182-.642-2.103ZM124.117 158.628l-.618-.049c.206.127.412.255.618.715l-.632 1.368 1.533.299c-.078-.492-.099-1.005-.26-1.468-.078-.224-.419-.358-.641-.865Zm15.326 41.993c-.222.35-.566.679-.632 1.056-.067.378.143.805.231 1.21.313-.268.889-.54.885-.802-.011-.602-.305-1.198-.484-2.13.084-1.513-1.011-1.004-1.714-.902-.337.049-.607.557-.907.857.555.126 1.106.276 1.667.369.31.051.635.009.954.342Zm234.887-64.323c-.376.153-.832.22-1.107.48-.412.388-.697.911-1.036 1.376.673-.133 1.428-.126 1.988-.453.325-.19.336-.917.821-1.403l.905-1.094c-.173-.08-.486-.247-.499-.226-.267.427-.5.876-1.072 1.32ZM253.721 400.257c.333-1.524.676-3.045.987-4.573.037-.18-.099-.395-.154-.593-.167.152-.363.282-.495.461-1.067 1.445-.57 3.118-1.004 4.705l-.049.618c.127-.206.255-.412.715-.618Zm151.594 12.331-.933-2.265c-.133.121-.37.231-.384.364-.111 1.056.148 1.922 1.317 2.568.604 1.049 1.191 2.109 1.829 3.137.116.187.443.243.672.359.037-.294.216-.705.087-.865-.825-1.019-1.718-1.983-2.588-3.298ZM240.394 132.299c.111-1.283.245-2.565.314-3.85.014-.255-.222-.525-.343-.787-.101.29-.116.682-.318.854-1.515 1.285.567 2.527-.319 3.783l-.049.617c.127-.206.255-.411.715-.617Zm158.257 234.963.618.049c-.206-.127-.412-.255-.618-.715 0-.886.054-1.777-.02-2.656-.044-.525-.287-1.034-.44-1.55-.291.544-.909 1.163-.806 1.617.232 1.017.822 1.953 1.266 3.255ZM238.062 105.303c-.479 1.651 1.435 2.238 1.602 3.602.132-.121.401-.297.377-.356a69.428 69.428 0 0 0-1.435-3.343c-.062-.134-.357-.16-.544-.57.444-1.459.925-2.908 1.306-4.384.093-.357-.143-.8-.227-1.202-.23.4-.492.784-.684 1.201-.553 1.194-1.121 2.384-1.601 3.608-.505 1.288.476 1.093 1.206 1.444Zm113.612 60.99c-.685.908-1.376 1.811-2.054 2.724-.841 1.132.237 1.592.881 1.862.318.132.99-.584 1.502-.916-1.704-1.225.912-2.446.337-3.67l.267-1.066-.436-.098c-.055.388-.109.776-.497 1.164Zm46.977 209.634.182.849.436-.133c-.206-.35-.412-.699-.618-1.382 1.733-1.742-.587-3.954.666-5.752-.31-.193-.843-.601-.895-.547-.419.437-.859.917-1.074 1.469-.241.619.675 3.827 1.303 5.496Zm-64.969 16.331c-.952.614-1.038 1.537-1.014 2.567.049 2.096-.042 4.196.053 6.289.026.559.518 1.096.796 1.643.166-.482.467-.963.477-1.448.059-3.016-.485-6.034.355-9.051l.053-2.613-.87.098c.161.838.322 1.677.15 2.515Zm-181.579 8.999c3.299-1.444 6.679-2.73 9.877-4.371 4.429-2.275 9.097-4.16 12.859-7.625 1.029-.948 2.455-1.599 3.979-.37.67.539 1.559 1.213 2.574.407.745-.592 1.526-1.139 2.291-1.706.556.755 1.053 1.565 1.683 2.253 1.05 1.145 2.222 2.178 3.277 3.318 2.146 2.32 4.536 4.483 6.3 7.068 2.647 3.879 4.79 8.082 7.749 11.788 1.558 1.951 2.407 4.406 4.281 6.235 1.076 1.049 1.768 2.564 2.403 3.973.769 1.704 4.05 5.767 5.513 6.713 1.245.804 2.4 1.754 3.552 2.692 2.58 2.102 5.106 4.271 7.728 6.318.382.298 1.517.326 1.717.051 1.288-1.764 2.329-3.708 3.609-5.479 2.049-2.839 4.216-5.592 6.352-8.367.154-.201.46-.283.695-.421.062.308.278.703.161.908-.671 1.175-1.294 2.418-2.187 3.41-.661.734-.112 1.004.249 1.174.347.164 1.212.066 1.244-.066.58-2.372 3.185-4.343 1.478-7.201-.136-.228.125-.788.332-1.11 2.565-4.009 4.673-8.257 6.569-12.611.86-1.975 1.804-3.966 2.246-6.049.271-1.277.602-2.407 1.29-3.485.329-.515.686-1.087.771-1.67.293-2.008.539-4.029.679-6.053.272-3.903.515-7.811.651-11.721.048-1.385.604-2.454 1.467-3.39.395-.429 1.048-.621 1.584-.92.104.513.165 1.039.322 1.534.192.612-.628 1.764.743 1.733.669-.015 1.65.69 2.009-.885.265-1.164 1.424-1.569 2.43-.23.966 1.285 1.924 2.605 3.072 3.717 2.654 2.569 5.416 5.028 8.144 7.52 2.386 2.181 4.823 4.308 7.169 6.531 2.067 1.959 4.04 4.019 6.055 6.034 1.177 1.178 2.164 2.747 3.579 3.44 1.981.971 3.651 2.005 4.617 4.044.136.286.988.575 1.044.502.807-1.043 1.169-.116 1.719.289 1.438 1.059 2.903 2.865 4.39 2.898 2.64.057 3.59 1.921 5.026 3.275 1.325 1.25 3.814.637 4.448 2.895.016.058.447-.061.635.019 1.135.477 2.335.864 3.364 1.516 1.864 1.181 3.476 2.884 5.466 3.71 2.226.924 4.3 1.997 6.291 3.32 1.693 1.125 2.795.819 3.039-1.072.589-4.574 1.12-9.171 1.308-13.774.105-2.59-.555-5.202-.618-7.833-.046-1.93.035-3.854.028-5.78-.016-4.11.047-8.221-.023-12.33-.047-2.802-.139-5.58 1.35-8.114.19-.322.364-.654.546-.982.263.358.609.681.773 1.08.826 2.003 1.447 2.127 2.806.448.776-.959 1.402-1.183 2.357-.109.7.787 1.631 1.366 2.886.644.335-.193 1.169.293 1.676.62 1.676 1.081 3.44 1.599 5.46 1.357.552-.066 1.2.285 1.743.564 6.686 3.425 14.175 4.935 20.721 8.696.168.096.433.039.651.029 3.611-.154 6.647 1.758 9.685 3.151 5.707 2.616 11.121 5.871 16.668 8.84.529.283 1.132.429 1.701.638.099-.626.348-1.271.27-1.874-.396-3.042-.521-6.182-1.409-9.082-1.466-4.787-1.361-9.794-2.553-14.595-.276-1.116.516-2.445-.663-3.392 2.216-2.912-1.588-6.247.629-9.181.14-.186.012-.641-.092-.935-1.819-5.139.175-9.348 3.393-13.121 2.532-2.967 5.565-5.391 8.805-7.619 3.422-2.352 6.562-5.117 9.803-7.731.828-.668 1.322-.799 1.469.495.019.165.476.359.751.402.837.129 4.181-3.163 4.177-4.032-.003-.428-.055-1.074.186-1.251 1.944-1.426 3.911-2.831 5.953-4.111 2.622-1.643 4.741-4.382 8.371-3.962.298.034.913-.465.954-.773.339-2.564 2.583-2.963 4.337-3.827 2.483-1.224 5.157-2.088 7.559-3.443 2.37-1.335 4.484-3.117 6.744-4.655 4.293-2.923 8.507-5.98 13.329-8.031.788-.335 1.5-.847 2.246-1.277-.848-.499-1.687-1.014-2.549-1.489-.356-.197-.75-.413-1.142-.445-3.396-.283-6.351-1.896-9.253-3.395-4.574-2.362-9.089-4.815-13.92-6.626-.864-.324-1.998-.489-2.497-1.127-2.406-3.075-6.12-3.475-9.348-4.863-3.212-1.382-6.507-2.5-9.531-4.4-1.391-.875-2.777-2.031-4.678-2.378-2.38-.435-4.557-2.109-6.929-2.418-1.903-.248-2.94-1.621-4.495-2.104-3.475-1.079-6.366-3.362-9.781-4.551-1.255-.436-2.596-.883-3.607-1.69-.913-.729-1.685-1.352-2.887-1.125-2.449.464-2.467-2.289-4.008-3.024.476-1.135.663-2.581 1.484-3.348 2.466-2.303 4.502-4.967 5.686-8.007.551-1.415 1.236-2.781 2.115-3.752 1.878-2.076 3.195-4.454 4.63-6.786.383-.621.732-1.273 1.187-1.838 1.147-1.425 2.379-2.782 3.515-4.216 1.448-1.83 2.663-3.878 4.286-5.53 2.834-2.884 6.025-5.418 8.835-8.322 2.307-2.384 4.093-5.279 6.44-7.616 3.884-3.868 6.981-8.408 11.148-12.067 4.274-3.753 7.929-8.212 11.856-12.361.076-.081.147-.17.237-.234 1.014-.718.03-1.087-.338-1.38-.283-.225-.822-.166-1.247-.168-3.519-.017-7.044.105-10.2-1.946-.47-.305-1.544-.335-1.92-.009-1.266 1.095-2.258-.614-3.516-.116-1.07.424-2.427.584-3.545.342-5.267-1.14-10.308.477-15.423 1.099-1.294.158-2.53 1.22-3.783 1.2-1.759-.027-3.756.931-5.332-.744-.15-.159-.804-.154-.891-.016-1.07 1.703-3.173.116-4.344 1.403-3.757-1.052-7.417.438-10.95 1.034-3.145.53-6.484.925-9.475 1.943-2.119.721-3.922-.175-5.938.325-3.104.771-6.441.645-9.684.792-2.216.101-4.443-.049-6.66.049-1.026.046-2.444.95-2.984.541-1.999-1.513-3.7.119-5.513.138-.467.005-1.093.718-1.368.574-1.874-.981-3.631.131-5.412.248-2.523.164-3.456-.373-3.546-2.748-.055-1.451-.054-2.79 1.309-3.821.622-.47 1.164-1.318 1.323-2.082.914-4.39 4.283-7.498 5.89-11.567 1.126-2.854 3.183-5.4 5.109-7.862 1.951-2.492 2.854-5.596 5.007-7.952.83-.908 1.321-2.116 2.033-3.141 2.023-2.91 3.694-6.09 5.753-8.913 3.241-4.441 7.194-8.37 10.932-12.436 2.103-2.288 4.395-4.401 6.564-6.629.345-.353.493-.898.733-1.354-.505-.116-1.003-.28-1.514-.341-3.006-.36-6.115.714-9.064-.647-.155-.071-.64.2-.728.413-1.093 2.638-2.88 2.767-5.171 1.6-.361-.183-1.178.005-1.48.316-1.915 1.969-4.761 1.516-7.002 2.758-1.101.61-3.007.222-4.376-.234-1.461-.486-2.592-.659-3.727.505-.276.283-.694.549-1.073.592-2.346.266-4.696.53-7.052.667-1.73.101-3.545-.295-4.725 1.554-.159.249-.873.178-1.332.191-.456.014-.922-.12-1.371-.073-1.876.2-3.555 1.37-5.309 1.58-4.424.53-8.911.519-13.37.778-3.02.175-6.039-.328-9.085.545-1.378.396-3.143.533-4.745-.465-.705-.439-1.919-.475-3.077-.168-2.392.634-4.562-.399-6.566-1.718-.514-.339-1.061-.707-1.644-.842-1.022-.236-1.84-.676-3.195-.342-1.408.346-3.291-1.227-4.942-2.01-.025-.012.252-.959.386-.958.733.002 1.469.147 2.198.276 1.505.269 3.163 1.096 4.474.715 2.045-.596 3.812-.865 5.671.28.43.265.935.471 1.429.548.345.054.73-.16 1.097-.254-.193-.316-.31-.782-.592-.924-1.465-.74-3.04-1.281-4.451-2.107-3.488-2.039-6.131-5.109-9.18-7.682-3.273-2.763-5.998-6.207-9.878-8.247-.459-.242-1.048-.607-1.183-1.037-.963-3.092-4.163-3.063-6.309-4.097-2.538-1.223-5.234-2.011-7.304-4.073-.353-.352-.86-.6-1.34-.765-3.308-1.135-6.648-2.18-9.922-3.401-.525-.197-.804-1.12-1.14-1.74-.265-.487-.444-1.023-.661-1.537-.227.504-.466 1.004-.678 1.514-.236.57-.588 1.134-.645 1.725-.276 2.829-.733 5.676-.624 8.498.136 3.492-.692 6.958-.116 10.456.08.491-.518 1.089-.787 1.644-.179.37-.58.936-.458 1.1 1.448 1.952.32 4.427 1.774 6.653 1.531 2.343 1.715 5.629 1.535 8.658-.045.746-.173 1.944.209 2.184 2.1 1.324 1.683 3.338 1.794 5.259.048.827.281 1.649.481 2.461.32 1.294-.781 3.711-2.018 4.358-.904.472-3.597.132-4.259-.658-1.23-1.468-2.313-3.061-3.565-4.51-2.627-3.039-5.019-6.384-8.068-8.933-3.926-3.28-8.253-6.164-12.712-8.678-1.719-.969-3.181-2.33-5.028-3.096a62.903 62.903 0 0 1-6.106-2.947c-2.273-1.245-4.411-2.739-6.698-3.955-1.626-.864-2.34-.442-2.68 1.323-.582 3.015-1.788 5.94-1.353 9.111.042.306.004.665-.121.944-1.068 2.396-1.323 4.912-1.205 7.501.238 5.239.42 10.481.681 15.719.168 3.354.429 6.704.666 10.054.021.3.126.621.279.88 1.006 1.703-.082 2.89-1.154 3.851-1.164 1.043-2.637 1.296-4 .196-.767-.619-1.416-1.381-2.171-2.017-2.628-2.216-5.214-4.491-7.947-6.572-1.63-1.241-3.619-1.985-4.656-3.972-.222-.424-1.061-.588-1.65-.74-.614-.159-1.4.046-1.886-.262-2.739-1.736-5.601-3.357-8.043-5.458-1.86-1.601-3.81-2.544-6.131-2.976-.5-.093-1.032-.232-1.453-.5-4.022-2.553-8.173-4.861-12.363-7.136-5.384-2.923-10.457-6.421-15.641-9.707-.272-.172-.349-.67-.49-1.027-.113-.287-.184-.59-.274-.886-.132.236-.288.462-.392.71-.237.568-.582 1.132-.65 1.724-.53 4.612.362 13.606 1.445 18.042.38 1.554.08 3.28.056 4.926-.014.968-.466 2.582-.09 2.796 2.236 1.273 1.33 3.561 1.767 5.269.564 2.205.262 4.526 1.3 6.819.878 1.94.209 4.472 1.49 6.493.496.782 1.304 1.642 1.272 2.438-.168 4.218 3.748 6.708 4.314 10.584.051.352.675.585.894.955 1.638 2.761 3.384 5.472 4.801 8.344.809 1.64.793 3.702 1.662 5.294.649 1.19 1.212 1.797.549 3.362-.484 1.145-.592 2.411-1.629 3.331-.675.6-1.005.92-2.146.39-1.563-.727-3.509-.625-5.29-.889-.834-.123-1.673-.229-2.494-.414-3.193-.72-6.51-.796-9.677-.63-2.093.11-3.556-.185-5.03-1.409-.921-.765-1.89-2.791-2.652.155-.056.214-1.03.394-1.474.257-.673-.208-1.263-.698-1.877-1.087-1.362-.865-2.487-1.472-4.457-1.046-2.355.509-5.15.925-7.456-1.098-.686-.601-1.976-.618-3.006-.704-3.346-.278-6.7-.459-10.049-.698-.296-.021-.579-.203-.871-.3-1.954-.652-3.69-2.549-6.04-1.052-.12.075-.5-.332-.788-.435-.872-.311-1.74-.682-2.644-.837-.74-.127-1.527.024-2.293.051.383.55.808 1.075 1.14 1.654.727 1.273 1.048 2.918 2.988 3.015.109.006.18.555.288.844 1.574 4.18 5.441 6.895 7.051 11.076.477 1.24 1.182 2.519 2.124 3.427 2.19 2.11 3.867 4.58 5.644 7.007 1.833 2.503 4.409 4.27 6.028 7.151 1.563 2.781 4.516 4.781 6.858 7.124 3.834 3.835 7.686 7.654 11.487 11.521a10.653 10.653 0 0 1 1.855 2.559c.243.471.271 1.48-.03 1.729-1.212 1.001-2.077 2.244-3.754 2.949-3.031 1.275-6.093 2.028-9.283 2.53-.92.145-1.844.677-2.716.58-.745-.083-1.417-.814-2.122-1.258-.329.722-.469 1.717-1.029 2.105-.988.686-2.241.985-3.37 1.478-3.026 1.323-6.06 2.539-9.459 1.408-.142-.047-.463.251-.615.453-1.117 1.483-2.412 3.162-4.388 2.338-1.128-.47-1.391-.047-2.153.35-2.046 1.064-4.006 2.823-6.638 1.25-.465-.277-1.259-.302-1.613.922-.347 1.199-1.704 1.627-2.869.377-.411-.441-.845-1.248-1.088.207-.076.454-1.094.842-1.746 1.09-1.345.512-2.712 1.168-4.11 1.285-1.59.132-2.906.527-3.994 1.673 1.11.707 2.175 1.498 3.336 2.105 4.581 2.394 7.874 6.369 11.512 9.822 1.597 1.515 3.198 2.874 5.009 4.047 1.305.846 2.603 1.739 4.007 2.391 2.655 1.234 4.697 4.438 8.336 2.715.226-.107.653.025.903.179 3.541 2.184 7.515 3.309 11.38 4.705 2.801 1.011 5.519 2.44 8.404 2.965 2.048.372 3.583 1.042 5.045 2.415.805.756 1.916 1.221 2.947 1.69.743.338 1.601.416 2.375.7 1.46.536 1.627 1.199.658 2.317-1.415 1.635-2.781 3.314-4.249 4.9-3.492 3.769-6.981 7.544-10.574 11.216-1.662 1.699-3.715 3.026-5.307 4.778-1.288 1.418-3.566 1.393-4.39 2.684-.99 1.552-2.045 2.965-3.318 4.254-.213.216-.556.3-.782.507-3.595 3.3-7.568 6.165-8.301 11.723-.243 1.839.136 2.073 1.37 2.244 2.265.313 4.548.518 6.83.683 6.207.447 12.332-.369 18.434-1.343 3.516-.561 6.989-1.398 10.508-1.941a14.848 14.848 0 0 1 4.648.016c1.524.254 2.9-.749 4.477-.11 1.369.554 3.146.169 4.344-.181 3.456-1.008 6.866.143 10.249-.406.207-.034.664.276.682.457.288 2.88 2.391 2.914 4.481 2.83 1.594-.063 2.573.808 2.803 2.132.187 1.083-.24 2.291-.48 3.425-.192.906-.596 1.769-.765 2.677-1.126 6.044-2.508 11.951-7.454 16.25-1.043.907-1.981 1.857-2.186 3.435-.193 1.476-1.067 2.73-2.283 3.718-.567.46-1.041 1.096-1.401 1.74-1.541 2.754-2.867 5.636-5.379 7.732-.405.339-.432 1.132-.634 1.714-.648 1.865-1.204 3.786-2.674 5.219-.49.478-1.082.852-1.627 1.274.323.413.882.814.902 1.242.021.423-.438.936-.8 1.296-.719.713-1.235 1.39-1.188 2.54.036.886-.324 1.845-.703 2.682-1.525 3.362-2.043 6.896-1.868 10.54.026.555.562 1.086.862 1.628.144-.541.437-1.09.407-1.62-.139-2.408.419-4.323 2.833-5.473a30.416 30.416 0 0 0 5.06-3.053c4.613-3.442 9.897-5.529 15.454-8.085Zm182.246 3.666c-.3.077-.849.125-.862.237-.304 2.543-.573 5.09-.781 7.643-.037.455.231.936.357 1.405.318-.422.862-.817.915-1.269.3-2.553.482-5.12.371-8.016Zm-144.93-288.289c.155.067.371.235.456.185.621-.37 1.216-.784 1.82-1.184-.052.595-.19 1.198-.14 1.785.134 1.578.335 3.15.541 4.72.036.279.222.54.339.809.105-.286.317-.579.299-.857-.196-2.987-.42-5.972-.662-8.955-.023-.282-.218-.549-.333-.823-.233.233-.527.43-.688.706a16.876 16.876 0 0 0-1.632 3.614Zm76.963 269.625-1.359-1.307c.105.532.103 1.118.34 1.584.373.735.916 1.382 1.369 2.078.45.691.872 1.401 1.318 2.095.196.304.421.589.633.883.232-.383.615-.745.672-1.153.282-2.048-1.794-2.534-2.973-4.18Zm88.29-224.298c.108.346-.115 1.451.649.602 1.464-1.626 2.687-3.47 3.963-5.257.122-.17.006-.683-.173-.846-.17-.155-.812-.127-.83-.063-.577 2.072-3.296 2.803-3.609 5.564Zm-9.328 15.331c-.223.571-.526 1.126-.637 1.718-.071.376.146.806.234 1.212.312-.267.816-.48.906-.808.572-2.079 2.553-3.661 2.156-6.07-.062-.376 1.377-.566.132-1.011-.163-.058-.635.384-.773.683-.6 1.296-1.13 2.625-2.018 4.276Zm17.325-27.329c-.889 1.279-1.815 2.535-2.63 3.859-.139.226.195.744.31 1.127.233-.233.569-.427.675-.707.181-.478.108-1.068.343-1.503.221-.41.658-.858 1.079-.96.395-.094.894.244 1.347.391-.152-.428-.377-.849-.423-1.289-.018-.173.39-.368.552-.59.248-.339.45-.711.672-1.068a7.218 7.218 0 0 0-1.925.74ZM291.703 122.3c.545.545 1.07 1.112 1.648 1.619.137.119.451.035.684.044 0-.22.092-.511-.014-.65-1.533-2.02-3.554-3.264-6.065-3.65-.162-.025-.53.358-.546.571-.019.232.211.639.419.708 1.166.385 2.358.692 3.874 1.358Zm41.646 260.96c-.156.601-.493 1.223-.428 1.798.098.856.481 1.679.742 2.515.118-.605.204-1.217.361-1.812s.505-1.162.553-1.759a13.07 13.07 0 0 0-.094-2.892c-.041-.288-.585-.503-.899-.751-.078.3-.198.597-.225.903-.038.44-.01.887-.01 1.998Zm-2.665 39.993c.152.375.2.879.475 1.1.946.758.918 1.173-.308 1.444-.092.02-.118.813-.095.818.72.134 1.449.256 2.179.268.134.002.444-.649.389-.701-.984-.941-.112-3.205-2.64-2.929Zm1.999-4.665c-.135.531-.47 1.483-.373 1.529.87.415 1.006-.187 1.116-.912.074-.485.686-1.16.537-1.358-.583-.773-1.365-1.398-2.095-2.052-.074-.066-.3.039-.456.064.346.61.689 1.221 1.041 1.827.054.092.152.157.23.902Zm103.95-213.301v-.657c-.67.001-1.592-.272-1.955.062-.639.588-.943 1.543-1.352 2.362-.017.034.324.246.499.376-.074-1.834 2.079-.618 2.808-2.143Zm-198.571-87.986c-.144-1.033-.27-2.069-.45-3.095-.03-.177-.269-.364-.455-.445-.09-.039-.411.159-.408.243.043 1.392.121 2.783.191 4.174.374-.07.748-.14 1.122-.877Zm176.581 108.65-.46.46c.222.18.546.56.65.507.722-.365 1.407-.809 2.088-1.252.555-.361 1.089-.756 1.633-1.136-.726-.082-1.504-.361-2.16-.185-.547.147-.95.828-1.751 1.606Zm-17.325 23.329c-.222.9-.504 1.791-.631 2.704-.04.291.332.64.515.963.261-.245.678-.449.755-.742.291-1.102.486-2.23.669-3.357.015-.093-.343-.356-.504-.338-.171.02-.315.281-.804.77Zm1.999 133.98.231.897c.146-.092.425-.201.416-.275-.212-1.78-.437-3.56-.728-5.329-.023-.14-.543-.237-.842-.269-.094-.011-.335.274-.313.385.281 1.423.596 2.84 1.236 4.591ZM90.467 220.285c-.157-.156-.34-.293-.463-.472-.327-.477-.628-.972-.938-1.459.055.676.094 1.354.173 2.028.035.303.062.678.247.878.319.345 1.014.884 1.104.808.519-.435 1.443-.88-.124-1.783Zm320.845 10.998-.212-.878c-.596.745-1.225 1.467-1.76 2.253-.111.163.038.667.226.822.174.144.709.151.824.008.372-.46.624-1.018.922-2.205ZM400.65 354.597c.222-.458.752-1.084.61-1.344-.471-.863 1.979-1.576.088-2.216-.2-.068-1.049 1.281-1.31 2.069-.173.52.168 1.21.612 1.491Zm-76.63 73.322c-.606-.384-1.195-.798-1.826-1.136-.229-.122-.556-.061-.839-.083.203.517.261 1.219.638 1.518 1.135.903 1.369.842 2.027-.299Zm45.645-286.955c1.091.178 1.939-.148 2.303-1.248.062-.186-.233-.699-.404-.72-1.216-.147-2.136.207-1.899 1.968Zm33.317 265.292.47.469c.176-.237.544-.639.501-.688a27.705 27.705 0 0 0-2.03-2.152c-.328-.309-.771-.496-1.162-.739.16.456.23.978.502 1.353.384.531.917.954 1.719 1.757Zm-59.638-223.632.628-1.372c-.393.196-.954.296-1.136.613-.245.426-.21 1.02-.272 1.544-.061.514-.091 1.032-.135 1.548l1.307-.058c-.13-.536-.261-1.072-.392-2.275Zm-14.659 245.962c.462.463.901.953 1.395 1.378.343.295.763.499 1.148.744-.067-.593.079-1.412-.252-1.725-.468-.44-1.288-.505-2.291-.397Zm-132.603-17.997c.185.777.149 1.773.628 2.26.352.358 1.083-1.579.699-2.912-.027-.091-.151-.231-.213-.223-.374.049-.743.135-1.114.875Zm35.983 26.662.219 1.553c.23-.377.56-.727.669-1.135.214-.799.352-1.627.416-2.451.021-.26-.292-.545-.452-.819-.181.387-.44.759-.522 1.166-.087.433-.005.901-.33 1.686Zm30.652-53.325c.077.078.144.174.236.225.055.03.212.003.219-.024.278-1.133-.604-2.824-1.685-3.186-.162-.054-.39.087-.588.137.418.761.832 1.524 1.256 2.281.052.092.151.157.562.567Zm140.599-139.978.416-1.583c-.45.173-.924.303-1.343.534-.275.151-.591.411-.674.687-.126.418-.065.893-.084 1.343a10.24 10.24 0 0 0 1.685-.981ZM239.061 122.3c.112-.944.24-1.887.316-2.835.012-.15-.215-.32-.332-.482-.105.177-.249.341-.309.532-.153.477-.16 1.039-.422 1.437-.519.787-.574.751.747 1.348Zm39.315 275.291c.531.753 1.016 1.547 1.618 2.239.22.253.717.265 1.088.386-.111-.306-.17-.646-.343-.911-.503-.772-1.009-1.553-1.619-2.236-.128-.144-.706.115-.744.522Zm123.274 9.998-1 .511c.686.497 1.362 1.008 2.07 1.469.087.056.351-.161.533-.251-.113-.155-.212-.324-.343-.462-.301-.319-.617-.623-1.26-1.267ZM88.134 353.931l.217.883c1.1-.375 1.269-1.24 1.077-2.214-.031-.158-.683-.39-.771-.304-.251.244-.359.635-.523 1.635Zm150.594-259.96c.002-.336 1.358-.625.084-.982-1.666-.466-1.442.783-1.392 1.74.013.245.331.473.508.71.156-.379.311-.757.8-1.468ZM111.123 318.936c.778-.737 1.556-1.472 2.324-2.22.019-.019-.087-.168-.135-.256-.764.638-1.529 1.275-2.292 1.915-.082.069-.154.152.103.561Zm-29.652 27.663-.413 1.586 1.354-.528c-.203-.464-.405-.928-.941-1.058ZM429.969 210.62c-.444.467-.911.917-1.316 1.416-.098.122-.037.431.043.614.04.092.411.153.422.128.396-.83 2.189-1.008.851-2.158Zm-123.94 209.301c.222-.446.469-.883.654-1.344a.936.936 0 0 0-.007-.633c-.045-.119-.304-.262-.422-.229-1.05.293-1.161 1.788-.225 2.206Zm6.664 1.333c-.157-.156-.286-.385-.474-.455a13.905 13.905 0 0 0-1.768-.524c-.085-.019-.236.246-.356.38.644.311 1.286.626 1.936.926.091.042.218.006.662-.327Zm-37.316-26.663-.826-1c-.168.44-.513.897-.472 1.316.102 1.036.704.809 1.298-.316Zm-32.651-300.62c-.593-.458-1.196-.685-1.298.351-.041.42.304.876.473 1.316.275-.334.55-.667.825-1.667Zm156.591 152.643c.371.519.995 1.523 1.073 1.482 1.041-.546-1.087-1.535.252-2.156-.441.002-.883.005-1.325.674ZM122.784 143.963c-.078-.078-.145-.176-.238-.226-.056-.03-.221.018-.221.028.012.6-.053 1.222.1 1.786.066.244.583.365.895.542.044-.313.147-.633.113-.938-.032-.294-.205-.573-.649-1.192Zm-.333-4.332-.502-1.836c-.157.047-.371.046-.458.15-.224.271.157 1.431.96 1.686Zm-6.33 172.306.216.883c.15-.616.382-1.23.406-1.851.009-.223-.463-.501-.762-.675-.084-.049-.332.185-.505.289.215.229.43.459.645 1.354Zm71.965-180.638.211.878 1.122-1.545c-.445 0-.889 0-1.333.667Zm110.613-4c-.379.158-.875.221-1.099.502-.174.217-.121.965.03 1.032.796.357 1.168-.01 1.069-1.534Zm84.626-1.333.212.878 1.121-1.544c-.444 0-.889 0-1.333.666Zm-18.324 20.33c-.076.369-.304.797-.189 1.091.139.357.568.6.871.893.106-.385.28-.768.294-1.157.01-.271-.199-.551-.976-.827Zm115.277 156.643-.999.804.632.529c.345-.444.689-.889.367-1.333ZM379.66 395.591c-.8-1.355-.842-1.412-1.663-1.315-.2.024-.373.278-.558.426.29.074.612.093.861.238.267.155.465.429 1.36.651ZM128.448 170.959c-.111.617-.271 1.232-.301 1.852-.009.174.365.367.564.552.179-.313.5-.626.5-.938-.001-.378-.274-.755-.763-1.466ZM392.654 402.59l1.132.2c-.473-.4-.929-.828-1.444-1.164-.064-.041-.448.408-.684.631.221 0 .442 0 .996.333Zm-268.87 1.666-.244 1.756c.152.011.377.092.443.022.47-.5 1.338-.921-.199-1.778Zm111.613 26.996c-.079-.078-.146-.176-.239-.226-.055-.03-.217.006-.22.03-.079.523-.184 1.048-.191 1.574-.004.294.158.59.246.885.155-.331.329-.654.46-.994.117-.302.186-.623-.056-1.269Zm-87.958-69.322.466.867c.289-.433.698-.835.821-1.31.072-.28-.31-.678-.488-1.023-.155.377-.311.755-.799 1.466Zm178.581 67.989.764 1 .568-.569c-.333-.254-.666-.509-1.332-.431Zm-114.612-1.333c-.234-.234-.438-.52-.714-.68-.138-.08-.594.092-.592.11.066.515.172 1.024.271 1.534.234-.21.468-.42 1.035-.964Zm73.964-22.663 1.121-.454-.696-1.121c-.141.303-.283.606-.425 1.575ZM144.774 132.632c.477.111.963.327 1.427.286.213-.019.382-.541.572-.836-.346.072-.69.159-1.039.211-.205.03-.418.006-.96.339Zm23.988 263.959-.231-.897c-.367.441-.755.868-1.081 1.338-.051.074.178.344.277.523.234-.21.468-.42 1.035-.964Zm-36.982-7.666c-.234.234-.558.43-.679.712-.142.335-.11.744-.154 1.121.312-.2.688-.348.915-.619.179-.214.174-.581-.082-1.214Zm-5.331-232.63-.202 1.131c.39-.255.842-.455 1.14-.792.124-.141-.081-.572-.137-.871-.156.066-.312.132-.801.532Zm15.326 192.637c-1.24-.187-.999.702-.987 1.392.003.176.154.35.238.525.287-.454.571-.91.863-1.36.056-.086.145-.15-.114-.557Zm312.516-163.975-.879 1.121c.513-.15 1.038-.272 1.528-.475.081-.034.015-.422-.649-.646Zm-112.946 3-.764-1-.568.568c.333.255.666.51 1.332.432Zm89.624 139.645c.078-.078.176-.145.226-.238.03-.056-.016-.152-.028-.23-.532.178-1.071.341-1.591.552-.073.03-.05.295-.071.451.377-.067.754-.135 1.464-.535Zm16.992-134.313c0-.209-.025-.422.005-.627.052-.349.139-.693.211-1.039-.294.189-.817.358-.836.572-.041.464.175.95.62 1.094Zm-331.84 4.666c-.234-.234-.43-.558-.712-.679-.334-.143-.744-.11-1.121-.154.201.312.348.688.62.915.214.179.581.175 1.213-.082Zm337.837 92.652 1.131.202-.766-1.17c-.233.212-.466.424-.365.968Zm-344.501-37.994c-.696-.111-1.391-.244-2.092-.317-.162-.017-.345.17-.519.263.229.129.448.344.688.37.525.057 1.06.018 1.923-.316Zm-25.654-39.66c-.076.076-.171.142-.222.233-.03.055-.004.212.015.215.509.082 1.019.166 1.531.197.066.004.15-.279.224-.43-.294-.072-.588-.143-1.548-.215Zm28.653 38.66c-.073.073-.16.136-.212.221-.034.055-.015.142-.02.214l1.231-.173c-.222-.198-.444-.397-.999-.262Zm-62.303 19.664.652-.652-1.036-.297c.017.427.034.855.384.949Zm12.66 5.333c.244.333.473.68.751.983.038.04.324-.148.495-.23-.304-.362-.609-.724-1.246-.753Zm20.657 15.997c-.244-.333-.473-.681-.751-.983-.038-.041-.324.147-.495.229.304.363.609.725 1.246.754Zm12.66 5.333-.652.652 1.036.297c-.017-.428-.033-.855-.384-.949Zm51.309 71.988 1.087.913c.082-.171.27-.457.229-.495-.302-.278-.65-.507-1.316-.418Zm-20.99-204.301.882-.216c-.183-.15-.493-.456-.529-.426-.315.258-1.429-.696-.353.642Zm211.898 217.299c.111-.477.253-.95.315-1.433.021-.156-.167-.34-.26-.511-.129.223-.32.433-.373.673-.065.3-.015.624.318 1.271ZM189.419 150.629c.244.333.473.681.751.983.037.041.323-.147.494-.229-.304-.362-.608-.725-1.245-.754Zm-12.661 238.63-.652.652 1.036.297c-.017-.428-.034-.855-.384-.949Zm77.963 1.333c-.077-.076-.142-.172-.233-.222-.055-.031-.213-.004-.216.015-.081.509-.165 1.019-.197 1.532-.004.065.28.148.43.223.072-.294.144-.588.216-1.548Zm-68.634 3.333c0 .209-.044.431.01.625.094.337.249.658.379.985.092-.275.274-.557.256-.825-.026-.378-.201-.746-.645-.785Zm111.28-262.626-.181-.848-1 1c.283.06.565.121 1.181-.152Zm-107.948-4.666c0-.209.044-.431-.01-.625-.094-.338-.25-.658-.379-.986-.093.276-.275.557-.256.825.026.379.201.747.645.786Zm-65.302 284.622.215.882c.151-.183.456-.493.427-.528-.259-.316.695-1.431-.642-.354ZM190.418 124.3c.111-.477.253-.95.316-1.434.02-.156-.168-.339-.26-.51-.13.223-.321.432-.373.672-.065.3-.016.625.317 1.272Zm51.642 297.62.181.848.999-1c-.282-.06-.564-.121-1.18.152Zm83.96 11.998c.352.092.704.187 1.061.256.011.003.075-.269.114-.413-.281-.058-.561-.117-1.175.157Zm-119.276-11.331.176.843c.144-.04.415-.103.413-.114-.069-.357-.165-.71-.589-.729Zm97.286-6.666c-.353-.091-.705-.187-1.062-.256-.011-.002-.074.27-.114.413.281.059.562.118 1.176-.157Zm-109.947-7.332c.353.092.705.187 1.062.256.011.002.075-.269.114-.413-.281-.059-.562-.117-1.176.157Zm-1.333-5.999.667-.333c-.222-.111-.444-.223-.667.333Zm208.9-1.666.842-.177c-.039-.143-.103-.415-.114-.413-.357.069-.709.165-.728.59Zm-.667-2.667.843-.176c-.039-.144-.103-.415-.114-.413-.357.069-.709.165-.729.589Zm-29.319-5.999c-.091.353-.187.705-.256 1.062-.002.011.269.075.413.114.059-.281.118-.562-.157-1.176Zm28.32-1.666.176.843c.144-.04.415-.103.413-.114-.069-.357-.164-.71-.589-.729ZM145.44 370.595l-.176-.843c-.144.039-.415.103-.413.114.069.357.164.709.589.729Zm-61.97-16.664c-.353-.092-.705-.187-1.062-.256-.01-.002-.075.269-.114.413.281.059.562.117 1.176-.157Zm321.178-6.666-.176-.842c-.144.039-.415.102-.413.113.069.358.165.71.589.729Zm4.665-2.666.666-.333c-.222-.111-.444-.223-.666.333ZM117.12 306.272l.333.666c.111-.222.222-.444-.333-.666Zm276.2-46.993c-.352-.092-.704-.187-1.061-.256-.011-.002-.075.269-.114.413.281.059.561.117 1.175-.157Zm-267.204-58.658.666-.333c-.222-.111-.444-.222-.666.333Zm15.992-.666.667-.334c-.223-.111-.445-.222-.667.334Zm48.977-50.992-.843.176c.039.144.103.415.114.413.357-.069.709-.164.729-.589Zm-67.301-6.666.333.667c.111-.223.222-.445-.333-.667Zm116.943-6.999-.666.333c.222.112.444.223.666-.333Zm69.3-3.333.176.843c.144-.039.415-.103.413-.114-.069-.357-.164-.709-.589-.729ZM380.66 121.3c.353.092.705.187 1.062.256.01.002.074-.269.113-.413-.28-.059-.561-.117-1.175.157Zm-167.253-1.333-.176-.843c-.144.04-.415.103-.413.114.069.358.164.71.589.729Zm-10.661-5.332c.352.091.704.187 1.061.256.011.002.075-.27.114-.413-.281-.059-.561-.118-1.175.157Zm76.963-2.333.842-.176c-.039-.144-.103-.416-.114-.414-.357.069-.709.165-.728.59Zm-41.647-22.33-.4-.267c.022.2.045.4.4.267Zm3.998 1.333.4.267c-.022-.2-.045-.4-.4-.267Zm-4.331 5-.267.4c.2-.023.4-.045.267-.4Zm30.318 6.998-.399-.267c.022.2.044.4.399.267Zm-77.296 7.332.4.267c-.022-.2-.044-.4-.4-.267Zm4.665 0 .4.267c-.023-.2-.045-.4-.4-.267Zm12.327 5.666-.266.4c.2-.022.399-.044.266-.4Zm1.666 2.333.4.267c-.022-.2-.045-.4-.4-.267Zm177.248 3.333-.4-.267c.022.2.044.4.4.267Zm-166.586 2.666.399.267c-.022-.2-.044-.4-.399-.267Zm-97.953 3.333-.4-.267c.022.2.044.4.4.267Zm69.633.333.266-.4c-.199.023-.399.045-.266.4Zm112.612 2.666.267-.399c-.2.022-.4.044-.267.399Zm24.322-.333.4.267c-.023-.2-.045-.4-.4-.267Zm-179.58 3 .266-.4c-.2.022-.399.044-.266.4Zm227.557-.333.399.266c-.022-.2-.044-.4-.399-.266Zm-187.91 3.332-.399-.266c.022.2.044.4.399.266Zm-1.332 23.33.399.267c-.022-.2-.044-.4-.399-.267Zm-56.64 15.997.4.267c-.022-.2-.044-.4-.4-.267Zm221.227 11.999.4.266c-.022-.2-.045-.4-.4-.266ZM68.81 189.29l-.4-.267c.023.2.045.4.4.267Zm358.161 23.663-.267.4c.2-.022.4-.045.267-.4Zm0 4.666.266-.4c-.2.022-.399.044-.266.4Zm-6.997 4.332-.4-.266c.023.2.045.4.4.266Zm-7.663 8.332.267-.4c-.2.023-.4.045-.267.4Zm-8.995 9.666.399.266c-.022-.2-.044-.4-.399-.266ZM110.124 255.28l-.4-.267c.022.2.044.4.4.267Zm-11.328.666-.4-.267c.022.2.044.4.4.267Zm1.666.333-.267.4c.2-.022.4-.044.267-.4Zm293.525 1 .4.267c-.023-.2-.045-.4-.4-.267Zm1.999 3.333-.4-.267c.022.2.044.4.4.267Zm50.642 25.996-.4-.267c.023.2.045.4.4.267ZM79.472 291.94a86.565 86.565 0 0 1-.4-.266c.022.2.044.4.4.266Zm391.811 6 .4.266c-.023-.2-.045-.4-.4-.266Zm-367.156 3.332.399.267c-.022-.2-.044-.4-.399-.267Zm7.329 2.667.4.266c-.022-.2-.044-.4-.4-.266Zm323.178 21.33.4.266c-.023-.2-.045-.4-.4-.266Zm-29.986 23.996-.4-.267c.023.2.045.4.4.267Zm-5.331 8.665a92.125 92.125 0 0 0-.399-.266c.022.2.044.4.399.266Zm-255.876 13.998-.4-.267c.022.2.045.4.4.267Zm199.237 10.665.4.267c-.022-.2-.045-.4-.4-.267Zm56.639 2.666.4.267c-.022-.2-.044-.4-.4-.267Zm-67.967 5.333-.4-.267c.023.2.045.4.4.267Zm-147.928 1.333-.4-.267c.022.2.044.4.4.267Zm88.957.333.266-.4c-.2.023-.4.045-.266.4Zm-110.28 6.333.399.266c-.022-.2-.044-.4-.399-.266Zm223.892 1.333.399.266c-.022-.2-.044-.4-.399-.266Zm-225.558 2.999.266-.4c-.2.023-.4.045-.266.4Zm89.623 4.999.4.267c-.022-.2-.044-.4-.4-.267Zm47.311 4.666.399.267c-.022-.2-.044-.4-.399-.267Zm-98.286 1.667.266-.4c-.2.022-.4.044-.266.4Zm-74.298 1.666.4.267c-.022-.2-.044-.4-.4-.267Zm79.628 3 .267-.4c-.2.022-.4.044-.267.4Zm-78.961 1.666-.4-.266c.022.2.044.399.4.266Zm115.944 4-.4-.267c.022.2.044.4.4.267Zm-33.318 1.333.4.266c-.022-.2-.044-.4-.4-.266Z" fill="#000"/><path d="M136.209 293.113c-1.644-2.202-4.083-1.426-6.022-2.125-1.364-.492-2.963-.372-4.283-.933-1.273-.542-2.402-1.162-3.877-1.161-1.442 0-2.755-2.027-3.008-3.988-.182-1.412.972-2.383 1.72-2.521 2.948-.548 4.954-3.031 7.926-3.507 1.163-.186 2.027-1.911 3.558-.648.132.109.958-.396 1.274-.772 1.842-2.203 4.501-2.539 7.033-3.173.61-.152 1.306-.098 1.846-.37 2.762-1.392 5.735-2.534 8.16-4.385 2.97-2.267 4.11-4.499 2.139-8.139-2.165-3.998-5.062-7.426-7.467-11.218-3.224-5.084-8.135-8.34-13.242-11.291-1.829-1.058-2.848-3.316-2.243-5.34.273-.916.949-1.387 1.98-1.268 2.084.241 3.983-.159 5.783-1.357.727-.484 1.802-.581 2.726-.609 2.41-.075 4.751.248 7.212-.58 2.394-.806 5.109.259 7.729-.666 1.366-.482 3.152.227 4.749.4.424.046.98.299 1.249.119 1.717-1.148 3.612-.448 5.415-.625.55-.055 1.205.181 1.65-.041 2.168-1.079 2.665-.681 1.544 1.532-.135.266.194.767.308 1.158.236-.235.63-.441.682-.711.421-2.206 2.435-2.2 3.906-2.513 1.2-.256 1.346-.953 1.026-1.509-1.794-3.112-1.644-6.812-3.246-9.999-1.992-3.964-3.302-8.231-6.14-11.814-1.5-1.894-2.072-4.497-3.419-6.545-1.951-2.965-3.136-6.265-4.654-9.418a4.91 4.91 0 0 1-.483-1.792c-.101-1.721.327-2.167 1.745-1.517 1.198.55 2.143.041 3.208.006 3.444-.114 6.959-.827 10.392.445 1.16.43 2.418.512 3.794.147 1.106-.292 2.455.351 3.699.559.836.14 1.779.045 2.496.407 1.566.791 2.995 1.394 4.707.309.475-.301 1.463-.299 1.943 0 1.748 1.088 3.616.508 5.422.6 2.101.107 4.29-.292 6.291.172 1.939.45 3.635-.45 5.504-.232 1.528.177 3.135-.476 4.717-.56 2.521-.134 5.018.234 7.511.613.598.091 1.249-.167 1.875-.265-.209-.569-.377-1.157-.633-1.704-1.333-2.845-2.288-5.84-4.877-8.033-1.259-1.065-1.885-2.939-2.643-4.521-1.384-2.887-3.98-5.121-4.516-8.466-.096-.596-.645-1.188-.572-1.726.092-.672.611-1.285.946-1.923.536.315 1.192.529 1.572.977.31.366-.18 1.236 1.017.53 2.928-1.726 5.875-.705 8.769.467.953.386 2.019.59 3.05.671 3.572.278 7.152.446 10.726.697 1.647.115 1.497.294.805 2.197-.306.84.462 2.076.784 3.119.018.058.524.086.612-.025.182-.229.266-.553.335-.851.189-.812-1.069-1.62.003-2.45.546-.422 1.031-1.231 1.591-1.276 3.342-.27 6.616.246 9.877 1.032 2.752.663 5.561 1.101 8.357 1.564 1.786.297 3.604.395 5.388.7 1.617.277 1.583-.715 1.456-1.746-.166-1.359-.57-2.7-.626-4.059-.157-3.747 1.14-7.258 2.014-10.827.203-.829.567-1.81 2.048-1.078.989.488 2.333.373 3.513.336 2.704-.086 5.176.663 7.692 1.573 2.813 1.018 5.727 1.874 8.669 2.386 2.913.506 5.707 1.809 8.779 1.434.43-.052 1.173.288 1.344.649.842 1.777 2.399 1.347 3.766 1.279 1.139-.056 2.322-.26 3.377-.674 1.111-.435 2.043 1.152 3.174.086.236-.224 1.009.09 1.525.202.504.11 1.18.56 1.462.375 1.858-1.219 4.342-.75 6.051-2.341.607-.565 1.32-1.114 2.085-1.381.651-.227 2.101-1.775 1.875.761-.127 1.421.973 1.712 2.205 1.688.975-.018 2.685-.141 2.798.2.394 1.199.426 2.603.252 3.884-.293 2.169-1.473 4.405-1.145 6.428.484 2.978-.088 5.429-1.441 7.941-.278.517-.213 1.369-.012 1.968 1.325 3.945-.372 7.859-.069 11.793.068.891-.371 1.824-.593 2.734-.221.906-.936 2.06-.611 2.662 1.201 2.226-.076 4.635.691 6.728.92 2.511.845 4.749-.474 7.007-.105.179-.277.354-.294.542-.092.978.147 1.289 1.257 1.91 4.881 2.729 9.81 3.671 15.244 2.224 1.634-.435 3.397-.359 5.081-.637 3.944-.65 7.906-1.237 11.798-2.128 1.755-.402 3.318-.404 5.097-.217 1.437.152 2.986-1.21 4.551-1.686 1.3-.396 2.798-.9 4.023-.599 1.622.4 2.829-1.081 4.581-.362 1.024.421 2.656-.666 4.023-1.042 1.705-.468 2.284.007 2.373 1.788.048.956.178 1.913.362 2.852.047.238.443.408.679.609.094-.295.35-.768.255-.855-.605-.551-.73-1.203.075-1.411.991-.256 2.131-.334 3.102-.083.419.109.925 1.322.785 1.881-.399 1.582-1.077 3.099-1.709 4.615a157.291 157.291 0 0 1-2.603 5.92 3.53 3.53 0 0 1-1.063 1.299c-1.068.786-2.067 1.47-1.967 3.091.036.581-.926 1.159-1.127 1.829-1.325 4.442-4.563 8.13-4.907 13.006-.098 1.396-1.131 3.123-2.276 3.942-1.225.875-1.607 1.709-1.629 3.017-.046 2.626-.869 4.907-2.689 6.904-.879.964-1.429 2.275-1.955 3.504-1.217 2.842-2.438 5.614-5.08 7.541-.758.552-.256 1.49.409 2.243a27.889 27.889 0 0 0 9.18 6.861c4.088 1.896 8.408 3.338 12.714 4.708 4.805 1.529 9.096 3.923 13.224 6.751 1.328.91 2.996 1.325 4.518 1.943.191.078.616-.045.637.02.28.876.242 2.099.823 2.567.615.496 2.043-.329 2.609.822.826 1.677.447 3.489-.421 4.899-2.498 4.057-4.48 8.379-6.786 12.509-1.34 2.399-2.849 5.191-5.605 6.659-.364.194-.754.579-.872.956-1.041 3.35-3.751 5.565-6.322 7.264-2.911 1.923-4.334 4.463-5.725 7.3-.185.378-.566.703-.929.943-3.283 2.177-4.167 6.196-6.816 8.86-.189.189-.332.694-.217.875 1.496 2.357.7 5.339 2.273 7.747.925 1.416 1.542 3.262 1.626 4.948.179 3.645 2.006 7.031 1.489 10.787-.104.751.638 1.754 1.228 2.436 1.064 1.231 2.595 2.301.029 3.505.191 2.688-1.745 2.283-3.339 2.212-.578-.026-1.186-.367-1.699-.691-1.681-1.06-3.293-2.23-4.996-3.251-.758-.454-1.565-1.2-2.612-.43-.175.128-.619-.065-.922-.162-2.946-.934-5.884-1.897-8.835-2.817-2.169-.676-4.354-1.298-6.529-1.951-.394-.118-.802-.225-1.159-.42-1.565-.853-3.051-1.599-4.976-1.784-1.605-.154-3.555-.606-4.681-2.404-.325-.52-1.506-.579-2.317-.705-1.654-.256-3.583.679-4.859-1.208-.118-.175-.62-.181-.92-.13-2.171.372-3.388-.217-2.863-2.7.035-.163-.15-.373-.233-.561-.139.219-.399.437-.401.657-.023 4.555-.317 9.138.111 13.653.21 2.211 1.165 4.409 1.381 6.734.203 2.185.728 4.344 1.17 6.503.273 1.334-.738 1.917-1.378 2.778-.872 1.174-1.698.43-2.701.348-1.916-.156-3.307-1.2-4.868-2.009-1.002-.519-2.07-.912-3.074-1.428-.696-.358-1.643-.676-1.942-1.278-1.07-2.158-3.043-2.35-5.016-2.73-1.007-.193-2.081-.414-2.939-.929-2.595-1.558-5.096-3.273-7.647-4.905-.249-.16-.656-.086-.887-.259-4.582-3.44-9.032-7.072-13.768-10.285-2.368-1.608-4.46-3.694-7.5-4.437-1.712-.419-3.225-1.958-4.639-3.206-1.899-1.676-3.502-3.694-5.447-5.306-1.417-1.175-3.199-1.903-4.787-2.882-1.335-.823-2.564-1.836-3.95-2.551-1.361-.701-2.845-1.185-4.307-1.667-1.261-.415-2.109-1.008-1.893-2.521.04-.28-.27-.611-.419-.918-.296.321-.741.597-.859.974-.308.993-.577 2.019-.676 3.05-.279 2.902-.091 5.904-.767 8.702-1.267 5.236.327 10.721-1.81 15.902-.704 1.709-.105 3.954-.112 5.954-.012 3.293.127 6.595-.655 9.839-.076.315-.152.781.012.979 1.07 1.297.651 2.472.037 3.827-.334.737-.218 1.786-.025 2.631.344 1.509-.469 2.326-1.643 2.565-1.301.264-2.594.456-3.789-.97-2.067-2.468-4.802-4.404-6.708-6.971-1.424-1.918-3.823-1.778-5.261-3.512-1.362-1.642-3.217-2.875-4.851-4.292-1.719-1.49-3.434-2.982-5.146-4.479-.251-.219-.432-.585-.716-.687-1.895-.677-2.576-1.716-1.301-3.57.177-.256-.087-.816-.148-1.236-.384.294-.934.507-1.126.896-1.004 2.034-.927 1.959-2.586.776-1.513-1.079-3.176-1.958-4.816-2.845-1.816-.981-2.244-.81-3.3.958-1.862 3.119-3.639 6.298-5.663 9.309-.851 1.267-1.535 2.401-1.727 3.98-.323 2.647-2.659 3.744-4.697 4.696-1.729.808-4.195-.997-5.096-3.459-1.448-3.959-2.793-7.956-4.154-11.946-1.794-5.258-3.023-10.799-5.513-15.701-1.946-3.831-1.708-8.139-3.78-11.785-.096-.169-.024-.429-.051-.644-.154-1.241-.314-2.481-.472-3.721-1.039.444-2.042 1.024-3.123 1.309-3.616.954-7.264 1.786-10.89 2.705-.69.175-1.34.516-2 .801-1.902.821-3.755.407-4.791-1.082-1.062-1.526-.99-3.596.185-4.982 3.223-3.803 5.647-7.935 6.512-12.993.369-2.156 2.02-4.065 2.619-6.217.809-2.906 1.978-5.686 2.072-8.861.104-3.473-1.862-5.076-4.253-6.681-4.532-3.042-9.878-4.063-14.858-5.992-2.103-.815-4.232-1.562-6.517-2.506Zm219.608 70.832.619.049c-.206-.128-.412-.255-.619-.716l-.618-.049c.206.128.412.255.618.716Zm-173.085-1.667.049-.618c-.127.206-.255.412-.716.618l-.049.618c.128-.206.255-.412.716-.618Zm148.073-144.664.049-.618c-.127.206-.255.412-.716.618l-.049.618c.128-.206.255-.412.716-.618ZM156.052 232.28l-.266 1.067.436.098c.054-.388.109-.777.497-1.165l.049-.617c-.127.206-.255.411-.716.617Zm-18.008 7.334a4.853 4.853 0 0 1 1.334-.667l.849-.182-.134-.436a5.502 5.502 0 0 1-1.382.618c-.334.222-.667.444-1.334.667l-.049.617c.127-.206.255-.411.716-.617Zm222.776 17.333-.267 1.066.436.098c.055-.388.11-.776.498-1.164.111-.445.222-.889.667-1.334.272-.644 2.107-1.178.213-1.954-.497-.204-1.226.155-1.848.255.434.346.894.664 1.285 1.053.11.11.016.425-.317.646-.111.445-.222.889-.667 1.334Zm-200.099 65.999.267-1.067-.436-.098c-.054.388-.109.776-.498 1.165l-.048.617c.127-.206.255-.411.715-.617Zm-12.672-74.666c.333-.248.681-.48.983-.761.039-.037-.154-.324-.239-.495-.292.24-.605.46-.866.73-.122.125-.145.348-.545.526l-.049.618c.127-.206.255-.412.716-.618ZM184.4 369.278l.182.849.436-.133c-.206-.35-.412-.7-.618-1.382l-.934-1.6c-.133.121-.402.306-.379.353.221.462.465.919.761 1.337.099.141.363.165.552.576Zm57.361-18.666c.248.333.481.681.762.983.037.039.324-.154.495-.239-.24-.292-.46-.605-.73-.866-.126-.122-.348-.144-.527-.545.223-.571.472-1.134.64-1.721.027-.095-.307-.294-.474-.445-.277.548-.641 1.075-.788 1.656-.054.215.4.559.622 1.177Zm119.392 14-.618-.049c.206.127.412.255.618.715.235.235.436.609.711.675.577.138 1.192.115 1.791.158-.502-.389-.973-.832-1.52-1.142-.251-.142-.65-.024-.982-.357Zm9.338 4 .619.048c-.207-.127-.413-.254-.619-.715.146-1.449-1.481-.871-1.907-1.667-.253.144-.664.243-.72.442-.069.242.086.751.274.828.757.309 1.565.497 2.353 1.064Zm-206.435-57c.6-.257.014-1.97 1.631-1.152.723.367 1.867-.081 2.816-.193.187-.022.356-.195.533-.298-.156-.119-.298-.316-.469-.344-1.445-.244-2.895-.539-4.346-.559-.154-.002-.332 1.658-.832 2.546-.111.286-.324.576-.308.854.021.378.217.745.338 1.117.257-.39.597-.754.734-1.182.062-.198-.274-.522-.097-.789Zm-.667 21.333c.329 0 .736.127.976-.019 2.628-1.603 5.303-1.738 8.205-.699 1.333.477 3.215 1.015 4.239.441 2.26-1.267 1.374 1.269 2.255 1.467-1.697 2.165.233 3.95.718 5.824.929 3.587 2.193 7.086 3.256 10.641.597 1.998 1.674 3.888 1.386 6.106-.064.493.007 1.17.304 1.515 1.592 1.847 1.629 4.228 2.355 6.371a117.046 117.046 0 0 0 2.694 7.216c.203.491.936.763 1.425 1.137.178-.443.344-.89.537-1.327 2.442-5.543 4.883-11.087 7.353-16.619.133-.299.526-.483.798-.721.172.337.441.659.499 1.014.151.93-.437 2.321.758 2.591.716.161 1.69-.744 2.522-1.216.279-.159.64-.431.688-.7.41-2.278 1.184-.769 1.872-.204 2.488 2.043 5.19 3.88 7.4 6.189 1.971 2.059 5.049 2.617 6.467 5.496.726 1.476 2.53 2.689 4.125 3.365.898.38 1.704.717 2.44 1.358 3.18 2.768 6.379 5.514 9.59 8.245.301.256.736.356 1.109.529.133-.377.383-.754.38-1.13-.018-2.526.578-5.011.63-7.505.112-5.287.429-10.564.586-15.838.112-3.792.437-7.629-.381-11.531-.808-3.848 1.173-7.556 2.687-11.126.201-.474.736-.827 1.173-1.163.085-.065.639.23.63.329-.188 2.11 1.416 1.109 2.272 1.246.271.043.733-.473.948-.83.821-1.356 1.758-.776 2.954-.511 5.569 1.234 10.229 4.386 15.085 7.053 3.247 1.783 6.336 3.939 8.906 6.738 1.153 1.255 2.54 2.338 3.955 3.303 3.105 2.116 6.317 4.073 9.434 6.173.799.538 1.311 1.777 2.12 1.958 1.141.256 1.886.796 2.75 1.483 3.993 3.175 7.973 6.385 12.154 9.301 2.787 1.946 5.871 3.484 8.894 5.066.93.486 2.265.963 3.123.649 1.391-.509.698-2.103.779-3.248.027-.376-.305-.764-.375-1.163-.33-1.868-.593-3.749-.941-5.614-.443-2.372-.173-4.801-.643-7.175-.308-1.557-.476-3.143-.669-4.721-.037-.297.07-.872.171-.886 1.734-.24 1.139-1.568 1.115-2.502-.026-.997.487-1.191 1.195-.981.348.104.724.613.811 1 .298 1.335.444 2.704.717 4.046.067.331.392.61.599.912.238-.271.61-.509.69-.821.284-1.114.457-2.256.693-3.383.433-2.065.486-2.151 2.446-1.109 3.37 1.792 7.245 2.359 10.487 4.498 1.166.769 2.676 1.031 4.044 1.477 5.484 1.79 10.974 3.561 16.462 5.338 4.116 1.334 8.228 2.679 12.358 3.965.215.066.843-.373.852-.594.113-2.783-.071-5.71-1.669-7.931-2.301-3.194-3.496-6.796-4.79-10.37-.396-1.092-.31-2.758.271-3.737 3.649-6.144 8.27-11.585 12.915-16.988 2.348-2.733 5-5.213 7.254-8.018 2.302-2.865 4.423-5.901 6.368-9.021 2.13-3.416 3.95-7.024 5.94-10.53.853-1.502.501-3.118-.865-4.118-3.282-2.401-6.941-4.141-10.469-6.117-2.002-1.121-3.998-2.319-6.29-2.496-3.541-.275-6.663-1.659-9.58-3.44-1.36-.831-2.599-1.311-4.155-1.303-.813.004-1.742-.14-2.422-.545-3.764-2.242-6.834-5.317-9.84-8.454-.979-1.021-.933-2.124-.087-3.169a112.188 112.188 0 0 1 3.77-4.438c2.197-2.441 3.911-5.24 4.943-8.284a96.312 96.312 0 0 1 4.575-11.102c2.567-5.287 4.221-10.928 6.818-16.183.497-1.006.453-2.406 1.157-3.158 2.232-2.386 2.444-5.711 4.177-8.302.554-.828.862-1.82 1.283-2.737-1.57.062-3.14.113-4.709.194-.304.016-.605.138-.902.229-.69.211-1.4.669-2.061.606-2.161-.207-4.288.934-6.467.076-.449-.177-1.129-.088-1.587.126-3.375 1.58-6.734 3.137-10.638 2.539-.336-.052-.751.3-1.106.504-2.208 1.269-4.459 2.125-7.117 2.227-2.057.079-4.067.32-6.126-.061-.955-.177-2.056-.227-2.953.075-2.88.968-5.617.956-8.349-.464-.532-.277-1.241-.217-1.868-.312-1.464-.222-2.977-.285-4.379-.71-1.499-.453-2.451-2.872-2.389-4.757.1-2.996.344-6.042-.067-8.984-.375-2.693.717-5.225.189-7.926-.335-1.716.928-3.9.299-5.371-1.501-3.503.423-6.749.09-10.199-.503-5.212.535-10.567.824-15.866.093-1.692-.214-1.79-1.885-1.286-2.176.658-4.351 1.332-6.561 1.856-.78.185-1.708-.238-2.479-.039-.873.226-1.626 1.173-2.465 1.222-2.769.162-5.556.113-8.331.016-.541-.019-1.512-.605-1.521-.95-.087-3.262-2.768-3.05-4.773-3.656-4.939-1.494-9.982-2.633-14.823-4.464-.489-.184-1.694.148-1.75.414-.567 2.678-1.481 5.444-1.221 8.079.164 1.659.306 3.383.474 5.075.106 1.066-.177 1.861-1.355 2.25-.571.189-1.064.719-1.502 1.179-.763.803-1.477.597-2.532.521-3.553-.257-6.688-2.834-10.453-1.782-.493.138-1.148-.404-1.749-.524-.826-.165-1.67-.245-2.51-.331-1.647-.168-3.323-.188-4.934-.523-.847-.176-1.19-2.152-2.577-.665-.824.885-1.855-1.188-2.737.089-2.591-.557-5.486 1.196-7.909-1.117-.32-.305-1.486.301-2.267.443-.687.125-1.439 1.147-2.066-.181-.128-.273-.714-.416-1.108-.463-2.127-.255-4.257-.495-6.392-.66-.617-.048-1.254.168-1.881.263.282.536.498 1.123.862 1.597.53.691 1.287 1.226 1.738 1.956 3.155 5.106 5.906 10.387 7.389 16.273.734 2.916.58 3.831-1.918 5.206-1.548.853-3.118.871-4.897.329-2.003-.61-4.172-.684-6.271-.978-1.831-.257-3.926 1.689-5.526-.655-.04-.059-.38.11-.584.136-1.295.165-2.922.884-3.816.359-1.741-1.024-2.973.444-4.548.269-4.764-.53-9.587-.526-14.381-.812-.674-.04-1.307-.577-1.984-.814-.279-.098-.791-.143-.91.011-.765.985-1.426 1.029-2.427.208-.772-.633-1.798-1.21-2.758-1.296-1.101-.099-2.252.384-3.386.583-.322.056-.803.145-.973-.022-1.336-1.314-2.959-.529-4.42-.583-1.755-.065-2.039.633-1.266 2.327.341.747.696 1.492.97 2.264 1.045 2.937 3.589 4.944 4.887 7.647 1.954 4.065 4.543 7.944 4.818 12.666 2.512 3.28 2.497 7.41 3.722 11.122.965 2.927.189 5.508-1.809 7.027-1.42 1.08-3.198 1.314-4.595.789-1.903-.715-3.413-.369-5.296-.043-3.129.542-6.432.314-9.642.105-3.911-.255-4.193-.326-7.958 1.238-.445.185-1.045.08-1.557 0-.822-.128-1.64-.535-2.443-.493-2.358.123-4.709.396-7.059.649-.252.027-.477.304-.715.465.226.283.41.619.685.842 1.576 1.277 3.303 2.396 4.739 3.811 4.26 4.199 7.49 9.191 10.575 14.273 1.018 1.678 2.235 3.327 2.8 5.162.544 1.765 1.513 3.385.818 5.663-1.175 3.855-3.951 5.865-6.856 8.092-2.983 2.287-6.647 2.779-9.891 4.335-3.635 1.743-7.489 2.875-11.335 4.037-.669.202-1.23.799-1.794 1.268-.07.058.163.674.227.669 2.535-.203 4.628 1.219 6.879 1.956 3.409 1.115 6.668 2.679 10.04 3.921 1.742.641 3.953.528 5.315 1.58 3.479 2.684 7.61 3.674 11.475 5.374 1.25.55 2.101 2.139 2.973 3.367.584.823.838 1.872 1.322 2.776 1.035 1.93 1.27 4.248.596 5.997-2.399 6.225-3.582 12.917-7.13 18.719-.615 1.004-.525 2.438-1.095 3.673l-1.6.934c.121.133.307.401.353.379.463-.222.92-.466 1.338-.761.141-.099.165-.363.576-.552Zm79.373 8-.931.931c1.127.827.039 1.595.03 2.381-.01.777.793 1.561 1.233 2.346.162.291.303.593.454.89.071-.299.231-.608.2-.897-.194-1.775-.43-3.545-.986-5.651Zm75.37-136.664c.334-.284.944-.557.955-.853.06-1.637-.022-3.28-.071-4.92-.002-.075-.146-.147-.224-.22-.109.287-.272.565-.317.86-.242 1.598-.454 3.199-.343 5.133Zm-19.343 163.997c1.155.889 2.303 1.788 3.477 2.651.121.089.421.001.598-.086.072-.035.105-.381.041-.428a190.924 190.924 0 0 0-4.549-3.205c-.094-.064-.547.18-.539.222.058.291.194.566.972.846Zm-13.006-7.666 1.584 1.666c.633-.778.613-1.475-.115-2.231-.49-.509-.798-1.189-1.239-1.753-.072-.092-.408.023-.622.043.052.235.1.472.158.706.074.302.156.601.234 1.569Zm-106.052-3.334c.391.614.775 1.232 1.177 1.838.217.328.466.635.701.952.041-.426.271-.972.09-1.258-.833-1.317-2.133-2.389-1.988-4.178.005-.066-.379-.255-.42-.216-.301.283-.837.682-.778.91.149.577.571 1.084 1.218 1.952Zm183.757-16.999c.111 1.377.212 2.755.345 4.13.018.181.199.346.305.519.117-.157.231-.315.351-.469 1.166-1.496.587-2.852-1.001-4.18Zm3.668-1.667c-.077-.078-.158-.153-.232-.233-.442-.478-1.143-1.435-1.283-1.359-1.242.675-.1 1.122.249 1.682.161.26.09.676.27.91.334.434.768.793 1.189 1.152.018.015.477-.361.447-.431-.164-.373-.417-.707-.64-1.721Zm-11.005-125.665c.556-.173 1.115-.338 1.658-.545.03-.012-.007-.471-.133-.571-.946-.756-3.047-.112-3.139 1.071-.079 1.029.662.855 1.614.045Zm-34.017 163.331c-.641-.694-.484-2.213-2.035-1.966.337.758.686 1.511 1.003 2.277.116.279.076.652.248.871.229.289.597.47.905.697.071-.515.142-1.03-.121-1.879Zm53.693-156.997c-1.415-.176-1.401.812-1.311 1.721.065.659.283 1.831.528 1.857 1.359.142.621-1.005.765-1.608.098-.413.018-.868.018-1.97Zm-20.01 50.665c-.222-.462-.431-.932-.671-1.386-.172-.326-.384-.632-.578-.947-.434.294-.963.516-1.26.912-.15.2 0 .914.225 1.051.708.433 1.515.704 2.284.37ZM193.071 377.945c0-.984.054-1.972-.036-2.947-.025-.261-.491-.481-.755-.72-.181.321-.565.884-.513.928 1.146.963.455 2.247.664 3.36.01.053.417.032.64-.621Zm126.062-10.667.499 1c.278-.221.785-.44.788-.665.006-.479-.21-.98-.409-1.44-.169-.391-.442-.738-.669-1.104-.07.514-.139 1.028-.209 2.209ZM172.727 233.614c.634-.856.11-2.458 1.745-2.687.154-.022.269-.327.402-.501-.2-.049-.4-.138-.601-.139-2.238-.019-1.849 1.62-1.546 3.327Zm106.386 120.998c-.144-1.032-.486-1.904-1.747-1.462-.099.035.19 1.415.469 2.1.064.157.833.027 1.278-.638Zm-122.394-84.999-.036 1.964.87-.131c-.163-.723 1.033-1.759-.834-1.833Zm223.444 49.333c-.111.386-.317.774-.31 1.158.009.499.187.994.293 1.491.339-.497.78-.957.977-1.505.111-.306-.182-.758-.96-1.144Zm-44.355 39.666c.076.076.141.17.231.221.055.031.211.009.215-.012.083-.397.313-.861.187-1.185-.276-.712-.718-1.363-1.138-2.011-.046-.071-.383.046-.585.076.363.534.749 1.053 1.075 1.609.094.159.015.42.015 1.302Zm-173.419-42c0 .222.048.456-.009.662-.189.684-.415 1.358-.627 2.036.156.045.44.149.451.127.301-.648.656-1.29.818-1.977.083-.35-.188-.785-.633-.848Zm4.669-2c.796-.59.88-1.348.46-2.179-.059-.115-.528-.164-.534-.146-.218.607-.453 1.217-.568 1.848-.044.244.197.539.642.477Zm138.401-154.33c-.453.586-.689 1.212.34 1.297.618.051 1.265-.25 1.899-.393-.524-.302-1.048-.603-2.239-.904Zm-63.698 209.663c-.794-.646 1.321-1.09.147-1.597-.302-.131-.975.594-1.477.926.444.446.887.892 1.33.671Zm26.68-197.33c.075.075.14.167.229.218.055.032.21.01.212-.002.083-.605.236-1.217.188-1.813-.02-.262-.451-.492-.695-.737-.201.289-.535.564-.566.871-.037.362.187.752.632 1.463Zm70.702 185.997 1.383.617c.028-.384.23-.935.051-1.123-.688-.725-.743-.68-1.434.506ZM164.39 192.614c.077.077.144.174.235.224.056.031.191.019.222-.024.734-.996-.389-1.246-.735-1.81l-1.723 1.401c.259.033.522.109.777.087.3-.026.594-.137 1.224.122Zm153.742 1.667c-.896-.089-1.327.344-.825 1.1.287.433 1.023.567 1.557.835a7.159 7.159 0 0 0-.732-1.935Zm51.692 138.998c.208.575-.558 1.663.751 1.596.218-.011.435-.933.565-1.457.069-.278-.049-.603-.083-.907-.299.145-.599.29-1.233.768Zm-127.729 25.666h-.642c.368.599.727 1.204 1.119 1.786.041.06.288-.02.439-.035-.083-.584-.166-1.167-.916-1.751Zm-67.367-143.998-.249 1.751c.454-.287.915-.564 1.357-.867.174-.119.306-.297.458-.448-.3-.145-.599-.291-1.566-.436Zm159.746 1c-.189 1.278.75 1.041 1.42.957.225-.028.389-.553.581-.85-.556-.147-1.112-.294-2.001-.107Zm-15.341 146.665-.209-.876c-.375.403-1.043.806-1.043 1.209s.668.806 1.043 1.209c.07-.292.139-.584.209-1.542ZM198.74 190.948c-.896-.09-1.328.344-.825 1.1.287.432 1.023.566 1.557.835-.133-.534-.265-1.068-.732-1.935Zm-70.034 96.665c-.444.565-.688 1.162.305 1.264.184.019.599-.845.665-1.335.122-.896.047-.909-.635-.872-.012.001-.002.398-.335.943Zm164.747 76.665c-.111-.285-.147-.656-.352-.835-.268-.235-.669-.318-1.013-.467-.046.378-.27.906-.103 1.104.437.518.897 1.434 1.468.198Zm1.334 3.334c.374-.374.71-.797 1.128-1.11.981-.736-.057-.974-.309-1.406-.162.381-.3.774-.492 1.139-.191.363-.438.697-.327 1.377ZM319.8 177.948c0-.538.04-1.081-.019-1.613-.025-.225-.256-.428-.394-.641-.295.739-.662 1.463-.819 2.231-.028.14.799.455 1.232.023ZM177.73 347.279l-.219-1.553c-.15.41-.357.809-.432 1.232a3.881 3.881 0 0 0 0 1.308c.075.423.283.822.432 1.231.073-.517.146-1.034.219-2.218Zm192.094-111.332c-.145-.367-.242-.766-.452-1.091-.136-.209-.437-.31-.664-.46-.072.184-.188.362-.21.552-.089.775.013.89 1.326.999Zm-12.339 23c-.075.075-.19.137-.217.227-.088.283-.104.593-.218.864-.462 1.104-.059 2.088.304 1.536.397-.605.33-1.516.131-2.627Zm11.005-19-.229-1.562-1.667 1.666c.521.077 1.042.153 1.896-.104Zm-60.363 134.331c.158.379.221.876.502 1.1.218.174.965.121 1.033-.03.357-.797-.011-1.169-1.535-1.07Zm5.67 3.667c0 .104-.042.271.006.304.34.229.698.43 1.05.64l-.056-1.944-1 1Zm-150.408-62.333v-1.333l-1.529.195c.288.38.575.759 1.529 1.138Zm225.778-5.666c-.222.35-.566.678-.633 1.056-.066.377.143.804.232 1.209.155-.332.363-.651.454-1 .137-.522.191-1.065-.053-1.265Zm-76.704-147.998c1.383.195 1.361-.755 1.314-1.665-.01-.193-.277-.372-.425-.557-.074.29-.093.612-.237.861-.156.267-.43.466-.652 1.361Zm-47.023 3.667c.957.178 1.723-.11 2.259-.937.026-.04-.075-.223-.089-.22-.662.155-1.324.31-1.976.499-.191.055-.353.213-.194.658Zm-51.692 3 1.306.028-.384-1.028c-.348.356-1.479-.762-.922 1Zm-57.362 96.665c0 .442-.057.894.019 1.322.056.311.288.59.442.884.191-.391.564-.8.528-1.168-.047-.474-.422-.916-.989-1.038Zm214.439 99.665c-.31-.309-.613-.624-.931-.925-.139-.132-.307-.234-.461-.35-.092.181-.31.428-.255.531.414.78.627 2.008 1.647.744Zm-1.668-5c-.075-.076-.141-.169-.23-.22-.055-.032-.211-.008-.214.008-.082.503-.217 1.011-.199 1.513.012.322.252.635.39.953.151-.151.281-.335.457-.448.851-.553.03-.791-.204-1.806ZM239.76 387.278l-.461-1.539c-.27.312-.798.678-.747.924.074.361.563.636 1.208.615Zm-1.334-3.333c-.444.003-.89-.002-1.331.037-.019.001-.019.591 0 .592.441.039.887.034 1.331-.629Zm64.032-220.664-.765-1-.569.569c.333.255.667.51 1.334.431Zm-37.352 5.334.221.887v-2.441c-.074.296-.147.591-.221 1.554Zm-22.011 170.664c.445-.004.89.001 1.332-.037.019-.002.019-.591 0-.593-.442-.039-.887-.034-1.332.63Zm75.371-156.665c.444-.003.89.002 1.331-.036.019-.002.019-.592 0-.593-.441-.039-.887-.034-1.331.629Zm-110.388 7.667c-.299.077-.667.072-.88.251-.272.228-.42.604-.621.916.378-.044.787-.012 1.122-.155.283-.121.478-.445.379-1.012Zm163.08 19.666c-.285-.111-.575-.324-.853-.308-.378.021-.747.216-1.119.337.156.156.344.291.463.472.522.788.825.169 1.509-.501Zm-3.668 33c-.003-.445.001-.89-.037-1.331-.002-.019-.591-.019-.593 0-.039.441-.034.886.63 1.331Zm-190.094-18.666-.202 1.131 1.171-.766c-.212-.233-.424-.466-.969-.365Zm3.335 7.333c-.111.268-.384.61-.302.789.211.459-1.467.775-.077 1.159.136.038.502-.624.698-.995.087-.163.015-.411-.319-.953Zm-32.349 1c-.477-.111-.951-.253-1.434-.316-.157-.02-.34.168-.511.26.223.13.433.321.673.373.3.066.624.016 1.272-.317Zm229.446-14.667c0 .21-.044.431.01.625.095.338.25.659.38.986.092-.275.274-.557.256-.825-.026-.378-.201-.747-.646-.786Zm-50.024 0 1.319-.681c-.44.005-.88.01-1.319.681Zm37.018 27.666c.111-.477.253-.95.316-1.433.02-.157-.168-.34-.26-.511-.13.223-.322.433-.374.673-.065.3-.016.624.318 1.271Zm-24.012-28.666c.076-.076.172-.142.222-.232.031-.056.004-.213-.015-.216-.509-.082-1.019-.166-1.533-.197-.065-.004-.148.279-.223.43.294.072.588.144 1.549.215Zm24.012 32 .913-1.088c-.171-.081-.457-.269-.495-.229-.278.302-.507.65-.418 1.317Zm-1.334 2 .051-1.283-1.037.297.986.986Zm-214.105.666-.682-1.318c.005.439.01.879.682 1.318Zm169.75-40.332c-.077-.077-.142-.172-.233-.222-.056-.031-.213-.004-.216.014-.081.509-.166 1.02-.197 1.533-.004.065.28.148.43.224.072-.295.144-.589.216-1.549Zm78.705 83.998c.077.077.142.172.233.222.056.031.213.004.216-.014.081-.509.166-1.02.197-1.533.004-.065-.28-.148-.43-.223-.072.294-.144.588-.216 1.548ZM223.085 192.614l1.088.913c.082-.171.27-.457.23-.495-.303-.278-.651-.507-1.318-.418Zm.334-8.333c-.334.244-.681.473-.984.751-.04.038.148.324.23.495.362-.304.725-.608.754-1.246Zm145.738 152.331c-.244-.333-.473-.681-.751-.983-.038-.041-.324.147-.495.229.304.362.609.725 1.246.754ZM263.772 171.281l-1.283-.05.297 1.036.986-.986Zm-49.357.667-.216-.882c-.151.183-.456.493-.427.529.259.315-.696 1.43.643.353Zm-56.028 167.331-1.283-.051.297 1.036.986-.985Zm59.362 29.333-1.087-.913c-.082.171-.27.457-.23.495.303.278.651.507 1.317.418Zm77.705-203.664c.334-.244.682-.473.984-.751.041-.038-.147-.324-.229-.495-.363.304-.725.609-.755 1.246Zm9.338 206.663.334.667c.111-.222.222-.444-.334-.667Zm-118.725.667c.092-.353.187-.705.257-1.062.002-.011-.27-.075-.414-.114-.059.281-.117.562.157 1.176Zm172.418-7-.667.334c.223.111.445.222.667-.334Zm-25.679-7.666c-.091.353-.187.705-.256 1.062-.002.011.269.075.413.114.059-.281.118-.562-.157-1.176Zm-3.001-.334c.353.092.705.187 1.062.256.011.003.075-.269.114-.413-.281-.059-.562-.117-1.176.157Zm-6.337-4.333c.092-.353.187-.705.256-1.062.003-.011-.269-.075-.413-.114-.059.281-.117.562.157 1.176Zm-144.071 0c.092-.353.187-.705.257-1.062.002-.011-.27-.075-.414-.114-.059.281-.117.562.157 1.176Zm-2.334-1.667-.176-.842c-.144.039-.416.103-.414.113.069.358.165.71.59.729Zm89.377-5.999.667-.334c-.222-.111-.444-.222-.667.334Zm-13.006-5c-.092.353-.187.705-.257 1.062-.002.011.27.075.414.114.059-.281.117-.562-.157-1.176Zm2.001-1.334c.091-.353.187-.705.256-1.062.002-.011-.269-.075-.413-.114-.059.281-.118.562.157 1.176Zm117.057-9.666.177.843c.144-.039.415-.103.413-.114-.069-.357-.165-.71-.59-.729Zm2.668-2.667-.667.334c.223.111.445.222.667-.334Zm2.001-1.333-.176-.843c-.144.039-.416.103-.413.114.069.357.164.709.589.729Zm-209.436-18.666-.176-.843c-.144.039-.416.103-.414.114.069.357.165.709.59.729Zm228.779-15.334-.176-.842c-.144.039-.416.103-.413.113.069.358.164.71.589.729Zm-266.798-10.666c.353.091.706.187 1.063.256.011.002.075-.269.114-.413-.281-.059-.562-.118-1.177.157Zm18.009-4.667.667-.333c-.222-.111-.445-.222-.667.333Zm3.669-23.666c-.092.353-.188.705-.257 1.062-.002.011.27.075.414.114.059-.281.117-.562-.157-1.176ZM320.8 214.281c-.091.353-.187.705-.256 1.062-.002.011.269.075.413.114.059-.281.118-.562-.157-1.176Zm-137.067-23 .667-.333c-.223-.111-.445-.222-.667.333ZM319.8 169.948l.176.843c.144-.039.416-.103.414-.114-.07-.357-.165-.709-.59-.729Zm1.334-2-.177-.843c-.144.039-.415.103-.413.114.069.357.165.709.59.729Zm-48.691-11.333.4.267c-.022-.2-.044-.4-.4-.267Zm-7.337.667.4.266c-.022-.2-.044-.4-.4-.266Zm57.028 2.333-.267.4c.201-.022.401-.045.267-.4Zm-5.669 1.667-.4-.267c.022.2.044.4.4.267Zm-6.003 1.333-.4-.267c.022.2.044.4.4.267Zm-10.005 1.333-.4-.267c.022.2.044.4.4.267Zm-85.709 1-.267.4c.2-.022.4-.044.267-.4Zm5.336 1.333-.267.4c.2-.022.4-.044.267-.4Zm26.346 3.667.401.267c-.023-.2-.045-.4-.401-.267Zm71.369 3.333.4.267c-.022-.2-.044-.4-.4-.267Zm1.334 12.667.4.266c-.022-.2-.045-.4-.4-.266Zm-101.05 4.333.267-.4c-.2.022-.4.044-.267.4Zm-15.007.333.4.267c-.022-.2-.045-.4-.4-.267Zm12.006 0 .4.267c-.022-.2-.045-.4-.4-.267Zm104.384 1.667.267-.4c-.2.022-.4.044-.267.4Zm-154.743 4.667-.266.4c.2-.023.4-.045.266-.4Zm4.336 5 .4.266c-.022-.2-.044-.4-.4-.266Zm149.407 7.999.4.267c-.022-.2-.044-.4-.4-.267Zm55.027 1 .267-.4c-.2.023-.401.045-.267.4Zm-198.098 1.334a55.48 55.48 0 0 0-.266.4c.2-.023.4-.045.266-.4Zm167.75 3.666.4.267c-.022-.2-.045-.4-.4-.267Zm-184.425 17 .267-.4c-.2.022-.4.044-.267.4Zm-24.011 5.333.266-.4c-.2.023-.4.045-.266.4Zm224.443 22.333.401.267c-.023-.2-.045-.4-.401-.267Zm-204.767 8-.4-.267c.022.2.044.4.4.267Zm-19.343 10 .4.267c-.022-.2-.044-.4-.4-.267Zm-10.005 4.667-.4-.267c.022.2.045.4.4.267Zm41.02 33.666-.266.4c.2-.023.4-.045.266-.4Zm207.769 14.999-.4-.266c.022.2.045.4.4.266Zm-200.765 4.667.4.267c-.022-.2-.044-.4-.4-.267Zm-19.343.667.4.266c-.022-.2-.044-.4-.4-.266Zm103.718 2.333-.267.4c.2-.022.4-.044.267-.4Zm107.719 8.333.401.267c-.023-.2-.045-.4-.401-.267Zm-90.044 2.667-.4-.267c.022.2.044.4.4.267Zm93.379 5.333-.4-.267c.022.2.045.4.4.267Zm-85.708 3.667.266-.4c-.2.022-.4.044-.266.4Zm60.029 0 .267-.4c-.2.022-.4.044-.267.4Zm-135.733.333-.401-.267c.023.2.045.4.401.267Zm138.068 0-.401-.267c.023.2.045.4.401.267Zm-50.025 8.667-.4-.267c.022.2.044.4.4.267Zm25.346.666.4.267c-.022-.2-.045-.4-.4-.267Zm-78.372 4.333-.267.4c.2-.022.4-.044.267-.4Zm-14.674 4 .267-.4c-.2.023-.4.045-.267.4Zm89.711.334.4.266c-.022-.2-.044-.4-.4-.266Zm2.001.666.4.267c-.022-.2-.044-.4-.4-.267Zm-76.038 8-.4-.266c.022.2.045.4.4.266Zm-2.001 2.667-.4-.267c.022.2.045.4.4.267Z" fill="#000"/></svg>