<svg width="534" height="534" viewBox="0 0 534 534" fill="none" xmlns="http://www.w3.org/2000/svg"><path d="M237.489 91c19.752 12.477 17.357 32.676 20.434 49.698 4.883 27.029 6.912 54.573 10.384 81.87.227 1.782 2.263 4.428 3.774 4.668 1.79.284 4.776-1.066 5.778-2.643 16.454-25.907 32.641-51.984 48.969-77.971 8.584-13.664 17.209-27.305 26.105-40.764 1.532-2.317 4.514-3.671 6.826-5.47 2.196 3.186 6.804 6.976 6.184 9.457-3.305 13.237-5.644 27.517-12.491 38.919-22.551 37.554-47.594 73.608-70.034 111.224-5.175 8.674-6.269 21.588-4.952 32.006 3.497 27.641 9.966 54.891 14.03 82.478 2.773 18.819 3.757 37.927 4.915 56.942.251 4.111-2.178 8.387-3.373 12.586-3.714-4.274-9.351-8.003-10.744-12.936-2.944-10.421-3.095-21.599-5.419-32.241-6.218-28.492-12.972-56.869-19.534-85.286-.514-2.23-1.186-4.422-1.785-6.632-2.313 1.877-5.367 3.304-6.818 5.704-9.481 15.686-18.238 31.82-27.968 47.343-9.326 14.878-17.203 31.227-34.248 39.516-1.391.675-2.273 2.337-3.513 3.397-5.153 4.407-6.366 16.42-16.297 10.599-2.104-1.233.988-12.122 2.412-18.397.994-4.376 2.072-9.744 5.087-12.487 21.992-19.993 27.545-49.512 42.936-73.312 8.204-12.685 11.54-29.391 21.686-39.736 12.197-12.436 11.204-26.915 7.539-38.175-3.709-11.397-2.125-21.963-3.771-32.754-1.524-9.991-4.184-19.903-4.695-29.934-1.161-22.772-3.924-45.171-9.562-67.32-.781-3.07 4.463-7.681 8.145-10.349Zm-6.137 225.084c7.297-10.593 14.795-21.059 21.632-31.941.836-1.33-1.458-5.247-3.167-7.206-.527-.604-5.201.75-5.813 2.154-5.314 12.208-10.137 24.633-17.56 36.993l-.359 4.559c.937-1.52 1.876-3.039 5.267-4.559Z" fill="#000"/></svg>