<svg width="534" height="534" viewBox="0 0 534 534" fill="none" xmlns="http://www.w3.org/2000/svg"><path d="M157.059 365.146c-5.113-11.588-9.436-22.134-13.333-32.835-3.616-9.931-4.171-29.918-3.455-40.2 1.004-14.423-1.248-29.098 4.095-43.13 13.664-35.894 23.824-73.993 55.666-99.388 9.768-7.789 20.317-19.497 35.998-9.761 1.384.859 5.097-2.451 7.885-3.333 12.653-4.005 25.164-9.874 38.111-11.133 12.066-1.175 25.377.51 36.821 4.603 42.718 15.275 65.056 46.696 71.954 91.339 2.748 17.784 3.407 35.28 3.147 52.951-.155 10.505-2.18 21.013-3.832 31.446-.447 2.824-1.884 6.597-4.072 7.865-17.614 10.199-20.12 31.858-35.551 44.514-18.855 15.464-37.749 28.867-61.583 35.507-24.241 6.755-47.769 16.336-73.581 15.337-25.53-.988-45.181-10.868-54.548-36.162-.832-2.246-1.827-4.433-3.722-7.62Zm118.062-178.092c1.846 0 3.756.293 5.517-.093 1.388-.305 2.593-1.444 3.88-2.213-1.011-.529-2.258-1.726-2.992-1.469-2.873 1.009-5.585 2.478-10.308 3.775l-.286 3.608c.746-1.202 1.492-2.405 4.189-3.608Zm-37.077-25.302c0 1.226-.515 2.91.096 3.594 1.858 2.081 4.151 3.776 6.275 5.621.187-3.362.796-6.796.24-10.031-.126-.732-4.301-.772-6.611-3.077l6.647-2.737c-1.393-1.034-3.366-3.268-4.092-2.919-8.669 4.163-17.62 8.07-25.323 13.656-1.696 1.229 1.211 8.774 1.998 13.409 2.146-2.371 4.121-4.928 6.472-7.075 4.656-4.249 9.52-8.271 14.298-10.441Zm-56.592 25.302c-9.439 11.119-8.004 26.044-13.353 38.656-1.283 3.023 1.257 7.661 2.039 11.556 1.82-3.09 4.564-5.975 5.298-9.303 2.99-13.563 5.366-27.26 9.919-40.909l.286-3.607c-.746 1.202-1.492 2.405-4.189 3.607Zm-21.466 153.762 3.617.285c-1.205-.744-2.411-1.487-3.617-4.177-2.797-11.778.688-23.587-.135-35.324-.731-10.401-2.367-20.767-4.203-31.041-.371-2.076-3.436-3.672-5.258-5.49-.704 2.173-2.125 4.388-2 6.512 1.107 18.752 2.098 37.531 4.108 56.197.421 3.919 4.887 7.406 7.488 13.038Zm103.426-165.44c-21.076 7.051-39.964 18.561-55.894 33.365-8.307 7.719-17.492 17.87-16.239 31.741.152 1.685 1.258 3.284 1.921 4.924.637-1.677.904-3.649 1.972-4.982 7.032-8.778 12.834-22.401 21.727-24.893 12.295-3.446 17.015-12.793 25.212-19.164 8.224-6.392 15.539-13.946 25.204-20.991 5.955-2.595 12.258-4.639 17.698-8.052 2.219-1.393 2.568-5.752 3.768-8.761-2.692-.884-6.45-3.35-7.896-2.382-7.03 4.704-15.63 8.613-17.473 19.195Zm101.475 89.533c-3.211 5.797-7.768 11.276-9.243 17.484-1.396 5.874-2.912 7.288-8.776 10.606-18.163 10.276-34.279 24.196-50.901 37.072-1.747 1.352-1.58 5.162-2.301 7.832 1.836-1.187 3.933-2.109 5.466-3.605 8.716-8.507 16.93-17.693 31.318-11.3 1.628.724 5.677-2.195 7.6-4.327 2.814-3.118 3.89-8.816 7.153-10.345 19.023-8.92 19.995-26.221 23.587-43.417l.286-3.608c-.746 1.203-1.492 2.405-4.189 3.608Zm-134.649-25.303c-3.92 15.598-4.396 33.494-25.635 37.414-1.577.292-3.088 2.418-4.066 4.032-.902 1.489-1.859 3.801-1.284 5.073.533 1.18 3.554 2.479 4.622 1.962 4.349-2.104 8.133-5.464 12.573-7.261 5.002-2.024 12.914-5.624 15.215-3.607 3.917 3.433 5.651 10.628 6.104 16.413.734 9.373-2.399 17.967-8.742 25.488-1.46 1.731-.735 6.49.551 9.083 2.758 5.556 5.026.523 6.623-1.262 8.175-9.138 18.221-12.62 30.359-11.53 6.438.579 13 .488 19.455.013 9.701-.712 13.58-5.172 14.92-16.95 2.761-24.275 9.798-46.849 22.701-67.968 8.705-14.249 5.633-24.785-7.98-33.842-6.905-4.596-14.531-9.933-23.882-3.253-2.654 1.896-7.293 1.374-11.02 1.357-7.717-.035-14.307.08-20.814 6.726-8.034 8.205-17.82 16.891-28.418 19.941-20.075 5.778-22.774 23.976-32.005 37.509-1.336 1.959.317 5.946.587 8.995 3.516-.337 7.749.409 10.35-1.307 2.718-1.795 4.63-5.749 5.548-9.124 2.315-8.504 7.571-14.608 14.238-17.902Zm93.669 46.712c8.205-13.621 17.901-38.099 11.703-51.76-.684-1.507-1.438-2.981-2.16-4.47-1.369 1.365-3.244 2.49-4.022 4.133-4.584 9.675-9.639 19.224-13.086 29.309-2.531 7.406-4.209 15.638-3.808 23.376.536 10.342 5.587 5.118 11.373-.588Zm62.445-19.463c-1.029-1.946-1.797-4.143-3.267-5.667-.377-.391-4.105 1.078-4.35 2.139-1.382 5.982-1.764 12.201-3.233 18.155-6.317 25.588-24.126 44.457-38.817 65.126-1.176 1.654-3.864 2.33-4.801 4.034-.822 1.495-.172 3.795-.172 5.739 1.837-.532 5.038-.689 5.305-1.654 3.746-13.544 25.853-15.003 22.235-33.419-.06-.308 3.678-.785 4.731-1.983 4.433-5.039 9.961-9.789 12.418-15.742 4.343-10.524 6.74-21.847 9.951-36.728Zm-48.785-118.728c-21.46-11.841-44.837-12.61-68.459-11.466-1.324.064-2.5 3.197-3.744 4.901 2.028.814 5.32 2.849 5.895 2.258 8.447-8.689 16.07-1.084 23.852.942 14.576 3.793 29.181 7.056 42.456 3.365ZM171.695 371.958c3.674 4.962 7.106 10.134 11.156 14.771 1.373 1.572 4.303 1.793 6.522 2.631-.613-1.833-1.13-3.705-1.857-5.492-2.71-6.655-4.229-14.307-8.584-19.645-4.701-5.76-3.339-8.604 1.225-12.451 2.472-2.084 4.82-4.387 6.858-6.888 1.532-1.88 6.158-2.733 1.603-7.001-4.713-4.416-8.093-3.546-10.844.949-3.753 6.135-7.402 12.532-9.628 19.298-.868 2.64 2.248 6.585 3.549 13.828Zm85.863-19.464c-5.102 8.33-13.441 5.034-20.708 5.996-3.619.48-7.017 2.607-10.515 3.989 3.667 1.213 7.268 3.04 11.021 3.438 2.806.297 5.815-1.887 8.722-1.858 10.628.107 19.99-10.216 31.601-3.681 1.087.612 4.738-3.309 7.199-5.125-2.025-1.568-3.94-4.284-6.094-4.489-6.375-.604-12.843-.216-21.226 1.73Zm83.911-157.654c7.16-3.584 13.077-12.653 22.876-4.762 1.089.877 4.215-.765 6.396-1.238-.956-2.198-1.381-5.627-2.988-6.317-2.703-1.16-7.738.663-9.017-.954-5.144-6.503-18.897 7.92-19.553-8.251-.027-.676-3.376-1.975-4.814-1.599-1.169.304-2.785 2.936-2.491 4.109 1.604 6.41 3.737 12.688 9.591 19.012ZM210.724 305.782l7.146 9.732c2.045-3.767 4.053-7.553 6.145-11.294 1.748-3.125 4.12-6.021 5.232-9.345.922-2.757.409-5.992.532-9.014-2.269 1.27-4.854 2.188-6.741 3.882-4.287 3.846-8.231 8.074-12.314 16.039Zm158.066-87.586c6.129-4.294 6.616-8.646-.795-11.537-5.478-2.137-15.401 4.921-16.582 11.815-.592 3.455.766 7.242 1.243 10.879 2.265-1.912 4.585-3.762 6.778-5.753 1.894-1.718 3.641-3.596 9.356-5.404Zm-56.592 149.87c4.832-2.225 9.785-4.236 14.398-6.846.978-.553 1.488-3.759.803-4.898-.703-1.167-4.198-2.25-4.657-1.741-10.163 11.25-24.659 11.682-37.797 15.501-1.235.359-2.183 1.696-3.264 2.58 1.107.414 2.281 1.309 3.311 1.167 8.433-1.163 16.84-2.52 27.206-5.763Zm-64.397-40.874c-2.672 3.456-3.963 7.58 2.011 7.508 6.465-.077 12.925-2.227 19.345-3.662 2.505-.559 4.895-1.635 7.337-2.476-2.448-1.754-4.994-5.093-7.326-4.951-5.873.356-11.649 2.283-21.367 3.581Zm119.037-72.015c1.024.649 2.921 1.899 2.947 1.861 4.114-5.945 8.188-11.927 11.868-18.14.246-.415-2.925-4.013-3.841-3.757a210.426 210.426 0 0 0-21.247 7.188c-.994.395-.982 3.307-1.436 5.055 1.827-.523 3.668-1.002 5.478-1.576 3.135-.991 6.251-2.041 9.375-3.066-.397 3.496-.795 6.992-3.144 12.435ZM241.946 375.851c0 1.294-.41 3.54.061 3.742 9.804 4.203 19.385 2.748 28.585-1.912 1.268-.642 2.742-3.818 2.403-4.169-1.454-1.503-3.672-3.498-5.391-3.311-7.943.868-15.811 2.406-25.658 5.65Zm-62.445-85.64c5.163-2.984 3.015-5.715-.51-8.013-.333-.218-2.662 1.729-3.307 3.041-1.567 3.19-2.731 6.582-3.98 9.921-2.443 6.533-7.33 12.876-1.7 20.093 2.718-5.306 5.516-10.573 8.105-15.942.767-1.59.944-3.463 1.392-9.1Zm7.805 73.962c5.548-.649 11.156-.998 16.616-2.085 2.421-.481 4.544-2.457 6.802-3.754-2.258-1.298-4.395-3.367-6.798-3.744-6.362-.999-12.631-.676-16.62 9.583Zm126.844-21.41 1.325-6.464c-3.05.863-7.635.804-8.827 2.781-2.44 4.046-12.553 5.607-7.411 11.451 6.807 7.735 8.155-4.544 14.913-7.768ZM199.015 173.43c1.806-1.801 4.25-3.312 5.242-5.483 1.039-2.275.685-5.183.94-7.815-2.187.666-4.838.776-6.459 2.12-2.842 2.358-5.054 5.473-7.529 8.271 1.952 1.618 3.903 3.236 7.806 2.907Zm13.66 208.26c2.753 2.595 5.292 5.519 8.416 7.545.746.484 3.444-2.023 5.244-3.155l-10.194-11.74c-1.806 1.801-3.612 3.602-3.466 7.35Zm103.426-219.938c-2.489 1.411-4.977 2.821-7.465 4.233l9.238 5.499c.059-2.595.119-5.191-1.773-9.732Zm-66.349-3.893c-1.103 7.463 4.392 6.079 8.309 5.59 1.321-.166 2.277-3.23 3.4-4.969-3.253-.856-6.505-1.712-11.709-.621ZM351.227 274.64l-6.789-4.906-3.095 10.619c2.644-1.255 5.288-2.511 9.884-5.713Zm-52.689-91.478c1.909 0 3.894.317 5.703-.109 1.265-.297 2.291-1.609 3.423-2.467-2.405-2.826-9.213-1.481-9.126 2.576Zm-37.077 208.26c2.793.648 5.563 1.477 8.394 1.842.915.119 1.988-.977 2.988-1.517-1.305-.758-2.533-1.876-3.938-2.18-1.754-.381-3.655-.092-7.444 1.855Zm-29.272-1.946 4.935-1.03c-.23-.84-.604-2.425-.667-2.413-2.092.404-4.153.961-4.268 3.443Zm-52.688-138.191-3.903 1.945c1.301.649 2.602 1.298 3.903-1.945Zm13.659 40.872-1.561 2.336c1.171-.13 2.342-.259 1.561-2.336Z" fill="#000"/><path d="M280.976 272.694c2.867-.914 5.78-1.711 8.589-2.777 2.363-.898 4.606-2.109 6.902-3.183-.376 3.05.362 7.084-1.322 8.978-6.88 7.741-14.002 15.43-21.987 21.985-7.848 6.444-23.199.032-26.894-12.594-3.275-11.195-4.226-23.446-3.959-35.179.242-10.67 18.749-23.859 30.742-23.942 10.249-.072 24.756 11.426 27.443 21.751.811 3.114-1.917 4.542-9.681 9.795-4.298 2.906-6.62 8.718-10.809 14.193-5.397 2.789-9.82 4.604-14.242 6.42.708.78 1.353 2.161 2.135 2.243 6.183.65 11.25-.86 13.083-7.69Zm-19.514-17.517c.417 3.012.123 6.42 1.509 8.891.884 1.575 5.16 3.121 6.357 2.331 4.841-3.199 5.696-7.887 2.192-12.835-2.475-3.493-5.195-5.365-10.058 1.613Zm-3.903 23.356-2.342-1.557c.13 1.168.26 2.335 2.342 1.557ZM231.214 237.66c-.23-1.203.516-2.405 1.262-3.608-.096 1.203-.191 2.405-1.262 3.608Z" fill="#000"/></svg>