<svg width="534" height="534" viewBox="0 0 534 534" fill="none" xmlns="http://www.w3.org/2000/svg"><path d="M314.12 157.787c.705-3.225 1.299-5.439 2.136-7.557 1.68-4.249 2.002-9.099 6.021-12.326 1.601-1.286 2.548-3.383 3.793-5.111 1.651 2.481 4.751 5.013 4.667 7.435-.207 5.91-1.897 11.768-2.968 17.651-.359 1.97-1.178 4.035-.881 5.915 1.399 8.871-2.252 16.511-5.939 23.96-5.357 10.824-11.372 21.322-17.068 31.981-.917 1.717-2.132 3.492-2.319 5.331-.274 2.688.256 5.459.444 8.194 1.743-1.412 3.647-2.667 5.202-4.263 8.568-8.79 20.909-11.021 30.704-17.765 9.325-6.421 19.892-10.885 27.887-19.418 8.361-8.923 13.506-19.509 18.042-30.561.741-1.804 1.271-3.708 2.155-5.435 1.06-2.071 2.395-4.003 3.611-5.995-.112 2.608.067 5.267-.386 7.813-2.159 12.124-8.772 22.389-14.11 33.186-.414.838-.401 1.887-.586 2.838.935-.293 2.109-.325 2.763-.924 2.592-2.375 4.75-5.302 7.569-7.333 5.489-3.956 12.024-2.8 15.115 2.204 2.081 3.371-.375 9.017-5.446 12.375-3.029 2.006-6.127 3.91-9.163 5.907-.576.379-1.007.977-1.505 1.475.901.355 1.969 1.212 2.674.978 2.769-.92 5.515-2.011 8.098-3.365 2.92-1.53 5.118-1.084 7.267 1.378 2.674 3.062-.142 4.597-1.831 5.784-6.498 4.566-13.021 9.161-19.903 13.105-18.749 10.748-37.628 21.275-56.573 31.676-9.436 5.18-19.117 9.917-28.714 14.803-3.604 1.834-4.154 3.119-2.214 7.682 5.843 13.749 10.288 28.1 15.017 42.303.737 2.216.621 5.025.014 7.327-2.905 11.019-1.79 22.707.548 35.301 2.003 10.79 6.124 21.227 5.987 32.449-.031 2.513 2.102 5.142 1.803 7.539-.377 3.027-2.003 6.014-3.698 8.625-.232.358-4.163-1.236-6.033-2.459-7.021-4.592-9.483-11.864-11.236-19.582-1.306-5.751-1.693-12.254-4.751-16.952-6.286-9.657-7.467-20.879-11.455-31.186-2.123-5.487-1.833-11.885-2.822-17.84-.315-1.898-.957-3.872-1.973-5.482-.798-1.266-2.4-2.027-3.645-3.012.301 1.449.797 2.889.867 4.349.267 5.547.676 11.112.471 16.649-.121 3.247-.934 6.601-2.142 9.626-.754 1.891-2.912 4.659-4.282 4.572-2.903-.185-5.086-2.938-3.937-5.956 4.387-11.521.829-23.395 2.001-35.032.106-1.045.244-2.181-.058-3.141-.243-.773-1.079-1.809-1.744-1.882-.749-.081-2.163.638-2.328 1.262-4.299 16.258-13.667 30.343-23.856 42.671-11.906 14.407-17.677 31.728-27.71 46.842-2.733 4.118-5.414 4.983-8.78 3.766-3.986-1.441-4.021-5.981-2.948-9.042 2.682-7.647 6.288-14.969 9.444-22.455 1.135-2.694 3.126-5.582 2.885-8.213-1.669-18.154 5.267-33.94 12.808-49.648.745-1.55.893-3.385 1.318-5.088-1.451.601-2.94 1.125-4.348 1.813-15.225 7.44-30.223 15.393-45.727 22.197-10.705 4.698-22.016 8.123-33.274 11.364-2.02.581-5.448-2.114-7.599-4.007-2.534-2.231-1.476-4.741.655-7.152 2.519-2.849 4.21-6.375 8.32-7.626 2.462-.749 4.989-1.88 6.952-3.489 1.726-1.414 2.709-3.733 4.02-5.652-1.934.258-3.862.671-5.802.733-2.056.065-4.5.435-6.081-.499-1.663-.981-4.83-2.679-1.962-5.65 3.379-3.499 6.526-9.313 10.381-9.86 10.228-1.451 18.199-7.358 27.31-10.861 19.137-7.355 38.38-14.433 57.586-21.608.309-.115.77.115 1.041-.032 15.261-8.317 17.245-4.65 16.914-23.556-.251-14.334-.021-28.564-4.07-42.625-1.668-5.791-.92-12.332-.915-18.531.006-6.58.823-13.174.584-19.737-.322-8.865.411-18.332-2.518-26.376-2.757-7.573 2.771-8.765 5.52-12.122 1.478-1.806 6.663 2.281 7.638 6.212 4.272 17.229 8.619 34.442 12.643 51.729 2.478 10.648 6.752 20.94 6.529 32.181-.027 1.335 1.812 2.707 2.786 4.063.498-1.036.836-2.194 1.518-3.09 6.931-9.103 14.652-17.707 20.668-27.372 5.29-8.497 8.69-18.168 12.924-28.376Zm-58.105 139.27.155-1.955c-.404.652-.808 1.304-2.268 1.955l-.154 1.956c.403-.652.807-1.304 2.267-1.956Zm30.637-7.385c.705.351 1.409.703 2.113 2.11-.704 2.51-1.48 5.005-2.029 7.548-.076.348.974.94 1.503 1.419-2.354-3.474 5.925-6.389.526-11.077-.704-.352-1.408-.703-2.113-2.11l-1.958-.155c.653.403 1.306.807 1.958 2.265Zm22.186-36.928c-.999 0-2.296-.391-2.927.09-.986.752-1.519 2.094-2.244 3.186.941-.311 1.953-.494 2.808-.963 1.201-.66 2.285-1.532 4.476-2.313l2.87-3.464c-.549-.252-1.541-.78-1.582-.715-.846 1.352-1.585 2.772-3.401 4.179Zm-69.726 25.322-3.17 2.44 3.018 3.739c.403-1.395.86-2.777 1.184-4.19.145-.632.024-1.324 1.081-1.989l.155-1.956c-.404.652-.808 1.304-2.268 1.956Zm90.855-37.983c-.666 0-1.579-.278-1.951.052-1.129 1.005-2.049 2.245-3.051 3.393 1.825.101 3.689.43 5.445.13.397-.068.419-2.325 1.67-3.575l.155-1.956c-.404.652-.808 1.304-2.268 1.956Zm6.339-12.661c-6.303-1.864-7.469 6.416-12.809 6.524-.139.003-.468 1.27-.353 1.336.537.311 1.224.62 1.811.548 5.557-.683 9.784-3.38 13.464-8.408l5.071-2.954c-.384-.422-.972-1.271-1.12-1.2-1.465.701-2.914 1.473-4.239 2.408-.446.314-.523 1.149-1.825 1.746Zm-139.452 80.186c6.344-.634 12.289-2.386 17.159-6.685.993-.875 1.393-2.42 2.066-3.656-1.371-.07-2.922-.596-4.087-.14-13.256 5.189-27.031 9.226-39.205 16.87-2.845 1.786-5.303 4.222-7.781 6.529-.617.574-.618 1.809-.903 2.741.951-.191 1.992-.193 2.839-.599 9.635-4.633 19.241-9.327 29.912-15.06Zm33.806 12.661c3.409-6.218 6.888-12.399 10.165-18.686.63-1.208.462-2.831.662-4.263-1.433.553-3.592.693-4.184 1.727-4.156 7.261-8.135 14.637-11.78 22.164-.599 1.239.722 3.406 1.156 5.145.975-1.678 1.95-3.355 3.981-6.087Zm59.162-101.288c.352-1.231.958-2.463.951-3.692-.003-.634-1.098-1.261-1.699-1.891-2.92 4.988-5.932 9.927-8.646 15.024-.346.65.865 2.127 1.355 3.221.919-.666 2.226-1.132 2.686-2.032 1.591-3.11 2.888-6.371 5.353-10.63Zm47.54 17.937c6.724.61 10.376-5.345 15.839-7.442.345-.133.431-.935.637-1.426-.955-.209-2.149-.892-2.827-.552-4.61 2.316-9.112 4.848-13.649 9.42Zm-42.258 78.076c0-3.832.144-7.673-.117-11.487-.054-.796-1.603-1.489-2.463-2.229-.549.703-1.549 1.392-1.572 2.112a174.57 174.57 0 0 0 .103 13.575c.005.108 2.64.095 4.049-1.971Zm8.452 69.635c-.932-3.04-1.786-6.109-2.904-9.08-.122-.325-1.806-.257-2.67-.022-.378.103-.861 1.199-.711 1.649 1.305 3.906 2.743 7.768 4.141 11.642.714-.693 1.429-1.386 2.144-4.189Zm57.048-170.923c-5.245-2.812-8.103.351-10.59 4.283-.555.878-.823 1.936-1.222 2.911.938-.106 2.078.092 2.78-.372 2.734-1.808 5.329-3.827 9.032-6.822Zm-66.556 127.665-1.483-3.591c-.562.749-1.7 1.602-1.586 2.229.462 2.555 1.251 5.059 2.048 7.541.229.715.888 1.292 1.35 1.932.243-.95.613-1.89.696-2.855.12-1.391.031-2.8-1.025-5.256Zm3.169 13.716c0 1.74-.164 3.498.037 5.214.321 2.741.884 5.453 1.345 8.177.244-2.683 1.196-5.558.533-7.994-.676-2.483 3.112-6.245-1.915-5.397Zm25.355-187.804c-1.883-1.45-3.794-2.168-4.116 1.111-.13 1.326.962 2.772 1.497 4.164.873-1.055 1.746-2.11 2.619-5.275Zm-57.049 135.05c.705.762 1.998 1.511 2.015 2.288.088 4.112 2.139 3.078 2.948.848.442-1.219-1.636-3.451-2.795-5.072-.272-.38-1.422-.133-2.168 1.936Zm46.484-59.085c2.679 1.995 4.202 1.769 4.294-2.008.024-.977.881-1.935 1.355-2.901-1.164.215-2.426.224-3.463.71-.865.406-1.467 1.372-2.186 4.199Zm75.009-51.699c-.235.235-.522.438-.685.714-.103.174-.03.662-.019.663 1.818.089 3.646.243 5.447.085.225-.02.304-1.697.45-2.605-1.379.029-2.758.059-5.193 1.143Zm-135.227 88.627c-.234.234-.521.438-.684.714-.103.174-.031.662-.02.663 1.819.089 3.647.243 5.448.084.225-.019.303-1.696.45-2.605-1.379.03-2.758.059-5.194 1.144ZM374.338 202.1c-.948.244-2.112.229-2.789.795-.861.72-1.328 1.91-1.965 2.898 1.195-.139 2.493-.037 3.554-.489.895-.382 1.515-1.408 1.2-3.204Zm-105.645 8.441c-.352 2.206-.773 4.406-1.005 6.625-.054.513.538 1.094.833 1.644.41-.724 1.09-1.42 1.173-2.18.179-1.66.055-3.354-1.001-6.089Zm91.911 11.606c1.409-.01 2.82.004 4.219-.117.059-.005.059-1.871 0-1.877-1.399-.121-2.81-.106-4.219 1.994Zm-148.96 60.139c1.056-.849 2.153-1.657 3.111-2.606.101-.101-.612-1.022-.947-1.563-1.425 1.39-2.851 2.78-2.164 4.169Zm9.508 70.691 4.179-2.157c-1.393.016-2.786.031-4.179 2.157Zm4.226-59.085 4.179-2.156c-1.393.015-2.786.031-4.179 2.156Zm9.508 32.708 2.893-3.442c-.542-.259-1.449-.854-1.568-.725-.882.956-1.607 2.057-1.325 4.167Zm-76.065-16.882 2.687-.572-3.17-3.166c-.191.895-.382 1.789.483 3.738Zm94.025-5.275-.559-2.668c-.456.124-1.316.326-1.309.361.219 1.13.521 2.245 1.868 2.307Zm-79.234-7.386-1.057-2.11c-.352.704-.704 1.407 1.057 2.11Zm86.629-118.169c.29-1.117.593-2.231.812-3.362.007-.034-.854-.236-1.31-.36-.186.889-.372 1.778.498 3.722Zm119.38 32.708-1.268-.844c.07.633.141 1.266 1.268.844Zm-108.815 13.716.845-1.266c-.634.07-1.268.141-.845 1.266Zm2.112 16.881.846-1.266c-.634.071-1.268.141-.846 1.266Zm-54.935 50.644.845-1.266c-.634.07-1.268.141-.845 1.266Zm39.089-1.055 1.267.844c-.07-.633-.14-1.266-1.267-.844Zm-27.468 48.534 1.267.844c-.07-.633-.14-1.266-1.267-.844Zm70.782-15.826.846-1.266c-.634.07-1.268.14-.846 1.266Z" fill="#000"/></svg>