<svg width="534" height="534" viewBox="0 0 534 534" fill="none" xmlns="http://www.w3.org/2000/svg"><path d="M193.263 342.604c-1.883 3.523-4.065 6.419-5.898 9.521-2.309 3.906-4.037 8.103-6.758 11.835-2.761 3.785-4.801 8.095-7.156 12.175-2.487 4.306-4.578 8.909-7.54 12.859-6.693 8.93-11.748 19.209-21.237 25.906-3.547 2.502-6.612 5.681-10.093 8.289-.765.572-2.365.029-3.581-.001.497-.928.804-2.046 1.519-2.754 9.349-9.267 18.238-18.633 25.805-29.753 12.606-18.529 21.807-39.035 34.62-57.246 15.469-21.988 27.297-46.025 41.177-68.888 4.362-7.186 7.75-14.986 11.23-22.665.613-1.352-.165-3.68-.933-5.246-2.262-4.612-5.464-8.848-7.149-13.636-2.408-6.84-3.457-13.647-1.638-21.399 2.239-9.543 1.5-19.755 3.958-29.439 2.851-11.235 7.929-21.271 16.033-29.691 2.052-2.131 3.753-4.607 5.85-6.688 7.44-7.382 16.045-12.144 26.882-12.565 2.83-.11 6.287-1.416 8.229-3.383 4.004-4.056 9.264-5.512 13.982-7.994 2.28-1.2 5.372-.935 8.11-1.168 3.68-.313 7.421-.93 11.047-.556 3.593.37 7.124 1.662 10.593 2.819 4.004 1.335 7.9 2.99 11.862 4.455 2.079.77 4.298 1.231 6.271 2.202 1.726.849 3.19 2.225 4.782 3.352 1.16.821 2.286 2.214 3.519 2.324 7.197.637 10.913 5.677 13.708 11.241 1.244 2.476 2.348 4.39 4.847 5.483.953.417 2.569.974 2.612 1.562.443 5.971 7.523 6.344 9.253 11.303 1.207 3.46 3.271 6.614 4.803 9.973.193.424-.457 1.771-.835 1.823-1.709.232-7.142-1.564-.912 2.159 1.152.689 2.467 2.21 2.543 3.42.527 8.321 1.39 16.698.918 24.987-.832 14.616-6.036 27.637-17.056 37.761a283.792 283.792 0 0 1-16.604 14.106c-2.085 1.639-4.861 2.425-7.364 3.504-18.575 8.005-37.731 13.507-58.2 12.435-9.794-.513-19.18-3.21-28.416-6.515-7.81-2.795-15.801-5.069-22.917-9.553-.619-.39-2.006.275-2.955.655-.382.152-.543.857-.805 1.31-.392.68-.777 1.365-1.179 2.039-17.857 30.01-33.484 61.4-54.927 89.642Zm75.041-127.619c-3.268 5.661-6.545 11.318-9.803 16.985-3.474 6.042-3.34 7.194 2.688 10.581 7.451 4.185 14.713 8.249 23.385 10.499 9.259 2.404 18.507 4.398 27.883 5.123 14.124 1.093 27.606-2.561 40.444-8.386 12.34-5.599 23.812-11.756 32.593-23.194 6.387-8.32 10.918-16.642 12.02-26.684.907-8.272 2.16-17.119-1.033-24.866-5.478-13.294-11.858-26.361-23.217-35.986-3.618-3.067-7.353-6.05-11.321-8.629-1.985-1.29-4.729-1.345-6.93-2.381-4.564-2.149-9.061-4.382-13.711-6.387-12.179-5.252-24.194-3.505-36.42-1.546-.691.111-1.338.491-2.006.746.499.53.943 1.131 1.512 1.572a9.544 9.544 0 0 0 2.028 1.185c4.27 1.866 4.701 2.595 2.224 5.607-1.338 1.626-3.276 3.017-5.227 3.833-6.504 2.72-13.141 5.122-19.718 7.67-1.98.768-3.928 1.618-5.891 2.43.967-2.065 1.94-4.128 2.898-6.197.743-1.604 1.466-3.217 2.198-4.826-1.93.383-3.869.726-5.784 1.172-.715.167-1.387.549-2.058.876-8.189 3.985-14.449 9.633-19.577 17.523-5.185 7.978-8.336 16.427-10.461 25.345-1.558 6.541-1.831 13.388-2.694 20.096-1.131 8.791-1.646 17.464 3.155 25.565 1.845 3.113 3.257 6.481 4.867 9.734 2.339-3.696 4.7-7.377 6.973-11.113.187-.309-.484-1.092-.324-1.473 1.693-4.026 4.054-7.514 8.349-9.145 2.706-1.028 4.761-.97 2.958 4.271Zm25.014-82.593 1.755-2.032c-.771-.422-1.604-1.262-2.297-1.159-.816.121-1.538 1.027-2.253 1.648-1.542 1.34-3.053 2.714-4.576 4.074 2.099-.748 4.198-1.496 7.371-2.531Z" fill="#000"/><path d="M305.235 136.098c4.091-1.863 7.529-3.909 11.225-5.235 8.147-2.921 16.364-2.762 25.072-1.942 7.032.663 11.965 2.883 15.974 7.979 1.789 2.275 2.577 5.314 4.231 7.723 3.007 4.381 6.509 8.425 9.457 12.842 3.305 4.951 5.396 10.469 5.685 16.493.671 13.962-1.55 27.873-5.662 40.847-3.449 10.881-10.63 20.718-19.759 28.555-7.045 6.048-15.129 8.232-24.179 8.462-8.834.224-17.597-.309-25.882-3.267-8.064-2.88-15.622-6.334-19.326-15.566-2.967-7.394-6.675-14.465-9.304-22.096-3.219-9.343-.943-18.093.854-27.028.577-2.867 2.011-5.585 2.411-8.461 1.47-10.55 7.358-19.162 13.202-27.337 3.608-5.048 10.207-7.956 16.001-11.969Zm52.858 19.182c-4.375-2.454-8.4-5.247-14.068-4.728-2.892.265-5.981-2.15-9.049-3.144-4.424-1.433-8.847-3.241-13.65-1.797-.813.244-1.53.806-2.292 1.221.806.601 1.982 1.898 2.361 1.697 4.598-2.443 8.488 1.077 12.149 2.201 4.443 1.365 9.241 4.968 11.613 8.955 4.47 7.513 6.77 15.789 4.337 25.158-1.419 5.464-5.064 9.451-6.738 14.463-2.38 7.128-8.129 9.253-14.401 9.795-8.473.731-16.901 2.653-25.425-1.92-6.259-3.357-7.911-4.964-7.23-11.717.479-4.742 3.454-7.862 5.176-11.764 2.146-4.861 6.702-6.338 11.194-6.63 2.198-.143 4.77 2.166 6.741 3.866.57.491.025 3.699-.669 3.969-2.188.854-4.682 1.006-7.076 1.199-.644.052-1.357-1.053-2.034-1.049-2.153.015-4.941-.686-4.264 3.329.177 1.046-.83 2.309-1.34 3.451-1.573 3.523.448 9.664 4.045 10.225 7.519 1.174 15.131 1.959 22.717-.169 5.993-1.681 7.406-7.216 10.414-11.502 4.735-6.747 4.473-13.968 1.567-20.956-2.121-5.098-5.149-10.229-10.454-12.735-3.948-1.865-8.329-3.454-12.624-3.786-5.686-.44-12.252-1.146-17.046 1.16-7.75 3.727-15.717 8.629-16.821 18.934-.102.952-.982 1.825-1.516 2.726-4.8 8.092-3.668 16.539-.753 24.712 1.706 4.781 4.369 9.378 7.378 13.489 2.561 3.5 5.726 7.456 9.519 8.971 8.344 3.334 17.321 5.168 26.45 4.057 5.561-.677 11.485-1.118 16.448-3.4 11.878-5.462 18.574-16.232 23.23-27.723 1.718-4.241 3.31-9.653 1.424-15.173-1.405-4.111-1.29-8.821-1.387-13.275-.074-3.385-.689-6.092-3.793-8.001-1.165-.716-1.862-2.193-4.133-4.109Zm-12.56 86.155c2.389-2.043 5.138-3.791 7.1-6.184 6.417-7.823 12.704-15.799 15.06-25.988.23-.992-.059-2.104-.108-3.16-.905.613-2.053 1.043-2.673 1.869-3.178 4.237-5.648 9.187-9.443 12.737-5.707 5.34-11.747 11.119-20.048 11.799-9.228.756-18.605 1.213-27.802.434-10.449-.886-15.885-5.041-19.35-12.071-.469-.952-1.065-1.84-1.603-2.757-.565 1.095-1.803 2.352-1.585 3.258 1.355 5.619 3.449 10.945 8.408 14.486 8.991 6.42 19.603 8.915 30.109 9.738 6.779.531 14.373-.127 21.935-4.161Zm6.18-97.094c1.703-.701 2.835-1.748.763-3.141-6.103-4.103-12.691-7.108-20.126-7.734-2.613-.22-5.328-.406-7.87.068-2.408.448-4.574 2.219-6.982 2.645-8.713 1.543-14.598 7.904-21.62 12.306-1.609 1.008-2.884 2.602-4.158 4.062-.416.477-.34 1.383-.49 2.094.721-.141 1.742-.023 2.118-.46 6.825-7.944 17.72-7.191 26.087-12.31 9.866-6.034 20.696-1.323 32.278 2.47Z" fill="#000"/></svg>