<svg width="534" height="534" viewBox="0 0 534 534" fill="none" xmlns="http://www.w3.org/2000/svg"><path d="M277.621 245.269c-2.258 2.834-1.973 11.381-9.695 5.994l-.745 13.902c1.681-.147 4.073.373 4.933-.544 9.85-10.503 21.255-20.113 28.737-32.143 11.992-19.279 29.272-33.213 44.201-49.515 6.464-7.059 12.518-14.493 18.882-21.648.543-.61 2.021-.388 3.065-.553.053.962.507 2.162.098 2.847-3.307 5.539-6.052 11.645-10.342 16.317-9.917 10.796-20.61 20.881-30.98 31.262-1.032 1.033-3.01 2.884-2.87 3.067 4.583 5.97-.257 8.965-3.73 12.409-3.432 3.405-6.974 6.714-10.187 10.314-1.142 1.281-1.717 3.246-2.068 4.995-.262 1.305-.226 3.287.559 4.007.759.697 3.361.764 3.931.083 8.834-10.543 17.395-21.313 26.178-31.9 5.406-6.517 11.068-12.823 16.757-19.095.089-.098 2.001 1.458 3.063 2.242-.696.696-1.392 1.392-2.088 2.827-8.534 3.442-5.457 13.318-10.694 18.171-1.112 1.03-.495 3.827-1.56 5.025a2075.047 2075.047 0 0 1-30.1 33.156c-6.532 7.041-14.373 11.79-24.985 11.716-.392-1.087.052-1.38.287-1.792 1.546-2.705 4.945-7.07 4.243-7.885-3.735-4.338-5.393.996-7.838 2.658-3.469 2.357-7.028 4.639-10.176 7.38-1.183 1.03-1.325 3.254-1.941 4.933 1.68.217 3.615 1.073 4.989.524 3.37-1.348 6.481-3.343 9.696-5.078 6.011 5.833 13.175 2.404 19.833 2.236 4.127-.104 8.264-2.29 12.324-2.087 15.37.77 29.663-4.502 44.408-7.189 2.245-.409 4.598-2.043 6.575-1.612 2.077.453 3.762 2.706 5.619 4.173-1.735.506-3.741.632-5.13 1.623-1.495 1.066-2.822 2.796-3.436 4.517-.416 1.164 5.542 3.762-.101 4.048-11.823.599-22.135 6.91-34.51 6.658-14.413-.294-29.113 2.503-43.308 5.665-12.425 2.768-15.916 12.985-11.591 24.688 3.33 9.009 5.477 18.526 7.386 27.972 3.244 16.055 8.809 31.774 7.79 48.503-.106 1.727-1.059 3.403-1.619 5.103-1.664-.743-4.092-1.03-4.856-2.31-3.037-5.088-6.509-10.215-8.1-15.816-7.28-25.613-14.919-51.193-20.38-77.215-1.946-9.27-9.194-6.55-13.065-10.441-1.733 2.225-4.723 4.311-4.989 6.7-1.43 12.846-2.157 25.77-3.21 38.66-.109 1.334-.773 2.622-1.18 3.932-1.394-1.22-3.09-2.24-4.079-3.729-.702-1.056-.41-2.752-.628-4.151-.497-3.181-1.036-6.356-1.557-9.533-2.439 3.425-4.877 6.85-8.056 11.014-4.902 4.825-9.95 8.467-8.88 15.538-2.08 1.619-3.421 3.238-4.761 4.858.769.353 2.16 1.095 2.217 1.003 1.186-1.897 2.22-3.889 4.024-5.861 4.902-4.086 9.951-7.727 8.14-14.798 2.134 2.26 3.804-6.459 5.82-.365 1.227 3.708 3.435 9.425 1.804 11.324-5.906 6.878-13.12 12.677-20.112 18.561-2.768 2.329-6.76 3.29-9.305 5.782-7.786 7.622-16.366 13.775-26.433 18.128-4.053 1.753-7.348 5.271-10.969 8.011-1.535 1.161-3.021 2.386-4.529 3.583-.465-2.263-1.849-4.81-1.249-6.743 4.324-13.937 8.252-28.105 17.583-39.858.239-.301-.063-1.367.044-1.392 16.959-3.885 12.272-22.801 22.014-31.67 1.088-.99 2.09-2.076 3.872-3.118.09 2.13-.733 4.227-1.153 6.402-.307 1.589-.083 3.281-.096 4.927 1.018-.679 2.253-1.171 3.019-2.065 5.14-5.999 10.179-12.085 15.99-18.142.485 7.832-4.366 13.045-9.73 17.803-7.951 7.053-13.508 15.442-16.307 25.789-.67 2.477-2.608 5.771-4.721 6.503-10.746 3.724-12.957 14.193-18.354 22.1-.59.865.102 2.604.199 3.938 1.045-.502 2.267-.802 3.108-1.537 14.86-12.98 26.775-28.232 36.793-45.279 5.448-9.272 12.993-17.318 19.664-25.861 1.203-1.541 3.047-2.62 4.096-4.236 2.722-4.195.42-8.297-4.926-7.994-11.432.646-23.532-.175-34.043 3.435-10.33 3.548-20.084 1.228-30.017 2.237-3.861.392-6.311-5.197-3.327-7.83 3.352-2.959 7.655-5.919 11.906-6.591 15.842-2.507 31.161-8.655 47.783-6.407 4.776.647 10.119-1.304 14.919-2.911 4.28-1.434 9.864-3.084 11.73-6.404 1.714-3.052-.398-8.548-1.461-12.808-3.333-13.363-7.085-26.621-10.449-39.976-2.59-10.284-5.658-20.544-7.065-31.009-2.595-19.29-4.173-38.718-6.014-58.104-.163-1.715.857-3.542 1.326-5.317 1.394 1.346 3.052 2.508 4.136 4.07 6.276 9.041 7.479 19.743 9.157 30.149 2.505 15.523 4.101 30.979 11.56 45.505 4.082 7.949 4.206 17.898 6.344 26.89 1.162 4.889 2.804 9.665 4.229 14.491 1.535-4.672 3.47-9.255 4.533-14.032 4.121-18.517 8.16-37.058 11.818-55.67 1.544-7.854 2.476-15.887 2.902-23.879.263-4.943 3.402-4.399 5.888-3.679 1.407.407 3.123 3.304 2.978 4.927-.88 9.87-2.171 19.707-3.506 29.53-.498 3.66-2.092 7.244-2.146 10.877-.261 17.501-.939 34.833-11.34 50.007 2.266.694 4.531 1.389 7.537 2.083Zm-6.66 38.473c-.983 0-1.968.047-2.948-.007-7.301-.403-3.825 5.15-4.263 8.242-.148 1.042 2.298 3.594 2.878 3.402 2.993-.993 5.942-2.42 8.428-4.321.389-.297-1.682-3.81-4.095-7.316Zm-13.32-13.317 3.668 4.439c.751-1.952 2.281-3.98 2.098-5.84-.451-4.6-3.128-3.593-5.766 1.401Zm-5.92-14.798c1.973-.014 3.95.007 5.909-.164.083-.007.083-2.624 0-2.631-1.959-.171-3.936-.15-5.909 2.795Zm50.32-5.919-1.776-1.183c.098.887.197 1.775 1.776 1.183Z" fill="#000"/><path d="M254.682 360.689c.361 16.685-2.018 31.381-8.368 45.289-.836 1.83-2.34 3.355-3.534 5.022-.966-1.786-2.666-3.524-2.784-5.364-1.174-18.294-2.108-36.603-3.052-54.911-.152-2.946-1.213-7.625.171-8.585 9.128-6.334 12.673-14.953 13.172-25.61.054-1.153 3.782-2.133 5.805-3.193.517 1.742.786 3.609 1.593 5.205 3.374 6.671-8.19 13.142-.198 19.796-5.435 6.352-1.669 13.941-2.805 22.351Zm-7.4-5.919c.494-2.118 1.124-4.219 1.402-6.365.09-.694-.743-1.508-1.155-2.267-.575.991-1.426 1.922-1.657 2.987-.29 1.33-.07 2.772 1.41 5.645ZM245.802 298.539c1.973-1.468 3.947-1.456 5.92-1.445-.285 3.233-.029 6.649-1.042 9.635-.692 2.037-4.196 5.183-4.66 4.9-2.999-1.822-5.225-4.37-1.245-7.783.827-.71.71-2.522 1.027-5.307ZM285.021 239.35c-.402-.832-.291-1.929.316-2.447 2.304-1.969 4.769-3.75 7.174-5.602.217.396.697 1.066.612 1.149-2.419 2.336-4.895 4.613-8.102 6.9ZM243.583 319.996c.838.148.937 1.036 1.036 1.924-.592-.395-1.184-.79-1.036-1.924ZM280.582 242.309c.246.987-.247 1.973-1.48 2.96-.247-.987.246-1.973 1.48-2.96ZM282.062 242.31c-.247-.987.247-1.973 1.48-2.96.247.987-.246 1.973-1.48 2.96Z" fill="#000"/></svg>