<svg width="534" height="534" viewBox="0 0 534 534" fill="none" xmlns="http://www.w3.org/2000/svg"><path d="M248.278 395.428c-7.11 11.516-13.259 22.079-21.524 30.586-19.013 19.565-53.685 20.079-72.771.915-5.434-5.456-9.359-14.065-10.563-21.762-2.944-18.831-10.145-37.934-.754-57.023-4.543-22.023 11.21-36.111 21.886-51.15 11.179-15.746 26.966-27.728 45.509-34.994 3.789-1.484 7.62-3.568 11.546-3.866 15.025-1.139 18.817-12.602 18.735-23.64-.256-34.654 15.263-63.165 34.576-89.433 12.022-16.352 27.423-30.814 43.388-43.505 16.862-13.405 37.375-10.401 53.591 4.427 5.561 5.086 11.641 10.002 15.759 16.151 3.781 5.646 6.635 12.688 7.404 19.401 1.207 10.55 1.26 21.443.11 32.007-1.946 17.876-10.475 33.907-20.767 47.773-12.834 17.29-28.058 33.077-43.829 47.822-11.788 11.021-26.977 16.964-43.775 16.863-2.514-.014-5.028-.001-7.542-.001-20.627 0-25.249 3.789-19.194 22.781 7.917 24.83.906 47.41-5.251 70.512-1.326 4.978-4.312 9.512-6.534 16.136Zm50.92-260.367c-1.328 2.586-2.326 5.416-4.033 7.721-24.575 33.2-40.885 69.253-39.39 111.68.444 12.624 3.589 16.734 17.013 16.253 21.268-.763 41.975-3.844 56.589-22.301 3.868-4.884 9.081-8.682 13.164-13.419 17.903-20.77 38.905-39.953 37.752-70.898 8.914-10.734 2.095-21.023-3.016-29.404-5.341-8.757-14.123-15.579-22.001-22.571-7.275-6.457-16.591-5.528-23.868-1.244-10.755 6.331-20.277 14.76-32.21 24.183ZM153.982 389.768c1.257 3.864 3.106 7.644 3.674 11.607 3.159 22.033 40.498 32.99 57.353 14.95 9.758-10.444 16.166-22.447 21.476-34.56 11.801-26.918 9.335-55.78 6.241-84.276-.246-2.27-1.208-4.489-2.008-6.669-4.874-13.275-13.752-15.662-27.886-13.42-11.502 1.825-15.672 10.923-23.5 16.174-14.896 9.995-26.906 30.612-31.992 46.869-4.785 15.292-2.335 30.392-3.358 49.325Z" fill="#000"/></svg>