<svg width="534" height="534" viewBox="0 0 534 534" fill="none" xmlns="http://www.w3.org/2000/svg"><path d="M225.017 381.497c-4.722 11.024-8.778 21.584-13.202 31.987-1.401 3.294-5.211 4.27-7.942 2.943-2.681-1.302-4.661-4.315-6.531-6.882-.666-.913-.091-2.72-.109-4.119-.106-8.075.085-8.344-6.996-13.459-4.89-3.532-3.807-9.768-2.641-12.242 5.758-12.211 7.331-25.664 12.44-37.882 2.163-5.17.137-6.211-3.337-6.943-5.216-1.1-10.767-2.726-15.838-1.941-9.712 1.503-14.501-4.658-19.965-10.382-2.613-2.737-4.887-6.486-8.115-7.793-5.492-2.224-8.332-6.846-12.234-10.519-.74-.697-2.026-2.101-1.925-2.222 6.467-7.697-3.348-10.119-5.193-14.943-1.829-4.784 2.902-8.068 1.003-12.224 2.314-.316 4.621-.793 6.945-.91 3.137-.159 6.299.129 9.427-.097 2.217-.16 4.396-.852 6.593-1.306-1.062-1.658-2.419-3.207-3.084-5.011-.46-1.246-.547-3.469.209-4.176 2.865-2.686 5.063-5.596 9.84-6.672 6.41-1.444 12.681-3.075 19.297-3.947 15.374-2.027 30.95-3.112 45.836-8.135 4.237-1.43 6.303-3.646 7.769-8.068 4.063-12.259 9.12-24.185 13.595-36.312 1.603-4.341 3.357-5.578 6.609-1.437.858 1.092 1.855 2.131 2.966 2.955 2.325 1.721 3.381 1.095 3.965-1.85 1.917-9.658 4.323-19.221 6.172-28.89 2.193-11.471 6.186-22.573 6.577-34.455.082-2.494 2.695-5.617 5.005-7.13 2.371-1.552 5.255-.124 7.049 2.481.585.849 1.343 1.717 2.228 2.186 1.069.567 2.357.718 3.55 1.049.267-1.287 1.221-3.114.698-3.781-5.988-7.635 2.25-9.245 5.438-12.695 2.773-3.001 7.3-1.738 7.069 1.951-.646 10.312 5.108 18.146 8.923 26.814 1.816 4.127 2.737 8.68 3.801 13.103 1.535 6.382 2.757 12.839 4.252 19.23 1.189 5.082 2.772 10.076 3.835 15.18.809 3.885 1.919 4.712 5.159 1.813 8.042-7.196 16.633-11.527 28.034-7.09 3.154 1.227 8.186-.198 11.489-2 6.335-3.457 12.811-1.605 19.152-1.652 2.586-.019 6.617 2.224 7.455 4.411 1.232 3.216 1.214 7.479-2.834 10.131-4.984 3.266-9.766 6.844-14.59 10.351-2.97 2.16-5.955 4.32-8.738 6.707-1.747 1.499-3.134 3.419-4.682 5.15 2.338.259 4.941-.055 6.967.882 7.051 3.258 16.176 2.668 20.366 11.51 1.163 2.453 2.305 3.561.046 5.957-6.774 7.186-14.132 13.547-22.942 18.105-1.435.742-3.045 1.218-4.34 2.145-2.457 1.759-5.144 3.437-6.989 5.746-1.736 2.174-6.13 2.887-4.446 7.347 1.031 2.73 1.842 5.619 2.226 8.507 2.579 19.435 5.316 38.874-1.606 58.082-2.536 7.036-3.919 7.853-10.736 5.069-7.301-2.981-7.741-2.559-8.238 5.25-.361 5.677-1.151 11.345-2.092 16.96-.669 3.992-4.139 5.299-8.512 2.889-5.724-3.153-11.123-6.894-16.721-10.284-1.932-1.169-4.04-2.045-6.068-3.055-.728 1.923-1.585 3.809-2.16 5.778-1.327 4.544-3.971 6.131-8.226 3.671-5.139-2.972-9.831-6.738-14.618-10.293-3.504-2.601-6.706-5.627-10.3-8.086-5.036-3.445-10.359-2.168-12.935 3.415-4.465 9.676-8.337 19.626-12.722 29.341-1.607 3.561-3.635 6.476-8.857 5.75-5.295-.737-5.874-3.599-5.849-7.789.005-.962-1.181-1.931-1.818-2.897-1.11 1.399-2.22 2.799-3.854 4.723Zm143.105-183.132c-8.45 4.897-16.867 9.854-25.361 14.674-6.937 3.936-8.647 7.154-7.083 13.736.759 3.195 2.022 6.446 1.929 9.639-.452 15.447-.282 31.021-2.374 46.269-1.194 8.697-4.166 17.512-9.167 25.527-2.262 3.625-4.36 3.956-6.961 3.28-1.76-.457-3.431-2.754-4.35-4.618-1.499-3.042-2.35-6.402-3.475-9.628-3.787 2.205-2.373 6.007-3.083 9.24-.423 1.929-2.278 4.611-3.885 4.926-1.803.353-4.279-1.289-6.027-2.63-1.161-.891-1.958-2.705-2.235-4.23-1.6-8.806-2.99-17.649-4.466-26.478-.217-1.297-.512-2.582-.771-3.873-1.139 1.094-2.722 1.988-3.319 3.325-1.049 2.35-1.555 4.954-2.184 7.478-2.278 9.143-4.859 18.132-9.169 26.622-1.803 3.553-3.776 5.163-7.575 4.268-3.755-.885-4.107-3.711-4.336-7.026-.249-3.586-1.196-7.143-2.095-10.646-.148-.577-1.688-1.213-2.458-1.081-.641.109-1.564 1.305-1.565 2.02-.002 8.954-5.474 15.935-8.636 23.714-.626 1.541-4.599 3.444-5.21 2.946-1.942-1.585-5.564-1.075-5.455-5.945.129-5.761 2.916-10.082 4.542-15.035 3.132-9.541 5.998-19.173 9.349-28.635 2.909-8.214 6.859-16.093 9.278-24.431.981-3.385-.873-7.595-1.438-11.43-3.548 1.868-3.473 5.53-4.85 8.666-3.253 7.41-7.225 14.697-12.117 21.109-2.419 3.17-5.431 5.229-6.767 9.716-3.031 10.18-7.496 19.931-11.351 29.867-1.752 4.518-4.883 9.077-4.831 13.588.085 7.428-2.018 13.694-5.5 19.884-1.261 2.243-2.411 4.619-3.138 7.074-.669 2.258 4.012 11.523 5.823 11.783 4.088.587 5.977-1.463 7.213-5.388.459-1.46 3.748-2.417 5.902-2.879 7.025-1.508 13.457-3.686 16.644-10.961.513-1.171 10.008-11.122 11.121-11.805 6.587-4.043 9.52-3.737 15.042 1.679 3.492 3.424 6.79 7.061 10.444 10.298 1.372 1.215 3.544 2.167 5.274 2.053.808-.054 1.475-2.908 2.124-4.525.472-1.175.992-3.481 1.183-3.449 4.495.753 9.191-3.282 13.598.883 4.938 4.666 10.254 8.929 15.374 13.404 2.263 1.976 5.208 1.386 5.415-1.416.333-4.52.544-9.14-.026-13.611-.707-5.55 3.21-6.74 6.781-7.636 2.426-.609 5.785-.334 7.824.966 3.854 2.455 5.854-.524 6.292-2.479 3.589-16.008 3.763-32.096-2.105-47.61-1.66-4.388-3.411-8.551-.403-12.167 8.709-10.476 19.661-18.328 31.514-24.928 1.513-.842 3.149-1.46 4.728-2.181-1.682-1.378-3.163-3.441-5.084-4.005-5.953-1.748-12.055-3.014-18.134-4.302-6.802-1.442-8.79-6.533-3.931-11.547 7.5-7.741 14.371-16.359 25.194-20.044 2.015-.686 5.386-3.204 5.205-3.629-1.877-4.411-4.689.205-7.31-.254-2.311-.406-4.968 1.168-9.568 1.868Zm-153.064 62.968c-.452 9.002-3.325 14.34-14.099 15.131-9.117.67-17.905 5.333-26.937 7.881-4.295 1.211-8.726 1.252-4.247 7.6 1.312 1.86 1.311 6.272-.025 8.076-3.855 5.206-.646 5.728 3.238 7.621 10.552 5.144 21.362 8.337 33.227 8.453 4.256.041 6.114-2.068 7.184-4.961 4.594-12.426 8.994-24.931 13.143-37.514 4.033-12.23 3.861-12.287-11.484-12.287Zm74.435-68.216c-2.493-6.978-2.045-14.241-2.11-21.46-.025-2.748.062-5.542-.432-8.217-.194-1.048-1.964-2.65-2.797-2.526-1.108.166-2.375 1.611-2.882 2.802-.502 1.182-.109 2.731-.172 4.116-.695 15.266-5.143 29.762-10.862 43.632-2.1 5.092-.045 7.61 2.003 10.24 2.391 3.067 6.044 5.222 9.387 7.411.688.451 3.512-.695 3.512-1.104-.009-11.137 6.444-21.416 4.353-34.894Zm8.387 77.661c.732 4.93 1.428 9.866 2.261 14.78.068.401 1.14.989 1.615.887.857-.186 2.219-.719 2.323-1.296 1.53-8.468 3.525-16.922 4.142-25.47 1.053-14.574.157-29.112-4.069-43.255-.346-1.16-.941-2.246-1.421-3.367-1.152.584-2.975.891-3.35 1.797-2.75 6.648-8.712 12.643-3.738 20.929 1.596 2.659 2.417 6.415 2.065 9.494-.898 7.853.821 15.608.172 25.501Zm27.258-20.989c-.209-4.407-.315-8.823-.72-13.212-.073-.794-1.371-1.475-2.103-2.208-.457.632-1.298 1.258-1.31 1.899-.105 5.528-.159 11.063.054 16.585.029.758 1.606 1.457 2.466 2.183.538-1.05 1.075-2.099 1.613-5.247Zm-71.29-16.792c.946-3.745 1.937-7.48 2.814-11.242.325-1.39.384-2.843.564-4.267-1.666.813-4.505 1.331-4.795 2.489-1.258 5.012-1.771 10.211-2.554 15.342.974-.424 1.948-.848 3.971-2.322Zm54.516-39.88c-.699-.746-1.401-1.49-2.097-2.238-.929-1.001-1.855-2.006-2.782-3.009-.431 1.789-1.649 3.899-1.086 5.283.653 1.605 2.52 4.511 5.965-.036Z" fill="#000"/></svg>