<svg width="534" height="534" viewBox="0 0 534 534" fill="none" xmlns="http://www.w3.org/2000/svg"><path d="M207.331 222.394c.393-1.439.067-2.622.441-3.51 5.756-13.675 13.003-26.611 20.626-39.278 3.733-6.203 8.746-11.758 13.785-17.028 10.265-10.738 20.863-21.163 31.49-31.548 3.835-3.748 8.248-6.171 14.169-5.64 8.568.769 16.738-1.23 24.625-4.815 2.614-1.188 6.028-1.73 8.822-1.207 9.538 1.786 14.456 1.437 23.854.028 8.533-1.279 16.969.532 24.25 5.543 1.77 1.218 3.118 2.454 5.428 2.205.846-.091 2.1.402 2.628 1.06 6.041 7.543 13.34 14.397 12.378 25.491-.495 5.709.102 11.505-.131 17.248-.355 8.77-.285 17.649-1.748 26.253-1.204 7.078-4.382 13.82-6.669 20.716-3.889 11.725-8.146 23.346-11.502 35.222-1.944 6.883-2.533 14.164-3.539 21.292-.704 4.988-1.247 10.013-1.505 15.039-.081 1.569.712 4.378 1.606 4.6 4.2 1.039 3.201 4.187 2.917 6.636-.801 6.916-1.731 13.842-3.123 20.659-1.707 8.359-2.789 16.952-6.444 24.769-4.949 10.582-2.647 8.253-13.062 18.059-4.518 4.253-7.957 9.68-11.729 14.692-3.217 4.277-10.402 9.868-15.245 12.143-4.827 2.267-9.376 5.122-14.174 7.458-3.686 1.794-7.456 3.628-11.396 4.627-3.901.988-7.162 2.886-10.686 4.591-5.173 2.504-11.055 3.84-16.781 4.825-6.226 1.07-12.634 1.742-18.936 1.575-13.733-.363-27.298-2.367-40.544-6.168-7.485-2.148-14.851-4.649-22.409-6.629-6.689-1.754-13.358-5.27-17.892-11.509-2.257-3.106-5.139-6.019-8.329-8.126-5.053-3.34-11.819-13.53-11.99-19.305-.165-5.566-.371-11.063-1.213-16.659-.913-6.06.423-12.603 1.552-18.795 2.677-14.686 8.845-28.18 15.436-41.429 3.25-6.533 6.105-13.932 11.233-18.671 5.181-4.788 7.472-11.854 14.019-15.425 5.279-2.88 6.091-9.412 9.155-14.153 1.656-2.563 2.047-5.601 5.675-7.159 2.166-.929 3.086-4.759 4.958-7.677Zm150.242-85.909c-5.579-1.046-11.183-3.045-16.731-2.9-7.121.187-14.234 1.913-21.28 3.326-5.291 1.06-10.496 5.595-15.675-.357-.451-.518-2.037-.216-3.053-.042-3.156.539-6.383.909-9.419 1.863-15.692 4.927-28.034 15.208-38.958 26.76-7.765 8.213-13.472 18.363-20.183 27.587-7.01 9.633-11.71 20.568-13.191 32.067-1.193 9.26-5.146 17.338-7.304 26.093-2.001 8.116-9.182 11.883-14.994 16.266-11.538 8.702-20.706 19.269-27.942 31.553-2.795 4.745-4.642 10.09-6.582 15.287-3.722 9.972-3.19 20.431-3.226 30.83-.017 4.923.603 9.16 4.06 13.304 4.03 4.829 6.157 11.276 10.289 15.986 6.995 7.973 14.602 15.54 24.52 20.075 7.683 3.512 15.957 4.888 24.223 5.77 4.691.501 9.479.365 14.327-1.116 2.419-.74 5.803 2.566 8.803 2.683 9.937.388 20.021.895 29.671-2.052 10.172-3.107 20.177-6.78 30.171-10.432 2.239-.818 4.534-2.217 6.116-3.968 6.646-7.359 12.833-15.137 19.562-22.415 8.967-9.698 14.269-21.218 16.414-33.952 1.477-8.769 1.527-17.825 1.684-26.761.253-14.37.071-28.747.067-43.121-.003-12.073 3.082-23.366 8.306-34.196 3.175-6.582 7.9-12.199 10.67-19.101 4.368-10.883 8.578-21.66 7.673-33.656-.359-4.762-1.01-9.502-1.545-14.249-.659-5.852-2.59-11.116-7.247-15.023-2.5-2.098-5.101-4.077-9.226-6.109Zm22.752 2.354c-.183-.184-.341-.415-.56-.533-.13-.07-.357.037-.54.064.367 2.053.602 4.141 1.142 6.147.43 1.602-1.724 4.743 2.102 4.271.493-.061.908-3.555.717-5.392-.137-1.316-1.346-2.519-2.861-4.557Zm-23.536 123.959c.397 1.831.551 5.137 1.232 5.249 3.969.654.243-4.172 3.02-4.86.245-.06.556-.97.413-1.301-.668-1.541-1.485-3.017-2.248-4.517-.361 1.365-.705 2.734-1.099 4.089-.064.219-.35.372-1.318 1.34Zm-163.187-6.277.941.628c-.052-.471-.104-.941-.941-.628Z" fill="#000"/><path d="M255.973 249.068c5.015-4.549 8.441-10.317 15.602-11.021 1.515-.149 3.502-1.447 4.191-2.776 1.34-2.586 3.667-4.749 5.834-4.389 3.444.573 7.471 1.998 9.72 4.461 4.107 4.498 8.396 9.583 10.279 15.203 3.928 11.723 7.24 23.597 6.812 36.469-.469 14.146-5.287 26.325-12.326 38.062-4.522 7.541-11.241 12.616-18.653 17.008-2.349 1.392-4.815 2.994-6.449 5.103-4.355 5.622-16.37 5.69-20.773 1.901-4.306-3.705-8.056-8.049-12.161-11.998-4.735-4.554-9.262-9.148-11.55-15.587-2.574-7.238-2.414-14.692-.564-21.716 1.884-7.158 5.195-14.03 8.547-20.692 5.495-10.919 12.489-20.88 21.491-30.028Zm20.006 71.002.628-2.51-1.025-.23c-.129.913-.258 1.827-1.172 2.74l-.115 1.455c.3-.485.6-.97 1.684-1.455Zm-29.813-48.642c-1.307 3.042-2.685 6.058-3.828 9.16-.135.364.96 1.293 1.629 1.749.133.09 1.229-.711 1.366-1.235.908-3.477 1.161-7.167 4.061-9.88.475-.446.2-1.694.272-2.571-.905.664-1.81 1.328-3.5 2.777Zm9.415 0c-1.269 1.269-2.935 2.348-3.664 3.874-.469.984.437 2.625.727 3.972 1.04-.584 2.586-.92 3.019-1.801 1.036-2.111 1.548-4.478 2.272-6.742-.523-.029-1.046-.058-2.354.697Zm27.459-21.183c-.716.194-1.956.238-2.061.606-.523 1.835-.769 3.753-1.028 5.653-.018.128.656.35 1.009.529.693-1.74 1.387-3.479 2.08-6.788Zm-24.321 94.931c-.183.184-.415.342-.532.561-.071.13.04.518.064.517 1.409-.024 2.817-.077 4.225-.127-.991-.579-1.982-1.157-3.757-.951Zm-12.553-17.26c-.215.831-.44 1.659-.603 2.5-.005.026.634.176.973.268.139-.661.277-1.322-.37-2.768Zm49.427-61.98-.941-.628c.052.471.104.942.941.628Z" fill="#000"/></svg>