<svg width="534" height="534" viewBox="0 0 534 534" fill="none" xmlns="http://www.w3.org/2000/svg"><path d="M489.076 307.337c-4.897 2.788-9.824 4.297-15.111 4.873-4.74.516-5.366 1.728-6.531 6.727-2.1 9.005-7.232 15.901-15.239 20.692-3.458 2.069-6.988 3.714-11.035 4.001-.863.061-2.131.527-2.122-1.213.007-1.113.033-1.803 1.543-1.916.976-.073 1.83-1.506 2.826-1.633 8.154-1.038 12.442-7.421 17.5-12.643 1.214-1.253 1.948-3.349 2.143-5.139.515-4.751 2.948-9.464.581-14.347-.179-.37-.204-1.173.012-1.323 3.036-2.104 1.5-5.228 1.797-7.911.353-3.194-4.363-5.3-2.008-8.98-1.859-2.616-3.697-5.247-5.593-7.835-.431-.589-.747-1.165-1.837-.342-1.681 1.27-3.15.479-2.631-1.299.669-2.293.756-4.179-1.023-5.913-2.591-2.528-5.674-4.198-9.248-4.603-2.506-.285-5.072-.106-7.609-.044-4.42.108-8.834.363-12.692-2.496-.583-.433-1.525-.554-2.293-.531-2.068.062-4.011-.004-5.285-2.009-.264-.416-.818-1.086-1.054-1.016-4.321 1.281-5.401-2.58-7.72-4.61-1.366-1.197-3.274-1.834-5.017-2.52-1.313-.518-2.939-.406-4.099-1.111-3.057-1.86-6.019-2.756-9.475-1.034-.661.329-2.104-.042-2.696-.606-2.014-1.919-3.905-1.451-6.302-.709-2.894.896-6.09 1.479-9.066 1.212-1.987-.179-4.083-1.793-5.672-3.26-4.569-4.218-4.638-4.586-9.782-1.521-2.43 1.448-4.798 1.535-7.333 2.013-5.358 1.012-10.293.384-15.122-2.071-.807-.41-2.024-.2-3.012-.037-4.939.815-9.202-1.05-13.39-3.253-4.31-2.266-8.598-4.572-12.933-6.788-.539-.276-1.307-.095-1.969-.143-2.255-.163-4.436.084-6.746-.874-2.549-1.057-4.688 1.473-7.035 2.35-1.02.381-2.079 1.656-2.878 1.472-4.785-1.103-8.622 1.296-12.778 2.811-1.281.467-2.755 1.465-4.677.467-1.753-.91-3.704.492-5.314 1.583-3.969 2.691-3.952 2.541-8.851 2.434-2.003-.045-4.009.927-6.044 1.237-1.688.257-3.424.33-5.133.287-1.935-.049-3.942-.744-5.782-.409-5.001.911-9.784 2.86-15.084.953-2.243-.807-4.957-.376-7.456-.379-2.297-.003-4.64-.076-6.875.346-1.475.279-3.063 1.107-4.137 2.161-4.722 4.639-11.16 5.787-16.787 8.571-4.264-2.132-7.228 1.663-10.869 2.35-1.308.247-3.004.547-4.002-.049-4.183-2.497-6.682.474-9.307 2.647-4.336 3.589-9.094 6.344-14.381 8.22-.444.157-1.059.523-1.337.358-4.322-2.565-8.586.435-12.894.096-3.879-.305-7.879.43-11.422-1.91-.31-.205-.896.01-1.354.03.04.578-.091 1.244.152 1.718.792 1.543 1.859 2.958 2.514 4.548.205.497-.438 1.511-.948 2.042-.174.183-1.284-.228-1.698-.639-1.137-1.129-2.238-2.081-2.512-4.065-.309-2.235-2.432-2.699-4.632-1.546-7.705 4.038-15.61 7.866-22.333 13.394-4.33 3.559-8.048 7.996-11.502 12.456-3.595 4.643-6.654 9.719-9.724 14.743-1.374 2.25-2.128 4.87-3.296 7.257-2.803 5.732-2.834 5.717 3.139 5.758.338.002.681.036 1.015-.006 1.601-.199 3.726.224 3.594 1.624-.119 1.25-2.1 2.443-3.44 3.411-.737.532-2.698-.723-2.376 1.435.18 1.209.55 3.08 1.34 3.398 6.529 2.632 12.67 6.235 19.771 7.471 6.463 1.126 12.969 1.513 19.453 2.212 4.971.537 9.894.724 14.837.708 3.753-.011 7.504-.621 11.257-.948 3.586-.312 7.3.777 10.759-1 .267-.138.672-.057 1.005-.013 9.029 1.202 18.045-.453 27.088-.087 9.124.37 18.277.206 27.413.039 6.295-.116 12.629-.272 18.862-1.068 7.326-.936 14.625-1.717 22.015-2.01 9.548-.379 19.118-.929 28.595-2.083 6.32-.77 12.658-1.335 18.947-2.134 4.982-.634 10-.002 14.813-.927 5.984-1.149 11.963-.302 17.877-.943 19.308-2.093 38.654-.497 57.976-.901 12.688-.266 25.388-.196 38.078.019 5.312.09 10.1-1.569 14.98-3.136.739-.237 1.394-.83 2.133-.932.427-.059 1.001.48 1.377.875.08.085-.321.885-.656 1.066-6.349 3.424-12.862 6.203-20.31 6.149-13.539-.098-27.079.015-40.618-.073-2.062-.014-4.115-.67-6.182-.952-.831-.114-1.762-.237-2.525.016-5.879 1.943-11.915.742-17.871.933-6.593.211-13.203-.084-19.799.087-6.126.158-12.352.06-18.329 1.175-4.161.776-8.215.52-12.309.824-8.86.658-17.768.969-26.561 2.143-7.331.979-14.621 1.855-22.021 1.963-3.08.045-6.149.65-9.228.961-2.911.294-5.774-.112-8.772.853-3.346 1.077-7.106 1.061-10.696 1.149-17.12.42-34.245.684-51.366 1.077-3.427.078-6.818-.285-10.298.813-2.109.665-4.765-.498-7.187-.704-1.836-.156-3.744-.399-5.528-.082-8.466 1.501-16.983 1.929-25.564 2.171-2.801.08-5.531-.365-8.305-.226-3.039.153-6.125.329-9.132-.018-10.766-1.243-21.39-3.375-31.548-7.161-4.878-1.818-9.497-4.596-8.938-11.16.024-.283-.531-.839-.854-.869-.356-.033-.959.304-1.102.634-.75 1.719-1.26 3.554-2.118 5.211-.457.884-1.449 1.491-2.199 2.223-.604-1.048-1.272-2.066-1.777-3.16-.186-.402-.092-1.013.052-1.474.546-1.748 1.164-3.474 1.755-5.208-1.987-.106-4-.463-5.957-.269-5.32.526-9.954-1.814-13.793-4.604-3.801-2.764-7.43-6.11-8.936-11.412-2.202-7.751-1.762-14.53 2.644-21.456 4.32-6.792 9.125-12.757 16.059-17.109 3.242-2.035 5.51-5.45 9.23-7.184 1.995-.929 2.775-3.312 3.046-5.77.4-3.644 1.197-7.253 1.98-10.843.99-4.533 2.719-8.751 5.78-12.339.276-.325.217-.915.385-1.355 3.808-9.949 12.023-15.928 20.787-20.338a130.335 130.335 0 0 1 18.195-7.494c9.548-3.096 19.074-6.259 28.635-9.317 6.25-1.999 12.556-3.616 19.193-4.003 4.462-.26 8.885-1.32 13.306-2.129 4.862-.889 9.706-1.879 14.55-2.868 3.113-.635 6.192-1.452 9.319-1.998 4.441-.777 8.918-1.343 13.369-2.067 6.017-.979 12.001-2.184 18.04-2.985 4.563-.606 9.201-.625 13.786-1.096 5.486-.564 11.053-.491 16.429-1.987.472-.131 1.011-.005 1.519-.02 11.368-.336 22.762-.307 34.098-1.106 14.586-1.027 29.187-1.322 43.75-.733 7.813.317 15.67.259 23.437.975 6.622.611 13.072 2.993 19.694 3.716 5.788.632 11.321 2.169 16.986 3.2 7.96 1.449 16.207 1.668 23.455 5.916 7.333.22 13.463 4.296 20.236 6.302 9.072 2.686 17.756 6.279 25.808 11.231 7.552 4.645 14.917 9.658 16.972 19.158.586 2.71.729 5.581.613 8.359-.116 2.782.573 4.472 3.28 5.782 2.707 1.31 5.142 3.317 7.43 5.323 2.771 2.432 5.13 5.333 7.9 7.766 6.65 5.842 9.585 13.652 10.698 21.936.594 4.428-1.579 9.294-4.437 12.704-4.146 4.946-9.371 8.987-14.389 13.669ZM69.372 272.034c-.351.351-.788.651-1.034 1.065-.38.64-.631 1.358-.937 2.043.585-.287 1.162-.594 1.757-.858 2.1-.927 4.205-1.84 6.308-2.25-.477.816-.836 2.205-1.455 2.333-1.465.302-2.567.368-3.206 2.154-.34.95-2.036 2.043-3.06 1.987-2.097-.115-2.92 1.306-4.168 2.336-.978.809-2.135 1.398-3.14 2.177a715.676 715.676 0 0 0-9.545 7.53c-.283.227-.368.699-.544 1.058.457.038 1.04.277 1.353.083 3.77-2.339 7.556-4.66 11.218-7.161 2.143-1.464 3.972-4.465 6.115-4.638 5.427-.439 8.831-4.241 13.054-6.556 3.027-1.659 5.008-5.193 9.145-4.931.335.021.779-.623 1.058-1.035.529-.781.975-1.619 1.456-2.434-.912-.109-1.985-.586-2.707-.267-4.183 1.848-8.913 2.89-11.856 6.776-1.433 1.891-2.473.726-3.718-.428.356-.357.699-.729 1.072-1.067 1.58-1.432 3.17-2.853 4.756-4.278-2.18.664-4.409 1.202-6.514 2.051-.86.348-1.372 1.48-2.189 2.043-.614.423-1.46.507-2.203.235-2.795-2.157-4.63.609-6.459 1.627-7.607 4.235-14.144 9.998-20.797 15.559-.57.476-.615 1.581-.904 2.394.694-.202 1.443-.297 2.073-.622 7.571-3.905 14.532-8.674 20.725-14.561 1.249-1.187 2.014-3.267 4.346-2.365Zm335.154-73.146.951 2.096c-.578.056-1.372.381-1.694.121-1.156-.934-2.651-1.893-3.092-3.163-.661-1.901-1.609-2.366-3.489-2.688-6.751-1.156-13.42-2.793-20.171-3.946-8.89-1.517-17.803-2.961-26.754-4.029-6.076-.726-12.236-1.037-18.357-1.017-7.478.024-14.952.241-22.444.692-14.71.886-29.508-.015-44.253 1.199-5.147.424-5.16.064-3.537 5.029.212.649.146 1.389.209 2.086-.797-.077-1.725.082-2.365-.276-1.845-1.03-1.289-2.931-1.211-4.523.082-1.675-.217-2.567-2.159-2.268-2.725.418-5.473.994-8.208.977-6.752-.043-13.39.717-19.977 2.092-6.964 1.454-14.128 1.213-21.109 2.929-7.606 1.87-15.413 2.979-23.176 4.13-5.71.848-11.155 2.825-17 3.236-5.042.355-9.971 2.509-15.004 2.754-6.225.303-11.925 2.246-17.645 4.136-10.105 3.339-20.07 7.105-30.089 10.705-7.558 2.715-15.12 5.086-21.697 10.268-7.255 5.716-11.836 12.878-14.87 21.274-1.281 3.546-2.176 7.245-3.054 10.92-.55 2.298 1.374 2.049 2.508 1.691 2.828-.894 5.573-2.06 8.325-3.18 3.91-1.591 7.688-3.623 11.719-4.783 8.913-2.566 17.549-5.824 25.985-9.614 3.718-1.67 7.038-4.496 10.881-5.563 9.248-2.569 17.731-7.22 27.127-9.373 4.861-1.114 9.514-3.144 14.255-4.776 9.539-3.283 18.998-6.933 29.375-6.311 3.787.227 7.228-1.071 10.738-2.263 4.899-1.666 9.243-4.909 14.752-4.918 2.191-.004 4.372-.849 6.573-1.217 5.706-.953 11.422-1.85 17.132-2.779a245.39 245.39 0 0 0 4.736-.827c.417-.076 12.756-.308 13.326-.261 4.589.373 9.175.949 13.769 1.016 3.239.048 6.487-.881 9.734-.894 16.163-.063 32.333-.461 48.42 1.922 7.111 1.053 14.326 1.396 21.49 2.106 2.743.271 5.683.139 8.168 1.118 4.72 1.86 9.726 1.032 14.625 2.617 7.857 2.54 16.349 3.841 24.627 4.139 7.456.269 13.973 3.363 20.989 4.813 6.565 1.357 13.163 2.846 19.59 5.296 5.216 1.989 10.618 3.8 15.949 5.652 4.435 1.541 8.806 3.272 13.258 4.759 1.601.534 2.708-.207 2.195-2.078a44.645 44.645 0 0 0-1.852-5.324c-1.504-3.606-2.488-7.73-7.664-7.875-.559-.016-1.458-1.063-1.569-1.736-.735-4.421-4.659-5.776-7.751-7.159-5.123-2.293-9.776-5.595-15.499-6.77-4.233-.868-8.309-2.781-12.272-4.623-7.434-3.456-15.934-3.798-23.072-8.058-.228-.136-.641.037-.967.066.198.479.396.958.595 2.453Zm-192.968 35.557c.578.099 1.275.459 1.716.257 4.479-2.046 9.136-3.033 14.072-2.816 2.533.111 5.19.501 7.59-.075 6.099-1.466 12.335-1.098 18.479-1.865 6.242-.78 12.587-.444 18.875-.774 10.62-.557 21.414-1.513 32.056.66 1.087.222 2.297-.082 3.439-.222 1.761-.215 3.83-1.21 5.201-.6 2.622 1.166 5.182.685 7.769.85 1.18.076 2.41-.187 3.546.047 5.591 1.152 11.201 1.944 16.93 2.049 3.587.066 7.198.428 10.739 1.012 5.025.829 10.046 3.001 14.976 2.754 6.781-.341 12.652 2.451 18.956 3.599 5.755 1.049 11.143 3.565 17.181 3.984 2.86.199 5.796.726 8.731.779 1.062.019 1.329.446 1.987 1.412 3.165 4.647 8.116 4.89 12.069 1.192 1.504-1.407 3.35-2.464 5.105-3.578.502-.319 1.231-.28 1.856-.406-.529-.552-.997-1.185-1.598-1.643-4.17-3.177-9.337-1.954-13.995-2.858-4.302-.836-8.488-2.016-11.93-4.287-3.452-2.278-7.132-2.786-10.312-1.798-5.273 1.638-10.203 1.126-14.36-1.559-3.791-2.449-7.886-.666-11.473-2.394-4.849 2.033-8.559-.277-12.482-2.841-3.914-2.559-8.803-3.974-13.181-3.324-5.652.838-11.217 1.893-16.962 1.805-2.93-.045-5.8.009-8.767.797-2.128.565-4.741.729-7.241-.633-1.567-.854-4.392-.909-5.897-.029-2.568 1.502-3.351.589-3.649-1.604-.296-2.182-1.477-2.775-3.391-2.62-4.091.332-8.186 1.012-12.268.938-6.809-.123-12.966 1.411-18.77 5.058-2.045 1.285-4.795 2.03-7.219 2.02-6.967-.028-13.933-.552-20.897-.935-.586-.032-1.146-.67-1.725-.682-5.168-.105-10.437-1.584-15.317 1.682-3.132 2.097-6.549 3.769-9.839 6.648Zm278.787 51.304c2.774-1.074 5.592-1.764 8.063-3.819 3.689-3.067 4.366-4.797 1.659-8.783-1.707-2.514-3.552-4.935-5.339-7.395-1.281-1.765-2.058-1.692-3.14.485-5.139 10.343-10.943 20.275-17.997 29.445-.684.888-1.582 1.729-1.897 2.742-.225.724.359 1.7.582 2.563.437-.504.855-1.027 1.316-1.508.816-.85 1.59-1.759 2.501-2.495 3.144-2.539 6.335-5.021 9.519-7.511 1.394-1.09 2.816-2.145 4.733-3.724Zm-19.296 11.175c.717-1.395 1.316-2.869 2.173-4.172 3.418-5.196 7.118-10.217 10.314-15.544 2.163-3.604 3.61-7.633 5.464-11.429 2.112-4.325 2.132-4.512-.948-7.718-.703-.732-1.39-1.488-2.163-2.141-.73-.618-1.562-1.115-2.35-1.665-.609 1.042-1.695 2.066-1.736 3.131-.12 3.102-1.799 5.367-3.356 7.786-2.226 3.46-4.348 6.989-6.446 10.53-.263.444-.104 1.137-.141 1.715.576-.273 1.384-.39 1.691-.844 2.223-3.292 4.239-6.728 6.557-9.949.848-1.178 2.336-1.894 3.532-2.821-.409 1.494-.49 3.198-1.286 4.444-2.839 4.443-5.917 8.732-8.914 13.073-.82 1.188-1.452 2.65-2.554 3.47-2.381 1.771-2.771 4.089-2.338 6.666.311 1.853.977 3.647 2.501 5.468Zm-394.06-7.112c-.458.12-1.032.103-1.356.379-3.918 3.339-7.961 6.426-12.568 8.853-3.098 1.631-5.915 3.919-8.54 6.27-1.341 1.201-1.982 3.186-2.94 4.817-1.749-1.313-3.527-.715-5.239.018-1.868.799-3.637 1.84-5.528 2.574-.808.313-1.814.114-2.73.148.272-.847.495-1.714.824-2.538 1.107-2.773 3.654-3.863 5.962-5.367 1.66-1.081 2.809-2.947 4.186-4.463-1.748.724-3.524 1.388-5.232 2.195-.996.472-1.898 1.152-2.814 1.779-.625.427-1.201.926-1.8 1.393-.103-.972-.425-1.988-.24-2.901.143-.712.792-1.489 1.433-1.904 2.25-1.458 4.62-2.732 6.877-4.179.4-.257.483-1.01.712-1.534-.577-.068-1.344-.408-1.702-.16-2.646 1.833-5.028 4.147-7.863 5.573-1.967.989-2.448 2.303-2.54 4.021-.134 2.53-.294 5.11.056 7.598.237 1.682.925 3.723 2.134 4.755 2.306 1.967 3.888 1.695 6.587-1.237 1.768-1.922 3.919-3.106 6.135-3.628 5.366-1.264 9.408-4.65 13.484-7.854 5.419-4.26 10.49-8.973 15.564-13.652.885-.818 1.767-3.196 1.404-3.539-1.519-1.441-2.043.742-3.034 1.367-.28.176-.485.469-1.232 1.216Zm19.805-20.826c.177 3.437-3.053 5.109-4.172 7.923-.461 1.161-2.64 2.839-3.159 2.572-2.29-1.179.079-2.664.22-4.077.016-.168-.034-.348.007-.506.263-1.021.543-2.038.818-3.057-1.156.269-2.332.471-3.46.829-.737.234-1.475.605-2.068 1.092-.29.237-.249.878-.357 1.336.36-.031.722-.113 1.076-.084.654.054 1.303.173 1.954.265-.286.558-.449 1.257-.888 1.641-.573.501-1.35.782-2.064 1.108-5.971 2.728-10.851 7.178-16.481 10.453-1.668.969-3.212 2.237-4.577 3.604-.722.724-1.06 1.922-1.329 2.968-.138.538.258 1.213.412 1.826.578-.209 1.265-.284 1.717-.65 3.937-3.196 7.726-6.588 11.798-9.597 1.453-1.074 3.097-3.117 5.532-1.246 1.204.925 2.276.154 3.477-.693 4.54-3.204 8.999-6.557 14.013-9.034 4.974-2.458 4.665-2.265 1.987-6.48-1.459-2.295-2.288-2.334-4.456-.193ZM55.66 326.385c1.458.273 3.003-.064 3.386-1.44 1.654-5.938 4.564-11.271 7.527-16.595.188-.337.306-.712.457-1.069-.456-.014-.958-.157-1.359-.015-.729.257-1.5.564-2.077 1.058-6.443 5.515-13.85 9.249-21.814 11.992-.577.199-1.286.683-1.46 1.195-.17.501.13 1.662.454 1.758 4.55 1.351 8.894 3.681 14.886 3.116Zm388.474-68.574-5.078 2.703c1.65.75 3.314 1.471 4.944 2.26.849.411 1.6 1.254 2.462 1.362 2.211.276 5.221 1.467 6.355-.997 1.767-3.84 5.325-6.799 5.606-11.388.042-.697 1.677-.96-.375-1.684-3.681-1.299-5.998-.802-9.188 2.977-1.285 1.522-2.805 2.845-4.726 4.767Zm16.758 18.794c1.426 2.105 3.121 4.083 4.191 6.355.792 1.68 1.623 2.409 3.151 1.461 1.37-.85 2.27-2.522.712-3.683-2.039-1.519-.655-2.833-.054-3.92 2.81-5.087 6.076-9.939 8.597-15.157.737-1.525 3.3-2.977 1.617-5.374-1.501 1.383-3.118 2.661-4.48 4.17-3.167 3.507-6.171 7.162-9.321 10.685-1.549 1.734-3.275 3.309-4.413 5.463Zm24.882 18.795c-1.693 1.997-3.944 3.759-4.912 6.061-.869 2.066-1.723 2.097-2.434.666-1.282-2.578-2.298-2.715-3.998-.51-.466.605-1.374.854-1.9 1.429-.456.498-.978 1.286-.878 1.837.086.474 1.009 1.128 1.565 1.131 4.422.026 9.219 1.091 12.029-3.939.277-.496 1.038-.708 1.544-1.091 4.336-3.287 8.095-7.089 10.489-12.054.287-.596.187-1.378.267-2.073-.576.176-1.175.298-1.724.536-3.836 1.66-6.703 4.562-10.048 8.007ZM144.02 255.271c2.008-.263 2.65-1.219.424-1.945-3.134-1.021-6.442-1.614-9.722-2.019-1.056-.13-2.446.687-3.356 1.457-3.39 2.868-6.653 5.887-9.941 8.874-.437.397-.743.94-1.11 1.415.792.115 1.736.563 2.347.283 1.842-.843 3.455-2.234 5.335-2.934 4.953-1.845 9.999-3.438 16.023-5.131Zm304.685-6.095c.194-1.68-.838-1.933-2.194-2.065-1.253-.122-2.467-.673-3.717-.761-1.761-.124-3.051-.839-4.255-2.11-.294-.31-1.568.309-2.392.502 1.912 3.113.27 6.559.922 9.767.409 2.01 3.069 2.911 4.7 1.519 2.285-1.949 4.299-4.214 6.936-6.852Zm-275.232-9.144c-2.78 1.427-5.612 2.764-8.302 4.343-.651.382-.831 1.565-1.228 2.379.913.024 2.012.392 2.711.016 5.836-3.135 11.815-5.744 18.441-6.8 2.756-.44 5.41-1.543 8.085-2.421.429-.141.725-.685 1.083-1.042-.411-.18-.82-.509-1.234-.516-6.495-.117-12.941.034-19.556 4.041Zm36.054-10.667c2.378-1.185 4.814-2.272 7.105-3.606.852-.496 1.367-1.57 2.036-2.381-1.008-.044-2.039-.234-3.017-.083-.733.114-1.439.606-2.088 1.035-3.251 2.148-6.655 3.96-10.695 3.471-3.017-.365-5.111 1.535-7.549 2.606-.399.175-.648.691-.967 1.049.444.15.882.405 1.334.433 4.585.28 9.09-.018 13.841-2.524Zm261.522 16.763c-1.514 0-3.035.095-4.539-.026-1.553-.125-2.792.527-2.94 1.893-.07.65 1.267 1.556 2.099 2.164.605.443 1.74.375 2.101.903 2.154 3.148 5.36 2.095 8.217 2.087.894-.003 1.786-1.074 2.679-1.655-.702-.773-1.282-1.74-2.133-2.276-1.575-.994-3.309-1.736-5.484-3.09Zm-16.25 19.302c-1.284 1.035-2.169 2.219.162 2.853 2.84.772 5.466-.274 6.926-2.913 1.417-2.562 2.45-5.345 3.532-8.078.197-.5-.182-1.229-.295-1.852-.573.122-1.343.048-1.688.396-2.864 2.887-6.314 5.261-8.637 9.594Zm-33.516-33.525c-4.33-.264-8.743-.07-12.473-3.004-.81-.637-2.039-.796-3.107-1.016-.338-.069-1.021.305-1.115.609-.113.365.097 1.088.406 1.286 4.603 2.963 9.811 4.256 15.118 5.085 1.077.168 2.663-.484 3.416-1.306.904-.988.146-1.787-2.245-1.654Zm-233.592 23.366c2.642-.949 5.288-1.886 7.918-2.865.283-.105.475-.459.709-.697-.268-.167-.527-.457-.806-.479-.838-.064-1.742-.219-2.518.009a776.97 776.97 0 0 0-16.607 5.081c-.871.277-1.604.986-2.401 1.496.942.168 1.888.476 2.824.45.556-.016 1.063-.682 1.65-.845 2.727-.757 5.475-1.44 9.231-2.15Zm278.787 6.604c-.939 1.616-1.967 3.19-2.772 4.871-.315.658-.127 1.557-.168 2.346.59-.323 1.349-.508 1.745-.991a392.823 392.823 0 0 0 7.777-9.814c.313-.407.228-1.121.327-1.693-.626-.102-1.307-.416-1.868-.271-2.433.632-3.893 2.429-5.041 5.552ZM54.645 294.892c4.796-3.104 9.6-6.194 14.364-9.346.285-.189.239-.881.346-1.338-.358.031-.789-.057-1.064.11-5.268 3.199-10.529 6.409-15.738 9.702-.287.182-.108 1.103-.146 1.68.577-.1 1.154-.2 2.239-.808Zm104.101-52.32c-.573-.103-1.287-.479-1.698-.267a189.36 189.36 0 0 0-9.014 4.95c-.538.315-1.224 1.465-1.069 1.683.618.876 1.174 1.664 2.759.769 3.192-1.803 6.697-3.056 9.022-7.135Zm270.155 5.08-3.047 2.624c1.116.311 2.249.573 3.343.949.721.247 1.378.901 2.077.922.553.016 1.659-.855 1.609-.99-.714-1.897 1.618-3.799-.038-5.598-.126-.137-.712.046-1.02.204-.824.424-1.613.916-2.924 1.889ZM56.677 296.924c-1.75 1.412-3.601 2.719-5.204 4.282-.722.703-1.016 1.894-1.328 2.917-.05.164 1.119.971 1.238.875 2.648-2.127 5.322-4.245 7.725-6.632.394-.392 1.08-3.569-2.431-1.442Zm307.732-72.131 5.586-1.904c-1.428-2.564-3.901-.406-5.702-1.266-.566-.27-1.112-.85-1.659-.842-1.273.021-2.541.314-3.811.497.946.933 1.846 1.92 2.858 2.773.455.385 1.135.503 2.728.742Zm-239.686 22.351c-.356.356-.78.668-1.048 1.081-.246.38-.324.869-.475 1.31.44-.052.913-.016 1.314-.17 2.751-1.056 5.55-2.024 8.186-3.319.749-.368 1.011-1.728 1.496-2.633-.821.228-1.664.397-2.459.694-2.179.815-4.339 1.682-7.014 3.037Zm-17.265 10.159c2.682-1.668 5.372-3.323 8.04-5.014.426-.271 1.133-.875 1.062-1.032-.61-1.355-1.256-.551-2.149-.097-2.916 1.481-5.948 2.734-8.909 4.13-.593.28-1.069.806-1.599 1.218.846.265 1.693.53 3.555.795Zm146.249-17.271c-1.673 0-3.348-.044-5.014.055-.214.013-.474.755-.536 1.185-.034.236.304.757.468.755 2.805-.045 5.612-.1 8.407-.307.387-.029.712-.885 1.066-1.359-.456-.109-.908-.277-1.37-.315-.665-.054-1.337-.014-3.021-.014Zm-44.688 1.016c2.21-.149 4.567.607 6.533-1.025.41-.341.725-.797 1.085-1.2-.488-.274-1.008-.826-1.459-.775-2.027.229-4.067.509-6.026 1.049-.522.144-.773 1.274-.133 1.951Zm110.195-25.906c-2.741-.169-5.48-.366-8.224-.467-.295-.011-.825.514-.86.833-.039.361.417 1.128.556 1.105 2.66-.442 5.574 1.149 8.528-1.471Zm-120.351 28.954c1.073-.736 3.263 1.479 3.399-1.265.01-.199-2.194-.556-3.383-.748-.652-.105-1.373-.146-1.986.038-.284.085-.639 1.032-.522 1.148.384.383.969.567 2.492.827Zm197.538-16.763c-1.371.017-2.757-.076-4.107.098-.66.085-1.256.668-1.881 1.025.62.134 1.293.491 1.848.358 1.542-.368 3.478 1.084 4.14-1.481Zm-139.648-3.555c.889-.319 2.53.876 2.447-1.218-.003-.079-1.374-.042-2.086-.172-.813-.148-1.593-.545-2.405-.607-.768-.058-1.558.178-2.338.285.628.57 1.198 1.233 1.907 1.673.357.222.965.039 2.475.039Zm27.422 11.175c-1.116.1-2.264.08-3.333.36-.439.115-.709.877-1.056 1.345.452.109.938.385 1.348.298 1.813-.382 3.604-.869 5.403-1.318-.118-.228-.186-.587-.365-.656-.289-.11-.651-.029-1.997-.029Zm-47.734-14.223 1.358-.674c-.96-.452-1.906-1.197-2.887-1.247-.578-.03-1.212 1.041-1.821 1.618.778.101 1.556.202 3.35.303Zm79.726 18.794c.451.452.831 1.08 1.375 1.298.44.177 1.078-.14 1.628-.238-.353-.523-.616-1.165-1.093-1.524-.304-.231-.924-.044-1.91.464Zm101.562 15.239c-.968-.508-1.921-1.05-2.916-1.497-.219-.098-.591.143-.893.227.231.254.414.61.701.743.844.392 1.73.697 3.108.527ZM276.05 238.001l1.524-1.166-.867-.866c-.388.508-.776 1.016-.657 2.032Zm-134.061 30.477c-.117.116-.261.217-.339.355-.047.084-.005.324.023.328.775.124 1.553.253 2.334.301.1.006.227-.426.341-.656-.448-.109-.896-.219-2.359-.328Zm-38.086-3.556c.538.14 1.074.285 1.618.391.017.003.114-.411.174-.63-.428-.09-.856-.179-1.792.239ZM366.44 243.08l-1.284.269c.06.219.157.633.174.629.544-.105 1.08-.25 1.11-.898Zm-115.78-10.159-.407.609c.305-.033.61-.067.407-.609Z" fill="#000"/><path d="M165.982 291.999c-4.176-3.851-3.999-5.184.737-7.283 1.205-.534 3.076-1.032 3.935-.465.905.598 1.622 2.74 1.242 3.762-.579 1.553-.783 4.001-3.412 3.987-.666-.004-1.331-.001-2.502-.001ZM256 267.513c-1.339 1.027-2.601 1.61-3.452 2.581-1.404 1.603-2.264.819-3.286-.351-.905-1.036-1.969-1.645-.626-3.454.989-1.333 1.035-3.472 1.341-5.281.313-1.849 1.604-2.626 2.984-1.45 1.271 1.085 2.628 2.171 2.339 4.386-.135 1.036.613 2.195.7 3.569ZM229.918 301.075c-1.327 1.684-2.371 3.378-4.684 2.815-1.604-.391-2.864-2.259-1.896-3.325 1.171-1.288 2.748-2.285 4.293-3.173.67-.385 2.008-.562 2.506-.178 1.349 1.04.994 2.323-.219 3.861ZM325.879 275c1.663 1.473 3.047 2.834 3.896 4.465.43.824.202 2.329-.327 3.154-.303.472-1.886.461-2.756.209-2.725-.791-2.518-3.696-3.686-5.607-.122-.2 1.539-1.455 2.873-2.221ZM417.355 288.67c-.25-.409-.292-.585-.243-.731.439-1.308-1.129-3.342 1.217-3.909 1.431-.345 5.693 2.351 5.671 3.56-.014.777-.894 2.183-1.403 2.191-1.668.026-3.621.922-5.242-1.111ZM382.234 264.563c-.607-2.141-1.109-4.017-1.231-5.916-.053-.837.519-1.846 1.107-2.526.245-.284 1.835-.001 1.863.172.465 2.88 1.245 5.828.97 8.668-.202 2.075-1.621.56-2.709-.398ZM292.952 260.769c.151 2.204.07 3.42-2.14 3.207-1.486-.143-1.94-.615-1.747-2.081.044-.333-.021-.682.011-1.019.17-1.754-.776-4.524 1.249-4.854 1.86-.303 2.059 2.526 2.627 4.747ZM318 285.775c.756-2.192.872-2.205 1.95-.85.673.844 1.54 1.519 2.154 2.404.451.652 1.056 1.695.857 2.263-.581 1.661-2.145 1.524-3.393 1.22-.422-.102-.668-1.36-.871-2.127-.229-.866-.32-1.775-.697-2.91ZM447.017 289.948c.341-2.178.637-3.87 1.05-5.534.126-.51.569-.945.867-1.414.384.385.877.713 1.134 1.166 1.602 2.82 1.128 5.904-1.335 7.522-1.164.765-1.851.1-1.716-1.74ZM443.691 308.779c1.312 2.425 2.415 4.645-.732 6.193-.35.172-1.805-.497-1.835-.837-.178-2.024-.12-4.066-.073-6.101.022-.896-.508-2.361 1.415-1.969.502.102.63 1.6 1.225 2.714ZM354.033 291.86c-2.343.528-3.803-.464-4.013-2.53-.077-.763.074-2.172.351-2.232.839-.18 2.025-.14 2.651.35 1.359 1.063 3.097 2.25 1.011 4.412ZM340.791 302.941c.522-.986 1.043-1.464 1.564-1.941.22.36.539.697.643 1.083.412 1.538 1.149 3.129.976 4.623-.098.842-1.737 1.534-2.682 2.294-.676-.752-2.175-1.186-.589-2.594.553-.491.088-1.943.088-3.465ZM419.67 304.018c.306-1.009.613-1.513.92-2.018 1.194 1.101 2.792 2.069 3.388 3.366.243.529-1.577 1.903-2.708 2.602-.312.193-1.999-.529-2.208-1.067-.259-.664.365-1.574.608-2.883ZM210.313 258.096c1.704 2.655-.145 3.21-1.398 3.757-1.402.612-1.616-.818-2.292-1.877-.941-1.475-.781-2.2.243-3.285 1.709-1.81 2.225.392 3.447 1.405ZM294 305.212c-.489 3.944-1.388 4.631-3.29 2.879-.533-.491-2.855-.846-1.009-2.381 1.174-.976 2.157-3.021 4.299-.498ZM405.566 272.411c-.34-1.224-.579-2.187-.565-3.145.006-.442.472-.931.812-1.26.067-.065.561.448.761.788.378.642.807 1.303.994 2.047.253 1.008.298 2.102.432 3.159-.743-.443-1.486-.885-2.434-1.589ZM355.562 282.987c-1.185.025-2.476.082-2.946-.598-.587-.849-.64-2.309-.609-3.495.008-.334 1.26-1.054 1.691-.862 1.078.478 2.837.589 2.145 2.917-.155.524-.023 1.159-.281 2.038ZM202.309 315c-.243-.826-.443-1.513-.197-2.004.386-.768.96-1.823 1.661-1.987.842-.198 2.729 3.023 2.102 3.445-.861.579-2.194.544-3.566.546ZM212.801 266.86c1.349-.772 2.561-1.589 3.171.282.29.888-1.784 4.146-2.333 3.837-1.491-.835-2.369-2.108-.838-4.119ZM403 293.625c-1.146.352-2.948.593-3.295.079-.632-.933-.997-2.961-.407-3.377 1.368-.965 2.112.411 2.683 1.463.267.492.675.924 1.019 1.835ZM296.237 256.194c2.604-.71 2.83.623 2.75 2.472-.071 1.662-1.332 1.407-2.038 1.135-1.6-.616-3.079-1.57-.712-3.607ZM377.148 269.841c2.524-2.384 2.554 1.029 3.852 1.305-.322.73-.51 1.58-.993 2.165-1.259 1.524-2.139.173-2.735-.735-.409-.621-.275-1.629-.124-2.735ZM283.217 314.295c-.254-1.267-.227-2.281-.2-3.295 1.248.133 2.531.165 3.717.486.238.065.415 1.426.084 1.851-.741.95-1.422 2.618-3.601.958ZM377 309.989c-2.861.146-3.623-1.17-2.511-3.801.418-.989 1.142-1.975 1.779-.232.426 1.166.642 2.48.732 4.033ZM388.913 285.218c.12.681.14 1.235-.096 1.531-.619.779-1.325 2.034-2.302.588-.386-.572-.672-1.724-.419-2.257.671-1.411 1.683-1.515 2.817.138ZM308.733 283c-.786-.393-1.776-1.089-1.732-1.708.077-1.074.725-2.142 1.291-3.117.136-.235 1.282-.189 1.298-.116.22.983.47 2.005.397 2.993-.042.583-.643 1.122-1.254 1.948ZM210 290c-1.145-.084-2.182-.24-2.916-.819-.269-.211.183-1.425.306-2.181.528.164 1.224.164 1.546.528.554.625.874 1.477 1.064 2.472ZM271 298c-.815-.257-1.407-.735-2-1.214l.786-.786c.479.593.958 1.185 1.214 2ZM356 201.994c-2.597 2.579-4.406-.49-6.296-1.556-1.112-.628-1.418-3.211-1.676-4.981-.221-1.517.914-1.916 1.849-.88 2.057 2.281 3.921 4.752 6.123 7.417ZM151.996 209.42c-1.32.488-2.357.845-3.44 1.027-1.501.253-3.036.375-4.556.553.749-.953 1.38-1.985 2.274-2.842 1.54-1.476 3.422-1.492 5.241-.326.432.277.505.909.481 1.588ZM375.337 201.977c.797.344 1.095.742 1.466 1.021.71.534 1.462 1 2.197 1.494-.831.539-1.703 1.581-2.485 1.504-1.352-.134-3.063-.576-3.849-1.612-.741-.976-.484-2.885-.666-4.384.957.659 1.915 1.318 3.337 1.977ZM318 191c1.636.693 3.358 1.742 4.846 2.999.366.31-.029 1.295-.075 1.969-.896-.045-2.327.191-2.593-.187-.941-1.336-1.484-2.882-2.178-4.781ZM440.265 214.957c.692.24.916.477 1.135.72l2.6 2.877c-1.35.158-2.706.49-4.05.441-3.221-.116-1.496-2.855-1.432-4.156.096-1.951.803.11 1.747.118ZM172 212.254c-.097.582-.416.967-.816 1.247-.924.649-1.487 2.428-3.147.888-1.292-1.197-1.413-2.333-.159-3.625 1.829-1.886 2.451.229 3.506.911.136.088.239.222.616.579ZM415.631 209.83c-.226-1.021-.761-1.65-.602-1.972.21-.426 1.188-.976 1.438-.836.765.428 1.316 1.187 1.994 1.771 1.162 1.001 2.357 1.966 3.539 2.946-2.298.266-4.691.928-6.369-1.909ZM190.951 204.845c-.862.15-1.871.315-2.093-.153-.495-1.043-.596-2.402-.858-3.631 1.027.047 2.185-.282 3.049.231 1.224.726 1.345 2.107-.098 3.553ZM235.412 193.721c1.159 1.144 2.645 2.031.492 3.1-1.578.783-4.893-1.156-4.904-2.856-.002-.337.517-.977.771-.965 1.131.053 2.254.292 3.641.721ZM295 194.445c.555-.636 1.32-1.285 2.206-1.419.867-.131 1.858.262 2.794.425-.377.846-.578 1.803-1.229 2.479-.223.232-1.609-.168-2.395-.417-.442-.14-.747-.562-1.376-1.068ZM267.75 202.233c.583.795.917 1.331 1.25 1.867-.93.326-1.963 1.072-2.764.864-.859-.223-1.5-1.344-2.236-2.073.649-.65 1.223-1.44 1.987-1.873.258-.146.995.612 1.763 1.215ZM213.46 212.46c-2.642 1.323-3.476.05-3.46-2.03.004-.505.925-1.426 1.431-1.43 2.078-.016 3.352.818 2.029 3.46ZM215.1 203.802c.843 1.244 1.372 2.221 1.9 3.198-1.273-.184-3.133-.01-3.669-.643-.642-.759-.153-2.207-.154-3.357.536.178 1.072.356 1.923.802ZM471 237c-.429-.151-.714-.588-1-1.025l.487-.975c.219.571.437 1.143.513 2Z" fill="#000"/></svg>