<svg width="534" height="534" viewBox="0 0 534 534" fill="none" xmlns="http://www.w3.org/2000/svg"><path d="M169.806 118.27c8.963-4.18 17.681-11.059 24.437-9.483 15.473 3.609 32.284 5.691 44.869 17.456 1.66 1.552 3.472 3.029 4.782 4.853 7.482 10.418 12.825 7.615 22.719.661 14.671-10.311 32.129-17.23 49.242-23.141 6.415-2.215 15.267 2.113 22.871 4.011 29.924 7.471 49.711 26.291 59.887 55.229 1.65 4.693 1.614 10.075 1.832 15.161.292 6.82-.382 13.696.144 20.487 4.009 51.783-21.865 91.476-53.071 128.176-26.06 30.648-58.747 53.167-95.724 69.251-4.503 1.959-11.444 4.666-12.113 8.049-3.794 19.166-22.135 9.748-31.765 16.985-.607.456-6.471-3.598-7.082-6.213-1.177-5.037-.765-10.587-.274-15.854 3.257-34.951-7.646-67.236-20.124-98.712-4.891-12.339-14.627-23.209-23.745-33.305-21.717-24.044-27.576-53.555-23.469-83.195 3.581-25.846 17.018-49.564 36.584-70.416Zm219.346 112.844c.758-13.324 2.121-26.647 2.164-39.973.156-48.135-50.282-82.287-94.085-63.687-7.721 3.279-15.272 7.655-21.772 12.925-5.829 4.725-15.733 9.449-3.574 19.481 5.4 4.456 6.576 13.756 10.538 20.332 8.335 13.833 8.485 13.597-3.537 24.806-6.083 5.671-11.939 11.607-17.63 17.675-8.429 8.987-8.178 18.1.406 26.476 12.931 12.62 12.205 12.104 2.849 25.352-5.982 8.468-10.34 18.42-13.759 28.288-3.468 10.01 6.986 13.658 11.522 20.045 5.063 7.129 4.751 14.77-.122 21.864-4.5 6.55-10.269 12.312-14.144 19.179-3.751 6.649-4.682 14.827 2.735 19.557 2.753 1.756 8.97-.073 12.696-2.021 36.728-19.2 68.862-44.411 91.059-79.724 13.347-21.233 29.583-41.756 34.654-70.575Zm-165.93-102.586c-22.608-13.411-38.801-5.33-54.782 13.323-25.636 29.922-31.21 75.99-8.709 114.612 4.351 7.469 11.204 13.43 16.009 20.683 8.609 12.995 20.707 25.526 23.848 39.9 5.798 26.535 15.98 52.577 14.713 80.527-.1 2.209 1.847 6.091 3.513 6.51 5.485 1.379 20.856-16.484 17.7-21.071-9.985-14.51-1.043-26.951 6.735-35.193 10.938-11.59 9.731-20.521.974-30.185-9.02-9.954-8.427-19.137-1.928-29.725 3.646-5.939 6.159-12.576 9.206-18.886 5.204-10.778 5.752-11.314-2.858-19.957-8.934-8.967-8.761-18.222-2.906-27.911 4.093-6.772 8.985-13.219 14.377-19.008 12.261-13.162 13.014-17.621 1.549-31.356-11.371-13.623-23.418-26.679-37.441-42.263Z" fill="#000"/></svg>