<svg width="534" height="534" viewBox="0 0 534 534" fill="none" xmlns="http://www.w3.org/2000/svg"><path d="M285.068 395.431c-16.337 11.367-34.486 13.567-51.746 10.009-16.711-3.446-34.825-6.958-44.936-25.011-2.676-4.777-3.06-9.363-4.217-13.869-2.747-10.699-6.88-20.897-8.012-32.262-2.22-22.275 6.313-40.478 18.214-57.77 2.606-3.787 1.574-5.105-.665-8.052-7.86-10.344-16.693-20.302-22.552-31.739-12.39-24.187-17.429-50.381-14.202-77.526.847-7.128 5.701-13.689 7.686-20.798 2.113-7.57 7.987-9.075 14.075-10.195 16.431-3.024 32.7-.219 47.461 6.219 11.535 5.03 24.292 7.692 34.505 16.17 5.208 4.323 10.741 6.912 12.776 14.662 1.483 5.651 6.452 10.894 10.979 15.133 8.739 8.185 13.398 17.979 14.009 29.668.288 5.506 1.867 8.399 7.93 8.934 17.367 1.533 33.217 8.669 48.712 15.728 13.765 6.273 23.686 17.068 22.868 33.932-.738 15.201-1.156 30.478-3.174 45.526-.695 5.182-5.066 10.491-9.023 14.494-10.217 10.337-23.627 14.164-37.653 14.771-8.226.356-10.461 2.489-13.319 11.168-5.164 15.678-11.713 32.318-29.716 40.808Zm-58.878-134c6.309-1.891 12.506-4.609 18.952-5.476 9.394-1.263 11.07-1.565 10.622-10.244-.361-6.972 2.281-11.55 7.328-15.503 4.65-3.642 8.763-8.68 14.027-10.605 4.362-1.595 4.713-3.498 4.371-6.788-1.035-9.975-3.352-19.587-11.345-26.439-6.758-5.793-11.706-13.187-13.612-21.247-1.104-4.669-3.206-5.582-6.21-7.216-18.032-9.81-37.522-15.122-57.624-18.345-6.268-1.005-12.913 1.343-15.398 6.661-6.698 14.341-13.207 30.298-8.662 45.575 6.322 21.252 11.05 43.491 27.407 61.066 10.664 11.459 12.572 13.988 30.144 8.561Zm73.775 87.915c3.973-5.91-1.234-6.882-4.741-8.464-6.378-2.877-12.515-5.398-11.134-14.593.368-2.452-2.599-5.374-3.957-8.12-5.229-10.574-10.112-21.34-15.877-31.612-1.307-2.331-3.975-5.894-9.066-3.324-11.013 5.559-22.513 5.238-34.33 1.512-4.983-1.571-11.053-2.551-15.282 2.946-8.274 10.757-15.762 21.873-14.822 36.318.774 11.889 1.418 23.812 2.913 35.62 1.913 15.115 13.094 24.884 27.878 29.819 9.786 3.267 19.165 1.784 28.706 2.36 22.573 1.366 45.204-19.35 49.712-42.462Zm0-39.704c2.004 2.003 4.108 3.916 5.989 6.029 3.203 3.596 5.651 8.238 9.507 10.803 9.093 6.049 33.576-1.982 39.969-11.404 10.029-14.781 9.666-31.394 7.803-47.482-.934-8.068-6.154-17.686-12.522-22.638-11.84-9.208-27.128-12.035-41.908-14.671-6.833-1.218-12.01-.315-10.452 8.971.372 2.219-1.313 5.097-2.71 7.245a746.592 746.592 0 0 1-16.516 24.316c-1.489 2.104-3.476 2.68-.835 6.222 7.398 9.923 10.873 22.465 21.675 32.609Zm-17.025-70.899 4.003-4.001c-1.487-.557-2.979-1.605-4.46-1.591-8.637.084-18.788 16.876-14.591 24.278.273.481 4.307-.035 4.955-1.091 3.194-5.207 5.837-10.751 10.093-17.595Zm18.444 80.825c-.665-.28-1.313-.663-2.006-.781-.214-.036-.867.784-.783.98.866 1.993 1.767 3.98 2.818 5.88.598 1.08 1.493 1.994 2.255 2.983.184-1.333.623-2.695.481-3.993-.137-1.251-.873-2.436-2.765-5.069Z" fill="#000"/></svg>