<svg width="534" height="534" viewBox="0 0 534 534" fill="none" xmlns="http://www.w3.org/2000/svg"><path d="M119.737 267.016c-2.839-11.915-6.623-20.627-8.35-29.732-6.81-35.868-17.555-71.916-3.534-108.257 10.198-26.434 29.716-45.625 54.35-58.178 20.678-10.537 39.1 2.736 54.618 13.733 12.117 8.588 20.904 22.794 29.14 35.798 11.605 18.323 10.479 17.929 30.694 10.636 28.293-10.206 55.449-20.532 87.963-10.027 35.557 11.488 67.084 44.351 68.299 83.041 1.839 58.573-26.876 102.363-71.532 134.924-37.118 27.063-78.556 48.081-116.945 73.503-17.775 11.771-32.864 27.632-49.131 41.685-2.267 1.959-3.967 5.303-6.512 6.077-7.968 2.423-16.214 3.923-24.352 5.781-.848-6.699-2.869-13.489-2.358-20.081 4.051-52.257-15.818-99.217-31.75-147.052-3.235-9.71-7.052-19.225-10.6-31.851Zm36.141 63.463c1.42 1.424 3.911 2.719 4.101 4.292 3.547 29.489 17.763 57.105 14.536 87.981-.639 6.121 6.002 13.008 9.286 19.542 4.768-3.042 9.828-5.71 14.252-9.191 18.988-14.938 36.944-31.363 56.848-44.924 32.693-22.277 66.777-42.489 99.903-64.145 10.462-6.84 22.111-13.813 29.114-23.663 22.741-31.986 38.02-67.132 30.667-107.815-1.951-10.795-5.45-22.748-12.134-30.988-26.962-33.235-96.373-38.135-128.383-9.54-5.103 4.558-8.353 12.929-9.357 19.982-1.545 10.859-.01 22.128-.698 33.166-.162 2.599-3.982 4.968-6.119 7.443-1.879-2.735-5.876-6.06-5.307-8.112 5.456-19.697-20.036-35.45-6.84-55.839-7.809-11.865-15.636-23.717-23.422-35.596-22.173-33.828-56.441-37.528-82.447-7.952-12.013 13.663-19.614 29.434-20.59 48.936-1.261 25.205 1.453 49.37 5.69 74.239 5.774 33.884 15.853 65.626 30.9 102.184Z" fill="#000"/></svg>