<svg width="534" height="534" viewBox="0 0 534 534" fill="none" xmlns="http://www.w3.org/2000/svg"><path d="M284.429 112.083c-.392 1.176-.156 2.059-.435 2.727-.932 2.228-3.161 4.626-2.749 6.483.34 1.535 3.839 2.229 5.721 3.595 2.617 1.9 3.298 5.82 1.773 8.912-2.922 5.921-6.48 11.578-11.853 15.366-3.449 2.432-7.887 3.794-12.083 4.707-2.457.535-2.953 1.242-2.745 3.361.595 6.037 1.116 12.082 1.739 18.117.042.403 1.037.763 1.017 1.11-.671 11.48 4.83 22.301 3.551 33.851-1.138 10.274-2.085 20.569-3.17 30.849-.447 4.235-1.17 8.446-1.478 12.689-.098 1.364.507 2.927 1.223 4.144.395.671 1.688.812 2.576 1.193.277-.661.911-1.41.774-1.969-1.145-4.652 2.298-6.862 4.707-9.88 7.114-8.911 16.723-15.008 25.554-21.685 7.942-6.005 18.182-8.899 27.172-13.616 7.131-3.741 15.111-3.85 22.614-5.909 4.038-1.109 9.738-.589 13.203 1.574 6.876 4.293 15.015 6.826 20.347 13.55 5.677 7.159 10.172 14.85 13.711 23.348 4.424 10.622 5.791 21.745 7.957 32.835 1.212 6.204-.421 11.368-1.669 16.978-.919 4.133-1.432 8.397-1.691 12.629-1.006 16.485-6.586 31.552-14.536 45.738-5.787 10.326-10.291 21.499-19.785 29.525-6.332 5.352-11.833 11.683-17.755 17.527-.868.856-1.957 1.956-3.03 2.06-7.755.756-14.233 4.652-21.103 7.817-12.596 5.804-25.585 10.525-39.429 12.783-7.68 1.253-15.149 3.771-22.746 5.579-1.949.464-4.041.29-6.037.605-2.929.463-5.978-1.015-8.905 1.37-1.231 1.003-4.254.695-6.046-.037-7.028-2.872-13.751-1.051-20.638.437-5.814 1.256-11.798 2.936-17.613 2.634-5.69-.296-11.419-2.449-16.849-4.523-8.802-3.362-17.926-5.935-25.771-11.671-12.678-9.269-22.62-20.429-26.492-35.986-2.791-11.21-5.218-22.492-1.742-34.143.788-2.641-.184-5.754.177-8.584.785-6.153 2.05-12.244 2.848-18.395.699-5.394-.649-11.187 3.366-15.87-1.033-8.371 3.879-15.196 6.531-22.401 6.696-18.193 17.734-33.253 35.864-41.989 5.465-2.634 11.179-3.552 17.209-4.009 7.359-.557 18.722.463 24.689 3.677 7.281 3.92 14.494 7.982 21.564 12.268 1.24.752 1.85 2.837 2.34 4.432.367 1.195-.217 2.676.133 3.882.718 2.474 2.276 7.013 2.621 6.934 4.064-.934 1.113-4.49 2.062-6.791.644-1.563 1.073-3.214 1.69-4.79 1.752-4.475 2.946-8.479 1.846-13.887-1.315-6.467-.389-13.886 1.493-20.331 1.22-4.178.997-8.038 1.13-12.004.408-12.212-.564-24.349-3.05-36.34-.052-.25-.001-.521-.008-.783-.522-19.388-1.134-38.774-1.485-58.166-.062-3.432.853-6.907 1.562-10.311.18-.866 1.298-1.538 1.985-2.299.369.697.761 1.384 1.105 2.093 2.728 5.638 2.733 5.659 9.14 3.336 1.814-.658 3.519-1.881 5.369-2.129 6.452-.864 10.441-2.233 12.53 7.783Zm-26.282 167.502c-1.57 0-3.14.002-4.709 0-12.572-.012-17.392-4.406-17.984-16.817-.187-3.9-1.813-7.116-4.795-8.939-10.708-6.54-21.732-11.917-35.062-8.831-15.048 3.483-26.432 11.76-35.679 24.009-4.711 6.24-6.736 13.493-10.017 20.23-4.188 8.6-6.275 18.025-7.082 27.639-.531 6.318-.979 12.643-1.596 18.953-.389 3.979-.3 8.211-1.693 11.843-2.922 7.617-1.341 15.356-1.143 22.927.142 5.4 1.815 11.374 4.632 15.972 7.646 12.48 16.828 23.621 30.996 29.648 6.331 2.693 12.945 4.12 19.369 6.278 7.632 2.564 14.14 1.969 19.951-3.88.997-1.003 2.42-1.71 3.777-2.175.72-.246 1.719.322 2.592.523-.442.757-.762 1.632-1.354 2.243-.94.969-2.062 1.761-3.107 2.628 1.494.179 3.064.726 4.463.441 1.607-.327 3.008-1.551 4.597-2.101 2.751-.952 5.852-2.874 8.326-2.304 10.873 2.5 21.371 2.147 31.842-1.715 2.511-.926 5.305-1.062 7.953-1.637 5.991-1.302 12.376-1.754 17.846-4.223 5.948-2.685 11.684-4.98 18.248-5.289 1.801-.085 4.51-.988 5.142-2.309 2.509-5.251 7.341-5.681 11.972-7.099 3.898-1.193 7.518-3.281 11.286-4.914 6.142-2.661 10.117-7.509 14.396-12.52 9.24-10.819 17.066-22.474 23.69-34.969 6.022-11.359 12.061-22.755 14.207-35.686.108-.656.749-1.329 1.311-1.786 4.396-3.576 4.503-8.809 4.805-13.667.394-6.325.528-12.694-1.377-18.971-1.701-5.61-2.246-11.597-4.211-17.093-3.121-8.728-7.37-16.837-12.947-24.487-9.337-12.807-23.421-18.026-38.415-13.474-8.404 2.552-16.572 5.388-24.216 9.74-4 2.278-8.625 2.907-12.355 6.308-6.646 6.058-14.22 11.084-21.166 16.832-4.559 3.774-8.588 8.062-7.668 14.871.141 1.045-.78 2.247-1.251 3.359-2.301 5.432-6.997 8.117-13.574 10.442Zm20.398-142.789c.727-1.249 1.738-2.431 2.061-3.778.163-.678-1.182-2.454-1.408-2.381-5.233 1.689-10.547 3.255-15.529 5.535-2.481 1.136-2.236 5.518-.016 8.653 2.33 3.291 4.065 1.039 5.993-.65 2.621-2.295 5.402-4.405 8.899-7.379Zm-2.354-22.752c-.177-.7-.223-1.938-.551-2.018-3.672-.894-14.419 5.229-14.996 8.822-.224 1.392.996 3.167 1.948 4.488.228.318 2.306-.155 3.019-.818 3.363-3.124 6.548-6.441 10.58-10.474Zm82.378 267.533c-.182.182-.411.34-.53.557-.07.131.023.514.058.516 3.315.195 5.387-2.062 4.314-4.776-.058-.148-1.576-.074-1.913.322-.587.69-.784 1.713-1.929 3.381Zm25.891-38.443 1.046-3.661c-.712.537-1.628.939-2.091 1.639-.916 1.386-.803 1.486 1.045 2.022Zm-40.012 52.565c.784-.575 1.602-1.114 2.313-1.768.097-.089-.346-.762-.539-1.165-.853.716-1.706 1.432-1.774 2.933Z" fill="#000"/><path d="M334.248 268.601c-.523-4.218-1.446-7.649-1.47-11.086-.033-4.567 1.789-6.119 6.056-6.166 3.389-.038 6.824.334 10.156-.101 3.539-.462 6.127 1.613 6.853 3.916 1.919 6.094 4.96 12.25 3.351 18.864-.509 2.089-2.589 4.778-4.503 5.355-5.389 1.625-11.029 2.656-16.641 3.231-4.84.495-5.674-1.266-4.401-6.427.538-2.184.419-4.529.599-7.586Zm6.277-8.63c0 3.636-.343 7.321.164 10.884.211 1.475 2.145 3.686 3.469 3.818 2.84.282 6.327 1.493 8.452-1.793.376-.581-.056-1.747-.246-2.615-.206-.937-.709-1.821-.833-2.762-1.092-8.314-1.076-8.316-9.443-8.316-.259 0-.519 0-1.563.784Z" fill="#000"/></svg>