<svg width="534" height="534" viewBox="0 0 534 534" fill="none" xmlns="http://www.w3.org/2000/svg"><path d="M213.134 339.306c-5.857-5.861-10.824-11.339-16.311-16.233-21.484-19.159-35.684-43.052-43.809-70.262-6.369-21.326-12.226-43.026-15.544-64.979-2.976-19.692-2.831-39.957-2.756-59.965.035-9.256 2.825-18.596 5.272-27.653.396-1.464 5.761-2.655 8.393-2.055 1.671.38 4.167 4.988 3.518 6.536-8.82 21.049-4.986 43.17-3.794 64.426 1.238 22.091 9.092 43.576 14.244 65.283 5.731 24.143 15.719 45.989 29.716 65.666 9.81 13.792 23.266 25.003 35.232 37.23 1.97 2.014 4.958 3.021 6.962 5.011 23.117 22.97 48.85 42.509 77.092 58.69 5.873 3.366 12.459 5.464 18.577 8.435 1.857.903 3.246 2.774 4.849 4.201-2.242.611-4.772 2.207-6.671 1.65-5.738-1.685-11.581-3.585-16.753-6.515-15.477-8.766-30.922-17.646-45.855-27.295-10.387-6.711-20.089-14.536-29.76-22.285-7.585-6.077-14.654-12.799-22.602-19.886Z" fill="#000"/><path d="M141.579 301.549c7.683 17.236 14.473 33.931 21.908 50.333 2 4.413 5.688 8.192 9.081 11.811 6.167 6.578 12.187 13.449 19.172 19.075 16.492 13.282 34.925 23.337 55.05 30.075 16.914 5.662 33.904 11.066 51.75 13.135 1.453.169 2.71 1.732 4.144 2.483 1.054.552 2.248.838 3.38 1.242-1.165 1.225-2.247 3.402-3.51 3.512-5.552.487-11.487 1.636-16.684.267-23.674-6.236-47.273-12.031-69.939-22.478-17.014-7.842-31.268-18.806-44.089-30.782-15.045-14.054-26.547-31.696-35.229-51.341-12.905-29.199-23.601-59.133-30.167-90.076-3.763-17.737-7.775-36.158-6.022-54.923.529-5.662 1.52-10.625 5.604-14.6.775-.755 2.234-.807 3.377-1.183.427 1.409 1.631 3.201 1.156 4.165-3.447 7.005-3.59 12.958 1.67 19.742 2.941 3.792 2.888 9.985 3.955 15.143 3.718 17.972 6.658 36.138 11.212 53.892 3.476 13.552 8.947 26.59 14.181 40.508ZM181.26 173.307c4.337 14.235 8.344 27.293 13.113 40.065 3.917 10.489 4.988 21.9 12.371 31.329 8.913 11.381 17.252 23.1 29.227 31.585 1.393.987 2.61 2.309 3.675 3.661 11.646 14.791 28.228 23.311 43.135 33.927 15.336 10.92 30.967 21.426 46.338 32.299 1.49 1.054 2.059 3.413 3.055 5.166-2.266.448-5.157 2.021-6.698 1.164-10.948-6.09-21.8-12.398-32.339-19.173-15.093-9.703-29.965-19.758-44.775-29.892-4.473-3.06-8.466-6.833-12.612-10.359-20.765-17.659-40.282-35.647-49.86-62.956-5.709-16.279-11.804-32.517-16.073-49.144-5.122-19.953-10.764-40.095-9.347-61.155.138-2.043.125-4.356 1.088-6.019 1.24-2.142 3.394-3.755 5.155-5.596 1.445 3.161 7.217 1.397 6.96 7.249-.366 8.307-.62 16.549 2.044 25.015 3.175 10.093 3.809 20.985 5.543 32.834ZM204.678 116.02c9.012-9.934 14.252-10.12 21.414-.383 4.218 5.734 6.73 12.764 9.678 19.359.47 1.051-.805 2.884-1.273 4.355-.92-.92-2.039-1.712-2.724-2.783-2.842-4.443-5.399-9.077-8.415-13.393-.778-1.113-2.846-1.322-4.322-1.947.332 1.216.917 2.424.958 3.649.751 22.266 12.392 40.035 23.991 57.733 9.201 14.036 19.593 27.333 28.177 41.723 12.854 21.546 31.437 36.779 51.672 50.539 2.387 1.623 4.623 3.468 6.996 5.114 1.071.743 2.307 1.249 3.468 1.862-1.695 1.142-3.947 3.641-4.995 3.209-7.407-3.048-15.449-5.56-21.638-10.37-18.01-13.997-34.725-29.255-47.104-49.04-12.596-20.13-26.547-39.432-40.347-58.78-10.648-14.928-16.655-31.05-15.536-50.847ZM433 434.349c-.727 1.008-2.101 1.381-3.496 1.651-.042.008-.291-1.052-.444-1.614 1.096-.229 2.193-.458 3.94-.037Z" fill="#000"/></svg>