<svg width="534" height="534" viewBox="0 0 534 534" fill="none" xmlns="http://www.w3.org/2000/svg"><path d="M170.944 136.084c7.968 6.235 16.935 10.51 21.976 17.594 5.18 7.279 8.025 16.265 15.046 22.624 2.262 2.048 4.003 5.052 5.091 7.955 3.517 9.39.561 13.417-9.541 13.56-5.444.077-11.988-1.431-10.692 7.847-6.298 2.23-12.442 5.201-18.922 6.554-22.668 4.729-39.886-7.276-56.707-19.745-5.506-4.081-6.829-12.875-3.649-20.544 1.195-2.883 3.086-5.466 4.504-8.266 2.856-5.641 6.561-10.448 6.356-17.867-.149-5.394 4.348-10.383-.23-16.63-2.28-3.111 4.791-8.811 9.501-6.713 11.869 5.287 25.644 5.02 37.267 13.631Zm-6.519 63.193c-1.971-1.008-3.913-2.083-5.922-3.009-2.616-1.206-5.286-2.295-7.933-3.434-.211.87-.863 2.276-.561 2.526 2.307 1.917 4.632 3.964 7.3 5.235 1.559.743 3.757.135 7.116-1.318Zm-4.346-36.318c1.449-.715 3.15-1.185 4.21-2.278.374-.386-.635-3.226-1.324-3.362-4.232-.837-7.993-.099-9.621 4.697 1.279.314 2.558.629 6.735.943Zm24.627 10.169c.194-7.991-6.021-2.77-8.989-4.248-.266-.132-1.296 1.279-1.971 1.974 2.25 1.242 4.454 2.582 6.775 3.672.755.354 1.816.055 4.185-1.398Zm-23.178-26.149-3.324-4.358-2.471 2.478c1.449 1.111 2.898 2.222 5.795 1.88Zm7.243 53.751 2.962 5.747c-.022-1.916-.043-3.831-2.962-5.747Zm14.487-40.676 3.663-.768c-.17-.627-.448-1.811-.495-1.801-1.553.301-3.083.717-3.168 2.569ZM147.764 383.046c-9.766-4.039-18.763-6.497-24.891-15.656-4.245-6.346-12.207-10.065-17.722-15.728-4.077-4.187-7.497-9.306-10.14-14.551-6.23-12.356-2.776-21.386 10.211-22.748 20.58-2.159 42.277-6.551 60.339 8.394 9.917 8.206 18.761 17.833 27.268 27.542 1.933 2.206 1.335 7.644.368 11.171-1.518 5.541-4.412 10.693-6.591 16.064-2.719 6.701-7.839 9.655-14.757 9.073-7.811-.658-15.576-1.866-24.085-3.561Zm26.8-10.895c-1.442 0-2.898-.127-4.322.032-1.801.199-3.575.631-5.361.962 1.435 1.606 2.62 4.119 4.365 4.604 2.622.728 5.636.034 8.483-.055-.572-1.364-1.144-2.727-3.165-5.543Zm-20.281-29.054-3.913 1.886c1.965 1.971 3.726 4.241 5.983 5.782 1.08.738 3.098.096 4.691.079-.306-1.597-.331-3.327-1.003-4.751-.559-1.185-1.878-2.011-5.758-2.996Zm-46.357-14.528 7.243-1.915c-.833-1.298-1.543-3.587-2.523-3.71-2.908-.364-6.987-1.398-4.72 5.625ZM396.209 346.002c4.82 0 8.295.536 11.545-.095 12.43-2.413 20.468 6.488 30.007 11.419 1.964 1.015 4.265 3.233 4.591 5.199.699 4.231.991 8.834.057 12.969-2.122 9.394.955 20.299-6.768 27.985-3.021 3.006-7.581 4.995-11.794 6.164-17.654 4.895-37.571-3.856-49.302-19.708-7.204-9.734-13.776-19.229-14.188-31.863-.123-3.785 1.885-7.622 5.239-9.213 9.418-4.469 19.399-2.406 30.613-2.857Zm34.768 47.94c-.746-1.453-1.61-4.214-2.221-4.159-7.276.659-14.538 1.606-21.721 2.933-.639.118-1.559 4.45-.849 5.055 1.937 1.651 4.655 2.412 7.104 3.424 7.128 2.944 10.245-5.492 17.687-7.253Zm-27.524-33.413c-1.449.716-3.15 1.186-4.21 2.279-.374.386.635 3.226 1.323 3.362 4.232.837 7.993.099 9.622-4.697-1.279-.314-2.559-.629-6.735-.944ZM394.037 253.755c-7.695 13.673-19.967 11.029-31.154 10.655-2.716-.092-5.821-2.719-7.904-4.966-6.372-6.872-12.566-13.945-18.332-21.33-2.11-2.703-3.555-6.394-4.051-9.816-2.125-14.658 4.061-21.119 20.128-24.848 17.269-4.009 28.085 6.549 39.895 15.501.331.25.649.75.667 1.148.516 10.975.993 21.952.751 33.656Zm-26.8-16.707.766 3.674c.625-.171 1.805-.449 1.796-.497-.301-1.557-.715-3.091-2.562-3.177Z" fill="#000"/></svg>