<svg width="534" height="534" viewBox="0 0 534 534" fill="none" xmlns="http://www.w3.org/2000/svg"><g clip-path="url(#a)" fill="#000"><path d="M68.233 280.495c1.053 11.509 1.807 22.52 4.735 33.421 2.03 7.555 5.388 13.849 10.677 19.075 3.017 2.98 6.255 6.482 11.265 6.463.478-.002 1.064.624 1.421 1.095 3.513 4.632 8.788 4.801 13.78 5.063 6.692.35 13.418.196 20.125.043 3.639-.083 6.849-1.397 10.061-3.387 2.386-1.479 5.754-1.381 8.692-1.948.339-.066 1.001.022 1.046.176 1.958 6.63 9.29 7.641 13.06 12.567 3.832 5.005 8.992 8.97 13.303 13.638 4.618 5.002 10.426 6.739 16.888 6.852 9.39.165 18.274-1.498 26.733-6.104 4.176-2.275 6.561-5.7 8.09-9.429 1.552-3.786 4.163-3.094 6.756-3.285 2.222-.164 4.219-.385 5.289 2.808 1.599 4.772 6.657 6.393 10.513 8.705 8.136 4.879 16.582 9.241 24.488 14.531 1.274.853 2.845 1.334 4.344 1.762 1.91.547 4.052.519 5.794 1.359 2.897 1.398 5.621 1.217 8.617.53 3.686-.845 7.544-.982 11.192-1.943 3-.79 6.445-1.664 8.557-3.687 4.263-4.082 8.643-3.279 13.145-1.545 3.097 1.193 6.062 2.9 8.822 4.768 9.842 6.66 20.755 11.287 31.21 16.784 3.177 1.67 6.409 2.225 9.986 1.837 1.731-.187 3.59.891 5.335.742 4.434-.379 9.018-.546 13.208-1.861 6.332-1.987 12.676-4.344 18.452-7.556 4.408-2.451 8.287-6.149 11.783-9.872 5.169-5.504 7.687-12.554 8.545-19.907.655-5.61.131-11.358.131-17.045 0-1.271-.285-2.638.096-3.783.269-.808 1.441-1.317 2.21-1.959.13.717.43 1.45.364 2.149-.468 4.981 2.253 9.688.986 14.797-1.391 5.614-2.096 11.401-3.547 16.996-.674 2.599-1.959 5.322-3.733 7.302-6.056 6.758-12.45 13.387-20.8 17.221-12.623 5.795-25.714 8.508-39.92 6.538-8.708-1.207-15.661-5.28-22.937-9.271-5.522-3.028-11.057-6.038-16.647-8.939-2.604-1.351-5.26-2.78-8.065-3.508-2.131-.553-4.968-.842-6.734.129-4.881 2.683-9.838 4.224-15.426 4.347-2.942.065-5.872 1.65-8.793 1.607-11.125-.161-21.111-3.668-29.881-10.728-3.062-2.465-6.517-4.682-10.142-6.156-6.456-2.625-12.415-5.684-16.803-11.336-.349-.45-3.094-.017-3.36.597-2.555 5.903-7.614 8.214-13.054 10.829-6.288 3.023-12.9 3.743-19.429 5.384-9.326 2.344-16.513-1.131-23.389-6.5-2.558-1.997-4.134-5.27-7.736-5.903-3.418-6.559-11.137-8.198-15.607-13.649-1.736-2.116-4.399-3.517-6.779-5.023-.56-.354-1.715.081-2.543.331-2.821.85-5.698 1.59-8.412 2.714-8.62 3.573-17.063 1.634-25.796.193-6.413-1.057-12.39-2.631-18.076-5.622-11.88-6.247-20.056-15.12-22.188-29.021-1.601-10.441-4.085-20.747-6.228-31.103-.143-.692-.591-1.465-1.137-1.903-1.885-1.513-3.963-2.791-5.806-4.35-2.961-2.507-5.897-5.059-8.88-7.504-3.906-3.203-6.919-7.935-9.228-12.553-4.606-9.215-7.14-19.074-2.689-29.085 2.53-5.691 5.928-11.022 11.95-14.054 2.658-1.338 5.08-3.221 7.428-5.083 5.332-4.226 11.514-6.943 17.392-10.218 6.95-3.872 14.296-6.167 22.228-6.144 2.988.008 2.54-1.891 1.728-2.955-4.89-6.406-4.83-13.505-3.213-20.804.457-2.062 1.746-3.928 2.545-5.928 1.278-3.199 9.786-12.387 12.175-14.558 4.205-3.822 8.875-6.217 14.461-6.62 6.247-.451 12.335-2.089 18.824-.66 5.488 1.209 9.735 4.299 14.334 6.911 3.586 2.037 4.417 2.297 5.856-1.481 2.584-6.786 8.198-10.495 13.724-14.129 4.057-2.667 8.894-4.112 13.187-6.462 4.307-2.358 8.258-.256 11.278 1.673 3.502 2.237 6.104 6.12 8.562 9.66 1.317 1.894 2.87 2.908 4.541 2.098 2.82-1.368 5.893-1.972 8.408-4.426 8.216-8.017 18.51-11.566 29.812-10.575 7.13.625 13.472 4.412 19.185 8.745 1.488 1.128 2.12 3.335 3.31 4.923 1.518 2.027 2.811 3.254 5.265.435 6.943-7.976 16.335-10.163 26.419-9.732 11.366.485 20.426 6.473 26.395 16.859 1.113 1.937 2.317 2.807 4.205.516 5.69-6.903 13.476-8.554 21.924-8.437 5.496.075 10.766.301 16.129 2.518 7.177 2.968 11.413 8.82 16.049 14.201 3.281 3.809 5.909 8.37 7.471 13.389.233.75 2.259 1.113 3.512 1.348 8.271 1.556 16.684 2.565 24.771 4.776 2.849.779 5.402 2.887 8.705 3.576 2.715.566 5.014 3.135 7.492 4.824.172.117.33.276.448.448 2.125 3.076 5.072 5.326 7.676 7.922 2.456 2.45 3.812 5.987 5.746 8.985.56.869 1.359 1.64 2.193 2.264 3.587 2.685 5.309 6.532 6.777 10.56.335.92.592 1.903 1.106 2.716 2.093 3.31 2.463 6.833-.074 9.424-3.413 3.485-6.113 8.138-11.381 9.214-2.669.546-1.481 2.309-.979 2.981 1.383 1.847 3.169 3.405 4.861 5.008 10.935 10.36 17.575 23.227 21.21 37.612.904 3.579.507 7.852-.494 11.473-2.463 8.911-4.234 18.209-11.047 25.314-2.378 2.48-4.176 5.506-6.435 8.113-5.473 6.319-12.302 7.482-20.043 5.039-3.601-1.137-3.536-1.057-3.75 2.463-.094 1.547-.636 3.067-.975 4.6-.561-1.523-1.219-3.017-1.665-4.573-2.301-8.024-.763-11.912 8.829-8.089 5.034 2.007 9.251.56 14.086-2.601 6.903-4.513 10.46-10.73 13.613-17.68 6.136-13.527 7.007-27.158-.962-40.09-5.534-8.984-11.418-17.896-19.445-25.033-1.063-.945-2.259-1.741-3.335-2.673-1.302-1.127-2.543-2.325-3.809-3.493 1.702-1.379 2.593-3.515 5.393-3.836 2.849-.327 5.898-1.313 8.272-2.893 5.95-3.962 6.116-9.261 2.313-15.71-3.896-6.608-9.038-12.648-14.421-18.171-8.622-8.846-19.306-13.994-31.774-15.296-5.805-.605-11.595-1.559-17.3-2.78-1.43-.306-2.868-2.058-3.663-3.498-1.219-2.207-1.443-5.028-2.859-7.049-5.857-8.359-11.602-17.056-22.678-19.237-9.256-1.823-18.055-.12-26.254 4.37-2.633 1.442-4.92 3.538-7.293 5.427-2.617 2.083-4.201 1.819-5.746-1.196-1.612-3.144-2.621-6.794-4.878-9.355-2.304-2.616-5.554-5.083-8.84-5.994-5.041-1.398-10.458-1.786-15.732-1.909-6.015-.139-11.196 2.591-15.721 6.435-1.772 1.504-3.286 3.307-4.973 4.915-3.137 2.989-5.416 2.785-7.404-.815-4.013-7.269-9.696-12.204-17.937-14.295-7.925-2.011-15.216-.782-22.101 3.268-3.214 1.891-7.109 3.172-7.948 7.736-.131.711-1.916 1.295-3.029 1.595-.988.266-2.166-.167-3.15.108-1.488.414-3.095.934-4.201 1.916-.402.357.394 2.202.803 3.309 1.575 4.257 4.231 8.21 3.865 13.014-.298 3.916-.487 7.879-1.267 11.711-.767 3.766-7.231 4.756-9.89 4.012-.685-.192-1.687-1.255-1.601-1.756.154-.895 1.022-2.371 1.594-2.372 2.819-.004 4.158-2.157 5.349-3.879 1.169-1.69 2.096-4.206 1.774-6.133-.674-4.042-2.209-7.945-3.456-11.884-.38-1.2-.8-3.17-1.509-3.318-1.459-.305-3.212.151-4.684.712-2.375.905-4.629 2.13-6.914 3.26-.708.35-1.345 1.152-2.029 1.17-.931.023-1.875-.508-2.813-.801.374-.687.578-1.61 1.151-2.023 2.918-2.103 5.85-4.209 8.931-6.056 3.713-2.226 4.051-2.915 2.202-6.618-3.421-6.85-9.422-9.863-16.42-7.132-8.977 3.503-16.472 9.014-21.671 17.62-1.842 3.048-.636 5.016.184 7.24 1.013 2.742 2.595 5.303 4.145 7.81 1.171 1.892 1.044 3.312-.526 4.891-1.212 1.22-2.186 1.992-3.442.192-1.721-2.466-3.819-4.757-5.066-7.444-2.06-4.438-5.197-7.49-9.596-9.4-4.132-1.794-8.203-3.746-12.405-5.358-5.411-2.076-10.824-.131-16.252.305-9.589.771-14.746 6.977-19.948 14.205-3.22 4.474-4.898 8.997-4.672 13.954.28 6.175 2.761 11.948 6.644 16.875 1.073 1.363 2.782 2.354 4.384 3.141 2.631 1.293 3.585 3.248 3.198 6.044-.346 2.493-1.678 3.311-3.881 1.734-9.577-6.859-20.02-4.471-29.918-2.044-5.915 1.451-11.46 5.296-16.57 8.915-5.789 4.101-12.198 7.496-16.886 13.063-4.024 4.777-5.724 9.907-4.902 16.417.818 6.48 2.02 12.427 5.447 18.175 3.074 5.157 7.201 8.948 11.834 12.34 3.67 2.686 6.85 6.221 11.61 7.289.504.113.669 1.734.99 3.106Z"/><path d="M342.99 265.205c-1.864-3.662-3.162-6.933-4.723-10.073-1.756-3.529 1.943-3.475 3.175-4.291 2.305-1.525 1.533 1.106 2.067 2.215 4.224 8.761 10.097 15.845 19.474 19.634 6.1 2.464 10.861-.006 15.416-3.416 2.174-1.627 3.871-3.88 5.905-5.716.368-.333 1.324-.015 2.009.002-.038.536.083 1.151-.139 1.594-2.811 5.614-6.847 10.599-12.922 11.961-6.289 1.41-13.156 1.11-18.926-2.536-3.937-2.486-7.279-5.916-11.336-9.374ZM271.94 233.278c-5.847-.713-10.729-3.028-15.146-5.889-5.08-3.292-6.389-8.816-5.925-14.592.241-3 2.451-3.841 5.345-3.892 1.953-.036 1.956.802 1.78 2.119-1.01 7.56.798 9.547 7.15 14.437 5.701 4.388 11.724 4.353 18.018 4.107 2.028-.079 4.011-1.467 6.004-2.282 1.087-.445 2.127-1.015 3.235-1.393.636-.217 1.365-.163 2.052-.231-.107.687.003 1.526-.356 2.037-2.448 3.492-6.378 5.32-10.069 6.214-3.616.876-7.739-.338-12.088-.635ZM271.939 311.073c-1.199-1.199-1.833-2.144-2.716-2.667-6.377-3.77-6.08-9.845-5.885-16.053.122-3.897 2.876-2.247 4.531-2.326 2.363-.113 1.365 1.075 1.07 2.717-1.321 7.359 6.845 18.674 15.731 17.978 5.176-.406 10.169-.605 13.968-4.75.27-.294.602-.614.965-.725 1.576-.479 3.175-.885 4.765-1.317-.872 1.436-1.467 3.177-2.66 4.26-6.701 6.08-14.379 8.634-23.313 5.716-2.043-.668-4.006-1.582-6.456-2.833Z"/></g><defs><clipPath id="a"><path fill="#fff" d="M0 0h534v534H0z"/></clipPath></defs></svg>