<svg width="534" height="534" viewBox="0 0 534 534" fill="none" xmlns="http://www.w3.org/2000/svg"><path d="M247.392 398.834c-17.096 14.83-31.701 29.9-46.973 44.261-2.66 2.502-8.132 2.013-12.305 2.905-.629-3.64-2.086-7.357-1.754-10.907 2.462-26.357 2.505-52.271-.946-78.918-3.228-24.921-15.985-44.867-23.8-67.269-7.379-21.149-13.666-42.876-17.999-64.83-3.517-17.82-4.458-36.344-4.609-54.572-.12-14.435 1.586-29.118 4.459-43.29 4.386-21.639 46.353-44.565 65.127-34.966 13.226 6.763 19.574 21.265 24.903 34.531 7.273 18.107 12.427 37.067 18.382 55.696.86 2.689 1.121 5.569 1.659 8.361 2.482-2.307 5.458-4.266 7.367-6.976 15.677-22.255 32.445-42.93 58.907-53.657 32.073-13.002 44.171-6.116 64.017 22.798 13.218 19.257 11.228 40.45 6.952 59.381-9.008 39.894-32.117 73.89-58.675 104.222-25.676 29.324-54.824 55.61-84.712 83.23Zm-90.595-169.848c3.915 21.501 6.944 43.43 18.244 62.589 19.867 33.686 27.283 70.209 27.108 108.782-.03 6.641.658 13.285 1.015 19.928 5.335-4.538 10.552-9.227 16.04-13.573 5.628-4.456 12.133-7.957 17.199-12.947 28.397-27.97 58.214-54.766 84.185-84.861 27.252-31.578 51.439-65.461 60.452-108.451 4.132-19.709-.728-35.417-9.529-50.559-8.679-14.931-20.184-15.279-38.338-11.715-28.406 5.577-41.745 28.194-58.431 47.14-6.898 7.832-15.512 16.841-16.792 26.21-1.409 10.314 5.305 21.548 7.339 32.591 1.21 6.568.81 13.607.051 20.311-.709 6.256-2.739 12.38-4.416 18.499-.622 2.272-1.892 4.367-2.866 6.543-2.045-2.171-5.735-4.253-5.858-6.528-.61-11.284.057-22.634-.435-33.93-.212-4.846-.576-12.025-3.581-13.982-10.07-6.56-13.024-12.222-6.461-23.959 3.546-6.344 3.109-16.799.748-24.215-8.037-25.245-17.576-50.02-26.982-74.807-1.159-3.056-4.68-6.851-7.602-7.339-19.098-3.193-46.046 6.33-51.708 25.988-6.626 23.01-2.356 45.716-3.596 68.487-.453 8.322 2.704 16.84 4.214 29.798Z" fill="#000"/><path d="M356.106 217.662c0 4.511.281 6.799-.045 8.996-2.429 16.392-11.281 22.263-25.805 17.244-17.237-5.957-19.72-9.7-19.448-29.313.337-24.254 4.729-31.01 23.742-36.519 11.406-3.305 15.648.108 17.172 12.233 1.056 8.399-4.369 18.044 4.384 27.359Zm-27.179-24.911c-2.884 10.704-6.275 21.327-8.023 32.213-.223 1.391 7.941 4.975 12.559 5.972 2.667.575 8.603-1.9 8.651-3.168.443-11.888.13-23.826-.759-35.691-.058-.779-6.624-1.072-12.428.674Z" fill="#000"/></svg>