<svg width="534" height="534" viewBox="0 0 534 534" fill="none" xmlns="http://www.w3.org/2000/svg"><path d="M309.025 238.508c-12.027 12.041-22.225 22.499-32.712 32.658-6.136 5.943-6.89 5.475 2.553 11.135 18.686 11.204 33.428 29.26 57.775 12.888 1.345-.905 7.003 1.647 7.812 3.707.915 2.33-.654 6.443-2.396 8.884-11.884 16.654-36.642 19.929-55.649 6.99-7.775-5.293-14.569-12.029-21.809-18.109 3.998 9.274 8.46 18.378 11.905 27.853 9.363 25.746 18.442 51.599 27.153 77.573.788 2.347-1.108 7.277-3.187 8.437-2.065 1.152-7.577.08-8.739-1.787-5.575-8.949-11.563-18.044-14.832-27.938-5.655-17.111-9.249-34.896-14.144-52.276-.689-2.446-3.836-4.198-5.846-6.27-2.543 2.677-6.583 4.971-7.385 8.096-5.035 19.63-9.263 39.467-14 59.177-.622 2.591-2.615 4.851-3.973 7.265-2.414-2.416-6.866-4.823-6.879-7.251-.046-9.247.029-18.863 2.456-27.679 5.601-20.345 12.82-40.237 18.771-60.492.781-2.657-1.149-7.719-3.418-9.175-1.942-1.246-7.38-.005-9.193 2.012-10.933 12.162-20.947 25.157-31.996 37.207-3.365 3.67-9.029 5.227-13.639 7.753-2.021-6.974-7.814-16.158-5.293-20.467 5.564-9.509 15.54-16.354 23.314-24.661 14.413-15.403 13.582-21.011-3.631-33.386-5.06-3.637-10.572-7.46-13.796-12.526-1.829-2.875-.552-9.14 1.545-12.481.961-1.53 7.696-.675 11.081.792 12.549 5.436 24.288 13.545 37.295 16.897 12.873 3.317 21.954-.871 25.494-17.949 5.964-28.774 14.735-56.868 12.978-86.755-.334-5.677-.957-11.602.312-16.999.703-2.988 5.051-5.116 7.756-7.631 1.847 2.236 5.476 4.654 5.27 6.679-2.692 26.365 7.334 53.794-6.433 79.278-.952 1.762-.384 4.525-.073 6.759.745 5.342 1.76 10.647 2.666 15.967 3.218-2.756 6.423-5.528 9.656-8.267 15.824-13.409 32.495-25.227 54.412-25.038 4.942.042 9.863 2.338 14.794 3.596-4.323 3.299-8.388 7.029-13.019 9.817-13.628 8.204-27.483 16.032-42.956 25.717Zm-59.744 39.309c3.615.938 7.221 1.916 10.879 2.625.111.023.766-2.761 1.167-4.237-2.877-.602-5.755-1.205-12.046 1.612ZM169.053 330.798c1.935.342 2.162 2.393 2.39 4.444-1.366-.912-2.732-1.823-2.39-4.444Z" fill="#000"/></svg>