<svg width="534" height="534" viewBox="0 0 534 534" fill="none" xmlns="http://www.w3.org/2000/svg"><path d="M300.574 282.293c.526-1.482.302-2.934.925-3.678 5.692-6.808 11.772-13.473 20.004-16.994 5.319-2.275 11.1-5.68 17.418-1.999.273.159 2.107-1.369 1.997-1.689-3.323-9.606-5.442-19.613-9.772-28.887a310.207 310.207 0 0 1-16.025-42.07c-1.604-5.334-4.287-10.375-8.746-14.3a240.987 240.987 0 0 1-15.418-14.839c-5.307-5.584-8.9-12.3-11.553-19.537-.415-1.134-1.491-2.027-2.261-3.031-.661 1.158-1.585 2.242-1.94 3.487-1.663 5.833-5.595 10.283-9.265 14.757-8.283 10.1-19.125 16.798-31.246 21.226-7.071 2.582-14.67 3.716-21.737 6.304-13.41 4.908-26.339 10.99-37.421 20.19-6.682 5.547-13.441 11.218-19.047 17.789-7.245 8.491-13.238 17.753-17.808 28.351-4.474 10.377-6.473 21.658-12.189 31.482a2.03 2.03 0 0 0-.215 1.323c.179.842.517 1.65.789 2.473.682-.412 1.467-.717 2.031-1.253 4.845-4.617 9.212-9.89 14.595-13.746 5.146-3.687 11.196-6.256 17.105-8.697 7.131-2.946 14.613-5.036 21.795-7.871 8.917-3.519 18.15-5.277 27.574-4.116 10.344 1.273 20.283 3.943 27.95 12.06 3.164 3.35 4.126 7.382 5.522 11.363 1.756 5.007 3.241 10.111 5.054 15.096 1.419 3.905 2.378 7.78 2.187 12.01-.246 5.479.124 10.985-.097 16.467-.504 12.485-3.177 24.498-8.565 35.823-4.854 10.204-9.323 20.634-15.781 29.972-3.755 5.431-7.581 10.885-11.988 15.776-8.692 9.649-17.743 18.979-26.769 28.32-11.202 11.593-25.353 18.454-40.047 24.272-9.398 3.721-19.355 4.466-29.3 3.472-11.598-1.161-22.402-5.619-33.46-9.01-5.147-1.58-9.007-5.038-13.076-8.15-6.765-5.174-13.63-10.452-18.221-17.73-2.302-3.647-3.212-8.192-4.628-12.373-1.775-5.238-3.433-10.515-5.118-15.783-.271-.849-.529-1.726-.61-2.607-.98-10.583-1.909-21.171-2.888-31.753-.431-4.663-1.612-9.368-1.267-13.964.507-6.744 1.936-13.436 3.229-20.1 1.878-9.684 6.512-18.27 10.84-27.018 3.412-6.895 8.175-11.946 15.26-14.929 4.47-1.882 9.013-3.709 13.201-6.122 6.411-3.694 12.648-2.243 18.898-.074 4.159 1.443 8.187 3.274 12.23 5.032 4.351 1.892 5.21 1.853 6.293-2.329 2.453-9.469 6.433-18.33 9.837-27.434 2.795-7.474 6.43-14.256 11.128-20.43 5.908-7.764 11.554-15.799 19.108-22.215 8.155-6.927 16.014-14.16 25.891-18.755 7.014-3.264 13.46-8.232 20.764-10.263 8.35-2.321 16.587-5.075 24.769-7.752 21.471-7.023 34.907-21.92 40.557-44.075 1.221-4.786 2.021-9.104-.984-12.805-2.172-2.675-4.053-5.144-5.512-8.388-3.196-7.1 2.03-17.984 12.407-20.46 3.137-.748 8.419 2.389 9.317 4.871 1.509 4.175 2.266 8.638 3.156 13.017 1.035 5.097-1.208 8.751-5.788 10.678-3.284 1.382-3.448 4.163-2.655 6.357 3.981 11.015 8.163 22.081 14.669 31.819 3.474 5.199 8.706 9.397 13.686 13.368 5.349 4.263 12.581 15.332 14.594 22.119 2.886 9.731 5.947 19.503 10.071 28.749 4.622 10.363 8.424 20.899 11.387 31.823.992 3.659 3.491 6.907 2.808 11.021-.035.213.74.788.782.754.554-.447 1.379-.905 1.498-1.49 1.009-4.976 4.335-8.381 7.623-11.902 10.598-11.351 23.835-18.357 38.163-23.694 14.558-5.421 29.932-5.881 44.704-3.891 22.568 3.041 37.866 16.478 44.688 38.789 1.87 6.118 4.322 12.056 6.358 18.126.919 2.738 1.604 5.573 2.167 8.409 2.03 10.225 2.205 20.667 1.186 30.885-.734 7.357-2.577 14.869-6.684 21.51-1.832 2.962-2.741 6.487-4.138 9.727-5.083 11.789-13.175 21.554-21.29 31.264-4.503 5.389-9.346 10.499-14.151 15.627-4.243 4.53-9.339 7.884-14.871 10.719-3.572 1.83-6.595 4.801-10.238 6.414-9.268 4.105-18.744 7.741-28.149 11.534-.411.165-.947.004-1.423.023-11.494.475-22.995 1.429-34.479 1.262-7.577-.11-14.917-2.444-22.176-5.043-12.539-4.489-23.273-11.806-32.919-20.564-4.171-3.787-7.211-9.288-9.542-14.552-8.287-18.714-7.984-38.705-7.092-58.555.295-6.583 2.732-13.099 4.432-19.581 1.74-6.639 3.998-13.112 7.902-19.412Zm-66.939-21.846-1.327-.104c.442.273.885.547 1.327 1.537.477.239.955.477 1.432 1.432 1.432 3.104 2.864 6.208 4.295 10.028 0 .677-.107 1.378.035 2.025.112.509.531.951.814 1.424.194-.371.635-.829.54-1.098-.371-1.055-.911-2.05-1.389-3.784.123-3.821-.412-7.339-4.295-10.027-.477-.239-.955-.478-1.432-1.433Zm-8.591-5.729-1.327-.105c.442.273.885.547 1.327 1.537.955.239 1.909.478 2.864 1.433l1.327.104c-.443-.273-.885-.547-1.327-1.537-.955-.239-1.909-.477-2.864-1.432Zm253.435-5.73.392 1.824.935-.287c-.442-.751-.884-1.502-1.326-2.97l-.392-1.824-.935.287c.442.751.884 1.502 1.326 2.97Zm-177.547-87.381 1.326.105c-.442-.274-.884-.548-1.326-1.538l-2.351-1.946c-.171.373-.53 1.046-.485 1.073.917.574 1.881 1.074 2.836 2.306Zm163.229 68.759 1.327.104c-.442-.273-.884-.547-1.327-1.537-1.125-.716-2.241-1.45-3.401-2.106-.072-.041-.49.533-.748.82 1.383.668 2.766 1.335 4.149 2.719Zm-143.184-41.542-1.327-.105c.443.274.885.547 1.327 1.537l2.003 6.301c.168-.071.49-.172.482-.21-.405-2.105-.801-4.214-1.314-6.293-.062-.253-.765-.347-1.171-1.23Zm128.15 37.96c-3.422-.955-6.824-2.637-10.27-2.737-13.87-.401-27.967-1.203-41.113 4.269-16.079 6.694-31.8 14.144-40.817 30.502-4.075 7.392-4.146 4.53-.011 11.829 1.964 3.465 3.937 6.957 5.457 10.623.451 1.089-.252 3.102-1.087 4.182-1.453 1.879-3.582.688-5.114-.054-1.033-.5-1.444-2.181-2.278-3.218-2.601-3.234-4.782-7.066-8.01-9.485-8.519-6.384-12.943-8.602-24.328-1.337-1.91 1.219-3.571 2.837-5.508 4.003-6.077 3.657-9.145 9.624-12.251 15.583-3.854 7.393-5.236 15.587-6.997 23.558-1.603 7.256-2.696 14.851-2.419 22.237.321 8.565 2.195 17.097 3.728 25.584 2.648 14.655 9.911 26.149 22.09 35.255 8.28 6.191 17.47 9.814 26.788 13.233 5.821 2.136 11.818 4.082 18.553 3.84 14.672-.527 28.929-2.366 42.611-7.894 5.314-2.147 11.075-3.446 15.992-6.253 5.841-3.336 11.122-7.718 16.404-11.95 4.546-3.643 9.36-7.222 12.975-11.701 6.381-7.907 12.09-16.376 17.8-24.799 5.881-8.674 10.49-17.861 13.153-28.229 1.566-6.097 1.171-12.512 2.998-18.081 2.322-7.079-.349-13.275-.929-19.614-.731-8.007-3.969-15.87-6.701-23.591-5.472-15.467-13.342-29.071-30.716-35.755ZM132.69 285.516c-.675.675-1.241 1.734-2.044 1.963-4.336 1.234-4.839 4.411-4.392 8.131.49 4.083.832 8.198 1.597 12.231 1.559 8.213 4.072 16.223 1.497 24.839-.653 2.187-1.439 3.482-3.058 3.475-1.353-.006-2.853-1.357-3.979-2.434-.507-.485-.051-1.847-.396-2.655-1.48-3.459.58-6.851.054-10.285-.554-3.609-1.227-7.226-1.395-10.86-.329-7.127-1.642-8.827-8.52-10.133-.354-.068-.895-1.015-.78-1.365.547-1.672.847-3.881 2.062-4.776 2.222-1.638.384-2.83-.075-3.861-.632-1.421-1.732-2.88-3.023-3.721-8.93-5.811-18.65-8.571-28.952-4.738-10.67 3.969-20.432 9.45-24.46 21.311-.492 1.449-1.549 2.695-2.153 4.117-3.971 9.354-6.809 18.984-7.225 29.236-.081 1.989-.914 3.936-1.166 5.931-.235 1.862-.772 4.021-.11 5.602 2.656 6.346 1.86 13.177 2.415 19.647.939 10.952 2.332 21.675 6.15 31.927 3.196 8.579 6.393 17.409 13.44 23.738 7.721 6.933 16.735 11.802 26.555 15.295 9.83 3.496 19.554 7.272 30.263 6.357 3.159-.269 6.297-.859 9.425-1.413 7.246-1.282 15.156-.119 21.242-5.717 14.381-3.586 24.085-14.198 34.624-23.417 4.536-3.968 8.402-8.781 12.172-13.528 5.801-7.304 11.511-14.707 16.782-22.396 4.661-6.799 8.796-13.971 12.892-21.134 1.402-2.451 2.041-5.353 2.919-8.084 1.018-3.164 1.254-6.808 3.017-9.45 2.816-4.221 2.712-8.615 2.787-13.225.036-2.231 1.047-4.452 1.044-6.677-.009-8.452.524-17.012-.643-25.322-1.004-7.146-3.786-14.102-6.298-20.953-1.282-3.496-2.935-7.786-5.771-9.575-4.941-3.117-10.781-5.772-16.506-6.469-10.3-1.255-20.651-.329-30.694 3.281-7.11 2.556-13.674 6.299-20.615 8.965-10.134 3.893-19.297 9.099-28.682 16.142ZM305.943 166.62c1.15 1.151 2.26 2.345 3.476 3.42.312.276.958.174 1.451.246.028-.221.165-.542.068-.647-1.591-1.715-1.751-5.656-4.995-3.019Zm-25.057-39.393c-.336-.141-.663-.335-1.012-.394-.108-.019-.438.396-.395.495.436 1.006.891 2.01 1.422 2.97.301.545.753 1.007 1.137 1.506.093-.673.314-1.361.243-2.016-.069-.632-.441-1.231-1.395-2.561ZM324.557 201c-.239.613-.836 1.384-.649 1.811.582 1.328 1.462 2.525 2.226 3.773 1.208-1.887.885-3.504-1.577-5.584Zm-6.443-16.474c.163.163.303.366.497.475.118.067.46-.006.46-.021.022-1.257.02-2.515.02-3.773l-2.374.42c.465.489.931.978 1.397 2.899Zm13.602 35.096c1.934-1.938-.124-2.8-1.105-3.911-.1-.112-.639.165-.974.261.454.978.909 1.956 2.079 3.65Zm124.57 4.297-1.927.496c.947.79 1.864 1.624 2.874 2.324.16.111.739-.382 1.125-.595a80.196 80.196 0 0 0-2.072-2.225Zm-337.914 61.597 1.927-.496c-.947-.79-1.864-1.624-2.874-2.324-.16-.111-.739.382-1.125.595.452.503.904 1.006 2.072 2.225Zm125.286.716.991 3.306c.578-.67 1.713-1.455 1.604-1.984-.16-.775-1.209-1.368-2.595-1.322Zm30.069-177.627 2.832.032c-.944-.488-1.888-.976-2.832-.032Zm55.841 101.706a2199.79 2199.79 0 0 0-2.335-1.961c-.176.367-.58.982-.492 1.063.649.598 1.395 1.089 2.827.898Zm-41.523-63.029c.758.197 1.514.402 2.282.55.023.005.16-.578.244-.888-.603-.126-1.207-.252-2.526.338Zm-12.887-31.514 1.432-.717c-.477-.238-.954-.477-1.432.717Zm207.617 144.679.378 1.812c.309-.085.893-.222.888-.245-.149-.768-.353-1.524-1.266-1.567Zm-9.307-20.77.573-.86c-.43.048-.859.096-.573.86Zm-186.855-98.125-.859-.573c.048.43.095.86.859.573Z" fill="#000"/><path d="M445.225 273.898c-2.375 0-4.068-.207-5.688.045-3.028.473-5.302-2.124-5.412-3.557-.382-5.01.187-10.115.686-15.155.128-1.291.654-3.563 2.924-2.564 1.262.555 2.705 1.785 3.075 3.008.524 1.732-.168 3.802.216 5.61.398 1.873-1.935 4.93 1.939 5.487 5.266.756 8.058-.685 9.396-4.622 2.658-7.819 1.618-9.731-6.12-10.956-1.388-.22-3.128.456-4.188-.162-1.159-.677-2.394-2.403-2.342-3.619.049-1.154 1.607-3.068 2.697-3.217 5.746-.779 11.208.878 16.496 2.934.884.344 1.888 1.712 1.93 2.647.201 4.478.231 8.976.026 13.454-.089 1.947-.672 3.951-1.435 5.76-.551 1.307-1.59 3.073-2.726 3.349-3.506.851-7.162 1.085-11.474 1.558ZM186.476 292.156c2.86-4.629 6.979-2.825 10.466-2.738 2.704.068 5.346 1.839 8.056 2.723 6.126 1.998 7.221 4.384 4.824 10.393a749.582 749.582 0 0 0-6.25 16.262c-1.114 2.996-2.864 3.684-6.129 2.912-4.468-1.057-8.715-3.297-13.685-.557-2.875 1.585-5.467-2.489-4.582-6.253 1.2-5.106 2.068-10.295 3.009-15.462.235-1.289-.512-3.371 1.841-2.815 1.393.33 3.574 1.418 3.675 2.36.237 2.191-.54 4.507-.965 6.761-.449 2.384-.844 4.781 1.485 6.407 1.804 1.26 8.225.557 9.01-1.231 1.431-3.262 3.195-6.755 3.218-10.163.019-2.874-3.579-3.905-6.229-4.128-3.155-.264-5.579-1.588-7.744-4.471Z" fill="#000"/></svg>