<svg width="534" height="534" viewBox="0 0 534 534" fill="none" xmlns="http://www.w3.org/2000/svg"><path d="M80.293 264.649c-5.778-5.768-10.735-11.388-14.98-17.837-5.168-7.853-6.63-16.174-5.402-24.995.236-1.698.16-2.281-.695-3.382-5.21-6.717-11.015-13.084-15.393-20.312-6.669-11.01-8.826-22.799-3.21-35.307 6.68-14.88 18.516-22.506 33.804-26.579 13.35-3.557 25.788-.723 37.973 3.886 4.161 1.574 7.48.924 10.63-.767 4.965-2.666 9.169-6.927 14.299-9.063 6.911-2.878 14.351-4.553 21.656-6.374 2.461-.614 6.031.945 7.636-.327 2.832-2.244 4.317 1.317 6.791.41 2.305-.845 5.223-.541 7.766-.113 7.777 1.309 15.459 3.267 23.266 4.298 5.666.748 11.161 1.227 16.69 3.32 16.273 6.158 33.041 10.968 48.866 18.37 9.845 4.605 19.896 8.766 29.822 13.199 1.77.791 3.589 1.705 5.017 2.976 2.141 1.906 4.002 3.264 7.269 3.569 3.1.29 5.976 3.02 8.94 4.694 11.865 6.702 23.839 13.22 35.525 20.22 4.076 2.441 7.193 6.44 11.17 9.097 11.633 7.771 23.154 15.809 35.36 22.588 7.548 4.192 14.539 9.076 21.724 13.736 1.675 1.087 3.322 2.292 4.737 3.691 8.735 8.641 17.719 17.061 25.996 26.125 8.001 8.761 15.585 17.958 22.727 27.435 6.334 8.407 9.773 18.39 12.582 28.458.515 1.846-.476 4.465-1.505 6.32-2.476 4.462-2.818 10.872-9.831 11.613-.393.041-1.065 1.714-.834 2.344.327.891 1.335 1.562 2.12 2.25 5.946 5.213 10.127 11.416 12.89 18.985 4.064 11.131 2.59 21.922-1.615 32.163-2.731 6.65-10.381 8.426-16.835 9.914-13.709 3.161-27.315 2.32-40.837-2.16-10.388-3.441-21.124-5.83-31.712-8.662-.488-.131-1.259.21-1.531-.051-4.73-4.542-10.414-3.281-15.266-1.356-8.866 3.518-18.037 3.833-26.98 2.752-17.977-2.173-35.894-4.983-52.299-13.738-6.349-3.389-13.58-5.079-20.16-8.089-12.541-5.737-25.036-11.56-37.255-18.01-30.224-15.955-60.658-31.512-91.025-47.196-6.238-3.222-12.694-6.046-18.805-9.487-14.01-7.889-28.07-15.725-41.699-24.239-6.168-3.853-11.36-9.27-17.387-14.369Zm73.356-53.742 2.51.628.23-1.026c-.913-.129-1.827-.258-2.74-1.171-.741-.741-1.479-2.116-2.222-2.119-5.186-.021-8.267-3.442-11.331-6.781-3.958-4.314-7.729-8.802-11.549-13.241-5.969-6.937-12.814-12.051-22.613-11.627-5.26.228-10.564-.424-15.417 2.612-1.459.913-3.297 1.839-4.613-1.477-.899-2.263-.465-2.925.873-4.047 1.35-1.132 2.573-2.608 4.133-3.269 9.083-3.849 20.066-3.129 29.961.778 10.881 4.296 16.981 13.388 23.248 22.222 3.445 4.856 7.335 8.665 12.544 11.536 6.837 3.768 14.527 4.079 21.772 6.137 6.582 1.869 13.903 2.045 19.86 5.035 16.273 8.167 32.213 17.134 44.264 31.383 6.872 8.124 15.936 10.658 26.149 10.802 3.187.044 6.413.343 9.668.951 5.347.998 10.639 2.02 15.847 3.617.576.177 1.376-.375 2.071-.588-.459-.555-.81-1.312-1.397-1.626-1.702-.909-3.475-1.699-5.263-2.428-3.579-1.459-7.273-2.662-10.765-4.299-7.886-3.695-15.655-7.642-23.523-11.377-2.831-1.345-5.983-2.072-8.692-3.604-12.51-7.076-24.618-14.928-37.434-21.381-16.317-8.214-31.875-17.433-45.986-29.033-3.93-3.231-7.847-6.498-11.53-10-5.27-5.011-10.261-10.315-15.499-15.361-1.589-1.531-3.481-2.849-5.44-3.87-3.855-2.01-8.271-3.174-11.721-5.693-12.987-9.481-27.724-10.668-42.964-9.878-1.115.057-2.158 1.051-3.28 1.497-6.004 2.385-11.362 5.511-16.378 9.856-9.22 7.984-10.229 18.451-8.905 28.83 1.445 11.318 8.752 20.145 16.734 28.174 2.365 2.379 3.9 2.815 6.093.03 4.294-5.457 9.846-9.587 15.929-12.646 5.617-2.825 11.3-6.494 18.048-5.494 3.308.49 6.44 2.086 9.698 3.023 7.696 2.214 15.052 5.205 22.43 8.34 5.478 2.327 10.523 6.786 17.2 6.585ZM381.954 389c1.449-1.448 2.819-2.99 4.381-4.304.72-.606 1.979-1.283 2.714-1.049 7.888 2.514 13.565-1.961 18.664-6.516 5.754-5.139 6.413-10.033 2.81-15.887-2.233-3.629-5.155-6.965-8.275-9.893-9.077-8.517-21.199-12.091-31.4-18.823-.182-.121-.558.075-.768-.029-9.773-4.818-19.915-9.031-29.193-14.668-8.768-5.327-17.437-10.787-26.641-15.316-8.468-4.166-17.198-7.716-25.568-12.184-11.835-6.318-23.74-12.398-34.883-19.946-7.062-4.783-14.426-9.221-22.019-13.1-12.924-6.602-26.114-12.686-39.238-18.891-3.708-1.753-7.599-3.116-11.369-4.745-9.316-4.024-18.835-7.658-27.866-12.249-16.294-8.282-33.478-14.024-50.958-19.002-1.655-.471-3.987.371-5.667 1.249-6.033 3.156-12.085 6.339-17.77 10.062-1.814 1.188-2.763 3.987-3.628 6.234-.61 1.585-.01 2.714 2.31 2.821 5.288.242 10.556.94 15.827 1.501.706.075 1.382.434 2.073.662-.672.739-1.225 1.897-2.04 2.126-1.445.407-3.047.31-4.584.319-5.23.028-10.462-.07-15.687.087-.913.027-2.541 1.011-2.575 1.621-.258 4.785-.468 9.469 3.23 13.545 5.435 5.99 10.211 12.579 15.675 18.54 3.426 3.738 7.413 7.036 11.469 10.109 16.234 12.299 35.055 20.074 52.699 29.914 7.65 4.266 15.762 7.407 23.652 11.082 7.265 3.385 13.797 8.309 20.89 12.112 4.016 2.153 9.265 2.5 12.633 5.271 6.967 5.733 14.782 9.476 22.829 13.239 14.268 6.673 27.614 15.111 41.971 21.765 15.386 7.131 30.793 14.051 46.799 19.617 9.828 3.417 20.101 5.268 30.36 6.074 9.124.717 18.496 1.286 29.143-1.348ZM159.925 134.021c-8.55 2.701-16.953 5.672-24.868 10.057-2.728 1.511-2.13 2.177-.599 3.705 2.743 2.737 5.457 5.504 8.225 8.215 13.156 12.882 25.352 26.858 41.305 36.567 3.314 2.016 7.083 3.356 10.188 5.629 12.666 9.274 27.242 15.142 40.682 23.043 10.178 5.984 21.328 10.297 31.915 15.614 5.647 2.835 10.842 6.598 16.558 9.262 6.552 3.054 13.83 4.673 20.134 8.12 15.324 8.378 31.544 14.729 47.333 22.048a425.252 425.252 0 0 0 32.111 13.341c11.1 4.083 22.152 8.37 32.949 13.184 8.176 3.646 16.411 7.559 23.712 12.653 6.685 4.664 15.167 6.453 20.471 13.359 2.088 2.718 5.307 4.608 8.147 6.688 1.136.832 2.705 1.747 3.97 1.613 5.893-.626 10.94-7.025 9.327-12.477-2.746-9.29-5.573-18.88-11.71-26.441-10.762-13.255-22.278-25.909-33.746-38.572-3.565-3.936-7.912-7.189-12.058-10.562-2.679-2.179-5.575-4.114-8.49-5.976-20.661-13.196-41.37-26.317-62.022-39.526-5.393-3.45-10.208-8.33-16.052-10.433-9.753-3.509-17.98-9.579-27.163-13.953-12.227-5.824-24.254-12.089-36.622-17.592-7.93-3.528-16.565-5.484-24.453-9.088-19.225-8.783-39.323-14.483-60.122-17.55-9.327-1.375-18.884-1.19-29.122-.928Zm215.752 162.402c-.524-.001-1.161.195-1.555-.032-11.155-6.418-23.077-11.131-34.811-16.322-7.91-3.5-16.825-5.411-23.397-11.814-1.089-1.061-3.129-1.234-4.779-1.586-.612-.131-1.365.404-2.054.635.603.292 1.265.503 1.8.889 2.622 1.897 5.596 3.488 7.744 5.83 7.938 8.653 15.517 17.635 23.398 26.342 4.398 4.859 9.82 7.401 16.677 7.125 8.615-.347 17.254-.094 25.883-.074 1.803.004 3.815-.38 5.376.268 8.478 3.522 17.011 6.984 25.174 11.156 3.737 1.911 7.423 4.871 9.809 8.282 5.196 7.429 10.265 14.822 16.69 21.342 4.945 5.017 9.397 9.885 17.327 9.321 1.714-.122 3.578 1.869 5.373 2.887-1.396.64-2.797 1.268-4.186 1.923-.876.413-1.856.718-2.579 1.323-4.668 3.904-9.911 1.496-13.185-.866-5.558-4.008-9.938-9.726-14.534-14.97-6.558-7.482-11.266-16.766-20.039-22.058-5.98-3.608-12.406-6.688-18.981-9.022-4.404-1.563-9.72 1.331-14.19-1.75-4.768 2.869-10.026 1.048-15.034 1.613-.834.094-1.603.757-2.402 1.157.553.646.978 1.542 1.678 1.899a1910.096 1910.096 0 0 0 23.377 11.736c3.902 1.926 8.072 3.389 11.762 5.648 4.23 2.59 8.25 5.609 12.018 8.842 4.61 3.956 8.79 8.421 11.1 14.192 1.168 2.919 3.555 6.861 2.524 8.871-3.341 6.518-5.099 14.278-11.887 18.633-1.231.79-2.539 1.458-3.774 2.242-.43.273-.749.724-1.119 1.094.535.32 1.032.773 1.611.939a1469.376 1469.376 0 0 0 16.873 4.721c5.878 1.601 11.912 2.757 17.62 4.823 5.747 2.08 11.484 3.474 17.563 2.993 4.243-.335 8.455-1.047 12.689-1.525 9.737-1.098 16.357-7.719 16.612-16.806.117-4.18.129-8.371-.042-12.548-.057-1.4-.745-2.805-1.287-4.15-3.33-8.248-9.839-14.269-15.042-21.198-.757-1.008-2.621-1.137-3.899-1.813-1.644-.869-4.292-1.594-4.631-2.878-1.522-5.755-6.091-8.16-10.348-11.364-11.421-8.596-24.98-13.115-37.164-20.218-2.278-1.329-4.847-2.169-7.307-3.173-10.289-4.199-20.588-8.375-32.452-12.559Zm-96.5-29.028c-5.664-.785-11.323-1.622-17.003-2.268-.539-.061-1.214 1.08-1.826 1.663.471.463.899 1.273 1.42 1.338 8.274 1.029 14.751 5.97 21.718 9.847 8.252 4.592 16.261 9.751 24.884 13.491 4.281 1.857 8.561 3.174 12.305 6.231 2.541 2.076 5.948 3.126 9.041 4.468.732.317 1.756-.039 2.646-.085-.278-.839-.312-2.159-.871-2.443-4.435-2.246-7.704-5.708-10.787-9.49-3.365-4.128-6.236-9.363-10.612-11.816-9.266-5.196-18.627-11.177-30.915-10.936Zm-53.349-21.968 4.707-.11c-.914-.877-1.741-1.876-2.758-2.609-3.394-2.449-6.745-4.986-10.317-7.153-6.428-3.899-12.639-8.573-19.604-11.078-11.145-4.008-22.827-6.527-34.303-9.596-.571-.152-1.342.446-2.02.695.379.797.566 2.078 1.168 2.317 5.591 2.219 11.26 4.244 16.896 6.355 8.338 3.124 16.829 5.91 24.952 9.521 7.05 3.133 13.679 7.212 21.279 11.658Zm116.114 61.195c-.697-.696-1.284-1.666-2.125-2.004-.68-.273-1.665.216-2.515.368.546.807.952 1.799 1.688 2.354.471.356 1.428.067 2.952-.718ZM214.844 135.59l-.941-.628c.052.471.104.942.941.628Z" fill="#000"/></svg>