<svg width="534" height="534" viewBox="0 0 534 534" fill="none" xmlns="http://www.w3.org/2000/svg"><path d="M300.483 375.735c-29.244 10.784-54.984 22.238-81.41 31.781-5.235 1.89-14.099-2.108-19.571-5.891-16.1-11.129-21.819-29.6-29.219-46.537-1.294-2.96 1.623-7.77 2.595-11.727 3.711 1.309 8.849 1.509 10.875 4.129 6.873 8.888 14.401 17.938 18.442 28.208 6.667 16.939 19.043 15.067 31.265 11.236 15.288-4.791 29.543-15.238 44.909-16.843 18.667-1.951 17.166-6.477 12.123-21.573-9.563-28.623-34.701-28.92-55.457-30.548-23.337-1.831-47.469 4.383-71.034 8.402-15.001 2.558-30.267-9.036-26.39-23.459 9.343-34.759 13.218-69.948 12.854-105.835-.356-35.114 14.474-50.373 48.282-57.432 24.234-5.061 49.154-3.583 73.3-11.554 11.112-3.668 26.265 2.74 38.815 6.911 4.278 1.422 9.225 10.309 8.688 15.214-2.645 24.145 8.189 49.362-5.75 72.714-1.917 3.21.133 8.605-.33 12.915-3.132 29.181-8.008 58.292-8.97 87.535-.413 12.563 6.718 25.562 11.323 38.027 2.378 6.437 6.731 12.139 10.191 18.174-7.422-1.283-14.845-2.564-25.531-3.847Zm0-193.058c0-3.258-.754-6.737.12-9.74 6.365-21.87 4.27-25.723-15.971-26.128-7.302-.146-14.719.65-21.935 1.884-20.169 3.45-40.126 8.947-60.418 10.686-26.955 2.309-44.935 23.914-38.648 49.684 2.168 8.884 6.357 17.909 5.897 26.674-1.034 19.704-4.222 39.312-6.893 58.909-1.273 9.342-1.7 7.284 6.476 7.061 26.894-.735 54.34-3.054 80.618 1.191 30.609 4.944 38.119-.395 45.039-31.489 6.136-27.575 4.966-54.738 5.715-88.732ZM365.745 303.747c4.565-20.938 6.376-40.066 14.657-55.761 5.584-10.585 2.541-13.515-2.638-21.101-15.471-22.664-29.524-46.31-43.748-69.806-1.224-2.021.387-5.767.681-8.711 3.703.408 9.426-.575 10.801 1.434 17.305 25.289 34.136 50.912 50.58 76.773 1.633 2.57.834 7.601-.368 10.935-10.203 28.311-14.591 57.462-17.773 87.427-2.514 23.676-8.671 48.19-25.608 67.288-2.951 3.327-7.539 5.195-11.371 7.737-.122-5.121-1.646-10.706-.134-15.283 7.882-23.854 16.583-47.435 24.832-71.17.673-1.938.089-4.316.089-9.762Z" fill="#000"/></svg>