<svg width="534" height="534" viewBox="0 0 534 534" fill="none" xmlns="http://www.w3.org/2000/svg"><path d="M299.366 415.196c-12.446 6.574-24.027 14.014-37.562 12.638-19.281-1.961-37.633-7.812-52.029-21.82-12.56-12.223-25.752-23.972-34.929-39.228-2.394-3.979-4.886-8.034-6.407-12.379-5.265-15.033-9.546-30.433-15.317-45.258-4.557-11.704-10.263-23.04-16.344-34.048-8.695-15.741-11.352-32.676-8.917-49.885 2.007-14.188 7.795-27.636 16.906-39.093 3.998-5.027 8.741-9.476 13.284-14.049 5.497-5.531 13.1-6.939 20.103-8.242 4.491-.837 7.469-2.808 9.359-5.852 4.677-7.532 11.468-12.226 18.812-16.583 2.397-1.423 4.465-3.511 1.173-6.749-1.48-1.457-2.302-4.288-2.221-6.45.092-2.476.782-6.011 2.496-7.154 6.891-4.594 15.619-5.758 22.111-11.342.412-.354 1.533-.307 2.086-.007 7.899 4.293 18.13 2.723 24.853 10.016 3.111 3.374 6.607 6.396 9.677 9.804 4.061 4.509 7.457 5.632 12.412 1.415 6.838-5.82 14.816-8.977 22.653-12.832 12.389-6.093 25.619-11.502 38.771-12.01 13.612-.526 28.62 1.03 39.727 12.208 3.636 3.66 8.162 6.422 11.902 9.993 5.066 4.835 6.924 11.038 8.696 17.913 3.532 13.698 2.035 27.789 4.488 41.21 3.224 17.629-3.391 32.172-8.534 47.664-3.568 10.748-5.775 21.945-9.268 32.722-6.032 18.613-11.888 37.271-18.451 55.739-9.755 27.451-23.649 51.696-44.519 71.8-7.447 7.174-15.928 13.27-25.011 19.859ZM193.043 169.903c-7.247 1.522-14.987 1.913-21.631 4.819-11.142 4.874-19.022 13.282-25.225 24.405-10.666 19.126-13.581 38.634-6.582 58.977 6.024 17.509 15.23 33.807 21.129 51.46 3.153 9.434 7.764 18.234 10.093 28.135 2.246 9.546 6.009 19.286 11.434 27.373 5.474 8.16 12.503 15.456 18.778 23.196 13.677 16.868 30.329 29.988 53.472 31.231 15.04 7.356 26.918-2.763 38.685-8.523 9.672-4.733 17.408-13.557 25.759-20.849 13.653-11.922 22.735-27.589 31.49-42.911 7.133-12.483 10.424-27.157 15.536-40.815 1.972-5.27 5.511-10.262 6.186-15.651 2.146-17.157 10.111-32.554 13.784-49.236 2.572-11.677 8.704-22.866 9.58-34.548 1.231-16.408-.168-33.162-2.074-49.578-.667-5.745-1.892-12.683-6.903-17.463-4.879-4.654-9.296-9.821-14.376-14.231-9.951-8.64-22.335-10.761-34.622-9.248-10.45 1.287-20.854 4.699-30.699 8.629-8.586 3.428-16.422 8.792-24.437 13.557-1.217.724-2.448 2.974-2.236 4.285.787 4.876-2.449 8.445-5.516 9.329-5.624 1.623-3.115 4.257-2.09 6.913 1.906 4.942 4.25 9.724 5.992 14.719 4.318 12.382 2.256 15.365-10.226 15.39-1.432.003-2.865.047-4.295-.008-4.299-.167-6.736.771-7.908 6.016-1.868 8.357-5.337 16.375-8.38 24.441-1.454 3.855-4.516 5.474-8.239 3.094-5.142-3.287-10.065-6.935-14.948-10.607-5.936-4.462-6.827-4.524-11.901.445-2.815 2.757-5.322 5.912-8.45 8.236-1.947 1.447-5.003 2.604-7.164 2.117-1.361-.306-2.719-3.855-2.82-6.009-.515-11.068 3.254-21.369 7.014-31.458 4.153-11.144 4.536-11.172-8.21-15.632Zm22.553-24.744c-4.722 3.296-9.57 6.432-14.095 9.98-1.458 1.143-2.069 3.371-3.068 5.103 1.645.351 3.285.725 4.935 1.051 9.287 1.835 9.52 4.01 8.465 13.804-1.082 10.034-5.85 18.464-8.596 27.719-.317 1.07.331 2.428.532 3.652.969-.244 2.16-.215 2.863-.788 1.657-1.35 4.211-2.868 4.388-4.532.522-4.927 3.689-3.743 5.973-2.77 3.657 1.558 7.04 3.817 10.406 5.988 4.26 2.748 9.119 8.725 12.414 7.923 6.28-1.527 5.314-9.999 7.984-15.278.144-.285-.018-.712.024-1.065 1.409-11.953 4.658-15.056 15.989-15.285 8.119-.163 8.203-.192 5.436-8.211-.86-2.491-1.839-5.22-3.582-7.063-3.227-3.414-3.78-10.702-11.367-8.568-.364.102-2.186-2.425-2.055-3.582.531-4.672 3.82-7.312 7.854-9.151 1.626-.742 3.268-1.451 4.903-2.175-1.733-1.37-3.33-2.999-5.251-4.014-1.125-.595-2.802-.028-4.166-.302-4.838-.973-4.793-1.01-2.357-6.533.264-.599.097-1.981-.296-2.189-8.666-4.579-17.342-10.273-27.602-8.273-9.889 1.927-12.388 7.133-7.216 15.82 2.551 4.284.713 5.44-2.515 8.739Z" fill="#000"/><path d="M179.618 259.736c1.37-10.094 7.464-13.456 13.325-7.993 1.467 1.367 3.192 4.754 2.562 5.672-2.366 3.45-5.501 6.464-8.805 9.055-.404.316-3.607-2.885-5.453-4.524-.48-.426-.734-1.108-1.629-2.21ZM352.528 227.461c-3.708.538-6.89.691-10.046.472-1.509-.105-4.243-.948-4.231-1.397.051-1.894.365-4.756 1.606-5.464 4.217-2.406 8.733-4.667 13.416-5.698 2.043-.449 5.399 1.93 3.474 5.661-1.058 2.05-2.444 3.931-4.219 6.426ZM355.212 161.296c8.133 1.384 9.606 2.995 8.592 8.219-.818 4.215-5.026 6.107-8.474 3.665-1.427-1.011-2.57-2.441-3.785-3.735-3.952-4.208-3.941-4.218 3.667-8.149ZM284.33 326.977c1.25-3.045 2.229-5.274 3.809-6.926 2.715-2.839 7.062-2.093 8.723 1.19 1.505 2.976-1.34 7.464-5.062 10.278-5.303 4.01-6.446.829-7.47-4.542ZM232.78 283.943c1.336-2.152 2.53-3.845 4.033-4.19 4.784-1.095 9.349 1.256 8.597 4.594-.675 2.992-3.27 5.776-5.625 8.007-.614.581-3.942-.8-5.205-2.085-1.169-1.189-1.244-3.457-1.8-6.326ZM314.401 165.6c-1.636 2.869-3.02 5.071-5.005 6.3-1.18.73-4.745.1-4.784-.219-.401-3.273-1.067-6.887-.01-9.807.527-1.453 4.501-2.28 6.853-2.16 1.061.054 1.969 3.114 2.946 5.886ZM179.081 215.089c0 2.151-.118 3.241.022 4.297.438 3.312-1.602 6.712-3.943 6.076-2.688-.731-5.148-4.125-6.498-6.943-.448-.936 2.514-4.294 4.538-5.369 1.412-.749 3.883.504 5.881 1.939ZM254.796 242.522c-1.253-1.307-2.494-2.014-2.595-2.858-.458-3.827.543-7.075 5.093-7.269 1.829-.078 5.197.663 5.305 1.405.534 3.682 1.148 7.959-4.079 9.226-1.006.243-2.122.034-3.724-.504ZM306.347 221.006c3.119 6.651-3.754 7.245-5.465 10.853-1.214-1.653-3.332-3.256-3.426-4.971-.135-2.469 1.029-5.088 1.997-7.499.37-.922 1.645-1.857 2.656-2.065 2.297-.475 4.258-.009 4.238 3.682ZM291.31 274.798c-3.893-5.389.066-6.514 3.147-8.732 3.724-2.681 3.949.918 4.824 2.354 3.793 6.233 3.449 6.676-4.269 6.912-1.054.032-2.11.004-3.702-.534ZM230.095 330.742c1.958-5.975 4.727-4.708 7.712-1.941 2.946 2.731-1.122 2.969-1.711 4.437-.362.9-1.32 1.673-2.185 2.23-1.362.877-2.871 1.523-4.318 2.267-.012-2.152-.024-4.303.502-6.993ZM338.029 277.488c-2.147 1.05-4.295 1.024-6.443.998.246-2.372.275-4.806.916-7.066.131-.463 3.369-.841 3.757-.277 1.011 1.465 1.233 3.476 1.77 6.345ZM303.125 382.383c-2.774 2.545-4.888 6.87-7.787 1.566-.499-.913 1.306-4.203 2.71-4.783 2.049-.847 5.825-2.462 5.077 3.217ZM195.728 305.997c-.895-1.817-1.469-3.079-1.57-4.379-.285-3.656 2.679-2.872 4.337-2.421.96.261 2.279 2.926 1.88 3.677-.809 1.52-2.678 2.474-4.647 3.123ZM209.689 369.473c-3.352-2.169-2.365-4.015-.282-4.919 1.65-.716 3.783-.315 5.702-.41-.169 1.211.086 2.844-.603 3.537-1.097 1.105-2.821 1.585-4.817 1.792ZM253.722 390.989c-1.249.538-1.97.609-2.673.524-1.685-.202-3.362-.477-5.043-.722.78-1.725 1.151-4.263 2.465-4.925 1.115-.563 3.437.842 4.98 1.782.611.371.559 1.836.271 3.341Z" fill="#000"/></svg>