<svg width="534" height="534" viewBox="0 0 534 534" fill="none" xmlns="http://www.w3.org/2000/svg"><path d="M159.31 340.724c-1.938-17.813-3.219-34.432-3.308-51.058-.168-31.483 9.416-60.399 25.205-87.372 3.408-5.821 6.981-11.969 11.891-16.417 15.071-13.653 25.119-32.931 52.101-30.919 17.463 1.303 35.766-8.337 53.667-13.169 13.175-3.556 22.256 5.698 30.612 12.105 10.152 7.784 16.478 20.323 25.913 29.285 16.019 15.214 23.209 33.491 22.57 55.011-.594 20.024 1.512 39.929-4.269 60.021-8.382 29.135-23.664 52.247-50.223 66.798-17.382 9.521-35.232 19.222-54.083 24.73-15.002 4.382-31.828 2.835-47.862 3.258-4.237.112-8.517-3.174-12.815-3.271-17.423-.393-27.989-10.679-36.152-24.249-4.537-7.543-8.068-15.688-13.247-24.753Zm49.006 29.778c1.591 0 3.446-.543 4.734.081 23.663 11.447 47.218 14.007 70.893-.042 7.62-4.522 15.44-8.727 23.303-12.823 27.085-14.107 47.954-33.939 54.795-64.514 4.721-21.1 9.232-41.46 2.716-64.68-8.513-30.335-31.132-47.284-51.354-66.566-7.692-7.334-20.638-10.093-33.748-1.572-18.433 11.981-40.254 18.9-58.275 31.36-12.624 8.73-27.627 14.691-35.3 31.712-12.067 26.77-19.512 53.483-18.511 82.801.962 28.148 10.039 50.798 40.747 64.243Zm16.734-188.198-1.297-6.058-7.172 7.146c2.026.432 4.053.863 8.469-1.088Z" fill="#000"/><path d="M242.98 240.669c10.847-11.812 21.589-19.422 37.246-18.094 8.465.718 12.617 2.999 17.09 11.406 12.24 23.001 7.02 45.207-4.064 64.512-5.621 9.792-21.822 14.578-34.153 19.214-11.273 4.238-18.92-3.694-24.482-12.969-14.089-23.491-12.598-36.508 8.363-64.069Zm20.32 60.747 7.649 1.906.701-3.113c-2.783-.392-5.567-.783-8.35-3.557-1.118-1.115-3.253-3.168-3.212-3.212 10.456-11.238 14.375-25.301 17.647-39.691.528-2.32 1.797-4.472 2.724-6.701-7.981-1.729-16.089-5.017-23.878-4.385-2.924.237-5.298 9.495-7.541 14.8-1.078 2.549-1.271 5.468-1.864 8.219 2.644-1.249 5.575-2.129 7.836-3.872 1.632-1.258 2.111-3.901 3.573-5.501 1.718-1.88 3.943-3.3 5.948-4.92 1.183 3.227 4.206 7.267 3.201 9.529-2.969 6.683-7.678 12.577-11.433 18.941-5.545 9.4-3.177 15.646 6.999 21.557Zm16.734-21.44-1.913 2.859c1.435-.159 2.869-.318 1.913-2.859Z" fill="#000"/></svg>