<svg width="534" height="534" viewBox="0 0 534 534" fill="none" xmlns="http://www.w3.org/2000/svg"><path d="M380.624 202.8c5.402-7.431 10.671-14.211 13.378-22.507.434-1.331 1.927-2.931 1.55-3.814-2.726-6.371 1.819-10.518 4.573-14.947 2.913-4.685 6.357-9.196 10.309-13.013 2.146-2.073 5.914-3.706 8.807-3.502 6.242.442 12.388 2.217 18.58 3.412 8.357 1.612 9.053 3.335 3.974 9.596-3.253 4.009-3.877 9.095-3.982 13.815-.321 14.347-4.362 27.935-7.422 41.742-.811 3.661-1.452 7.387-1.796 11.119-.326 3.523-.599 6.393-4.663 8.166-2.289 1-3.598 3.956-4.81 6.956-6.581 16.29-9.484 33.742-16.193 49.924-5.906 14.246-12.033 28.426-22.959 39.818-16.838 17.557-37.332 29.695-59.393 39.139-13.684 5.858-27.254 12.325-41.968 15.426-7.044 1.484-14.155 3.188-21.298 3.542-11.833.585-23.736-.272-35.573.279-11.915.556-22.698-3.794-33.964-6.199-10.578-2.259-20.58-6.314-31.082-8.884-12.51-3.062-22.903-10.826-31.163-21.053-3.505-4.338-8.412-7.947-10.607-12.824-2.174-4.831-1.489-10.888-2.517-16.319-.904-4.77-4.102-8.24-7.642-11.45-5.867-5.32-8.947-11.236-4.904-19.403 1.804-3.644-1.118-8.146-5.096-10.014-1.283-.602-2.87-1.316-3.492-2.438-3.082-5.563-.18-19.322 4.65-23.64 2.03-1.816 3.432-2.667 4.195.992.129.618 1.881 1.44 2.718 1.283 12.523-2.349 22.895 5.15 34.381 7.493 9.437 1.925 18.638 4.988 28.035 7.143 9.216 2.114 18.486 4.196 27.847 5.411 9.402 1.22 18.941 1.421 28.426 1.948 21.832 1.211 42.555-3.747 63.266-10.228 23.809-7.451 45.09-18.983 63.928-35.138 5.258-4.509 9.872-9.769 14.782-14.685l17.125-17.146Zm-131.87 104.622c3.399-.609 6.789-1.28 10.2-1.815 8.006-1.257 15.986-2.9 24.044-3.568 14.495-1.202 27.727-6.212 40.267-13 11.239-6.083 22.659-11.707 33.176-19.37 9.682-7.056 17.234-15.807 25.191-24.281 5.931-6.316 10.631-13.792 15.874-20.755 8.434-11.197 12.427-25.073 21.708-35.853 1.745-2.027 5.542-4.273 3.844-8.367-2.544 1.329-5.007 2.863-7.658 3.921-1.967.785-4.504 2.504-5.24-1.785-.3-1.747-1.971-3.258-3.019-4.876-1.429 1.566-2.92 3.08-4.262 4.718-.709.866-1.218 1.916-1.712 2.935-6.001 12.363-13.362 23.774-23.493 33.187-5.896 5.479-11.864 10.889-17.964 16.141-7.138 6.146-14.028 12.717-21.79 17.972-12.411 8.401-25.245 16.344-39.48 21.366-8.787 3.101-17.851 5.474-26.889 7.784-8.295 2.12-16.688 5.009-25.1 5.231-11.63.308-23.297 1.776-34.99.399-4.501-.529-9.495 1.053-13.6-.32-8.847-2.959-18.127-2.849-27.036-5.149-11.874-3.064-23.979-5.225-35.891-8.157-7.393-1.82-14.608-4.367-21.912-6.556-6.205-1.86-7.996 5.442-12.911 6.279 1.862 2.548 3.549 5.252 5.644 7.59 1.537 1.716 3.538 3.053 5.454 4.383 13.352 9.274 28.611 13.445 44.287 16.456 6.773 1.3 13.697 2.027 20.317 3.868 11.261 3.13 22.801 4.117 34.311 5.182 12.425 1.15 24.642-1.239 38.63-3.56Zm143.277-35.635c-4.298 5.522-7.966 11.725-13.022 16.432-12.094 11.258-25.168 21.189-39.719 29.395-15.309 8.633-30.997 16.087-47.59 21.709-9.792 3.318-20.221 4.268-30.026 6.943-12.632 3.445-25.513 4.628-38.205 6.375-11.604 1.597-23.757-.651-35.654-1.415-4.026-.259-8.211-.58-11.979-1.877-13.554-4.666-26.996-9.667-40.405-14.741-5.14-1.946-7.554-1.147-7.901 4.07-.179 2.702.37 6.313 2.069 8.113 4.66 4.939 9.512 10.241 15.366 13.389 10.936 5.881 22.951 9.242 35.135 12.043 17.524 4.028 34.718 9.667 53.092 8.357 5.444-.388 10.951.169 16.408-.115 7.359-.384 14.72-.98 22.036-1.849 3.642-.433 7.383-1.213 10.742-2.636 14.744-6.246 29.441-12.618 44.002-19.281 8.192-3.748 16.754-7.235 23.943-12.493 8.643-6.32 16.326-14.085 23.83-21.804 7.436-7.65 13.163-16.873 17.265-26.575 5.251-12.423 8.851-25.548 13.047-38.409.271-.83-.454-1.987-.715-2.992-.864.531-2.084.853-2.535 1.626-2.852 4.885-5.533 9.869-9.184 15.735ZM239.628 316.56c-5.222.609-10.43 1.42-15.668 1.79-18.094 1.281-35.627-3.179-53.369-5.475-4.566-.59-9.205-1.125-13.602-2.404-13.249-3.852-26.982-6.344-39.123-13.459-2.956-1.733-5.397-.311-6.778 2.185-1.729 3.125.077 10.106 3.061 12.279 9.904 7.212 19.805 14.116 31.34 19.024 21.727 9.245 44.313 13.382 67.557 15.353 6.823.579 13.539-4.236 20.459-.18.779.456 2.584-.796 3.894-1.307 1.832-.716 3.583-1.786 5.477-2.17 9.559-1.94 19.097-4.123 28.749-5.435 13.981-1.901 26.944-7.06 39.207-13.283 17.001-8.628 34.118-17.141 48.881-29.877 10.152-8.758 19.829-17.558 26.841-29.043 5.486-8.987 10.974-17.973 16.421-26.984 3.086-5.105 6.172-10.214 9.056-15.433.49-.887-.045-2.342-.106-3.534-1.075.59-2.514.913-3.17 1.81-7.637 10.457-12.925 22.564-22.212 31.862-6.254 6.262-12.443 12.608-19 18.541-8.124 7.353-17.949 12.248-27.148 18.065-18.252 11.543-37.991 19.499-59.287 21.848-13.332 1.47-26.384 4.289-41.48 5.827Zm176.131-105.079 1.825-.914c-.608-.305-1.217-.609-1.825.914Z" fill="#000"/></svg>