<svg width="534" height="534" viewBox="0 0 534 534" fill="none" xmlns="http://www.w3.org/2000/svg"><path d="M271.832 279.121c1.51 14.255-4.116 26.729-11.432 38.017-11.224 17.316-23.195 34.104-36.235 50.292-8.957 11.119-17.413 22.613-27.619 32.696-.874.864-2.213 1.261-3.337 1.874-.275-1.471-.654-2.932-.79-4.416-.092-.998-.199-2.279.313-3.006 7.785-11.068 15.933-21.889 23.478-33.116 14.42-21.46 29.442-42.605 42.373-64.942 7.259-12.538 7.728-23.161-8.473-34.289-2.863-1.967-6.219-3.357-8.72-5.685-10.376-9.654-21.804-6.309-32.316-1.675-15.385 6.783-31.056 14.363-42.401 26.792-9.95 10.9-16.234 25.042-25.352 36.815-6.683 8.63-15.277 15.804-23.201 23.438-.726.7-3.272.583-4.074-.143-.903-.816-1.446-3.014-.994-4.157 1.616-4.08 3.16-8.382 5.738-11.856 10.243-13.806 21.932-26.663 31.061-41.141 9.659-15.32 22.916-26.158 38.441-33.604 10.87-5.214 20.675-13.403 34.242-13.454 11.402-.041 20.147 4.912 29.443 9.8 8.234 4.329 12.562 3.013 13.284-5.368 2.648-30.726 21.349-53.314 39.368-75.518 8.879-10.941 23.409-17.179 34.711-26.366 5.039-4.097 9.282-8.346 16.296-6.774 1.792.402 3.457 1.362 5.18 2.065-.873 1.753-1.28 4.206-2.696 5.141-7.847 5.184-16.049 9.834-23.927 14.976-15.242 9.95-28.253 22.227-38.091 37.637-1.036 1.621-1.057 4.093-2.359 5.308-12.349 11.528-13.807 28.125-20.114 42.448-.786 1.784-1.531 3.691-1.745 5.602-1.516 13.564.5 17.734 13.583 22.176a149.242 149.242 0 0 0 30.406 6.857c3.584.421 7.901-3.57 11.575-6.008 25.753-17.098 51.205-34.663 77.346-51.142 4.123-2.599 11.575-1.537 16.794.072 1.773.547 3.43 9.304 1.644 12.03-5.305 8.097-11.29 16.5-18.965 22.129-11.449 8.399-24.48 14.699-37.086 21.43-1.741.93-5.173-.27-7.334-1.408-2.599-1.369-4.674-4.165-7.77.133-8.417-3.445-9.55-3.488-12.698.859-2.605 3.598-4.354 7.886-7.278 11.161-3.482 3.898-5.849 7.873-13.888 4.886-14.266-5.3-29.792-7.227-45.586-11.358-1.776-.87-2.758-.948-3.74-1.025l2.945 1.817Zm108.052-30.117c-2.118 1.64-4.598 2.991-6.236 5.018-1.21 1.497-1.324 3.875-1.926 5.861 1.791-.586 3.543-1.459 5.381-1.713 16.89-2.334 24.897-16.635 36.021-26.679 1.083-.978.794-3.467 1.141-5.254-2.162.427-4.783.218-6.41 1.387-8.928 6.411-17.614 13.161-27.971 21.38ZM154.246 193.525c-6.438 11.188-12.573 20.433-25.141 24.021-7.086 2.023-11.252-1.493-13.802-4.982-2.399-3.281-8.511-6.933-3.187-13.997 5.769-7.654 8.874-17.252 13.712-25.676 3.601-6.271 16.235-9.926 21.463-6.91 7.257 4.186 10.383 14.537 7.005 22.833-.367.9-.05 2.077-.05 4.711Zm-14.301 3.17c1.087-2.141 2.319-4.225 3.185-6.45.332-.854-.175-2.031-.3-3.061-3.161 1.138-7.205 1.449-9.258 3.627-2.468 2.619-3.242 6.827-4.75 10.347 1.032.124 2.213.631 3.068.3 2.232-.864 4.32-2.094 8.055-4.763ZM392.595 320.335c11.992 6.521 14.949 12.371 12.712 22.01-2.115 9.116-12.105 18.361-20.832 19.18-2.083.195-4.992-.776-6.157.283-5.556 5.053-13.869 4.788-16.6 1.009-2.655-3.672.472-11.535 1.157-17.546.106-.927.883-1.76 1.096-2.694 5.069-22.241 5.063-22.242 28.624-22.242Zm-7.945 6.34c-4.574-.86-8.212.543-10.815 4.449 3.226.63 6.439 1.354 9.686 1.85 1.546.237 3.255.369 4.713-.056 1.267-.37 2.285-1.589 3.413-2.433-1.803-.742-3.605-1.483-6.997-3.81Zm-3.178 12.681-4.018.838c.187.684.491 1.975.543 1.965 1.703-.329 3.382-.783 3.475-2.803Z" fill="#000"/><path d="M350.487 272.781c.795.52.646 1.438.816 1.502 3.13 1.164 6.298 2.225 9.457 3.308-1.475 1.472-2.835 4.037-4.447 4.206-4.497.469-9.099-.055-13.659-.186.502-1.104.788-2.395 1.551-3.274 1.703-1.961 3.644-3.716 6.282-5.556Z" fill="#000"/></svg>