<svg width="534" height="534" viewBox="0 0 534 534" fill="none" xmlns="http://www.w3.org/2000/svg"><path d="M310.132 299.456c2.278-.549 5.309-.718 5.37-.37.42 2.406.119 4.925.268 7.395.067 1.114.637 2.199.979 3.297 1.413-.439 3.171-.488 4.187-1.379 8.534-7.488 16.566-15.593 25.459-22.617 13.288-10.496 27.147-20.273 40.8-30.306.567-.417 1.828-.055 2.225-.517 2.848-3.326 5.556-6.771 8.308-10.178-3.802-.579-7.645-1.841-11.399-1.619-15.526.917-31.058 1.648-46.431 4.63-5.897 1.144-12.257-.085-18.406-.233-.266-5.261-.638-10.518-.769-15.783-.133-5.367-.094-10.742-.017-16.112.216-15.225-1.896-30.14-4.782-45.083-1.89-9.782-1.817-19.937-2.732-29.916-.128-1.399-.875-2.742-1.337-4.11-.585 1.411-.907 3.018-1.795 4.202-10.183 13.577-20.689 26.92-30.637 40.665-12.156 16.794-23.901 33.885-35.746 50.902-4.896 7.034-9.633 14.18-14.357 21.332-3.823 5.789-10.091 8.192-16.084 9.008-29.403 4.001-56.839 13.925-83.688 25.952-1.459.654-3.38.279-5.087.383.824-1.703 1.184-4.123 2.543-4.996 12.038-7.735 24.729-13.668 38.909-17.034 12.982-3.082 25.384-8.567 38.107-12.795 2.581-.858 5.649-.344 8.153-1.324 3.91-1.531 8.872-2.847 11.053-5.909 13.796-19.373 26.057-39.887 40.571-58.681 13.667-17.696 25.692-36.281 37.068-55.408 2.372-3.987 16.62-8.222 20.794-6.242 1.649.782 2.933 2.7 3.908 4.377.539.927.046 2.425.104 3.662.817 17.423.343 35.038 2.876 52.21 2.159 14.63 1.745 29.098 2.03 43.653.131 6.671 2.947 6.81 8.658 5.542 4.402-.978 9.382.947 14.116 1.032 2.835.052 5.686-1.387 8.536-1.411 16.974-.144 33.952-.214 50.921.09 2.418.044 4.796 2.257 7.192 3.466-1.481 2.097-2.525 4.82-4.509 6.195-19.903 13.785-40.453 26.694-59.793 41.213-12.322 9.251-23.033 20.672-34.239 31.358-7.5 7.151-7.051 17.285-7.977 26.347-1.687 16.509-1.821 33.173-2.825 49.759-.131 2.178-1.069 5.508-2.526 6.094-1.75.703-5.267-.229-6.621-1.718-11.518-12.672-26.155-22.358-35.556-37.069-1.726-2.701-4.26-4.926-6.594-7.195-9.624-9.353-9.974-9.628-18.925.064-12.318 13.34-23.871 27.385-36.193 40.721-4.867 5.268-10.73 9.695-16.487 14.045-5.062 3.824-8.227 1.913-8.723-4.635-.598-7.889 4.341-13.97 7.112-20.617 5.289-12.689 11.651-24.942 17.816-37.251 2.268-4.527 5.477-8.501 5.097-14.102-.103-1.511 2.088-3.178 3.226-4.773 1.347 1.713 3.434 3.269 3.843 5.182.455 2.125-.096 4.845-1.122 6.839-3.866 7.515-8.325 14.726-12.144 22.262-4.837 9.548-9.315 19.28-13.777 29.01-.347.758.349 2.617 1.103 3.076.726.441 2.531.12 3.218-.537 5.327-5.096 10.991-9.958 15.603-15.655 7.165-8.851 12.289-19.839 20.776-26.953 5.486-4.598 8.122-12.722 17.379-14.309 4.244-.728 6.111-.923 8.798 1.775 12.502 12.548 25.018 25.083 37.653 37.497 1.602 1.573 3.941 2.401 5.938 3.573 1.249-2.371 3.596-4.758 3.564-7.112-.173-12.431 2.194-24.41 4.991-36.409.465-1.992 2.227-6.245-3.137-6.198-.549.005-1.826-2.155-1.565-2.588 4.834-8.01 1.204-16.771 2.528-25.041.134-.837 2.336-1.343 4.2-2.623Z" fill="#000"/><path d="M210.732 315.575a918.951 918.951 0 0 1 7.646 8.488c-4.818 2.77-6.893-2.106-10.305-3.38-12.998-4.856-26.164-8.954-40.13-11.011-15.096-2.223-30.682-1.736-45.29-7.096-.723-.265-1.954.043-2.267-.397-1.81-2.551-8.586-1.747-5.664-7.042.973-1.765 5.906-3.166 7.899-2.26 11.33 5.153 23.086 6.394 35.38 7.684 17.895 1.877 35.612 6.457 52.731 15.014ZM224.399 171.751c7.06-11.178 13.334-21.842 20.04-32.228 1.972-3.055 4.918-5.678 7.924-7.779 1.206-.843 3.775.257 5.724.472-.668 1.244-1.229 2.56-2.02 3.721-10.11 14.83-20.228 29.655-30.541 44.345-.229.326-2.77-.965-4.233-1.502.828-2.136 1.656-4.273 3.106-7.029ZM163.518 368.889c1.319-4.382 2.49-8.419 7.331-6.055 3.415 1.668 4.554 4.976 2.164 9.144-3.573 6.233-6.35 12.915-9.682 19.293-.593 1.134-2.554 2.624-3.329 2.356-1.335-.462-3.195-2.22-3.143-3.358.174-3.85.749-7.766 1.827-11.467.943-3.231 2.773-6.205 4.832-9.913ZM355.483 364.549c-.144 9.102 1.378 17.319-4.952 23.849-.772.795-1.304 1.823-1.947 2.742-.874-.871-2.143-1.599-2.524-2.648-.524-1.447-.627-3.16-.474-4.717.733-7.471 1.424-14.958 2.599-22.365.24-1.515 2.492-2.711 3.816-4.055 1.161 1.985 2.322 3.97 3.482 7.194ZM351.134 130.836c4.071-8.43 4.874-8.731 9.546-2.726 3.03 3.895 5.38 8.343 7.782 12.681.805 1.452.831 3.334 1.213 5.019-1.931.075-4.324.898-5.691.059-2.343-1.44-4.184-3.805-5.981-5.99-2.218-2.696-4.177-5.606-6.869-9.043Z" fill="#000"/></svg>