<svg width="534" height="534" viewBox="0 0 534 534" fill="none" xmlns="http://www.w3.org/2000/svg"><path d="M311.785 379.839c-4.678 3.61-8.734 7.187-13.282 9.952-9.112 5.542-17.949 11.956-28.158 15.067-5.09 1.552-10.389 3.709-16.864 1.485-5.702-1.958-12.453-1.715-18.544-3.656-16.817-5.36-32.449-13.003-44.257-26.402-7.823-8.877-14.119-18.86-14.84-31.483-.464-8.137-2.797-16.208-2.84-24.316-.032-6.156 1.773-12.459 3.569-18.455 2.62-8.748 6.153-17.217 8.955-25.915 3.658-11.356 9.403-21.737 17.202-30.428 7.542-8.405 17.585-13.472 29.607-11.16 2.276.438 4.222 2.637 6.301 4.051 1.789 1.218 2.966.972 3.011-1.369.076-4.004.276-8.031-.035-12.012-.553-7.079 1.635-14.122-1.332-21.333-2.629-6.39-4.109-13.461-4.875-20.367-1.445-13.037-10.102-21.714-17.434-31.269-1.476-1.922-3.415-2.603-6.015-2.981-4.092-.596-8.487-1.761-11.842-4.032-3.377-2.287-2.23-6.652-.963-10.046 1.473-3.942 3.019-9.07 7.763-9.169 4.35-.09 7.375 3.993 8.894 8.094 2.906 7.842 8.805 13.55 13.71 19.941 6.644 8.654 11.545 18.056 13.738 28.771 2.195 10.727 5.279 21.28 4.943 32.456-.162 5.366 2.256 11.075 1.093 16.065-1.04 4.459-.855 8.712-1.126 13.051-.056.909 1.003 1.887 1.549 2.834.523-.702 1.112-1.364 1.558-2.111 1.657-2.78 2.867-5.946 4.98-8.31 4.412-4.934 8.78-10.161 14.088-13.99 11.082-7.997 23.082-13.839 37.388-14.199 13.3-.335 24.632 3.714 35.661 10.904 5.675 3.7 6.763 9.623 10.352 14.222 1.744 2.234 2.229 5.443 3.335 8.189.461 1.144 1.381 2.189 1.538 3.354 1.165 8.623 2.524 17.243 3.115 25.912.29 4.262-.555 8.713-1.538 12.927-1.993 8.541-2.709 17.276-5.364 25.776-2.828 9.058-7.008 17.415-10.594 26.08-1.603 3.875-2.906 7.948-5.042 11.513-3.237 5.4-6.679 10.782-10.774 15.535-5.011 5.818-10.785 10.978-16.631 16.824Zm24.442-155.866c-10.235-5.17-19.892-9.795-32.627-7.717-13.098 2.137-23.652 7.987-33.9 15.115-10.676 7.426-15.57 19.24-21.016 30.485-.32.66-.814 1.681-.546 2.113 3.371 5.435.726 11.371 1.459 17.012.125.959-.831 2.06-1.288 3.095-1.146-.927-3.07-1.692-3.3-2.807-.876-4.249-2.332-8.848-1.48-12.874 1.317-6.225-3.36-10.909-2.464-17.331.835-5.974-8.638-11.662-14.936-10.171-13.274 3.142-22.946 11.376-29.219 23.254-2.975 5.632-4.699 11.929-6.942 17.943-4.758 12.756-8.734 25.751-9.088 39.458-.16 6.17.804 12.391 1.539 18.556.446 3.735.985 7.565 2.25 11.075 4.004 11.114 9.038 21.498 19.016 28.902 8.911 6.611 18.409 11.989 28.79 15.664 5.157 1.825 11.047 1.764 15.997 3.939 4.988 2.193 10.235 2.278 14.567 1.08 9.732-2.693 19.268-6.567 27.558-12.64 5.592-4.097 10.972-8.507 16.239-13.019 5.769-4.942 11.841-9.694 16.769-15.402 4.363-5.055 7.471-11.233 10.861-17.073 1.343-2.315 1.665-5.211 2.944-7.577 8.498-15.716 14.665-32.345 16.223-50.102 1.262-14.392.986-29.187-4.832-42.752-2.699-6.296-4.299-14.058-12.574-18.226Z" fill="#000"/><path d="M314.189 238.798c8.289 2.573 11.957 8.966 15.666 15.431 2.528 4.408 5.281 8.557 4.874 14.064-.184 2.486-1.167 2.465-3.163 3.119-6.645 2.177-13.099 2.058-19.762.367-1.84-.467-4.008-.214-5.905.229-3.874.905-5.632.193-6.507-3.284-.19-.754-.201-1.642-.001-2.39 2.197-8.227 1.341-16.635 1.651-24.981.123-3.294 3.966-5.949 7.317-5.283 1.889.376 3.625 1.527 5.83 2.728Zm-7.613 5.209c-.267 4.683-.681 9.363-.766 14.049-.121 6.717 1.151 7.966 8.163 8.365 2.655.151 5.325.013 7.988.029 1.317.008 2.719-.208 3.929.17 1.397.436 2.625 1.415 3.926 2.158-.579-1.624-1.018-3.317-1.771-4.856-1.194-2.444-2.551-4.813-3.924-7.164-3.867-6.622-8.803-11.95-17.545-12.751Z" fill="#000"/></svg>