<svg width="534" height="534" viewBox="0 0 534 534" fill="none" xmlns="http://www.w3.org/2000/svg"><path d="M265.843 304.063c-6.299-1.093-9.9.006-13.057 6.271-11.336 22.492-27.305 41.787-45.733 58.749-6.279 5.78-14.609 9.452-22.312 13.489-5.878 3.08-12.382 4.935-18.365 7.838-10.003 4.852-24.774 2.813-33.797-5.501-6.052-5.576-12.579-11.129-11.228-20.832-10.855-19.319-2.902-37.315 3.717-55.492 5.887-16.169 12.846-32.466 24.771-44.308 11.306-11.228 22.907-25.702 42.695-22.246 4.764.831 9.666-.326 14.401-.445 10.413-.262 17.226 4.469 23.417 11.528 5.347 6.098 13.223 10.294 14.497 19.525.134.97 1.695 1.741 2.594 2.604.404-1.108.691-2.279 1.233-3.314a7423.268 7423.268 0 0 1 17.639-33.516c2.035-3.842 4.814-7.41 6.175-11.468 7.844-23.386 23.964-40.788 41.615-56.622 14.26-12.792 31.15-21.767 49.689-27.272 21.634-6.424 40.792 2.467 50.387 23.507.655 1.438 2.416 2.714 2.409 4.059-.116 20.69 2.763 41.844-5.261 61.598-3.545 8.727-9.283 16.952-15.5 24.116-17.556 20.229-38.172 36.73-63.151 46.993-5.801 2.383-12.092 4.846-18.197 4.954-16.051.283-32.358 2.225-48.638-4.215Zm32.464-10.865c7.684-.898 15.429-1.459 23.029-2.83 4.177-.753 8.151-2.773 12.147-4.393 20.57-8.335 36.329-23.763 50.962-39.224 17.388-18.373 23.024-49.551 16.705-73.52-1.769-6.713-6.602-14.075-13.995-15.127-7.962-1.132-16.546.041-24.542 1.726-14.011 2.954-24.922 11.663-36.214 20.277-15.642 11.929-28.286 25.785-36.99 43.344-5.596 11.289-10.859 22.748-16.67 33.922-2.514 4.836-4.179 9.57-3.781 15.073.176 2.43.549 5.831-.787 7.203-4.092 4.206-.585 6.628 1.943 7.939 3.424 1.775 7.567 2.219 11.445 3.024 4.71.977 9.465 1.734 16.748 2.586ZM193.915 254.85c-8.301-.832-14.874 3.374-20.73 8.199-21.304 17.555-33.503 41.256-40.958 67.081-3.223 11.164-1.768 23.679 4.384 34.668 5.693 10.166 15.553 15.305 25.754 12.66 4.121-1.067 8.01-3.162 11.886-5.035 11.514-5.559 24.036-9.606 32.27-20.338 10.869-14.166 21.651-28.401 32.281-42.748 1.329-1.794 2.769-5.108 2.002-6.595-3.649-7.065.347-16.94-8.333-22.188-1.783-1.078-2.564-3.923-3.663-6.029-6.843-13.107-17.001-20.679-34.893-19.675Z" fill="#000"/></svg>