<svg width="534" height="534" viewBox="0 0 534 534" fill="none" xmlns="http://www.w3.org/2000/svg"><path d="M399 295.258c-4.404 14.301-1.85 28.488-9.022 41.833-13.852 25.776-27.457 49.978-60.486 54.923-17.415 2.607-34.108 7.194-50.544-3.265-1.897-1.208-6.597.178-8.943 1.848-6.681 4.757-12.36 11.008-19.252 15.374-24.197 15.328-43.651 17.414-61.461-1.996-6.811-7.424-12.159-16.64-10.927-27.747 1.897-17.098-3.515-34.472 2.977-51.592 1.883-4.965-4.014-7.252-9.675-8.286-14.309-2.616-26.871-9.171-32.201-23.679-3.1-8.438-4.655-17.733-5.259-26.753-2.346-35.065 15.413-58.767 44.38-75.487 3.546-2.046 8.246-3.786 12.102-3.283 12.942 1.685 19.337-7.223 21.192-16.317 3.628-17.79 14.95-29.625 27.805-39.383 8.824-6.697 20.972-9.487 32.025-12.654 24.36-6.981 46.744-.443 65.739 14.738 13.078 10.452 21.928 24.773 25.101 42.256 3.541 19.512-.47 37.866-6.093 56.14-1.73 5.621.251 7.216 4.759 10.879 11.757 9.553 22.57 20.555 32.287 32.211 4.044 4.85 4.345 12.83 5.496 20.24Zm-65.601-60.581c2.734-1.601 6.213-2.595 8.088-4.899 17.666-21.687 11.553-53.787-4.169-76.069-15.585-22.089-39.969-24.134-63.894-20.684-7.845 1.131-23.409 1.107-20.566 18.236.27 1.626-3.7 3.959-5.702 5.964-7.206 7.217-14.772 14.115-21.531 21.73-9 10.138-8.628 14.472.498 23.37 7.061 6.885 7.842 7.217 11.657-1.784 12.742-30.058 55.499-25.28 73.15-5.022 5.024 5.766 8.092 13.588 10.777 20.935 1.943 5.315 1.938 11.388 2.466 17.154.237 2.593-.343 5.261-.552 7.895 2.691-1.707 5.382-3.413 9.778-6.826Zm22.151 59.728c-1.136 5.78-2.282 11.558-3.406 17.341-3.775 19.419-30.378 39.446-49.107 34.893-4.981-1.211-6.704-.37-8.506 2.262-3.881 5.668-7.876 11.499-10.319 17.844-2.4 6.239.782 10.641 7.126 13.727 18.66 9.077 36.3 3.74 51.749-5.916 26.459-16.539 40.182-40.501 40.347-73.32.108-21.683-11.439-33.719-25.812-45.416-2.187-1.779-7.925-2.85-8.921-1.656-2.038 2.444-3.344 7.025-2.513 10.057 2.491 9.097 6.155 17.87 9.362 30.184Zm-80.085-32.424c27.966-1.451 43.694-29.337 28.676-52.137-4.283-6.502-11.417-12.092-18.498-15.425-4.544-2.139-11.431 1.009-17.042 1.881-20.927 3.251-25.379 18.959-30.191 34.739-2.81 9.212 3.183 21.185 10.059 20.372 10.365-1.226 17.516 4.113 26.996 10.57Zm-61.342 44.369c-7.238 10.813-9.762 22.629-8.637 35.616 1.006 11.612 10.612 20.78 22.08 18.788 6.617-1.148 12.912-4.259 19.29-6.651 4.584-1.721 6.712-4.847 6.577-10.131-.253-9.842-.469-19.545 2.947-29.334 2.461-7.053.297-14.227-9.12-16.149-3.565-.728-6.944-2.349-10.424-3.515-10.149-3.4-14.076-1.584-22.713 11.376Zm6.816 68.26c-1.696 0-3.866.688-5.014-.106-11.514-7.962-21.849-16.711-20.614-32.854.431-5.628.296-11.332-.074-16.969-.106-1.618-1.937-3.122-2.976-4.679-1.232 1.364-3.22 2.554-3.581 4.119-3.821 16.564-.472 33.213.116 49.789.415 11.711 9.382 19.092 17.184 26.784 6.658 6.563 13.554 1.552 20.449 1.324 15.004-.496 24.792-9.676 34.375-19.516 4.427-4.545 4.021-8.717-.489-12.826-3.476-3.167-5.274-7.404-12.124-2.702-6.556 4.501-14.485 9.664-27.252 7.636Zm120.979-80.205c-1.172-4.588-2.182-9.225-3.554-13.752-2.415-7.967-5.652-8.781-12.909-3.959-6.586 4.376-13.605 8.121-20.025 12.716-3.089 2.21-7.096 5.524-7.46 8.709-1.018 8.903-.583 18.01-.157 27.011.083 1.765 2.382 3.96 4.203 5.02 10.236 5.964 26.229-1.171 33.007-14.903 2.756-5.584 4.624-11.607 6.895-20.842Zm-190.84-17.066c-1.136 1.791-3.61 4.014-3.195 5.305 3.11 9.666 9.42 16.937 19.148 20.048 3.246 1.039 9.033.49 10.695-1.646 1.735-2.23 1.387-8.564-.616-10.834-13.446-15.241-8.358-33.519-8.719-50.681-.2-9.518 7.223-15.502 16.66-18.701 6.371-2.159 12.14-6.124 18.124-9.38.952-.518 1.619-1.56 2.418-2.36-.886-.573-1.789-1.668-2.653-1.637-10.747.374-22.711-3.328-30.97 6.821-9.84 12.091-22.102 23.098-20.955 40.993.397 6.196.063 12.438.063 22.072Zm40.894-40.956c-11.994 8.135-16.404 19.744-13.299 33.445 1.057 4.662 5.975 8.446 9.129 12.631 2.243-2.561 4.4-5.207 6.751-7.664 3.529-3.689 7.52-6.986 10.681-10.957 1.885-2.369 4.423-6.842 3.466-8.416-5.111-8.402-2.211-17.38-3.205-26.016-.2-1.738-1.505-3.675-2.888-4.788-.538-.433-3.18.796-4.028 1.907-1.911 2.506-3.301 5.409-6.607 9.858Zm78.381 126.282c-.242 4.716 1.696 7.047 4.454 1.99 2.92-5.354 2.983-12.312 6.045-17.54 2.85-4.866 2.299-8.208-2.072-9.784-3.814-1.375-7.064-.512-9.457 5.19-2.798 6.67-2.825 12.198 1.03 20.144Zm5.112-63.141c-3.119 10.408 1.605 18.261 8.44 25.301.343.353 3.374-1.013 3.33-1.314-1.298-8.941-2.826-17.849-4.318-26.762-1.916.356-3.832.712-7.452 2.775Zm-57.934-68.26c-4.589 8.763-.893 16.377 3.431 23.825.783 1.348 2.297 2.27 3.474 3.389.539-1.443 1.435-2.858 1.555-4.336.657-8.118.034-16.008-8.46-22.878Zm44.302 47.782c-5.361-1.957-10.668-4.092-16.116-5.765-1.714-.525-3.807.19-5.726.337.578 1.922.689 5.15 1.81 5.553 6.73 2.412 13.692 4.175 20.576 6.156.387-1.524.774-3.05-.544-6.281Zm54.526-6.826c3.674-4.887 1.933-8.182-3.553-6.543-6.918 2.068-13.242 6.16-19.765 9.493-.861.44-1.382 1.551-2.06 2.351 1.485.508 3.229 1.791 4.411 1.394 5.934-1.991 11.721-4.42 20.967-6.695Zm-100.532 1.706c-9.786-3.114-14.409 4.439-19.896 9.914-.714.712.098 2.959.203 4.494 1.201-.569 2.414-1.648 3.601-1.622 6.838.153 10.061-12.566 18.81-5.269-.338-1.937-.676-3.873-2.718-7.517Zm18.743-121.162 4.309-.902c-.2-.736-.527-2.126-.582-2.115-1.826.354-3.627.842-3.727 3.017Z" fill="#000"/></svg>