<svg width="534" height="534" viewBox="0 0 534 534" fill="none" xmlns="http://www.w3.org/2000/svg"><path d="M84.778 224.238c-6.18-5.339-6.247-7.794-.884-10.433 25.046-12.321 51.9-11.479 78.512-9.954 11.03.632 21.818 5.34 32.738 8.104 3.148.797 6.404 1.934 9.559 1.791 11.744-.533 20.149 3.798 24.634 15.08.851 2.14 2.811 5.58 4.129 5.52 11.823-.535 21.887 6.314 33.128 8.474 11.625 2.233 22.744.403 33.966 1.572 15.203 1.582 27.456 9.069 40.672 14.707 2.77 1.182 4.955 5.638 5.835 9 2.273 8.68 9.746 11.546 16.124 11.087 24.077-1.73 43.61 11.69 65.276 17.808 2.465.696 6.084 3.551 6.923 2.82 12.546-10.92 12.004 5.887 17.932 8.636 1.157.537.448 5.11.6 7.821-2.212-.703-4.42-1.996-6.638-2.012-13.239-.097-25.643.317-38.216 7.878-11.213 6.745-24.819 14.927-39.418 5.813-5.074-3.17-9.412-7.798-14.789-10.152-14.812-6.488-25.673-16.076-33.604-30.719-6.22-11.481-20.845-12.632-31.999-17.755-12.374-5.684-25.937-7.876-39.29-8.987-10.723-.893-21.686 1.321-32.555 1.908-11.424.617-19.844-3.716-25.785-14.139-4.325-7.587-9.837-14.859-16.168-20.838-7.05-6.659-15.815-9.216-25.661-4.364-4.726 2.329-10.083 4.027-15.284 4.459-2.588.215-5.465-3.069-8.212-4.771 2.093-1.758 4-3.852 6.349-5.141 1.327-.727 3.431.135 5.088-.201 1.867-.377 3.623-1.296 5.428-1.979-2.106-.47-4.314-1.592-6.297-1.279-4.761.751-9.375 2.41-14.13 3.239-2.789.488-5.734.09-9.472-.775-11.867-3.734-20.553.825-28.491 7.782Zm307.361 67.443c-3.07-.577-6.122-1.38-9.218-1.628-1.402-.111-2.893.882-4.343 1.374 1.763.661 3.484 1.681 5.3 1.899 2.718.324 5.504.084 8.261 1.813 5.469 1.44 10.936 2.885 16.419 4.269.063.016.325-.76.493-1.165-5.638-1.611-11.275-3.222-16.912-6.562Zm-174.402-53.609c4.269-7.195 1.451-11.493-5.768-13.806-4.077-1.306-8.184-2.785-12.387-3.316-2.471-.312-6.478.313-7.398 1.906-1.058 1.829-.062 5.481 1.076 7.84 4.471 9.265 13.155 7.323 24.477 7.376Zm138.14 55.338c-5.538-3.24-11.015-6.595-16.662-9.63-1.22-.656-3.058-.16-4.611-.193.433 1.217.544 2.731 1.35 3.605 5.628 6.11 11.489 11.589 20.159 13.636 5.111 1.206 8.348 9.015 15.305 4.484-4.03-3.967-8.059-7.934-15.541-11.902Zm-141.593-48.421c-2.301 0-4.615-.149-6.899.052-1.581.139-3.12.761-4.678 1.166 1.287 1.63 2.29 4.192 3.921 4.689 3.131.956 6.678 1.272 9.946.902 7.041-.797 14.025-2.137 21.01-3.388 2.026-.364 3.973-1.181 5.956-1.79-2.175-1.696-4.439-4.926-6.508-4.805-6.471.378-12.869 2.021-22.748 3.174Zm172.674 76.09c2.255 0 5.054.855 6.656-.168 4.136-2.643 7.743-6.116 11.562-9.256-3.9.835-7.766 1.993-11.711 2.416-3.9.417-7.882.011-11.823.115-3.073.081-7.866-1.237-6.395 4.267.402 1.505 5.38 1.784 11.711 2.626Zm-69.069-65.713-4.641 1.189c5.778 4.214 11.486 8.531 17.37 12.592 2.149 1.482 4.657 2.524 7.131 3.391.593.208 2.438-1.076 2.444-1.688.019-1.537-.183-3.828-1.182-4.501-5.747-3.873-11.752-7.363-21.122-10.983Z" fill="#000"/><path d="M112.407 217.321c-3.022 8.715-17.86 19.265-25.041 16.946-1.588-.513-1.762-5.417-1.724-9.164 2.433-.131 5.063 1.576 5.413 1.193 5.786-6.335 13.554-7.643 21.352-8.975ZM118.45 233.749c-.979-.173-1.094-1.21-1.209-2.248.691.461 1.382.923 1.209 2.248Z" fill="#000"/></svg>