<svg width="534" height="534" viewBox="0 0 534 534" fill="none" xmlns="http://www.w3.org/2000/svg"><path d="M192.892 281.299c-16.383-10.035-13.767-21.349-4.572-30.993 23.236-24.371 47.481-47.784 71.321-71.582 6.787-6.773 14.146-13.076 20.218-20.437 8.12-9.843 16.311-7.249 20.122 1.709 10.598 24.918 21.851 50.041 27.984 76.218 4.965 21.193 8.644 41.712 22.567 59.353 2.406 3.047 1.726 12.372-1.101 15.074-23.121 22.104-46.82 43.631-70.909 64.689-12.922 11.297-26.51 8.115-34.701-8.572-14.341-29.217-27.726-58.883-50.929-85.459Zm103.129-99.672-6.068-.479c2.023 1.249 4.046 2.498 6.068 7.014 2.183 5.447 4.366 10.894 6.548 19.608 0 4.174-.493 8.426.154 12.498.536 3.378 2.413 6.543 3.697 9.802.899-2.758 3.035-5.816 2.453-8.217-1.439-5.944-4.121-11.587-6.304-20.619-2.182-5.446-4.365-10.893-6.548-19.607Zm-39.287 32.679v6.287c4.365-3.185 10.008-5.599 12.591-9.86 1.424-2.349-2.288-7.8-3.684-11.854-2.969 2.964-5.938 5.928-8.907 15.427Zm6.548 104.575c0 5.353-.393 10.75.197 16.037.23 2.061 3.558 5.722 3.981 5.521 5.074-2.409 2.31-20.267-4.178-21.558Zm-58.931-52.288 6.548-3.268c-2.183-1.089-4.366-2.178-6.548 3.268Zm78.575 0 3.928 2.615c-.218-1.961-.436-3.922-3.928-2.615Z" fill="#000"/></svg>