<svg width="534" height="534" viewBox="0 0 534 534" fill="none" xmlns="http://www.w3.org/2000/svg"><path d="M357.289 281.104c-15.718 27.887-37.424 47.617-61.977 65.692-15.648 11.521-33.636 15.906-50.296 23.987-20.754 10.068-41.273 19.887-56.999 37.434-1.9 2.12-6.998 4.48-8.127 3.59-2.838-2.232-5.995-6.275-5.972-9.571.308-43.764-14.62-84.397-24.945-126.035-6.903-27.837-4.972-56.593-3.812-84.92.333-8.142 3.435-17.371 10.835-24.366 9.702-9.173 17.527-20.285 26.654-30.107 10.161-10.935 27.379-10.039 39.881-.807 12.026 8.88 13.969 21.798 17.3 34.292 1.241 4.655.874 8.912 5.869 2.718 17.52-21.729 44.627-29.456 66.818-44.232 10.792-7.185 28.36-4.339 42.888-5.765 1.659-.164 3.656 1.169 5.216 2.222 23.037 15.553 34.528 51.943 27.162 80.252-6.805 26.161-16.546 50.934-30.495 75.616Zm-154.585 71.353 3.846.303c-1.282-.791-2.564-1.581-3.846-4.44l-1.134-5.266-2.712.827c1.282 2.169 2.564 4.338 3.846 8.576Zm-20.75 4.136c0-1.956.312-3.981-.099-5.847-.325-1.471-1.54-2.748-2.359-4.112-.564 1.072-1.841 2.393-1.566 3.17 1.076 3.046 2.641 5.92 4.024 10.926 0 8.04-.154 16.086.198 24.111.044.985 2.842 2.634 4.278 2.547 1.335-.08 3.837-2.433 3.629-3.159-2.463-8.591-5.338-17.064-8.105-27.636Zm195.047-165.456c0 1.957-.312 3.981.1 5.848.324 1.471 1.539 2.748 2.358 4.111.564-1.071 1.841-2.393 1.567-3.17-1.076-3.046-2.642-5.919-4.025-10.925 6.825-18.264 5.551-24.724-7.369-36.204-1.098-.975-2.833-1.253-4.309-1.743-.069-.023-.861 1.172-.721 1.611 4.087 12.816 8.249 25.608 12.399 40.472ZM250.428 333.843c-12.11 10.692-24.256 21.344-36.27 32.142-1.058.952-1.26 2.85-1.859 4.308 1.868.035 4.537.893 5.483-.021 11.72-11.305 23.197-22.861 34.677-34.41.345-.347.044-1.331 2.119-2.019l.304-3.833c-.793 1.277-1.586 2.555-4.454 3.833Zm-33.199-82.728c5.652-10.076.894-19.13-3.31-27.898-2.611-5.445-7.093-5.432-9.983-.022-2.378 4.453-3.951 9.416-5.301 14.312-1.717 6.224-2.738 12.634-4.266 18.915-1.21 4.979-3.762 9.851-3.924 14.828-.515 15.821-.338 31.673-.078 47.507.058 3.523 1.549 7.022 2.381 10.532 1.935-3.333 4.926-6.479 5.559-10.042.95-5.341.781-11.038.13-16.469-1.167-9.733.39-19.266-2.708-29.497-2.527-8.347 4.006-19.598 7.103-29.378 1.453-4.587 4.271-8.745 6.471-13.097.975 3.729 1.886 7.477 2.945 11.182.877 3.068 1.93 6.087.831 9.127l-5.185 19.651c.975-.283 2.091-.352 2.901-.884 7.385-4.857 3.308-12.41 6.434-18.767Zm26.974-2.068c-1.746-20.88-9.511-40.673-9.208-62.215.158-11.251-7.433-22.614-11.553-33.917-.634-1.741-1.417-3.429-2.132-5.142-1.456 1.452-3.79 2.7-4.187 4.397-.834 3.573-2.181 9.691-.633 10.709 8.734 5.742 6.359 14.123 7.063 22.03.988 11.097.957 22.719 4.512 33.038 3.87 11.235 2.94 24.911 16.138 31.1Zm-20.749 33.091c13.822 3.992 14.391 5.205 10.851 18.251-1.363 5.021-2.132 10.295-2.333 15.487-.07 1.803 2.393 3.702 3.699 5.558 1.461-1.701 3.363-3.189 4.315-5.137 11.183-22.889-2.541-42.575-8.573-63.205-.314-1.074-3.419-1.336-5.225-1.977.195 1.792.618 3.593.544 5.374-.322 7.863-.789 15.721-3.278 25.649Zm85.073-55.841c4.453-.044 12.505 7 10.474-5.628-1.048-6.519-1.113-13.198-1.53-19.811-.148-2.336-.023-4.689-.023-7.034-2.84 1.039-7.026 1.243-8.288 3.262-5.569 8.91-10.633 18.291-.633 29.211Zm-118.273-59.978c-3.527 9.544 3.389 20.172-3.228 29.751-.909 1.316 3.414 6.33 5.643 9.394.125.173 4.493-1.571 4.759-2.861.896-4.324 1.034-8.844 1.085-13.294.126-10.929.133-21.862-.07-32.788-.027-1.43-1.563-2.831-2.4-4.245-.546 1.824-.781 3.831-1.723 5.421-1.008 1.701-2.682 3.007-4.066 8.622Zm170.147 0c-2.766-9.193-5.309-18.464-8.505-27.507-.583-1.651-3.831-2.368-5.849-3.516-.503 2.313-2.149 5.194-1.322 6.844 4.765 9.515 8.154 19.171 7.49 30.05-.214 3.501-2.061 9.538 4.808 8.143 1.727-.351 2.283-6.431 3.378-14.014Zm-95.448 16.545c-8.293 7.412-9.098 17.139-8.153 27.239.127 1.356 2.155 3.416 3.465 3.548 1.467.147 3.96-1.158 4.547-2.477 3.068-6.905 6.306-13.853 8.18-21.121.972-3.769 2.575-10.437-8.039-7.189Zm39.424 93.069 6.225-9.582c-4.201-.942-8.442-2.664-12.584-2.453-1.72.088-3.621 4.132-4.75 6.68-2.421 5.465-4.394 11.127-6.55 16.709 8.92 3.117 10.31-6.323 17.659-11.354Zm20.75-20.682c2.97 3.841 4.063 6.841-2.372 8.362-6.723 1.588-4.45 5.681-1.161 8.433 1.445 1.209 5.578 1.299 7.007.117 9.761-8.08 9.891-16.696.422-25.226-2.163-1.95-5.586-2.513-8.429-3.713.82 3.32 1.639 6.639 4.533 12.027Zm-76.773-51.705-1.434-5.565c-.906.569-2.491 1.018-2.616 1.723-2.518 14.272 6.14 26.283 8.259 39.648.187 1.176 1.213 2.22 1.85 3.326.747-1.635 1.785-3.201 2.193-4.915 2.741-11.493.732-21.754-8.252-34.217Zm51.873-6.204-4.339-3.948c-3.237 9.526-12.248 17.126-10.033 28.382.604 3.072 3.069 5.781 4.679 8.657 1.156-2.649 3.377-5.34 3.275-7.94-.353-9.005-.234-17.521 6.418-25.151ZM171.58 259.388c10.058-6.582 5.173-16.802 6.038-25.563.098-1.002-3.132-3.437-3.521-3.189-1.783 1.139-4.281 2.92-4.39 4.607-.473 7.333-.202 14.713 1.873 24.145Zm89.223 10.341 1.378 5.51c3.823-10.326 12.752-6.959 20.255-7.75 1.212-.128 3.015-2.518 3.035-3.885.021-1.391-1.835-4.031-2.848-4.022-7.745.077-16.467-2.765-21.82 10.147Zm-95.448-95.137c-6.531 3.938-14.527 19.919-12.251 24.883.434.946 2.523 2.158 3.051 1.857 1.869-1.066 4.336-2.448 4.879-4.225 1.833-6.007 2.938-12.235 4.321-22.515Zm176.371 64.114c.488.485 1.151.886 1.433 1.47 1.743 3.624 3.399 7.288 5.084 10.939 1.286-4.616 3.545-9.252 3.451-13.839-.048-2.326-4.342-4.565-6.717-6.843-1.775 2.068-3.55 4.136-3.251 8.273Zm-26.974-97.205c-3.753 2.361-7.838 4.359-11.071 7.29-1.079.977.02 4.343.124 6.617 2.266-1.183 4.853-2.007 6.705-3.653 1.805-1.602 2.859-4.044 4.242-10.254Zm53.949 78.591-3.955 12.603c.972.28 2.738.927 2.803.787 1.871-4.019 3.721-8.066 5.166-12.248.262-.758-1.248-2.125-4.014-1.142Zm-215.796 12.409 1.32 13.726c.943-4.546 2.284-9.056 2.693-13.649.281-3.156-.729-6.426-1.163-9.645-.95.451-2.453.692-2.726 1.402-.455 1.185-.124 2.671-.124 8.166Zm60.174-31.023c-.692 1.739-2.269 3.712-1.881 5.163.692 2.583 2.572 4.848 3.956 7.246 1.383-2.398 3.264-4.663 3.955-7.246.388-1.451-1.189-3.424-6.03-5.163Zm72.624 113.751 7.218 5.214c-.707-2.802-.712-6.105-2.281-8.293-2.563-3.574-2.993-3.267-4.937 3.079Zm-107.899-16.545 4.15-8.028-4.757-2.313c-1.181 2.473-2.818 4.852-3.363 7.458-.305 1.456 1.204 3.288 3.97 2.883Zm153.548-74.456c-2.767.02-5.538-.009-8.285.229-.116.01-.116 3.668 0 3.678 2.747.239 5.518.21 8.285-3.907Zm-161.847-12.409 4.76 6.205 3.539-3.528c-2.075-1.581-4.149-3.163-8.299-2.677Zm6.224 97.206c-.691 4.325-1.517 8.636-1.973 12.986-.106 1.007 1.058 2.146 1.637 3.224.804-1.42 2.141-2.783 2.302-4.273.353-3.256.109-6.576-1.966-11.937Zm93.374 31.023 7.984.315-1.848-6.431-6.136 6.116Zm-53.949-148.911c0-1.298.275-2.673-.062-3.878-.587-2.095-1.553-4.084-2.36-6.117-.576 1.71-1.709 3.458-1.594 5.12.163 2.348 1.249 4.632 4.016 4.875Zm139.022 6.205c.692-2.961 1.575-5.896 1.965-8.896.126-.97-1.042-2.107-1.618-3.168-.807 1.384-1.999 2.685-2.324 4.174-.406 1.859-.098 3.874 1.977 7.89Zm-93.373 97.205 1.127 5.26 6.224-6.205c-1.758-.374-3.517-.749-7.351.945Zm87.148-24.818c-.474-.474-.885-1.064-1.449-1.378-.344-.191-1.324-.022-1.342.092-.506 3.158-1.031 6.323-1.227 9.508-.025.407 1.741.923 2.677 1.388.447-1.825.895-3.649 1.341-9.61Zm-33.199-99.274c0 1.299-.277 2.674.061 3.879.587 2.094 1.553 4.084 2.36 6.117.576-1.71 1.71-3.458 1.595-5.12-.163-2.348-1.25-4.633-4.016-4.876ZM206.854 141.5c1.521 2.069 2.944 4.226 4.676 6.101.234.253 2.016-.913 3.08-1.423-1.893-2.248-3.787-4.497-7.756-4.678Zm132.798 62.046c0 1.299-.278 2.674.06 3.879.588 2.095 1.554 4.083 2.361 6.117.576-1.71 1.71-3.458 1.594-5.12-.162-2.348-1.249-4.632-4.015-4.876Zm-37.35 119.956-2.49-1.655c.139 1.241.277 2.482 2.49 1.655Zm-14.525-171.661-1.66 2.482c1.246-.138 2.49-.275 1.66-2.482Z" fill="#000"/></svg>