<svg width="534" height="534" viewBox="0 0 534 534" fill="none" xmlns="http://www.w3.org/2000/svg"><path d="M244.861 385.133c-7.788-8.835-15.289-17.188-22.509-25.777-1.951-2.32-1.739-7.187-5.277-7.263-2.761-.059-5.689 2.446-8.355 4.113-8.737 5.462-17.199 11.395-26.144 16.483-5.418 3.082-11.472 5.099-17.347 7.312-14.478 5.455-29.015 10.755-43.541 16.086-1.026.377-2.7 1.036-3.112.618-.883-.897-1.608-2.425-1.575-3.674.232-8.807 5.1-17.392 1.221-26.404 2.367-10.965 4.425-21.956 11.015-31.543 5.543-8.062 10.273-16.678 15.65-24.86a118.727 118.727 0 0 1 10.001-13.101c3.94-4.486 8.437-8.482 12.469-12.894.548-.601.259-2.754-.407-3.548-4.106-4.898-8.564-9.503-12.641-14.423-3.172-3.828-6.118-7.87-8.843-12.027-1.158-1.766-1.518-4.061-2.202-6.129-3.105-9.377-8.617-17.419-13.859-25.659-2.703-4.249-3.872-9.498-6.699-13.635-2.565-3.755-.256-5.139 2.151-5.522 3.334-.53 6.694-4.395 10.278-.565 6.58-1.346 13.987 3.006 20.025-2.987.552-.548 3.158.738 4.683 1.445 6.242 2.894 12.212 4.22 19.336 1.816 5.597-1.889 12.026-1.303 18.083-1.849 5.538-.498 11.09-.911 16.598-1.644 1.594-.213 3.263-1.143 4.551-2.177 14.508-11.63 27.266-24.818 36.257-41.3.466-.853.758-1.884 1.423-2.533 10.006-9.772 20.091-19.463 30.078-29.254 2.085-2.044 3.672-4.606 5.809-6.583 2.151-1.991 4.35-2.863 5.378 1.35.565 2.313 2.918 4.599 2.631 6.639-1.174 8.349 1.494 16.15 3.602 23.752 2.357 8.501-1.171 17.822 4.23 25.665-1.167 12.974 6.635 23.397 10.012 35.079.127.439.924.69 1.041 1.128.49 1.838.733 5.271 1.261 5.307 2.387.165 4.849-.587 7.269-1.079 9.215-1.873 18.126-4.64 27.744-5.263 11.164-.722 22.144.986 33.245.544 6.022-.239 12.157 1.422 17.246 5.525 2.861 2.306 6.161 4.059 9.164 6.2.577.411 2.853 1.459-.05 2.209-5.02 1.298-7.217 5.554-9.414 9.595-8.093 14.888-21.298 24.154-35.251 32.744-7.962 4.901-15.521 10.452-23.437 15.431-5.974 3.758-12.219 7.086-18.363 10.57-.62.351-1.41.707-2.061.619-.869-.117-1.679-.667-2.515-1.031.517-.682.899-1.564 1.571-2.015 5.307-3.565 10.659-7.065 16.018-10.553 7.411-4.823 14.844-9.614 22.26-14.429.832-.54 1.538-1.413 2.437-1.684 9.811-2.96 16.672-10.614 24.441-16.445 5.803-4.356 8.988-12.217 13.272-18.562.663-.982.719-2.441 1.496-3.265 1.192-1.264 1.629-1.761.162-3.463-4.512-5.235-10.681-6.56-16.799-6.798-12.793-.498-25.651-.694-38.419.055-7.522.441-15.202 2.178-22.275 4.786-4.2 1.548-8.039.965-12.012 1.134-1.558.066-3.287-.423-1.922-3.854 2.078-5.22-.249-11.147-3.102-15.645-5.889-9.283-7.091-19.787-8.934-30.031-2.398-13.331-4.493-26.772-4.868-40.381-.007-.261.068-.546-.012-.781-.91-2.675-1.844-5.343-2.771-8.013-2.145 1.765-4.432 3.386-6.41 5.321-6.508 6.37-12.611 13.186-19.427 19.198-6.774 5.975-11.165 13.52-16.103 20.819-3.939 5.821-8.92 10.924-13.175 16.546-5.489 7.251-12.957 12.044-20.255 17.099-1.169.81-2.55 1.775-.453 3.37.871.662 1.319 2.04 1.654 3.182.176.603-.306 1.398-.49 2.106-.339-.491-.578-1.121-1.034-1.446-1.501-1.07-3.078-2.875-4.631-2.88-5.866-.02-11.733.855-17.6.85-10.747-.009-21.422 4.708-32.216.55-1.801-.693-3.473-1.722-5.279-2.401-1.137-.428-2.574-.983-3.6-.644-11.139 3.682-11.123 3.722-20.693 1.509-.496-.115-1.044-.046-1.565-.01-2.792.194-5.583.404-8.375.609 1.512 1.635 3.657 3.019 4.422 4.95 2.599 6.567 6.813 11.905 11.021 17.471 3.567 4.719 5.952 10.595 7.776 16.306 2.469 7.731 7.155 13.979 11.936 20.137 4.55 5.859 9.78 11.21 14.929 16.574 2.472 2.577 1.413 2.937-1.133 4.558-4.248 2.705-8.263 6.091-11.576 9.888-9.793 11.224-19.22 22.733-25.676 36.388-3.009 6.363-7.624 12.045-10.058 18.577-2.018 5.417-5.15 11.067-2.06 17.686 1.19 2.551-.405 6.409-.755 9.668-.16 1.493-.523 2.979-.54 4.471-.075 6.377 1.445 7.33 6.961 4.748 10.749-5.03 21.7-9.4 33.079-13.002 8.892-2.814 17.165-7.866 25.343-12.568 7.874-4.528 15.27-9.886 22.88-14.873 1.437-.941 2.924-1.807 4.335-2.785 2.956-2.05 5.471-.578 6.072 2.007 1.294 5.564 5.464 8.801 8.634 12.955 9.927 13.008 21.95 24.259 30.973 38.077 3.368 5.159 9.059 8.906 14.083 12.791 1.025.792 4.63 0 5.641-1.223 7.076-8.553 14.819-16.703 18.462-27.6 2.863-8.565 6.967-16.504 7.446-26.063.473-9.424 3.949-18.673 5.742-28.068.624-3.273.247-6.757.168-10.14-.13-5.567.406-10.944 2.586-16.196.834-2.007.083-4.627.691-6.789.403-1.439 1.933-2.562 2.959-3.826.543 1.179 1.614 2.395 1.533 3.53-.265 3.724-.935 7.42-1.476 11.123-.504 3.446-1.527 6.895-1.479 10.331.182 13.146-3.205 25.648-5.878 38.348-1.215 5.771-1.191 11.796-3.601 17.38-4.025 9.323-6.369 19.476-12.652 27.679-4.642 6.059-9.971 11.595-15.036 17.327-2.085 2.359-4.912 2.267-6.846.463-10.295-9.605-21.459-18.468-28.646-31.64Zm-122 6.668c-.831-.215-1.659-.44-2.5-.602-.026-.005-.176.633-.268.972.661.139 1.322.277 2.768-.37Z" fill="#000"/><path d="M317.433 274.901c0-.262-.065-.731.01-.755 6.667-2.101 12.351-5.9 17.717-10.239 1.195-.967 2.172-2.288 3.496-2.96.399-.203 1.303 1.951 2.784.3.847-.945 4.074-.4 1.227-2.994-.219-.199 1.159-2.579 2.149-3.603 4.54-4.7 9.219-9.266 13.806-13.921.384-.389.454-1.087.67-1.642-.484-.092-1.017-.364-1.447-.25-9.614 2.568-19.45.967-29.147 1.704-2.968.225-5.85 2.259-8.78 3.328-8.892 3.245-16.791.036-24.798-2.089-5.214-1.384-5.594-5.888-.687-8.687 2.966-1.692 2.249-1.979 1.258-4.647-2.281-6.144-3.333-12.741-4.967-19.133-.233-.909-.765-2.262-1.438-2.459-6.293-1.841-5.936-7.368-4.472-11.156 1.568-4.057-.024-7.283-.558-10.556-1.136-6.963-7.087-13.164-3.067-20.979.11-.213-.945-1.225-1.61-1.559-.386-.194-1.312.039-1.592.396-1.062 1.352-2.297 2.712-2.861 4.286-2.288 6.391-5.705 11.998-10.449 16.872-1.72 1.767-2.996 3.966-4.475 5.968-5.915 8.007-11.75 16.075-17.806 23.973-1.34 1.747-3.493 2.86-5.223 4.321-2.124 1.795-5.828 1.595-6.377 5.585-.128.933-2.918 2.263-4.348 2.114-4.584-.477-5.046 1.445-2.654 4.392 1.891 2.329-.557 3.082-1.152 3.257-1.678.492-3.715.758-5.344.254-8.042-2.488-16.355-2.367-24.577-3.31-9.542-1.094-19.509-.856-28.478-4.894-2.807-1.265-2.822.258-1.88 1.231 1.84 1.901.48 2.803-.658 3.34-.784.371-2.356-.06-3.133-.684-4.2-3.374-3.373-4.799.928-8.304 6.273-5.113 12.165-2.099 18.238-.615 2.986.729 5.674 1.557 8.553-.574 2.422-1.792 5.052-1.138 8.036-.399 9.098 2.254 18.297 5.324 27.809 1.731 1.129-.426 2.59-.627 3.282-1.45 4.368-5.2 8.643-10.483 12.76-15.883 1.145-1.501 2.262-2.389 3.9-3.416 3.304-2.072 5.477-6.081 7.847-9.478 3.375-4.837 6.453-9.88 9.778-14.753.868-1.273 1.999-2.581 3.322-3.294 6.032-3.256 8.442-9.242 11.511-14.75.233-.418.231-1.036.552-1.325 1.782-1.602 3.709-4.464 5.436-4.362 2.355.14 1.79 3.635 2.559 5.68 1.783 4.735-.399 9.133-.154 13.664.095 1.754.249 3.527.642 5.23.149.648 1.043 1.125 1.598 1.679.294-.597.756-1.168.854-1.796.579-3.696.851-7.46 1.731-11.078.269-1.105 2.131-1.824 3.263-2.72.437 1.024 1.023 2.011 1.284 3.077 1.108 4.519 2.595 9.013 3.062 13.606.879 8.635 1.299 17.327 1.618 26.006.208 5.648.687 10.95 5.169 15.197 1.027.973 1.014 3.249 1.124 4.948.368 5.705.664 6.163 6.185 6.189 12.548.06 25.099-.131 37.644.091 5.281.093 10.567.831 15.813 1.552 3.094.425 4.322 3.944 2.146 6.352-2.957 3.271-6.07 6.479-9.522 9.198-2.748 2.164-4.938 4.451-2.842 7.667 1.561 2.394.414 3.425-1.014 4.388-8.157 5.498-16.331 10.979-24.663 16.204-2.411 1.513-5.444 1.995-8.047 3.25-3.931 1.895-8.944 1.452-11.761 5.991-.771 1.243-3.516 1.538-5.409 1.721-1.485.144-4.164-1.192-4.404-.774-1.667 2.9 2.146 1.82 2.603 3.155.4 1.168.165 2.563.166 3.857.008 9.411.098 18.824-.067 28.233-.038 2.144-1.297 4.257-1.407 6.414-.109 2.132-.277 3.697-2.885 3.116-2.08-.462-4.63-2.203-3.098-3.886 2.092-2.297-1.228-2.906-.476-4.495.264-.556-.523-1.61-.831-2.437-.215.695-.524 1.376-.631 2.087-.557 3.7-1.103 7.403-1.547 11.117-.081.676.331 1.411.515 2.119.555-.4 1.081-.85 1.67-1.19 1.05-.607 2.081-1.419 3.221-1.657 2.005-.419 3.326.788 2.049 2.522-5.802 7.883-4.133 16.908-4.407 25.667-.033 1.056-.78 2.09-1.197 3.134-1.153-.876-3.256-1.714-3.292-2.633-.148-3.803.347-7.63.567-11.45.061-1.055-.013-2.118-.025-3.178-.759.701-1.792 1.263-2.23 2.127-2.079 4.097-3.891 8.329-5.994 12.412-2.863 5.56-3.705 5.687-8.119 2.029-1.128-.936-2.347-1.984-3.701-2.388-7.904-2.359-10.136-9.01-12.006-15.805-2.395-8.704-4.499-17.488-6.72-26.24-1.442-5.678-3.118-11.312-4.215-17.057-.697-3.646-3.926-2.512-4.263-1.621-2.509 6.63-9.504 7.764-14.003 11.889-5.666 5.194-12.072 9.654-18.489 13.934-8.522 5.684-17.743 10.368-24.574 18.328-.561.654-2.045.534-2.574 1.195-1.298 1.62-2.168.72-2.756-.372-.266-.494.076-1.64.528-2.141 1.751-1.936 3.658-3.733 5.506-5.581.74-.74 1.381-1.967 2.235-2.138 5.07-1.018.913-8.548 6.099-8.842 4.048-.23 6.945-1.904 10.112-4.167 9.42-6.731 19.252-12.885 28.696-19.585 3.117-2.211 5.496-5.446 8.308-8.112.948-.899 2.625-2.352 3.221-2.054 1.86.928 4.18 2.25 4.867 3.993 3.865 9.798 7.492 19.6 8.232 30.404.385 5.622 3.221 11.12 5.234 16.57 1.169 3.162 2.366 6.566 4.479 9.079 6.388 7.597 11.598 6.588 15.106-2.732 2.797-7.435 6.088-14.816 4.777-23.139-.153-.968-.215-2.287.304-2.971 3.383-4.46 3.702-7.892-2.442-10.146-.568-.209-.695-3.122-.18-4.452a28.93 28.93 0 0 1 3.903-6.99c3.306-4.348 3.441-9.684 4.462-14.598.999-4.815 4.8-8.941 3.481-14.38-.189-.783 1.592-2.043 2.461-3.083.7 1.018 1.778 1.955 2.013 3.07.367 1.745-.159 3.69.269 5.407.979 3.926 2.694 4.205 5.969 1.662 3.318-2.577 6.874-4.849 10.717-6.862.877.431 1.362.469 1.847.507l-1.455-.899Zm-114.546-47.859c1.395.262 2.781.626 4.188.738.637.051 1.314-.4 1.973-.623-.801-.3-1.583-.763-2.408-.861-1.235-.147-2.501-.038-3.753-.823-3.5-.784-6.984-1.653-10.513-2.271-.582-.101-1.355.893-2.04 1.382.615.558 1.21 1.57 1.848 1.598 3.562.157 7.135.076 10.705.86Zm109.055 11.769c-.708-.185-1.41-.5-2.125-.532-3.689-.171-7.382-.269-11.074-.392 2.923.924 5.79 2.17 8.783 2.693 4.212.737 8.511 1.081 12.788 1.263.995.042 2.048-1.249 3.075-1.926-.94-.369-1.864-.992-2.824-1.056-2.342-.155-4.702-.05-8.623-.05Zm-22.753 76.103c1.641.261 3.276.574 4.926.746.382.04.814-.4 1.223-.619-.539-.304-1.056-.809-1.621-.871-1.235-.133-2.494-.041-4.528.744Zm-69.042-86.303c-1.123-.261-2.237-.595-3.374-.743-.368-.047-.8.395-1.202.612.525.306 1.018.756 1.583.879.706.154 1.47.037 2.993-.748Zm72.18 75.319.942.628c-.052-.471-.105-.942-.942-.628Zm54.92-47.074.942.628c-.053-.471-.105-.942-.942-.628Zm-47.074-32.952-.941-.628c.052.471.104.942.941.628Z" fill="#000"/><path d="M270.36 271.763a158.841 158.841 0 0 0 12.154-4.733c1.11-.483 2.355-1.079 3.011-2 .32-.447-.47-2.49-.936-2.556-2.05-.292-4.171-.02-6.254-.146-6.166-.375-9.316-3.941-9.584-10.119-.364-8.416-.951-16.823-1.595-25.222-.085-1.109-1.071-2.148-1.64-3.219-1.108.676-2.435 1.155-3.273 2.078-1.138 1.253-1.771 2.953-2.853 4.269-2.012 2.449-3.964 5.041-6.394 7.016-1.36 1.105-3.63 1.089-5.49 1.578 1.023-1.479 1.799-3.242 3.112-4.388 6.372-5.56 9.607-13.143 13.444-20.34.677-1.27.783-2.946 1.686-3.959.663-.744 2.214-.972 3.336-.901.47.03 1.374 1.581 1.198 2.181-2.559 8.728 2.572 16.856 1.831 25.533-.465 5.449 1.11 11.042 1.299 16.587.128 3.749 3.38 3.849 5.105 4.014 5.698.543 11.811 1.367 17.131-.145 4.675-1.329 9.074-.749 13.571-1.124 1.119-.093 2.336 1.003 3.508 1.553-1.008 1.019-1.851 2.606-3.054 2.957-4.459 1.301-9.106 1.966-13.544 3.32-2.976.907-5.814 2.411-8.539 3.955-2.149 1.218-4.117 2.804-6.012 4.408-2.444 2.068-7.804.357-7.836 4.859-.02 2.856 2.249 5.766 3.625 8.587 2.572 5.272 5.745 10.305 5.596 16.524-.03 1.257.579 2.529.894 3.794-1.938-.263-3.97-.257-5.78-.888-1.111-.387-1.915-1.718-2.801-2.678a11849.018 11849.018 0 0 1-18.3-19.861c-1.89-2.055-3.645-2.102-5.946-.315-8.471 6.581-17.051 13.026-25.695 19.38-.885.65-2.748.864-3.679.373-1.975-1.041-1.354-2.307-.345-4.312 2.888-5.736 5.951-11.332 10.212-16.105 1.939-2.172-.11-2.811-.943-3.313-3.106-1.871-6.247-4.08-9.68-4.932-7.253-1.801-11.984-7.556-18.315-10.725-1.532-.767-.796-.988.433-2.124 5.779-5.342 13.207-7.645 20.022-10.543 9.99-4.249 20.772-6.671 31.288-9.613 2.182-.61 4.685-.169 7.027-.013.42.027 1.091 1.043 1.068 1.579-.021.511-.708 1.275-1.253 1.442-12.057 3.716-24.224 7.103-36.17 11.146-5.325 1.802-9.959 5.726-16.137 4.661-.329-.057-.841.948-1.268 1.458.663.536 1.348 1.047 1.986 1.611 7.267 6.42 16.687 9.047 24.872 13.884 3.599 2.126 2.027 4.104 1.247 5.639-1.772 3.489-4.299 6.594-6.49 9.874-.333.498-.509 1.101-.758 1.655.708.033 1.68.379 2.076.044 1.591-1.346 2.936-2.978 4.496-4.366 3.994-3.556 8.04-7.054 12.094-10.543 2.974-2.559 6.618-2.163 10.112-1.966.753.042 1.488 1.346 2.136 2.145 2.217 2.731 4.327 5.55 6.598 8.234 3.453 4.083 6.988 8.098 10.554 12.084.282.315 1.073.175 1.628.247.02-.515.236-1.131.031-1.528-3.449-6.679-7.068-13.272-10.373-20.019-1.064-2.172-3.784-5.485 2.556-5.973ZM212.694 296.869c-3.681-3.028-6.891-6.148-10.279-9.061-4.608-3.962-7.12-10.288-13.628-12.101-2.902-6.787-10.235-10.031-12.966-17.339-2.771-7.419-7.519-14.094-11.332-21.132-.41-.758-.359-1.765-.522-2.656 1.229-.135 2.848-.828 3.61-.295 1.894 1.326 3.697 3.005 5.005 4.908 5.289 7.69 10.104 15.722 15.696 23.177 1.797 2.396 1.967 4.507 2.079 7.028.032.714.34 1.416.521 2.124.553-.393 1.128-.76 1.654-1.187.403-.327.726-.751 1.116-1.096 3.47-3.061 4.623-2.811 6.082 1.588 2.489 7.505 6.458 14.303 12.779 18.826 4.139 2.962 3.46 4.556.185 7.216Zm-31.775-40.013-1.454-.115c.485.3.97.6 1.454 1.684l.429 1.998 1.026-.314c-.485-.823-.97-1.646-1.455-3.253ZM211.91 296.869c-1.436 4.192-4.326 7.062-8.198 9.817-4.653 3.31-8.804 8.071-11.575 13.087-3.023 5.473-7.031 9.976-10.836 14.716-2.662 3.318-4.886 7.311-9.547 8.385-.692.159-1.743.208-2.135-.184-.392-.392-.422-1.505-.173-2.125 2.151-5.352 4.834-10.297 9.332-14.203 3.601-3.128 6.96-6.383 7.031-12.019.045-3.514 9.733-10.603 13.398-11.278 1.844-.34 3.57-1.449 5.285-2.334 2.373-1.226 4.686-2.569 7.418-3.862Z" fill="#000"/></svg>