<svg width="534" height="534" viewBox="0 0 534 534" fill="none" xmlns="http://www.w3.org/2000/svg"><path d="M283.794 157.792c8.632-18.701 20.485-34.202 32.748-49.219 12.153-14.884 28.082-25.609 45.486-33.635 5.157-2.379 9.003-4.888 11.442-9.98 2.123-4.432 8.564-6.553 11.945-3.573 3.238 2.854 7.156 6.777 7.452 10.494.209 2.62-5.032 5.802-8.078 8.462-.802.7-2.829.973-3.711.455-7.868-4.63-14.867-.248-20.973 3.103-26.79 14.704-46.66 36.019-60.883 63.293-6.759 12.96-13.227 25.861-18.758 39.403-4.812 11.786-6.254 24.283-10.104 36.211-1.819 5.635-3.12 11.444-4.477 17.216-.203.864.3 2.387.98 2.822.644.412 2.403.17 2.895-.425 9.513-11.52 23.694-13.11 36.575-14.292 7.708-.708 15.371-.804 23.035-2.755 2.75-.7 6.13 1.144 9.238 1.749 4.513.878 9.089 1.484 13.55 2.565 10.331 2.502 18.351 8.892 23.607 17.595 6.784 11.229 14.225 22.371 16.577 35.748.425 2.415 1.458 4.776 1.549 7.188.714 18.861-2.095 37.159-6.207 55.663-3.732 16.791-8.217 33.127-13.729 49.379-3.711 10.941-10.259 19.885-16.6 29.022-5.739 8.27-12.059 16.278-19.036 23.526-18.35 19.061-40.201 30.035-67.551 26.552-3.843-.489-7.688-2.331-11.42-2.053-13.315.994-25.067-3.927-36.918-8.693-12.321-4.955-22.494-12.906-32.991-21.021-15.837-12.241-25.807-28.686-36.545-44.519-5.466-8.058-8.59-18.351-10.39-28.073-2.179-11.77-2.866-24.051-2.328-36.027.679-15.102 2.635-30.332 10.225-43.912 3.096-5.539 6.911-10.806 11.103-15.58 8.732-9.945 17.146-20.614 29.13-26.733 11.487-5.864 22.84-12.508 36.853-11.606 6.98.448 13.153 2.662 19.352 5.019 8.357 3.176 9.996 3.391 11.268-5.265 1.649-11.223 9.139-20.969 7.704-32.797 7.195-14.241 8.57-30.845 17.985-45.307Zm87.676 102.166c-2.345-9.567-9.368-15.007-17.561-19.022-14.01-6.863-29.17-8.132-44.323-6.614-14.518 1.453-28.188 5.869-39.215 16.431-4.109 3.936-6.136 6.852-.584 11.198 1.642 1.285 2.333 4.287 2.69 6.619 1.671 10.944 3.139 21.921 4.525 32.906.325 2.576.646 5.44-.179 7.765-.488 1.375-2.455 5.454-5.3 1.321-1.195-1.737-3.358-3.568-3.293-5.288.37-9.84-3.452-18.938-4.534-28.447-1.743-15.316-16.454-30.116-31.658-31.53-20.382-1.896-37.113 5.806-51.529 19.222-5.836 5.431-12.429 11.244-15.349 18.265-2.89 6.947-6.59 12.945-10.814 18.885-.214.3-.706.5-.761.803-1.583 8.7-3.41 17.37-4.565 26.128-.63 4.777.339 9.757-.207 14.556-1.102 9.673.266 21.893 3.773 32.536 8.223 24.95 23.101 45.882 42.912 62.842 8.102 6.936 17.237 12.814 27.545 17.258 18.354 7.913 37.654 9.872 56.884 11.491 14.286 1.202 27.8-4.411 39.053-13.606 8.76-7.157 17.053-14.927 25.127-22.859 4.34-4.264 8.938-8.914 11.395-14.31 5.864-12.875 10.857-26.179 15.563-39.534 3.37-9.564 6.275-19.244 7.4-29.551 1.096-10.038 5.265-19.758 6.203-29.793.916-9.797-.254-19.839-1.049-29.731-.805-10.011-6.984-18.021-12.149-27.941Z" fill="#000"/></svg>