<svg width="534" height="534" viewBox="0 0 534 534" fill="none" xmlns="http://www.w3.org/2000/svg"><path d="M291.178 339.922c8.477 9.326 8.229 31.934 28.112 18.193.152-.105 4.408 4.511 4.033 5.058-4.802 7.002-13.515 12.023-10.557 22.68-3.705-.11-9.41 1.263-10.774-.581-6.479-8.761-11.576-18.531-17.623-27.637-1.701-2.562-4.956-4.091-7.498-6.094-.629 2.438-1.522 4.842-1.844 7.32-1.887 14.537-3.454 29.119-5.609 43.615-.405 2.728-2.521 5.754-4.762 7.389-.933.681-5.101-1.339-6.345-3.137-4.705-6.806-9.312-10.798-4.605-22.967 9.057-23.411 22.524-48.671 5.426-75.562-6.31-9.924-9.071-15.738-20.565-5.232-23.839 21.793-48.946 42.193-73.46 63.251-3.401 2.922-5.988 6.977-9.713 9.264-2.264 1.39-5.99.392-9.06.467.031-2.436-.919-5.595.254-7.189 6.655-9.044 13.136-18.381 20.938-26.385 21.809-22.375 43.186-45.357 73.093-57.765 3.47-1.44 4.696-8.296 6.961-12.64-4.867-.256-10.956-2.524-14.398-.431-18.421 11.2-38.553 8.776-58.383 8.739-2.595-.005-5.186-2.853-7.778-4.384 2.053-2.071 3.786-5.384 6.212-6.011 15.486-3.998 31.319-6.73 46.661-11.179 19.351-5.611 18.786-5.879 7.204-23.633-11.948-18.316-23.131-37.14-34.276-55.963-1.834-3.097-1.752-7.331-2.555-11.039 3.705 1.21 8.596 1.329 10.893 3.833 6.968 7.598 13.713 15.635 19.117 24.385 10.116 16.379 19.009 33.511 28.986 49.982 1.531 2.528 8.051 5.209 8.947 4.351 2.812-2.694 6.49-7.949 5.507-10.613-10.892-29.5-2.604-59.882-4.473-89.735-.426-6.802 4.11-14.408 7.862-20.756 1.736-2.938 7.074-3.744 10.779-5.516-.24 3.708-.498 7.416-.719 11.125-.735 12.294-1.89 24.582-2.086 36.885-.344 21.587-.277 43.186.074 64.772.062 3.781 2.357 7.526 3.62 11.287 2.963-1.529 6.663-2.384 8.77-4.695 14.21-15.586 28.165-31.41 41.945-47.38 1.488-1.724 1.328-4.872 1.932-7.359-2.41.692-5.374.742-7.098 2.23-2.518 2.174-3.769 5.803-6.26 8.027-2.483 2.219-5.829 3.47-8.797 5.146-.629-4.236-3.27-9.869-1.492-12.434 4.537-6.547 10.269-12.971 16.955-17.146 9.083-5.671 19.389-9.478 29.414-13.472 2.701-1.076 6.284.062 9.462.184-.444 2.545-.133 5.599-1.45 7.555-11.87 17.623-24.156 34.966-35.942 52.645-1.537 2.305-.935 6.039-1.324 9.111 3.069-.352 6.297-.209 9.182-1.137 17.188-5.527 34.072-4.887 50.374 2.77 2.02.95 2.41 5.379 3.555 8.196-2.372.785-5.178 2.822-7.051 2.171-36.142-12.57-65.833 3.283-94.229 22.22-5.76 3.84-12.219 14.076-10.942 19.669 4.065 17.797 1.604 37.881 15.4 55.552Z" fill="#000"/></svg>