<svg width="534" height="534" viewBox="0 0 534 534" fill="none" xmlns="http://www.w3.org/2000/svg"><path d="M335.226 402.419c-27.981 11.065-53.532 22.212-80.215 28.609-19.411 4.652-39.664 1.389-56.357-13.162-19.285-16.81-45.129-23.569-60.594-47.48-29.047-44.911-29.733-91.638-13.022-138.83 12.767-36.054 38.572-65.298 62.719-94.706 3.647-4.441 9.819-7.234 15.328-9.616 20.922-9.046 44.175-9.024 64.97-22.2 13.107-8.305 35.58-3.213 48.678 10.023 24.484 24.743 54.163 45.74 63.667 82.616 1.708 6.628 8.824 11.906 13.599 17.677 32.704 39.516 38.219 100.264-4.766 133.613-19.14 14.849-34.814 34.198-54.007 53.456ZM173.727 189.594c-9.08 14.397-18.968 28.353-27.071 43.284-16.504 30.405-21.115 61.464-8.399 95.505 14.24 38.12 43.863 63.923 76.719 77.761 28.311 11.924 63.239 2.184 93.017-14.911 32.821-18.842 55.808-47.776 80.832-74.51 14.995-16.019 20.347-34.8 7.122-56.991-17.212-28.886-30.076-60.389-47.423-89.183-30.135-50.023-68.259-56.958-116.926-23.331-18.175 12.558-35.997 25.633-57.871 42.376Z" fill="#000"/><path d="M249.615 191.547c45.405-1.817 72.335 27.289 97.672 56.266 11.505 13.158-3.651 56.2-25.199 73.16-16.846 13.258-36.669 23.238-56.235 32.377-50.379 23.532-83.922-19.014-95.736-53.635-1.98-5.802-2.681-14.262.118-19.122 15.898-27.601 25.874-59.638 53.869-78.616 6.699-4.542 15.65-5.742 25.511-10.43Zm48.644 37.098c-51.83-21.778-61.423-19.667-93.062 23.487-6.974 9.514-11.202 21.087-16.443 31.834-1.557 3.192-3.575 6.982-3.143 10.196 3.882 28.898 44.203 51.336 70.913 38.4 19.39-9.39 38.819-19.752 55.794-32.858 24.84-19.177 24.591-31.873 3.475-53.453-4.507-4.606-9.093-9.137-17.534-17.606Z" fill="#000"/></svg>