<svg width="534" height="534" viewBox="0 0 534 534" fill="none" xmlns="http://www.w3.org/2000/svg"><path d="M329.301 365.767c-7.02-7.185-13.413-14.313-20.075-21.181-1.101-1.136-3.733-2.029-5.037-1.501-4.599 1.862-9.705.897-14.284 3.861-4.69 3.036-10.539 4.282-15.882 6.307-.694.263-1.435.428-2.09.764-9.602 4.918-19.09 10.074-28.834 14.689-4.166 1.972-8.826 2.964-13.337 4.102-1.275.322-2.817-.413-4.236-.663.39-1.574.41-3.378 1.227-4.685 7.565-12.106 13.61-24.873 17.602-38.61 3.756-12.926 7.693-25.799 11.486-38.715 1.314-4.476 2.162-9.106 3.731-13.483 1.109-3.093.439-5.418-1.223-7.951-1.864-2.84-3.563-5.806-5.118-8.828-4.217-8.198-9.104-16.165-12.279-24.758-4.35-11.772-9.526-23.021-16.054-33.693-.41-.67-1.056-1.333-1.124-2.044-.138-1.452-.282-3.074.257-4.335.211-.495 2.45-.656 3.419-.213 9.451 4.32 19.094 8.324 28.145 13.38 7.792 4.351 14.497 10.702 22.395 14.795 8.12 4.209 15.873 9.507 25.034 11.503 1.911.416 3.939.485 5.898.397.804-.036 2.047-.745 2.285-1.428 5.864-16.838 12.732-33.25 20.155-49.46 5.508-12.029 10.41-24.334 15.624-36.498.573-1.338 1.248-2.725 2.223-3.761.552-.587 2.46-.943 2.652-.658 1.667 2.471 4.239 5.051 4.376 7.71.698 13.573.447 27.191 1.926 40.734.96 8.797-1.236 17.305-2.319 25.92-.681 5.418-1.566 10.873-1.526 16.305.05 6.818 2.701 8.879 9.567 10.302 3.923.813 7.618 2.714 11.426 4.094 4.3 1.557 8.633 3.021 12.913 4.629 6.61 2.482 13.144 5.169 19.794 7.536 3.441 1.224 7.035 2.064 10.612 2.836 1.504.325 4.01-1.171 4.059 1.517.043 2.295-.63 4.952-1.908 6.816-1.069 1.558-3.399 2.372-5.305 3.205-2.954 1.291-6.239 1.943-9.004 3.528-8.592 4.928-17.498 8.981-26.969 11.975-5.022 1.589-9.64 4.415-14.554 6.403-3.479 1.407-4.633 4.333-4.56 7.373.21 8.639.42 17.163-1.162 25.797-1.791 9.78-2.341 19.784-3.535 29.678-.722 5.976-1.965 11.909-2.309 17.899-.13 2.264 1.776 4.589 2.43 6.975.375 1.363.097 2.904.113 4.365-1.148-.281-2.312-.514-3.44-.86-.815-.251-1.655-1.047-2.36-.918-2.784.509-2.906-.944-3.994-3.142-1.517-3.063-5.163-5.011-7.636-7.678-3.027-3.265-5.784-6.781-9.195-10.332Zm-78.407-31.357c-3.544 7.919-5.768 16.43-10.836 23.684-.699 1.001-.157 2.87-.19 4.338.994-.763 1.965-1.557 2.987-2.279 1.048-.738 2.067-1.601 3.234-2.072 6.467-2.608 13.048-4.941 19.451-7.693 9.507-4.085 18.832-8.6 28.376-12.592 3.079-1.288 6.591-1.577 9.928-2.198 3.638-.677 5.956.717 8.214 3.896 3.697 5.208 8.078 9.979 12.516 14.603 6.41 6.678 13.14 13.048 19.709 19.575 2.291 2.277 3.787 2.105 4.368-.968a434.389 434.389 0 0 0 3.535-21.672c1.455-10.642 3.071-21.287 3.862-31.987.499-6.737-.257-13.585-.693-20.368-.263-4.088 1.039-7.824 5.003-8.123 3.165-.239 5.083-2.275 7.697-2.843 6.938-1.506 12.571-5.935 19.379-7.982 7.475-2.247 14.295-6.685 21.367-10.235.57-.287.883-1.088 1.315-1.65l-1.517-.407c-1.516-.406-3.113-.629-4.538-1.247-14.021-6.084-28.134-11.879-43.185-15.003-3.596-.746-7.79-.74-10.587-2.69-3.831-2.672-.926-7.522-1.175-11.338-.542-8.333-.666-16.718 1.09-25.082 1.045-4.981.693-10.27.819-15.424.149-6.102.272-12.211.149-18.312-.089-4.351-.468-8.711-1.005-13.032-.162-1.307-1.282-2.495-1.964-3.738-.923 1.031-2.159 1.916-2.717 3.117-2.725 5.868-5.374 11.776-7.852 17.753-3.558 8.58-6.525 17.432-10.517 25.8-4.44 9.306-7.338 19.034-9.947 28.918-.417 1.58 2.049 5.383-2.748 3.885-2.31-.721-1.574 3.718-5.188 2.32-7.719-2.987-16.312-3.695-22.8-9.733-1.381-1.286-3.536-1.713-5.271-2.653-9.205-4.984-18.848-9.403-26.658-16.469-4.796-4.34-10.542-6.286-16.161-8.72-1.565-.678-3.438-.199-2.384 2.136 4.794 10.619 9.413 21.339 14.74 31.69 4.904 9.529 10.632 18.635 15.997 27.927 2.76 4.781 2.736 4.772.425 10.677a18.748 18.748 0 0 0-1.014 3.788c-.484 2.97-.306 6.171-1.368 8.901-3.553 9.131-7.03 18.204-8.686 27.969-.84 4.953-3.2 9.649-5.16 15.533ZM168.084 276.578c-8.854 1.385-14.584 6.47-19.1 13.275-.976 1.472-10.508 7.404-12.394 8.219-1.897.82-3.576 2.141-5.468 2.978-3.413 1.511-6.985 4.101-10.361 3.912-4.761-.266-6.754.922-7.256 5.459-.066.59-1.371 1.043-2.103 1.56-.003-.638.03-1.278-.016-1.913-.103-1.444-.583-2.957-.295-4.312.493-2.324.411-5.172 4.046-5.454 14.911-1.156 25.846-9.228 35.378-20.079 5.714-6.504 13.452-9.646 22.038-9.238 11.702.556 23.074.326 33.591-5.816 1.111-.649 3.049.118 4.603.227-.756 1.243-1.229 2.872-2.314 3.669-9.267 6.805-20.132 7.43-31.052 7.691-2.918.07-5.841-.019-9.297-.178ZM135.387 338.528c11.33-6.542 22.05-12.573 32.599-18.892 4.854-2.907 9.948-4.136 15.529-4.507 7.66-.511 15.347-1.431 21.843-6.157 2.395-1.742 4.523-3.848 6.857-5.681.519-.408 1.392-.364 2.102-.528-.119.709-.199 1.427-.361 2.126-1.759 7.604-8.189 10.266-14.376 12.141-6.656 2.018-13.786 2.457-20.696 3.664-1.913.334-4.089.485-5.61 1.512-6.559 4.426-14.241 6.917-19.988 12.922-2.708 2.828-7.829 3.197-11.511 5.289-2.989 1.698-6.95 2.362-8.372 6.376-.134.379-2.314.144-3.493-.078-.177-.033-.095-1.568-.092-2.408.011-3.257 2.726-4.074 5.569-5.779ZM171.553 366.615c-7.539 9.148-15.156 16.702-26.679 19.188-2.916.629-5.436 3.034-8.19 4.526-.549.297-1.336.156-2.013.217.203-.757.215-2.034.638-2.189 3.813-1.397 4.679-5.83 9.714-7.039 7.067-1.697 13.888-6.394 18.46-12.762 6.022-8.388 14.542-11.892 24.216-12.948 4.601-.502 9.109-.214 13.686-2.008 2.115-.83 3.658-.898 5.2-3.11 1.49-2.136 4.589-3.252 7.137-4.498 1.058-.518 2.519-.213 3.797-.282-.401 1.376-.433 3.048-1.262 4.082-6.404 7.994-15.648 10.094-25.052 10.739-6.919.475-13.147 2.121-19.652 6.084Z" fill="#000"/></svg>