<svg width="534" height="534" viewBox="0 0 534 534" fill="none" xmlns="http://www.w3.org/2000/svg"><path d="M227.032 297.833c-7.547 10.968-9.034 24.324-3.169 31.841.358.458 4.913-.938 5.477-2.31 2.969-7.223 5.163-14.762 7.916-22.081.597-1.587 2.384-2.724 3.622-4.068 1.013 2.133 3.15 4.48 2.795 6.355-.658 3.481-2.822 6.664-4.269 10.01-11.271 26.057-27.406 49.454-40.553 74.482-2.172 4.135-3.366 8.805-5.692 12.834-2.279 3.947-.319 13.375-10.826 8.604-1.404-.637-7 8.236-10.803 12.573-4.099 4.675-8.371 9.195-12.567 13.783-.948-6.145-2.342-12.259-2.761-18.439-1.41-20.777 4.901-40.384 9.144-60.373 3.628-17.096 5.083-34.543 10.75-51.355 4.308-12.783-4.818-22.793-11.877-31.919-5.213-6.739-13.119-11.378-19.767-17.021-1.711-1.453-3.817-2.89-4.68-4.812-2.795-6.227-14.956 4.277-14.283-8.53.298-5.657-2.095-11.437-3.116-17.188-1.51-8.503 1.542-11.82 9.65-13.675 18.553-4.244 37.318-2.802 56.032-3.394 8.565-.271 17.786-.479 25.387-3.774 5.636-2.442 11.853-9.256 13.063-15.107 3.165-15.307 10.769-28.373 17.547-41.849 9.246-18.381 14.994-37.853 20.111-57.607.531-2.05.542-4.3 1.403-6.178.662-1.44 2.282-2.44 3.476-3.635.63 1.296 1.164 2.65 1.903 3.88 8.465 14.083 12.662 29.641 17.223 45.315 5.366 18.441 13.319 36.135 20.385 54.059.742 1.881 3.069 3.134 4.661 4.679-.117-2.323-.535-4.681-.267-6.957.26-2.203 1.198-4.332 1.894-6.475.321-.988.776-1.931 1.171-2.895.731 1.05 1.865 2.007 2.13 3.164 2.36 10.313 4.342 20.719 6.996 30.952.566 2.184 3.407 3.777 5.199 5.642.459-2.064 1.792-4.416 1.225-6.143-2.598-7.927 5.055-7.532 8.296-9.719 5.529-3.731 12.638-5.114 18.169-8.842 5.05-3.405 2.966 1.6 4.224 2.255 3.087 1.605 7.243 3.01 10.416 2.234 9.095-2.224 17.831-5.889 26.89-8.304 3.156-.841 7.975-.93 9.979.898 2.123 1.936 2.667 6.628 2.402 9.998-1.411 18.001-12.291 30.278-24.78 42.178-22.175 21.129-43.677 42.994-59.765 69.483-1.23 2.026-4.213 3.15-6.58 4.273-2.366 1.123-6.626 7.091-6.081-1.959.156-2.583-.854-5.236-1.329-7.857l-4.776 1.981c1.901-3.659-6.434-5.778-1.004-10.884 2.893-2.72 2.63-8.821 3.663-13.424.024-.105-1.989-1.015-2.209-.775-3.612 3.946-9.115 6.621-7.841 13.668 1.695 9.371-4.045 20.388 6.591 27.86 1.076.756 1.182 5.332.088 6.345-6.161 5.695-2.428 12.743-3.111 19.073-1.595 14.77-1.023 28.725 17.075 33.699 6.441 1.77.118 4.711-.245 4.748-3.408.349-7.339 1.242-10.223-.041-7.983-3.553-9.534-3.25-10.024 4.775-.342 5.614.131 11.277-.153 16.898-.131 2.576-.701 5.416-2.018 7.551-.968 1.57-3.473 2.19-5.292 3.234-.911-1.673-2.247-3.246-2.663-5.033-2.395-10.304-4.629-20.648-6.777-31.006-.443-2.137.437-4.824-.552-6.52-3.013-5.169-6.64-9.978-10.027-14.927-8.226 5.295 4.755 10.026-.442 16.062-2.533 2.102-4.292 3.281-5.822 4.707-.201.187.777 1.642 1.209 2.509 1.478-1.218 3.062-2.333 4.387-3.701.617-.637.729-1.764 1.07-2.669 5.648 10.423 6.978 21.741 6.718 33.339-.111 4.969-1.378 10.436 6.873 9.193.38-.058 1.839 3.009 1.742 4.555-.376 5.938-.956 11.887-1.942 17.75-.366 2.174-2.064 4.123-3.154 6.174-2.162-1.566-6.125-3.054-6.196-4.709-.515-12.034-7.722-21.709-10.749-32.774-7.331-26.797-14.426-53.658-21.62-80.492-.678-2.53-1.769-5.029-1.936-7.591-.132-2.002.872-4.078 1.371-6.122 1.919.668 4.237.867 5.677 2.096 3.4 2.906 5.125 7.922 6.828-1.774 1.783-10.147 1.804-19.102.593-29.481-1.47-12.595-8.439-25.35-1.747-39.577 3.681-7.827.517-18.822.803-28.378.046-1.536 2.003-3.015 3.076-4.52 1.178 1.401 3.482 2.912 3.358 4.187-1.159 11.908.861 23.664-2.367 35.967-2.663 10.147 1.93 22.239 3.493 33.443.508 3.64 1.64 7.19 2.41 10.798.445 2.082.737 4.198 1.099 6.298 1.19-1.915 2.75-3.699 3.483-5.776 1.046-2.963 2.5-6.314 2.005-9.194-1.788-10.397-4.999-20.584-6.275-31.021-.603-4.948 2.741-10.253 2.934-15.447.605-16.278-2.421-32.061-6.149-47.939-1.878-8.001-2.018-17.169 2.754-25.586 6.46-11.394 7.271-23.516 5.987-36.978-.945-9.907 1.122-20.278-2.493-30.17-.406-1.112-1.468-1.984-2.226-2.967-.368.972-1.107 1.973-1.036 2.912.246 3.214.648 6.432 1.28 9.591.187.937 2.074 2.229 1.922 2.438-7.79 10.709-1.356 23.054-4.013 34.369-2.426 10.328-4.195 20.82-5.961 31.29-1.429 8.468-.263 18.171-4.07 25.272-7.536 14.055-5.928 28.543-5.999 43.093-.038 7.829-.676 15.086-6.551 20.98-1.479 1.484-3.572 3.49-3.514 5.192.416 12.011-6.702 20.892-12.838 30.548-.845-2.818-.845-5.636 0-9.299 4.015-10.785 7.154-20.733 10.367-30.659 3.306-10.218 6.754-20.409 5.622-31.403-.1-.966-.911-1.858-1.391-2.784-.645.692-1.615 1.277-1.886 2.094-3.452 10.391-5.828 21.276-10.448 31.106-4.818 10.251-2.093 20.564-3.109 30.8Zm77.666-99.754-3.129-.247c1.043.646 2.086 1.292 3.129 3.629l3.13.248c-1.044-.646-2.086-1.293-3.13-3.63Zm55.717 38.888-.247 3.133c.645-1.044 1.29-2.089 3.624-3.133l.247-3.134c-.645 1.044-1.29 2.089-3.624 3.134Zm-69.224-21.98-.922-4.305-2.207.676c1.043 1.773 2.086 3.546 3.129 7.01 0 8.286-.079 16.572.088 24.854.024 1.218 1.218 2.412 1.872 3.617.39-.39 1.152-.82 1.116-1.165-1.011-9.667 3.788-19.963-3.076-30.687Zm-8.442 55.794c7.322-5.22 7.041-13.242 3.84-19.308-5.973-11.317-5.048-23.028-5.641-34.895-.624-12.507-2.095-24.973-3.367-37.44-.08-.775-2.144-2.158-2.446-1.961-1.385.898-3.557 2.318-3.496 3.443.68 12.421-.236 25.387 3.128 37.096 5.048 17.569.637 35.857 4.605 53.065l-.247 3.134c.645-1.045 1.29-2.089 3.624-3.134Zm-91.172 23.671c.562 4.27 2.401 8.845 1.468 12.759-4.159 17.457-6.758 35.019-6.586 52.988.025 2.665-.719 5.332-.987 8.009-.811 8.12-1.671 16.239-2.204 24.378-.068 1.042 1.689 2.204 2.601 3.31 1.34-1.24 3.607-2.316 3.861-3.749 1.221-6.896.675-14.34 3.035-20.748 4.363-11.845 7.791-23.838 11.264-35.931 2.634-9.175 1.615-15.718-1.664-23.973-2.802-7.053-10.414-14.561-2.564-23.447.899-1.017-.71-6.465-1.985-6.812-5.385-1.468-4.084 3.022-4.682 6.147-.474 2.472-2.12 4.721-4.935 7.069l-1.35 5.41 2.206.495c.278-1.968.555-3.937 2.522-5.905Zm205.983-74.393c1.186-2.315 3.052-4.536 3.392-6.97.451-3.225.805-8.751-.726-9.539-4.71-2.427-7.025.877-8.938 5.623-3.841 9.531-9.96 17.566-17.467 24.868-6.92 6.731-12.38 14.97-18.467 22.558-1.855 2.313-3.655 4.67-5.481 7.007-1.551-2.726-3.209-5.398-4.608-8.2-.688-1.377-.897-2.994-1.322-4.502-1.587 1.314-3.738 2.336-4.605 4.02-.924 1.794-1.208 4.341-.772 6.34 1.952 8.944-3.14 14.234-8.652 20.163-4.554 4.899-7.498 11.365-10.689 17.385-.428.808 1.807 3.132 3.03 4.565.127.149 2.037-.782 2.664-1.573 22.191-27.984 45.036-55.382 72.641-81.745Zm-153.644-55.794c-1.125 6.252-2.697 12.464-3.271 18.767-.831 9.123 1.507 17.539-8.903 25.103-8.91 6.475-4.361 20.396-4.557 31.142-.026 1.465 2.014 2.967 3.098 4.453 1.167-1.401 3.148-2.68 3.378-4.221 2.641-17.682 17.477-32.117 13.745-51.516-.121-.628 1.975-1.49 2.12-2.391 1.612-10.004 3.158-20.023 4.42-30.076.247-1.965-.803-4.092-1.255-6.144-1.799 1.831-4.1 3.394-5.259 5.567-1.19 2.231-1.265 5.058-3.516 9.316ZM205.083 267.4c1.689-1.457 4.708-2.803 4.84-4.39.632-7.595-1.336-15.489 6.698-21.157 2.401-1.694 2.737-6.604 3.538-10.15.303-1.342-.753-2.992-1.189-4.501-.796.543-1.683.992-2.371 1.649-2.037 1.942-5.164 3.659-5.781 6.013-2.559 9.745-5.742 14.528-15.785 6.154-2.687-2.241-9.041.531-12.996-.935-5.324-1.976-14.08 6.413-16.135-5.156-1.01.377-2.771.57-2.915 1.16-1.933 7.907 5.578 15.209 13.16 12.949 13.397-3.994 22.2-2.369 26.245 5.805 1.664 3.363 4.132 8.791-3.882 9.365-1.835.131-3.501 2.615-5.245 4.017 1.387 1.678 2.933 4.837 4.126 4.709 2.114-.227 4.015-2.452 7.692-5.532Zm1.689 21.98c-4.225 5.824-2.385 11.688.057 17.449.704 1.661 2.102 3.028 3.181 4.53 1.172-1.409 3.431-2.899 3.335-4.216-.537-7.343 3.343-13.296 5.098-19.872 3.168-11.873 3.656-24.467 5.147-36.773.109-.902-.723-1.918-1.117-2.881-1.193.857-2.945 1.465-3.462 2.624-1.055 2.366-.957 5.302-2.196 7.521-4.549 8.143.856 21.678-13.218 24.652 1.058 1.194 2.117 2.389 3.175 6.966Zm-32.08 79.464c-1.114 0-3.161-.2-3.21.029-2.974 13.858-5.879 27.733-8.48 41.665-.305 1.637 1.15 3.603 1.79 5.417 1.576-1.578 4.2-2.948 4.562-4.769 2.68-13.485 9.62-26.264 5.338-42.342Zm163.774-140.331-8.003-8.454c-1.834 3.089-3.771 6.124-5.47 9.286-1.321 2.458-2.346 5.075-3.502 7.622-1.096-2.608-1.966-5.348-3.385-7.764-.657-1.119-2.435-2.275-3.611-2.185-1.079.083-2.72 1.693-2.927 2.843-.998 5.541 4.896 13.071 11.188 13.745 4.746.508 10.629 1.648 9.242-7.114-.285-1.798 3.091-4.177 6.468-7.979Zm-170.527 28.742-6.951-3.183c-.497 1.482-1.884 3.675-1.356 4.34 6.447 8.1 13.139 16.008 19.947 23.81.322.369 3.426-1.001 3.397-1.124-.967-4.068-1.601-8.367-3.463-12.031-2.152-4.233-5.416-7.899-11.574-11.812Zm190.788-42.268 13.08-10.572c-6.392-4.232-10.681 1.847-15.892 3.331-.937.267-1.555 1.515-2.434 2.153-3.471 2.519-10.998-4.964-11.041 4.342-.003.793 8.422 1.633 12.936 2.424.539.094 1.107.013 3.351-1.678ZM205.083 368.844c3.887-7.274 8.85-14.207 11.291-21.938 1.693-5.362-.087-11.824-.317-17.794-1.969 4.728-4.269 9.35-5.833 14.209-2.531 7.862-4.578 15.88-5.141 25.523Zm104.68-104.826c.563-4.219 2.011-8.566 1.431-12.622-.541-3.785-3.235-7.261-4.982-10.873-1.63 3.777-3.496 7.474-4.791 11.363-.648 1.946 4.133 10.943 8.342 12.132Zm-52.34 79.465 4.604 18.137c.717-6.077 1.596-12.141 2.091-18.236.315-3.872.258-7.808-.059-11.679-.099-1.205-1.595-2.295-2.452-3.438-1.394 1.16-3.646 2.108-3.998 3.528-.649 2.623-.186 5.523-.186 11.688Zm-99.615-120.042c-2.732 0-5.589-.515-8.169.113-4.6 1.119-10.794-3.751-13.78 3.522 4.754 1.043 9.532 2.956 14.252 2.822 3.171-.089 6.26-3.076 7.697-6.457Zm133.383-18.599c0-7.137.188-14.284-.164-21.404-.068-1.373-2.253-2.641-3.461-3.957-1.043 1.482-3.171 3.155-2.951 4.415 1.331 7.598 3.199 15.102 6.576 20.946Zm-16.884 111.589-2.596-5.072c-1.386 1.17-4.071 2.532-3.932 3.477.599 4.065 2.476 7.945 3.044 12.011.824 5.899.919 11.899 1.325 17.856.72-6.069 1.507-12.132 2.123-18.212.223-2.204.036-4.451.036-10.06Zm-82.731-86.228c5.966-.337 11.967-.409 17.868-1.217 1.322-.181 3.475-3.277 3.146-4.431-.48-1.684-3.39-4.3-4.344-3.956-6.257 2.253-12.267 5.196-16.67 9.604Zm-32.079 18.599c-.048-8.655-8.389-8.239-13.112-11.66-1.267-.917-4.084.312-6.19.556 1.311 1.952 2.201 4.572 4.018 5.725 4.297 2.727 9.036 4.758 15.284 5.379Zm128.317 67.629c0 2.765-.088 5.533.048 8.291.048.977.642 1.927.987 2.89.781-.346 2.141-.559 2.253-1.056 1.266-5.583 2.421-11.197 3.276-16.852.055-.364-3.439-1.983-3.86-1.569-1.277 1.256-1.854 3.224-2.704 8.296Zm60.782-84.536c3.236-.564 6.894-.376 9.594-1.895 2.899-1.632 7.406-5.97 6.86-7.215-2.51-5.73-4.75 4.019-8.696 1.002-.876-.67-5.084 3.035-7.758 8.108Zm-27.014 37.196c.384.384.717.863 1.172 1.12.28.158.985.12 1.098-.069 1.563-2.608 3.313-5.148 4.489-7.929 1.051-2.484 1.45-5.246 2.136-7.885-2.635 1.209-5.985 1.811-7.685 3.816-1.411 1.665-.88 4.981-1.21 10.947Zm-20.261 10.144c-1.064-3.32-2.005-6.691-3.323-9.907-.203-.494-2.147-.272-3.285-.382 1.605 4.007-4.637 11.247 6.608 10.289Zm0-71.011c0 1.121-.435 2.529.08 3.31 1.763 2.679 3.86 5.137 5.829 7.68-.219-3.038-.103-6.158-.805-9.079-.336-1.394-2.228-2.413-5.104-1.911Zm-18.572 147.094c4.311-2.678 5.39-5.886 1.702-9.961-.837-.926-1.5-2.011-2.243-3.022-.382 3.204-.775 6.406-1.139 9.612-.063.554-.008 1.12 1.68 3.371Zm-106.368-21.979c0 1.108-.135 2.236.032 3.318.236 1.531.695 3.027 1.059 4.538.762-.394 2.218-.873 2.182-1.168-.603-4.875-1.393-9.727-2.141-14.585-.377.951-.819 1.883-1.105 2.861-.15.51-.027 1.1-.027 5.036Zm-1.689 11.835c-.562 4.113-1.289 8.213-1.597 12.345-.103 1.39.855 2.86 1.329 4.293.652-1.723 1.703-3.408 1.87-5.177.305-3.231.087-6.511-1.602-11.461Zm108.057-57.485c-.384 1.869-1.538 4.04-.956 5.531.707 1.81 2.877 3.047 4.415 4.531.536-1.954 1.417-3.897 1.488-5.868.05-1.377-1.007-2.795-4.947-4.194Zm16.884 94.681c-.016-2.254.007-4.512-.187-6.751-.008-.094-2.994-.094-3.003 0-.195 2.239-.171 4.497 3.19 6.751Zm-21.949-224.868 1.962 11.561c.289-4.037.609-8.072.814-12.113.018-.36-.708-.758-2.776.552Zm8.442 201.198c-.563 2.42-1.282 4.82-1.599 7.272-.102.794.848 1.723 1.317 2.59.657-1.131 1.627-2.195 1.891-3.412.33-1.52.079-3.167-1.609-6.45Zm-94.55-98.063.257-6.505-5.249 1.505 4.992 5Zm-15.195-38.887c-2.417-.564-4.814-1.283-7.262-1.601-.792-.103-1.721.849-2.587 1.319 1.13.657 2.192 1.628 3.408 1.893 1.518.331 3.163.08 6.441-1.611Zm200.918-8.454-4.269.894c.198.73.521 2.107.576 2.096 1.81-.351 3.594-.835 3.693-2.99Zm-33.768 27.052-1.351 2.029c1.014-.113 2.026-.226 1.351-2.029Zm59.094-45.65 2.026 1.353c-.113-1.015-.225-2.029-2.026-1.353Z" fill="#000"/><path d="M254.047 294.451c0 3.912.247 6.167-.054 8.346-.531 3.843-1.395 7.64-2.12 11.457-1.526-3.808-3.699-7.501-4.405-11.456-.768-4.304-.453-8.874-.091-13.286.317-3.864 1.354-7.669 2.073-11.5 1.533 3.806 3.142 7.584 4.545 11.437.356.98.052 2.201.052 5.002ZM226.188 307.978c.567 1.968.29 3.937.012 5.905l-2.207-.495c.451-1.803.901-3.607 2.195-5.41ZM195.797 330.803c-.957-.17-1.069-1.184-1.182-2.199.675.452 1.351.902 1.182 2.199Z" fill="#000"/></svg>