<svg width="534" height="534" viewBox="0 0 534 534" fill="none" xmlns="http://www.w3.org/2000/svg"><path d="M145.594 326.14c-1.086-1.907-1.444-3.437-1.908-4.933-.833-2.683-1.037-5.129 2.364-6.094 2.814-.799 3.892.773 5.03 3.202 2.169 4.627 4.86 9.015 7.421 13.452 5.06 8.765 12.311 15.591 19.706 22.32 4.14 3.768 7.984 7.863 11.959 11.813.344.342.599.852 1.008 1.038 7.112 3.25 14.081 6.907 21.417 9.539 5.895 2.116 12.179 3.736 18.397 4.235 11.403.915 22.635-.035 33.918-3.167 7.918-2.197 14.228-7.295 21.997-9.466 5.29-1.479 7.213-7.14 10.997-10.579 2.176-1.977 3.812-4.537 5.829-6.707.517-.555 1.557-.623 2.356-.915.085.855.513 1.869.202 2.54-3.549 7.642-8.656 14.241-15.365 19.194-12.523 9.244-26.606 14.564-42.281 15.917-15.08 1.301-29.748-1.52-43.725-5.904-9.021-2.83-16.69-9.978-24.95-15.214-1.059-.671-2.004-1.517-3.041-2.224-13.493-9.194-22.466-22.167-30.231-36.147-.246-.444-.285-1.002-1.1-1.9ZM154.432 178.89c-9.264-2.662-17.645-5.496-24.882-10.795-6.038-4.42-11.868-9.131-17.678-13.852-1.072-.871-1.677-2.366-2.371-3.641-1.165-2.141-.212-3.002 1.975-3.358 2.796-.456 4.831-.482 7.473 1.809 5.348 4.637 11.511 8.385 17.546 12.165 8.121 5.087 16.458 9.158 26.35 10.685 4.933.761 10.209 1.202 14.974 2.651 4.998 1.521 9.979 1.145 14.516.542 8.397-1.117 16.902 2.77 25.088-.987.938-.43 2.002-.607 3.025-.823 1.374-.291 2.473-3.643 3.962-.644.317.64-1.615 2.639-2.776 3.73-6.336 5.949-13.663 7.816-22.419 6.762-14.643-1.762-29.396-2.616-44.783-4.244ZM405.742 215.613c5.847-1.488 11.158-2.833 16.469-4.178 1.15-.292 2.299-.586 3.448-.879-.441 1.161-1.077 2.287-1.29 3.487-.948 5.363-6.184 4.949-9.526 6.592-3.396 1.67-7.67 1.721-11.597 2.11-7.371.732-14.801.934-22.147 1.834-11.336 1.39-22.433-.308-33.212-3.119-12.089-3.154-23.323-8.809-33.719-15.771-4.902-3.282-9.236-7.452-13.6-11.469-1.079-.993-1.268-2.955-1.866-4.471 1.589-.33 3.245-1.112 4.75-.887 2.397.359 5.41.702 6.9 2.26 4.906 5.125 10.41 9.238 16.397 13.024 11.955 7.559 23.843 12.874 39.459 13.28 11.213.292 22.649.908 33.858-1.402 1.661-.343 3.424-.19 5.676-.411Z" fill="#000"/></svg>