<svg width="534" height="534" viewBox="0 0 534 534" fill="none" xmlns="http://www.w3.org/2000/svg"><path d="M279.442 154.189c24.575 1.419 45.753 1.439 53.219 28.831 2.198 8.063 12.202 14.437 19.462 20.605 19.244 16.347 15.636 34.699 6.2 54.219-4.811 9.952-10.748 19.986-12.649 30.612-9.744 54.481-56.424 72.635-96.499 94.103-27.582 14.776-71.533-20.692-74.597-55.749-3.056-34.952-3.089-70.211-7.192-105.013-3.726-31.608 20.047-55.283 49.259-66.461 14.195-5.431 30.465-5.92 45.916-7.312 4.312-.388 9.054 3.979 16.881 6.165ZM187.52 275.506l-1.794-8.349-4.291 1.311c2.028 3.439 4.056 6.878 6.085 13.596 2.438 3.279 4.727 6.697 7.497 9.668.363.39 3.187-1.509 4.871-2.348-2.365-2.871-4.529-5.948-7.185-8.52-1.237-1.198-3.426-1.417-5.183-5.358Zm13.131-59.019-1.793-8.349-4.292 1.311c2.029 3.439 4.057 6.878 6.085 13.596 4.612 1.952 9.117 4.357 13.923 5.487 1.004.235 3.118-4.238 4.72-6.541-5.127-.741-10.251-1.508-15.385-2.204-1.067-.144-2.171-.021-3.258-3.3Zm124.753-13.115-6.085-.48c2.028 1.253 4.057 2.506 6.085 7.038 12.687 10.211 3.882 24.301 6.62 36.302.437 1.917 1.586 3.671 2.406 5.5 1.534-.985 4.042-1.676 4.445-3.004 2.349-7.737 7.426-16.614 5.397-23.207-2.442-7.933-3.448-22.011-18.868-22.149Zm-32.83 13.115c2.089-2.285 6.389-5.929 5.942-6.655-9.334-15.153-25.234-11.154-37.573-8.678-7.646 1.535-13.206 13.446-19.703 20.699 2.897 1.479 7.788 4.813 8.394 4.163 11.728-12.583 26.598-3.709 42.94-9.529Zm-22.98 101.644c-10.971 2.214-22.027 4.112-32.826 6.97-1.69.448-2.786 5.215-3.047 8.085-.129 1.422 2.935 4.607 3.425 4.394 14.187-6.147 28.23-12.624 42.296-19.048-2.188-1.227-4.377-2.453-9.848-.401Zm-6.566-72.134c7.919 10.102 18.116 7.081 28.027 4.517.918-.237 1.032-3.578 1.519-5.477-8.24-1.866-16.424-4.102-24.756-5.371-2.478-.377-5.371 1.959-4.79 6.331Zm-29.547 3.279 2.122 8.677c1.482-1.8 4.492-4.853 4.205-5.202-2.551-3.102 6.849-14.07-6.327-3.475Zm-29.547 29.509c3.283-2.403 6.707-4.653 9.683-7.39.402-.371-1.449-3.184-2.257-4.867-3.57 2.993-7.139 5.986-7.426 12.257Zm-13.132-32.788 3.283 6.557c1.095-2.185 2.189-4.371-3.283-6.557Zm124.753-72.135-8.301 1.733c.386 1.416 1.015 4.087 1.122 4.066 3.518-.681 6.986-1.619 7.179-5.799ZM243.33 278.785l3.283 6.558c1.094-2.186 2.188-4.372-3.283-6.558Zm3.283-101.644-6.566 3.279c2.188 1.093 4.377 2.186 6.566-3.279Zm32.829-6.557c3.476.9 6.944 1.839 10.463 2.519.107.021.736-2.65 1.122-4.065-2.768-.578-5.534-1.155-11.585 1.546Z" fill="#000"/></svg>