<svg width="534" height="534" viewBox="0 0 534 534" fill="none" xmlns="http://www.w3.org/2000/svg"><path d="M377 355.789c-2.578 7.847-7.484 20.654-9.772 20.199-8.564-1.696-5.672-11.348-7.444-18.197-5.049-19.523-11.855-38.581-17.615-57.928-4.782-16.061-8.838-32.339-13.62-48.401-5.76-19.347-11.037-38.916-18.251-57.724-5.307-13.836-6.206-12.927-17.608-3.979-25.37 19.912-51.274 39.142-76.633 59.069-11.46 9.005-22.033 19.137-33.238 28.479-3.178 2.651-7.057 4.55-10.812 6.388-4.558 2.232-9.325 4.034-14.002 6.023-.167-7.395 3.673-11.87 9.412-16.43 27.177-21.594 53.948-43.706 80.699-65.833 19.032-15.742 37.785-31.821 56.697-47.71 5.882-4.942 13.812-3.052 14.57 4.388 3.025 29.684 15.678 56.737 23.653 84.942 7.811 27.624 14.607 55.433 21.844 83.171 2.059 7.892 7.243 14.966 12.12 23.543Zm-68.651-177.052 6.753-5.175-3.84-3.847c-1.721 2.256-3.442 4.511-2.913 9.022Z" fill="#000"/></svg>