<svg width="534" height="534" viewBox="0 0 534 534" fill="none" xmlns="http://www.w3.org/2000/svg"><path d="M444.696 356.461c-2.128 1.387-3.093 2.547-4.285 3.38-4.743 3.315-9.556 6.528-14.344 9.779-1.751-5.553-4.634-11.02-5.052-16.674-1.595-21.626-1.218-21.31-21.719-16.306-12.527 3.058-25.508 2.178-38.228 2.879-19.408 1.071-38.398-.158-57.263-2.578-23.84-3.06-47.449-7.662-71.628-7.883-3.232-.03-8.141-1.964-9.364-4.455-6.559-13.347-20.094-20.018-28.789-31.541-8.424-11.162-22.367-17.999-31.669-28.674-11.254-12.917-24.626-24.227-30.931-41.48-4.979-13.623-13.896-25.74-19.982-39.025-8.771-19.144-12.975-39.387-9.76-60.555.861-5.675 5.811-8.627 11.089-8.877 1.505-.071 4.101 4.399 4.681 7.114 1.667 7.813 1.705 16.047 3.944 23.652 3.861 13.116 8.101 26.24 13.66 38.698 6.153 13.788 12.91 27.547 21.338 40.005 9.294 13.741 20.312 26.419 31.482 38.738 7.563 8.339 17.654 14.433 24.92 22.976 17.765 20.888 41.923 27.665 67.166 31 9.688 1.279 18.479 3.493 27.617 6.63 16.473 5.654 34.582 7.531 50.921 3.213 12.803-3.384 25.132 1.947 37.197-2.616 2.67-1.01 6.131.048 8.762-1.01 5.145-2.072 12.233-3.765 14.368-7.807 2.989-5.663 2.886-13.35 2.671-20.123-.087-2.747-3.86-5.444-6.114-8.025-4.986-5.711-4.473-8.456 1.912-11.438 6.494-3.034 12.167-2.949 19.251-.06 13.495 5.501 27.789 9.06 41.794 13.282 7.413 2.234 10.288 6.341 7.376 12.948-4.947 11.222-9.984 22.241-19.664 30.845-7.685 6.832-13.597 15.667-21.357 23.988Zm11.439-58.945c-3.847-1.25-7.827-2.197-11.509-3.821-5.236-2.311-9.875-3.66-12.506 3.331 5.58 1.947-9.753 15.96 6.801 11.836 1.51-.376 3.639 1.763 5.481 2.735-1.425 1.563-2.719 3.275-4.297 4.664-7.595 6.683-10.383 19.739-5.53 28.127 2.213 3.826 4.02 2.717 6.699-.611 7.737-9.61 18.557-16.571 23.915-28.289 5.476-11.975 5.585-11.926-9.054-17.972Z" fill="#000"/></svg>