<svg width="534" height="534" viewBox="0 0 534 534" fill="none" xmlns="http://www.w3.org/2000/svg">
<path d="M117.523 260.236C103.577 260.59 90.1539 260.789 76.7452 261.344C65.0504 261.827 53.3698 262.677 41.6882 263.447C39.1798 263.612 36.6782 264.042 34.2041 264.513C32.7712 264.785 31.3993 265.381 30 265.831C31.41 267.149 32.6744 269.31 34.2644 269.587C36.6282 269.999 39.2132 268.874 41.7201 268.76C51.4341 268.318 61.1532 267.978 70.8726 267.673C83.4076 267.279 95.9426 266.825 108.481 266.629C136.517 266.19 164.554 265.839 192.591 265.565C206.565 265.428 220.569 266.089 234.509 265.376C246.647 264.755 258.689 262.405 270.823 261.434C276.426 260.986 282.143 262.051 287.812 262.35C308.334 263.432 328.923 263.792 349.359 265.759C365.656 267.328 381.86 269.228 398.268 268.768C407.128 268.52 416.004 268.862 424.868 268.685C433.769 268.508 442.671 268.131 451.557 267.598C454.453 267.424 455.131 268.438 454.868 271.066C454.657 273.166 454.825 275.304 454.825 277.425C454.825 286.659 458.081 289.641 467.33 288.889C467.855 288.846 468.643 289.113 468.878 288.85C474.499 282.527 482.768 284.938 489.511 282.443C493.925 280.811 499.434 281.471 502.439 276.649C503.545 274.874 505.566 273.787 501.902 271.679C489.608 264.604 477.703 256.846 465.656 249.339C465.364 249.157 465.171 248.654 464.9 248.628C462.029 248.347 460.317 242.718 457.08 246.052C454.06 249.163 452.641 253.562 454.356 258.139C455.446 261.048 455.341 262.407 451.518 262.438C426.299 262.637 401.072 263.614 375.866 263.206C361.635 262.975 347.443 260.551 333.224 259.21C330.605 258.963 327.937 259.286 325.302 259.157C311.676 258.489 297.922 258.694 284.471 256.775C272.486 255.065 261.271 258.081 249.719 259.14C243.718 259.691 237.685 260.174 231.665 260.189C193.794 260.282 155.923 260.236 117.523 260.236ZM488.133 270.846C487.68 269.886 487.227 268.926 486.774 267.965C487.834 268.12 489.167 267.925 489.901 268.5C491.746 269.946 493.322 271.74 495.005 273.395C492.891 272.722 490.776 272.049 488.133 270.846ZM465.399 277.743C465.167 278.627 464.934 279.511 464.702 280.396C464.229 280.09 463.757 279.785 463.284 279.48C463.813 278.724 464.342 277.968 465.399 277.743Z" fill="black"/>
</svg>
