<svg width="534" height="534" viewBox="0 0 534 534" fill="none" xmlns="http://www.w3.org/2000/svg">
<path d="M241.944 295.281C222.55 310.783 203.758 325.715 184.909 340.578C183.514 341.678 181.755 342.869 180.103 342.967C177.093 343.147 174.037 342.538 171 342.259C172.236 339.646 172.795 336.202 174.816 334.552C189.328 322.703 204.158 311.246 218.844 299.609C234.138 287.49 249.249 275.137 264.678 263.195C292.725 241.485 320.852 219.876 349.127 198.466C371.959 181.178 395.024 164.199 418.073 147.202C421.879 144.395 425.889 141.295 430.285 140.09C432.665 139.438 436.062 142.503 439 143.892C437.928 146.102 437.445 149.134 435.692 150.396C416.494 164.217 396.842 177.416 377.815 191.464C349.933 212.049 322.398 233.106 294.834 254.12C277.287 267.497 259.957 281.159 241.944 295.281Z" fill="black"/>
<path d="M96 381.326C100.659 370.776 104.603 359.799 111.392 351.042C131.976 324.494 153.651 298.796 174.941 272.799C176.421 270.992 177.98 268.99 179.955 267.922C182.093 266.765 184.762 266.598 187.199 266C187.378 268.674 188.762 272.244 187.55 273.885C174.876 291.041 161.982 308.044 148.752 324.774C137.728 338.713 126.417 352.442 114.743 365.835C109.728 371.589 112.151 373.769 117.78 374.788C131.995 377.363 146.205 380.72 160.552 381.629C179.845 382.852 199.41 385.013 218.506 379.492C223.686 377.995 228.489 375.087 233.706 373.864C236.9 373.116 240.553 374.344 244 374.684C242.415 377.177 241.391 380.955 239.148 381.94C229.243 386.287 219.128 392.631 208.832 393.154C173.954 394.927 138.95 394.742 104.982 384.273C102.205 383.417 99.3854 382.697 96 381.326Z" fill="black"/>
</svg>
