<svg width="534" height="534" viewBox="0 0 534 534" fill="none" xmlns="http://www.w3.org/2000/svg">
<path d="M208.987 198.362C233.854 174.907 258.117 151.507 283.146 128.955C287.554 124.983 288.304 121.578 288.48 116.657C288.549 114.718 289.857 112.54 291.252 111.098C291.689 110.647 294.734 111.832 295.75 112.995C298.129 115.72 300.237 118.753 302.017 121.908C303.773 125.022 304.993 128.439 306.445 131.724C318.745 159.551 330.638 187.567 343.516 215.125C349.98 228.96 358.266 241.944 365.637 255.363C366.409 256.769 366.56 258.515 367 260.104C364.331 260.405 360.996 261.807 359.175 260.708C357.235 259.538 356.796 255.968 355.555 253.52C355.162 252.744 354.3 252.206 353.652 251.56C353.41 252.348 352.731 253.34 352.99 253.892C357.362 263.199 356.256 273.503 358.478 283.179C359.52 287.715 361.36 292.068 362.42 296.601C362.714 297.857 361.507 299.462 360.988 300.906C359.216 299.988 356.973 299.461 355.795 298.049C354.368 296.338 353.387 293.956 353.01 291.729C351.882 285.052 346.435 283.765 341.483 283.295C336.042 282.778 330.172 283.114 324.976 284.686C319.591 286.315 314.854 289.999 309.694 292.499C308.231 293.208 306.284 292.92 304.559 293.089C304.795 291.662 304.639 289.988 305.35 288.86C306.865 286.457 308.614 284.114 310.656 282.149C315.104 277.87 315.324 274.003 309.527 272.472C303.04 270.76 301.234 266.589 299.343 261.611C297.466 256.668 293.827 254.72 288.777 255.679C283.778 256.627 281.069 258.973 279.801 264.812C277.106 277.221 273.119 289.393 269.017 301.443C263.57 317.45 257.37 333.199 251.751 349.15C245.914 365.718 240.383 382.393 234.725 399.024C234.248 400.429 234.052 401.983 233.326 403.237C232.102 405.35 230.558 407.277 229.148 409.282C227.809 407.205 226.136 405.262 225.239 403.01C224.533 401.237 224.783 399.083 224.609 397.098C223.867 399.197 223.106 401.289 222.388 403.396C220.544 408.806 219.065 414.38 216.691 419.546C215.913 421.239 212.835 421.879 210.808 423C210.508 420.979 209.446 418.704 210.024 416.975C216.8 396.707 224.509 376.724 230.586 356.255C236.476 336.414 240.546 316.041 245.84 296.013C248.216 287.023 251.658 278.317 254.545 269.458C255.401 266.829 257.095 263.792 256.411 261.548C255.813 259.591 252.461 257.308 250.236 257.21C239.954 256.752 229.611 256.566 219.352 257.239C215.607 257.485 212.128 260.638 208.355 261.98C205.574 262.97 201.453 264.658 199.768 263.459C194.189 259.489 188.969 261.176 183.301 262.272C179.778 262.953 175.915 263.041 172.403 262.364C166.607 261.247 163.874 250.737 167.935 246.218C176.302 236.906 184.857 227.758 193.046 218.294C198.503 211.987 203.461 205.249 208.987 198.362ZM304.831 190.474C304.831 190.017 304.887 189.553 304.822 189.106C304.197 184.805 303.551 180.508 302.911 176.21C303.093 180.375 303.206 184.546 303.514 188.703C303.577 189.549 304.373 190.342 304.831 191.845C304.521 193.984 303.794 196.159 303.979 198.254C304.563 204.848 305.438 211.42 306.356 217.978C306.456 218.694 307.567 219.27 308.209 219.911C308.457 219.372 308.984 218.792 308.912 218.298C307.594 209.246 306.205 200.204 304.831 190.474ZM247.805 202.134C252.824 194.38 257.889 186.656 262.802 178.836C263.409 177.869 263.209 176.397 263.384 175.16C262.25 175.983 260.885 176.615 260.021 177.66C254.121 184.792 248.298 191.987 242.506 199.207C235.769 207.608 229.046 216.023 222.428 224.518C221.354 225.896 220.852 227.717 220.086 229.334C221.973 228.522 224.384 228.195 225.661 226.819C232.963 218.958 239.995 210.846 247.805 202.134ZM234.064 246.033C239.841 246.948 245.595 248.13 251.407 248.637C253.56 248.825 255.851 247.426 258.079 246.751C256.678 245.331 255.383 242.827 253.857 242.678C247.367 242.045 240.808 242.009 234.278 242.098C233.731 242.105 233.219 244.661 234.064 246.033ZM213.452 210.365C211.672 212.6 209.797 214.769 208.172 217.11C207.705 217.782 207.959 218.953 207.882 219.894C208.664 219.62 209.686 219.573 210.19 219.038C215.59 213.304 220.956 207.535 226.179 201.641C226.718 201.033 226.269 199.553 226.279 198.477C225.469 198.979 224.539 199.357 223.871 200.005C220.589 203.19 217.377 206.448 213.452 210.365ZM257.424 226.827C261.792 226.226 261.242 223.179 260.267 220.387C260.169 220.106 256.369 220.478 254.894 221.457C252.496 223.048 250.6 225.392 248.492 227.418C251.241 227.45 253.989 227.481 257.424 226.827ZM265.669 202.134C267.444 199.448 269.297 196.807 270.941 194.043C271.377 193.309 271.171 192.194 271.26 191.254C270.48 191.513 269.398 191.531 268.968 192.068C265.971 195.81 263.074 199.635 260.241 203.503C259.814 204.085 259.89 205.033 259.734 205.812C260.676 205.621 261.75 205.649 262.525 205.182C263.475 204.611 264.174 203.626 265.669 202.134ZM287.655 243.289C286.242 243.747 284.809 244.15 283.427 244.684C282.727 244.954 282.12 245.461 281.471 245.861C282.005 246.376 282.455 247.149 283.09 247.356C284.914 247.952 286.898 248.883 288.661 248.621C290.483 248.35 292.12 246.834 293.838 245.862C292.235 245.005 290.632 244.147 287.655 243.289ZM330.939 231.629C330.481 231.204 330.023 230.779 329.565 230.354C329.565 233.763 329.317 237.201 329.715 240.563C329.836 241.58 331.748 242.386 332.839 243.289C333.122 242.074 333.8 240.791 333.606 239.657C333.181 237.17 332.313 234.757 330.939 231.629ZM306.892 262.495C307.121 263.312 307.28 264.158 307.597 264.94C308.018 265.98 308.562 266.971 309.053 267.982C309.478 266.904 310.195 265.841 310.25 264.744C310.312 263.507 309.936 262.175 309.461 261.002C308.895 259.605 308.021 258.333 307.28 257.008C306.922 258.608 306.564 260.209 306.892 262.495ZM302.083 238.488C301.167 235.211 300.257 231.932 299.328 228.658C299.156 228.05 298.903 227.464 298.688 226.867C298.445 227.426 297.901 228.051 298.008 228.532C298.978 232.914 300.062 237.271 301.112 241.635C301.436 241.043 301.759 240.451 302.083 238.488ZM287.655 143.145C286.052 145.371 284.41 147.572 282.905 149.861C282.755 150.089 283.431 150.858 283.724 151.376C285.108 149.473 286.53 147.596 287.849 145.65C288.183 145.158 288.187 144.443 287.655 143.145ZM335.062 260.437C337.741 259.89 338.235 259.191 337.742 255.628C337.608 254.658 336.648 253.801 336.067 252.892C335.732 254.272 335.348 255.644 335.083 257.037C334.958 257.691 335.062 258.388 335.062 260.437ZM258.111 235.744C255.556 235.094 253.004 234.431 250.43 233.869C250.369 233.856 250.06 234.969 249.867 235.557C251.717 235.848 253.563 236.166 255.419 236.416C256.076 236.505 256.755 236.43 258.111 235.744ZM251.928 215.853C252.615 214.382 253.313 212.917 253.939 211.421C253.96 211.371 253.241 211.013 252.868 210.799C252.096 212.483 251.325 214.168 251.928 215.853Z" fill="black"/>
</svg>
