<svg width="602" height="602" viewBox="0 0 602 602" fill="none" xmlns="http://www.w3.org/2000/svg">
<path d="M351.246 440.388C347.365 444.999 344.205 449.234 340.576 453.018C339.59 454.045 337.187 453.71 335.434 454C335.439 452.42 335.1 450.747 335.502 449.276C340.128 432.316 345.369 415.507 349.42 398.413C352.742 384.398 353.463 369.689 357.574 355.958C361.883 341.57 368.546 327.838 374.874 314.139C376.608 310.387 380.831 307.785 383.911 304.656C385.915 308.074 387.6 311.734 389.979 314.868C398.96 326.701 396.113 340.393 396.525 353.61C396.583 355.476 397.539 357.315 398.08 359.167C399.736 358.058 401.282 356.691 403.083 355.918C404.725 355.212 406.787 354.527 408.416 354.905C418.115 357.155 424.202 352.026 429.096 344.868C436.229 334.433 441.692 322.479 450.306 313.522C463.969 299.314 464.265 281.141 468.01 264.092C470.099 254.586 463.618 247.962 456.511 240.69C437.951 221.698 413.779 211.367 392.967 195.999C384.297 189.596 372.773 187.146 362.721 182.52C342.979 173.434 321.611 172.143 300.575 169.732C292.713 168.832 284.516 171.014 276.46 171.631C256.738 173.14 237.03 175.065 217.278 175.875C195.05 176.787 182.94 191.19 172.056 207.734C171.33 208.839 171.312 210.664 170.377 211.341C146.428 228.666 146.135 257.175 137.221 281.555C127.299 308.692 117.826 335.994 108.036 363.18C106.448 367.589 104.742 372.124 102.118 375.929C100.504 378.269 96.7476 380.927 94.4959 380.51C92.3721 380.116 89.9611 376.087 89.3937 373.306C85.4979 354.214 90.5359 336.419 95.1033 317.756C103.356 284.033 117.311 252.718 131.13 221.436C140.775 199.603 157.122 181.223 177.364 168.047C186.66 161.997 198.693 160.169 209.464 156.368C212.308 155.365 215.531 154.718 217.796 152.919C225.088 147.125 232.298 146.214 240.253 151.45C241.547 152.302 243.874 152.437 245.407 151.935C257.922 147.837 269.756 151.226 281.984 153.975C296.104 157.148 310.761 161.037 324.93 160.214C351.51 158.671 373.361 170.172 394.08 182.976C424.088 201.519 456.461 216.898 481.636 242.669C493.528 254.843 495.502 274.053 487.616 289C482.958 297.828 480.414 307.792 477.198 317.34C476.758 318.647 477.936 320.499 478.365 322.099C479.389 321.095 480.899 320.272 481.354 319.055C483.709 312.759 485.43 306.202 488.123 300.066C489.52 296.882 492.472 294.382 494.721 291.573C496.103 294.825 499.379 298.73 498.524 301.209C495.583 309.735 491.56 317.959 487.267 325.93C482.286 335.177 476.432 343.951 471.359 353.152C470.595 354.538 471.418 358.458 472.525 358.96C482.904 363.669 493.616 367.644 503.982 372.38C507.674 374.067 510.68 377.257 514 379.761C511.219 381.618 508.569 384.81 505.633 385.101C492.99 386.353 484.465 395.665 473.729 400.293C452.798 409.317 431.398 417.507 409.643 424.279C393.106 429.428 375.694 431.736 358.739 435.604C356.232 436.177 354.098 438.389 351.246 440.388ZM455.289 338.453C456.677 336.207 458.064 333.961 459.451 331.715C456.953 332.892 453.749 333.452 452.085 335.358C446.428 341.843 441.203 348.721 436.11 355.666C435.313 356.753 436.059 358.974 436.092 360.67C437.493 360.169 439.458 360.092 440.204 359.098C445.018 352.691 449.565 346.084 455.289 338.453ZM116.469 291.573C117.377 288.848 118.285 286.122 119.193 283.397C117.922 285.759 116.651 288.121 116.469 291.573Z" fill="black"/>
</svg>
