<svg width="602" height="602" viewBox="0 0 602 602" fill="none" xmlns="http://www.w3.org/2000/svg">
<path d="M406.749 277.322C408.171 243.865 408.899 211.42 411.278 179.097C412.688 159.954 416.786 141.012 419.365 121.938C419.534 120.69 417.298 118.435 415.721 117.816C413.874 117.091 411.523 117.646 409.39 117.646C373.85 117.646 338.307 117.88 302.77 117.551C283.868 117.376 264.957 115.358 246.082 115.743C223.905 116.197 201.706 117.788 179.631 120.013C168.51 121.134 171.311 132.501 170.395 139.007C168.201 154.585 168.364 170.508 167.834 186.3C167.545 194.923 167.682 203.566 167.878 212.194C167.912 213.689 168.976 215.324 169.944 216.609C175.77 224.34 175.996 232.056 167.765 237.599C161.562 241.775 153.968 243.823 147.599 236.905C140.897 229.626 139.709 215.504 146.798 210.428C154.434 204.96 154.136 197.411 154.772 190.356C156.762 168.298 157.755 146.152 159.285 124.05C159.845 115.953 165.067 111.223 172.353 109.282C177.895 107.806 183.791 107.305 189.557 107.073C211.646 106.185 233.75 104.889 255.841 105.008C312.18 105.31 368.514 106.385 424.852 106.9C433.253 106.976 436.658 108.812 431.798 117.316C430.542 119.514 430.498 122.501 430.25 125.159C427.356 156.25 424.526 187.348 421.696 218.445C421.6 219.501 421.705 220.573 421.681 221.636C420.973 252.195 420.542 282.765 419.471 313.312C418.41 343.59 416.715 373.846 415.277 404.111C414.862 412.854 420.159 409.431 423.999 407.996C437.93 402.79 456.05 409.525 459.635 420.797C460.384 423.15 459.974 426.993 458.464 428.764C443.678 446.105 429.18 463.774 413.218 479.997C406.194 487.138 396.494 492.376 387.087 496.253C378.629 499.738 370.212 490.655 368.453 476.856C366.547 461.901 365.265 446.854 364.17 431.814C363.583 423.76 376.568 414.075 385.022 415.708C398.615 418.335 403.597 413.567 404.55 395.965C405.551 377.479 406.346 358.971 406.666 340.462C407.025 319.776 406.749 299.079 406.749 277.322ZM386.479 454.031C386.024 447.9 385.696 441.753 384.992 435.651C384.871 434.605 383.141 433.744 382.154 432.798C381.818 434.051 381.039 435.373 381.22 436.546C382.123 442.396 383.279 448.206 386.479 454.031ZM415.283 429.547C414.84 431.944 414.398 434.341 413.955 436.738C415.156 436.423 417.409 436.051 417.395 435.802C417.263 433.351 416.753 430.919 415.283 429.547Z" fill="black"/>
</svg>
