<svg width="534" height="534" viewBox="0 0 534 534" fill="none" xmlns="http://www.w3.org/2000/svg"><path d="M168.391 386.545c-.956-3.438-1.855-6.22-2.881-8.954-1.233-3.286-3.069-4.053-6.425-2.692-7.889 3.2-12.654 9.259-14.964 17.226-1.644 5.669-2.919 11.461-4.014 17.263-.33 1.746.497 3.711.793 5.576 1.808-.529 3.808-.726 5.394-1.641 10.962-6.32 22.726-9.037 35.274-7.769 6.725.68 11.994 6.622 12.408 14.233.467 8.559-3.021 15.595-9.849 20.906-1.225.953-2.181 2.26-3.426 3.181-8.305 6.151-17.813 8.323-27.883 7.417-3.145-.282-6.441-2.061-9.074-3.975-2.671-1.941-4.134-1.134-5.026 1.188-3.427 8.92-5.893 17.935-3.228 27.684 1.126 4.12 1.756 8.528 1.674 12.787-.084 4.346 1.992 6.348 5.483 7.853 1.031.445 2.374 1.217 2.649 2.121.438 1.438.372 3.178.017 4.669-.432 1.815-5.402 3.028-7.442 2.013-3.599-1.791-6.071-4.211-7.479-8.36-2.151-6.34-3.461-12.709-3.938-19.342-.199-2.763-1.027-5.477-1.28-8.24-.862-9.446 1.619-18.379 4.276-27.297.668-2.241 1.708-5.073.913-6.911-2.08-4.808-.656-9.635-1.155-14.405-.07-.669-.289-1.556.032-1.998 5.2-7.146 1.969-15.657 3.69-23.453 2.241-10.145 5.583-18.776 14.805-24.242 3.065-1.817 6.053-3.893 9.337-5.186 5.19-2.045 7.234-5.956 7.189-11.033-.042-4.889 1.995-9.099 3.715-13.377.816-2.026 2.55-4.043 4.401-5.227 7.266-4.646 14.564-9.309 22.232-13.216 2.966-1.51 3.999-3.664 4.792-6.148 1.596-4.999 2.718-10.148 4.171-15.196.338-1.176 1.038-2.368 1.882-3.257 4.81-5.065 10.071-9.752 14.438-15.166 2.228-2.762 4.945-4.065 7.669-5.856 4.28-2.814 3.992-8.192 5.657-12.457 2.368-6.066 1.454-13.098 5.389-18.742.719-1.032 1.056-2.437 1.959-3.217 6.944-5.996 13.766-12.171 21.087-17.677 3.696-2.779 6.128-5.398 5.431-10.262-.741-5.169 2.973-9.154 4.032-13.871 1.451-6.459 4.866-11.933 8.09-17.652 2.762-4.901 5.545-9.034 10.547-11.667.877-.462 1.551-2.18 1.543-3.312-.037-5.456 1.491-10.59 2.754-15.8.999-4.12 2.584-7.87 4.718-11.596 4.662-8.14 9.937-15.593 16.602-22.32 2.765-2.791 2.906-8.129 4.406-12.249 2.211-6.069 2.194-13.054 7.287-17.949 3.734-12.01 15.225-16.677 23.244-24.632 2.72-2.698 5.339-5.504 8.151-8.1 1.863-1.72 3.047-4.603 6.49-4.076.359.055 3.13-1.066.946-3.215-1.254-1.233-1.719-3.295-2.458-5.02-.576-1.345-.777-3.039-2.939-2.453-.21.057-.456.046-.672.002-3.331-.674-7.963-3.992-7.147-5.03 2.046-2.606 4.586-4.834 7.035-7.097.365-.337 1.309-.024 1.984-.05 11.75-.447 23.497-.992 35.251-1.275 2.504-.06 5.076.657 7.535 1.321 3.08.832 4.561 2.876 4.516 6.272-.106 8.034-1.802 15.57-5.364 22.834-2.283 4.654-3.706 9.732-5.488 14.63-.5 1.373-.688 2.908-1.404 4.147-1.669 2.89-5.727 3.058-7.76.406-4.325-5.64-8.586-11.328-12.919-16.96-1.389-1.805-3.276-2.659-5.046-.767-8.285 8.853-19.38 14.304-27.584 23.33-6.523 7.176-9.672 15.747-12.278 24.712-.149.513.402 1.348.836 1.855.18.211 1.106.144 1.353-.118 2.618-2.786 5.764-3.851 9.541-4.834 9.49-2.472 17.347 1.766 25.314 5.075 3.38 1.404 5.069 5.369 5.992 9.543 1.46 6.603 1.713 13.134.101 19.515-2.785 11.017-11.315 16.006-21.481 18.876-1.211.342-2.419.701-3.644.988-2.676.627-3.007 1.431-1.105 3.812 5.952 7.455 5.752 16.697.088 24.333-1.627 2.193-2.732 4.774-4.36 6.966-4.674 6.294-12.101 7.72-18.895 9.762-6.853 2.06-13.957 2.216-21.181.345-3.508-.909-5.838-2.882-6.739-5.512-1.352-3.944-4.116-7.708-2.978-12.362.181-.742-.681-1.739-1.061-2.618-.972.512-2.355.771-2.85 1.577-4.295 6.983-7.778 14.342-9.507 22.425-.138.647.117 1.383-.039 2.021-1.605 6.562-1.637 6.467 5.025 5.141 3.373-.672 6.815-1.053 10.245-1.368 5.886-.54 11.779-1.153 17.682-1.318 6.952-.195 13.727 6.02 14.338 13.031.994 11.402-2.224 21.449-10.684 29.35-5.032 4.699-11.367 7.843-18.037 8.383-5.511.446-11.247-1.372-16.815-2.518-1.538-.317-3.033-1.619-4.204-2.807-5.205-5.282-9.125-11.259-9.742-18.959-.096-1.195-.68-2.453-1.365-3.459-.417-.612-1.865-1.323-2.162-1.094-8.782 6.761-17.671 13.482-19.406 25.612-.394 2.753-1.039 5.477-1.304 8.24-.282 2.947.854 2.675 3.028 1.407 6.718-3.919 14.169-5.428 21.77-4.336 6.164.885 11.94 2.49 16.076 8.593 2.851 4.206 4.483 8.207 3.497 12.707-.778 3.555-2.733 7.143-5.037 10.015-6.273 7.818-14.818 11.671-24.76 11.745a86.264 86.264 0 0 1-13.005-.875c-9.228-1.332-11.708-7.457-13.743-14.686-.235-.833.28-2.097-.173-2.603-1.03-1.149-1.907-3.354-4.174-1.139-7.16 6.994-12.246 15.319-15.887 24.548-.788 1.997.103 3.476 2.727 3.001 5.249-.949 10.532-1.715 15.764-2.747 6.35-1.252 15.169 3.54 17.479 9.742 1.041 2.796.254 5.347-.817 8.079-2.439 6.222-4.981 12.279-10.923 16.027-11.685 7.371-26.648 2.647-32.44-9.784-3.708-7.958-6.083-5.567-11.343-2.498a234.367 234.367 0 0 1-4.916 2.815c-7.44 4.107-11.651 10.215-12.151 18.873-.155 2.67 1.221 3.634 3.039 2.688 6.756-3.513 13.158.462 19.711.611 3.975.091 7.976 1.212 11.87 2.236 7.316 1.922 9.381 9.577 4.931 15.402-3.913 5.123-8.402 9.607-12.929 14.099-7.91 7.849-20.993 7.723-29.022-.214-1.44-1.423-2.863-2.864-4.293-4.973Zm109.468-152.243c.901 2.771 1.559 5.65 2.747 8.291 4.109 9.139 10.966 11.41 20.822 8.956 7.448-1.854 10.038-7.886 14.395-12.653 2.564-2.806 2.709-6.199 3.747-9.273 1.318-3.903-4.897-10.518-8.466-9.476-8.263 2.411-16.753 3.201-25.25 3.991-6.911.643-7.949 1.722-7.995 10.164Zm79.736-90.669c4.948-2.806 7.085-7.606 8.001-12.741 1.177-6.597-1.386-13.879-5.196-14.994-5.633-1.648-10.851-3.852-17.3-1.663-4.771 1.62-8.366 4.753-12.724 6.77-3.305 1.531-2.966 5.007-2.108 8.139.275 1.005.755 1.967.927 2.985 1.654 9.792 9.963 16.634 19.394 14.832 2.842-.543 5.557-1.749 9.006-3.328Zm-37.165 50.748c2.539-.902 5.022-2.044 7.629-2.657 5.456-1.281 9.377-4.188 12.322-9.078 5.274-8.759 1.679-18.309-7.779-19.361-11.11-1.235-20.73 2.25-28.771 9.943-.951.909-1.585 2.657-1.542 3.989.075 2.293.933 4.548 1.221 6.849.753 5.997 3.464 10.085 8.306 11.016 2.292.44 4.834-.427 8.614-.701ZM163.661 416.317c-10.259 1.201-16.987 6.83-20.461 16.461-.536 1.486-1.385 2.556 1.14 4.056 3.827 2.274 7.498 3.594 11.924 3.956 5.909.483 10.767-2.057 15.862-4.168 9.257-3.835 11.928-7.781 12.481-16.962.169-2.791-.709-4.138-3.877-4.853-5.662-1.277-10.981-.372-17.069 1.51Zm77.709-127.884c.958 4.826 2.8 9.026 8.378 9.694 5.341.639 10.792 1.554 15.823-1.457 3.413-2.043 7.194-3.701 10.077-6.336 2.622-2.395 4.183-5.783 3.635-9.846-.498-3.69-3.469-3.871-5.883-4.876a20.355 20.355 0 0 0-4.803-1.357c-6.368-.941-12.628.381-18.258 2.89-4.01 1.786-10.187 2.891-8.969 11.288Zm-37.166 80.519c-7.197-.451-14.389-1.094-21.593-1.297-6.875-.195-7.999 1.067-7.436 7.772.831 9.894 9.24 15.006 17.975 10.728 5.308-2.6 8.781-9.004 12.924-13.832.274-.32-.765-1.77-1.87-3.371ZM382.597 38.755l-7.433 1.03c1.187 2.423 2.376 4.846 3.558 7.273.181.372.262.813.507 1.131 3.934 5.104 7.836 10.235 11.917 15.218.404.493 2.774.24 2.817.036 1.523-7.256 4.221-14.289 4.2-21.848-.007-2.63-.846-4.32-3.744-4.181-3.717.177-7.431.439-11.822 1.341Zm-74.33 120.441c1.24-.79 2.448-2.197 3.724-2.261 4.822-.243 9.05-5.055 14.34-1.881.345.208 1.789-.616 2.005-1.218.219-.613-.225-1.771-.763-2.301-3.608-3.554-7.231-6.957-6.569-12.813.17-1.506-.734-3.243-1.463-4.715-1.254-2.532-3.486-2.538-5.182-.086-2.041 2.951-4.521 5.74-5.875 8.99-2.07 4.967-3.435 10.242-4.865 15.451-.283 1.03.495 2.353.783 3.54a43.5 43.5 0 0 0 3.865-2.706Zm-93.251 177.278c1.557 1.108 2.998 2.881 4.696 3.178 3.077.539 7.325 1.485 9.257-.048 3.746-2.974 6.516-7.364 9.128-11.522 1.765-2.808.181-5.255-3.28-5.039-5.545.346-11.14.965-16.531 2.24-2.658.629-7.249-1.4-7.708 2.812-.262 2.401 2.411 5.124 4.438 8.379ZM367.055 42.138c.968.226 1.927.514 2.907.641.317.041.688-.34 1.035-.528-.452-.263-.877-.652-1.364-.758-.607-.132-1.266-.031-2.578.645Zm-91.899 228.703-.811-.542c.045.406.09.812.811.542Z" fill="#000"/></svg>