<svg width="534" height="534" viewBox="0 0 534 534" fill="none" xmlns="http://www.w3.org/2000/svg">
<path d="M266.155 218.012C271.94 207.411 277.292 197.938 283.687 189.232C287.061 184.638 291.768 180.31 296.845 177.995C299.189 176.925 303.978 180.781 307.363 182.88C307.889 183.206 307.44 186.852 306.411 187.681C282.567 206.864 276.583 235.624 266.094 262.018C257.719 283.09 249.024 304.041 240.075 324.875C220.942 369.412 202.181 414.131 181.744 458.067C177.608 466.959 166.883 472.89 158.806 479.727C157.698 480.665 154.324 478.926 152 478.428C152.448 476.634 152.628 474.72 153.382 473.066C175.511 424.476 198.162 376.118 219.703 327.27C233.153 296.77 244.84 265.495 257.574 234.673C259.781 229.331 263.262 224.516 266.155 218.012Z" fill="black"/>
<path d="M206.134 168.118C221.383 151.487 236.855 135.03 253.491 119.85C266.102 108.343 280.479 98.7896 293.415 87.6096C296.331 85.0893 296.553 79.4317 297.968 75.2026C299.95 69.2767 301.052 62.8289 304.212 57.625C305.692 55.1856 311.106 55.1337 314.737 54C314.935 56.9736 314.996 59.9644 315.365 62.9168C315.817 66.5414 315.23 71.3874 317.322 73.5489C341.748 98.7928 352.58 130.826 363.127 163.088C369.226 181.747 375.782 200.258 381.681 218.978C382.626 221.977 381.201 225.723 380.871 229.123C376.899 227.385 370.832 226.707 369.322 223.724C363.106 211.444 358.055 198.55 352.979 185.722C342.169 158.4 331.647 130.963 320.917 103.609C318.824 98.2759 316.323 93.1023 314.011 87.8553C309.569 92.2539 305.383 96.9508 300.644 101.002C275.415 122.568 249.913 143.816 224.832 165.55C219.07 170.542 214.309 175.54 206.134 168.118Z" fill="black"/>
</svg>
