<svg width="534" height="534" viewBox="0 0 534 534" fill="none" xmlns="http://www.w3.org/2000/svg"><path d="M406.27 253.81c1.141 2.372 10.163 1.909 2.977 6.972-8.269 5.827-14.594 2.02-19.783-2.501-11.919-10.383-19.016-23.702-20.019-39.987-.385-6.257-2.478-12.393-3.143-18.652-1.569-14.749 3.74-27.897 9.792-40.952 3.883-8.375 6.973-17.138 9.996-25.873.537-1.553-.999-3.824-1.578-5.763-1.179 1.179-2.757 2.157-3.472 3.572a818.658 818.658 0 0 0-11.457 23.609c-8.584 18.458-17.789 36.972-31.365 51.919-25.432 27.999-43.714 61.64-72.444 87.185-18.526 16.473-33.141 37.294-50.052 55.666-6.154 6.685-14.163 11.622-20.837 17.877-18.964 17.776-34.55 38.398-49.73 59.397-4.182 5.784-9.893 10.54-15.315 15.297-1.48 1.299-4.915 1.857-6.651 1.044-2.987-1.4-2.457-3.192-1.118-7.037 4.61-13.231 15.39-21.509 23.123-32.092 10.136-13.872 21.509-26.886 32.955-39.731 4.555-5.111 11.133-8.363 16.089-13.182 15.148-14.729 30.372-29.42 44.747-44.886 9.432-10.148 17.54-21.54 26.072-32.506 11.103-14.273 22.249-28.52 32.995-43.061 14.75-19.959 29.224-40.125 43.556-60.386 1.354-1.915.851-5.142 1.21-7.76-1.966.887-4.058 1.569-5.878 2.693-21.624 13.346-45.228 21.255-70.456 18.525-15.132-1.636-31.653-2.044-44.546-12.851-3.771-3.161-7.81-6.252-10.667-10.151-1.548-2.113-.864-5.862-1.186-8.873 3.01.137 6.024.23 9.028.461.421.032.797.729 1.182 1.13 22.087 23.04 49.403 18.243 76.787 15.036 24.075-2.819 40.48-19.156 58.213-32.411 14.029-10.487 25.456-24.502 37.763-37.217 3.33-3.44 6.54-5.063 11.445-5.022 2.19.02 5.013-6.059 5.107 1.472.2 16.119-5.011 30.869-11.432 45.314-5.856 13.172-13.615 25.201-15.923 40.286-1.553 10.155-2.8 19.614-1.424 29.844 2.303 17.133 9.127 31.429 22.582 42.415.43.352.794.785 2.857 1.18Z" fill="#000"/></svg>