<svg width="534" height="534" viewBox="0 0 534 534" fill="none" xmlns="http://www.w3.org/2000/svg"><path d="M278.194 221.145c33.323 6.405 58.246 26.393 85.88 40.025 9.11 4.495 7.469 8.574-3.223 16.851-20.767 16.078-46.496 16.917-68.097 30.669-25.154 16.015-54.067 26.379-77.521 46.052-3.009 2.525-7.382 4.161-11.311 4.639-5.265.638-11.658 1.357-15.75-1.061-2.718-1.606-3.49-8.774-3.018-13.226 3.394-31.984 5.72-64.216 11.667-95.744 3.859-20.461-10.847-36.321-9.192-55.904.261-3.079-12.52-7.259-19.256-10.957-1.818-.999-3.583-2.097-5.373-3.149 1.599-1.188 3.199-3.398 4.796-3.395 8.74.017 20.52-2.953 25.701 1.552 24.389 21.208 57.491 23.926 84.697 43.648Zm-11.707 82.337 8.517-1.836-1.337-4.393c-3.508 2.077-7.017 4.153-13.87 6.229l-.49 6.23c1.279-2.077 2.557-4.153 7.18-6.23Zm3.345-63.853 10.703 2.689.98-4.393c-3.894-.552-7.789-1.105-11.683-5.018-7.469-3.579-15.191-8.681-23.414 3.361-3.345 1.768-8.834 2.846-9.654 5.424-3.165 9.951-2.775 21.505-7.554 30.37-7.172 13.299-15.075 25.55-13.226 41.633.343 2.978-2.26 6.297-3.504 9.459 3.508-2.489 8.635-4.212 10.228-7.608 5.248-11.186 6.207-26.228 14.335-33.826 14.614-13.662 12.412-29.285 16.065-45.452 5.574 0 11.149 0 16.724 3.361Zm50.172 16.803c.659-1.578 1.559-3.115 1.835-4.758.085-.506-1.673-1.996-2.349-1.858-10.213 2.09-20.408 4.285-30.55 6.697-1.933.46-3.621 1.956-5.423 2.973 1.514 1.223 3.118 3.595 4.526 3.482 9.562-.765 19.083-2.054 31.961-6.536ZM212.97 216.104l-2.676 4.033c2.007-.224 4.014-.448 2.676-4.033Z" fill="#000"/></svg>