<svg width="534" height="534" viewBox="0 0 534 534" fill="none" xmlns="http://www.w3.org/2000/svg"><path d="M266.721 167.606c-1.722 4.083-6.647 7.576-2.107 12.824.652.754.693 3.155.053 3.744-7.079 6.525-3.358 15.654-5.315 23.369-2.987 11.778-8.364 22.215-13.408 32.903-4.414 9.354-9.718 18.287-14.609 27.417-.283.527-.245 1.541-.598 1.671-11.159 4.111-11.681 16.183-17.986 23.896-.696.852-1.479 4.09-3.321-.184-2.478-5.75-1.509-11.18-1.233-16.818.04-.826.053-1.653.078-2.479-.613.102-1.688.058-1.772.327-2.306 7.34-7.215 6.476-12.869 4.554-.705-.24-2.609 2.251-3.517 3.746-.481.791 4.252 2.759-.544 3.188-2.178.195-3.55-.028-3.57-2.995-.056-8.289.661-16.338 2.731-24.473 3.185-12.512 10.324-22.746 17.016-33.329 9.86-15.592 19.372-31.415 29.61-46.753 6.935-10.388 14.791-20.166 22.369-30.115 4.964-6.518 10.173-12.849 15.26-19.275.576-.728 1.6-1.589 1.516-2.278-.848-6.972 3.98-12.247 5.285-18.492.746-3.569.978-7.907-.407-11.092-1.739-3.996-.76-6.908 2.319-7.812 2.216-.65 5.698.8 6.751 4.474.571 1.989 3.303 3.812 3.112 5.487-1 8.765 5.188 14.323 8.522 21.18 3.844 7.904 6.418 16.72 10.45 24.136 7.218 13.276 12.226 27.129 17.249 41.157.979 2.733 3.279 4.991 4.969 7.468-.379-2.895-.388-5.899-1.206-8.664-2.589-8.748-4.245-18.083-8.537-25.945-6.748-12.357-11.981-25.209-17.112-38.224-1.883-4.779-5.232-9.077-8.41-13.21-2.085-2.711-.288-2.455 1.307-2.38 3.056.143 3.044.247 2.366-1.987-.353-1.168-.891-2.337-.935-3.521-.029-.79.493-2.063 1.085-2.29.675-.259 1.906.174 2.529.723.908.8 1.72 1.879 2.171 3.001 2.373 5.907 4.451 11.938 6.964 17.783 2.036 4.738 4.899 9.134 6.768 13.927 4.188 10.737 8.099 21.587 11.884 32.475 1.502 4.321 2.598 8.819 3.481 13.315 1.614 8.227 3.055 16.495 4.241 24.794.179 1.251-1.413 3.906-2.185 3.905-1.645-.001-3.288-1.319-4.932-2.098 3.467-5.746-3.394-7.194-4.669-11.038-2.191-6.603-5.129-12.957-7.742-19.42-.341-.843-.609-1.716-.91-2.575-.354.785-1.143 1.671-.99 2.339.889 3.87 1.613 7.849 3.114 11.493 3.46 8.408 7.386 16.622 11.013 24.964 1.328 3.054 3.427 6.286 3.313 9.368-.503 13.669 8.339 24.269 11.335 36.732.515 2.142.684 2.213-2.136 1.799-2.637-.388-3.676.497-2.829 3.069.375 1.14 1.549 2.135 1.616 3.241.762 12.518 1.382 25.045 2.028 37.571.05.982.357 2.17-.067 2.911-.888 1.553-2.185 2.872-3.314 4.287-1.076-1.223-2.672-2.273-3.146-3.698-3.841-11.543-7.519-23.142-11.154-34.754-4.638-14.815-9.015-29.716-13.839-44.47-3.204-9.799-7.015-19.398-10.512-29.102-1.133-3.144-2.056-6.364-3.239-9.488-.362-.958-1.269-1.709-1.927-2.555-.653.85-1.748 1.631-1.894 2.561-2.115 13.482-3.398 27.032-4.577 40.637-1.166 13.467 1.773 26.478 1.069 39.789-.24 4.542-.451 9.396-.585 14.09-.142 5.003.265 9.871-1.53 15.056-2.116 6.112-1.582 13.127-2.333 19.735-.531 4.664-1.231 9.312-2.003 13.942-.117.699-.999 1.742-1.597 1.792-1.392.117-2.826-.275-4.242-.461.795 1.31 1.817 2.538 2.331 3.952.73 2.005 1.459 4.133 1.531 6.231.203 5.899.071 11.81.071 17.717v4.922c-1.105-.131-2.214-.363-3.309-.31-.234.012-.747 1.42-.576 1.577 3.432 3.137-.196 6.211.03 9.244.397 5.325-1.047 10.624 1.706 16.018 3.373 6.612 1.021 14.104-.255 20.833-.61 3.22-1.93 5.397.297 8.399.619.835-.458 2.93-.757 4.447-1.582-.871-3.614-1.395-4.621-2.707-1.029-1.342-.909-3.514-1.584-5.206-.274-.686-1.321-1.062-2.016-1.579-.238.886-.828 1.848-.654 2.644.781 3.586 1.843 7.11 2.664 10.689.299 1.304.21 2.697.298 4.05-1.543-.184-3.258-.022-4.564-.677-.806-.404-.99-2.054-1.453-3.144-.313 1.182-.843 2.356-.896 3.55-.131 2.947.256 5.951-.191 8.834-.177 1.147-2.005 2.038-3.082 3.045-.89-1.271-1.867-2.494-2.624-3.84-.281-.498-.277-1.406-.011-1.925 4.106-8.007 1.938-16.61 1.576-24.78-.242-5.446 2.73-10.303.787-16.245-1.503-4.599 1.162-10.456 1.46-15.782.33-5.888-.646-11.919.234-17.69 1.566-10.266 4.83-20.524 3.556-30.851-1.87-15.165-1.628-30.304-1.786-45.477-.009-.861-.571-1.717-.875-2.575-.351.792-.954 1.565-1.015 2.379-.715 9.567-1.308 19.144-2.037 28.71-.164 2.156-.842 4.268-1.082 6.422-.272 2.44-4.115 6.424 2.496 6.38.183-.001.718 3.578.49 5.413-.217 1.751-1.95 3.495-1.756 5.088 1.538 12.607-4.286 24.34-4.085 36.774.169 10.449-2.382 20.608-3.562 30.892-.942 8.211-1.421 16.124-6.246 23.101-.605.875-1.354 1.649-2.037 2.47-.628-1.203-1.872-2.457-1.779-3.602.409-4.998.3-10.316 2.059-14.866 3.163-8.184 2.174-16.752 3.458-25.067 2.826-18.305 3.653-36.855 4.604-55.4.727-14.194 2.494-28.451 3.949-42.644.918-8.96.289-18.007 1.744-26.758 3.607-21.701.726-43.47 1.85-65.166.14-2.707 1.263-5.36 1.891-8.048 1.818-7.771 3.372-15.548.496-23.815.754-1.543 1.016-2.593 1.279-3.643l-1.286-.288-.484 3.439Zm-59.981 80.742.145-1.825c-.376.608-.752 1.216-2.111 1.825.328.656.655 1.313.983 2.954-1.966 2.769-4.098 5.439-5.842 8.343-1.185 1.972-1.825 4.273-2.709 6.427 2.195-1.697 4.815-3.06 6.47-5.179 1.814-2.322 2.871-5.291 3.926-8.103.195-.52-1.189-1.633-1.845-3.457 0 0 0-.985.983-.985Zm70.797-7.877.786-3.151-1.285-.289c-.161 1.147-.323 2.293-1.468 3.44-.327.656-.655 1.313-1.966 1.969-.984.761-2.567 1.364-2.819 2.319-.46 1.742-.131 3.694-1.115 5.558l-.143 1.825c.375-.608.751-1.216 2.11-1.825.983-2.626 1.967-5.251 3.933-7.877.328-.657.656-1.313 1.967-1.969Zm-47.198-41.356-.144 5.764c.376-1.611.762-3.22 1.118-4.835.066-.296.01-.619.993-.929l.144-1.825c-.376.608-.752 1.216-2.111 1.825Zm31.465-49.233c-4.665 8.084-12.478 14.836-11.799 25.601l-.787 3.151 1.286.288c.161-1.146.323-2.293 1.467-3.439 4.388-8.203 9.598-16.057 11.8-25.601l.786-3.151-1.285-.289c-.161 1.147-.323 2.293-1.468 3.44Zm24.582 101.42-.472-10.32c-.45.11-1.298.244-1.293.325.223 3.663.519 7.321.85 10.976.002.029.597.004.915.988 0 1.968.179 3.956-.041 5.898-.338 2.971 2.2 7.97-4.452 6.903.03.828-.135 1.724.127 2.469.702 1.998 2.34 3.954 2.279 5.885-.427 13.508-1.094 27.01-1.913 40.501-.204 3.362-1.316 6.663-1.829 10.02-.087.568.754 1.277 1.166 1.92.243-.555.53-1.095.722-1.667.676-2.017 1.654-4.003 1.913-6.076.823-6.593.519-13.45 2.217-19.784 2.967-11.064 2.292-22.389 3.457-33.552.451-4.326-2.335-8.991-3.646-14.486Zm3.933-63.018.651 2.62c.439-1.201.877-2.403 2.299-3.605 1.237-4.946 2.634-10.093-.895-14.514-2.247-2.815-5.176-4.981-4.071-9.2.12-.456-.445-1.093-.693-1.646-.408.653-1.159 1.301-1.17 1.961-.095 5.572-1.011 11.368.213 16.658 1.251 5.406-5.288 10.086-.696 15.378.152.175-1.316 1.76-2.029 2.687-.492-.78-1.277-1.507-1.426-2.347-.762-4.3-1.593-8.609-1.95-12.951-.357-4.35.144-8.742.143-13.117-.002-5.542-7.083-10.012-2.249-16.128.192-.243-.702-1.346-1.09-2.048-.694.695-1.911 1.333-1.995 2.096-.421 3.818-.545 7.669-1.757 11.508-.328.519-.727 1.006-.972 1.561-2.075 4.699.617 9.202.627 13.82 0 .018.434.036.665.053.221-3.835.46-7.67.653-11.507.065-1.306.01-2.617.993-3.927.983.52 2.781.988 2.819 1.569.252 3.921.671 7.957.022 11.784-1.475 8.702 3.608 17.303.196 25.982-.025.062 1.261.922 1.937.924 1.773.008 4.086-1.025 5.205-.241 2.056 1.441 2.575 1.388 2.594-1.046.034-4.593-.124-9.193.1-13.776.059-1.205 1.221-2.357 1.876-2.548Zm16.716-2.954c5.511 17.991 10.99 35.992 16.565 53.964.925 2.979 2.268 5.827 3.418 8.736-.433-2.907-.95-5.803-1.286-8.721-1.586-13.779-6.293-26.792-9.969-40.039-1.93-6.954-6.692-13.392-7.421-20.352-1.576-15.041-7.776-28.138-14.145-41.325-.624-1.291-2.026-2.205-3.066-3.294-.271 1.524-1.094 3.21-.704 4.538 1.018 3.464 2.386 6.858 3.939 10.125 5.377 11.313 8.594 23.323 12.669 36.368Zm-32.448 117.174c3.811 4.199 2.975 9.988 1.414 13.696-1.823 4.329-.727 8.203-1.353 12.205-.124.792.536 1.708.835 2.567.357-.776.982-1.54 1.021-2.332.131-2.615-.698-5.533.19-7.806 2.662-6.815 3.015-13.389.093-20.146-.306-.706-.169-2.172.332-2.574 7.607-6.115.061-15.78 5.213-22.497.208-.271-1.364-1.911-2.106-2.914-.569.92-1.331 1.775-1.667 2.774-.778 2.308-.851 4.999-2.094 6.978-4.63 7.369-5.131 10.648-1.878 20.049Zm-67.846-69.911c-2.295 2.979-4.626 5.93-6.839 8.968-.303.416-.012 1.265.005 1.913.693-.072 1.7.129 2.034-.255 3.952-4.55 8.226-8.903 11.561-13.883 3.186-4.757 5.513-10.122 7.877-15.374.548-1.218-.288-3.06-.488-4.615-1.111.92-2.638 1.617-3.266 2.795-3.422 6.424-6.624 12.966-10.884 20.451Zm2.949 34.463c1.656-5.247 5.422-9.978 3.924-15.994-.218-.877-.56-1.724-.845-2.585-.371.739-.714 1.495-1.117 2.216-4.361 7.815-5.461 17.907-15.287 21.964-.345.142-.478 1.964-.062 2.482.46.573 1.944 1.026 2.502.702 3.7-2.148 7.272-4.518 10.885-8.785Zm62.93 110.283c1.311-.047 3.749.013 3.765-.155.241-2.587-.205-5.268.237-7.8 1.447-8.299-3.697-17.457 3.163-25.185.239-.269-2.353-3.058-3.626-4.672-.524 1.02-1.37 1.996-1.518 3.068-.771 5.584-2.348 11.301-1.744 16.761.604 5.467-1.258 10.686-.277 17.983ZM245.089 227.67c-1.311 2.058-2.679 4.083-3.888 6.199-.255.446.07 1.226.128 1.852.689-.149 1.685-.061 2.014-.488 1.494-1.939 3.397-3.845 4.062-6.087 2.145-7.234 8.044-13.09 7.656-21.253-.073-1.551.627-3.14.971-4.712-1.026 1.441-2.312 2.762-3.031 4.343-2.737 6.013-5.29 12.111-7.912 20.146Zm-1.967-15.755c1.311-1.749 4.101-4.419 3.684-5.091-2.111-3.397-2.357-6.236.167-9.399.218-.274-.575-1.939-1.165-2.129-.7-.226-2.463.613-2.442.708 1.258 5.915-4.276 9.437-5.104 14.696-.563 3.573-2.613 6.925.778 10.077 1.033-2.625 2.066-5.251 4.082-8.862Zm4.916-42.34c-8.052 5.564-9.679 15.297-14.674 22.846-.319.482.438 1.677.694 2.541.685-.543 1.453-1.009 2.042-1.641 6.115-6.553 9.491-14.675 11.938-23.746Zm-20.649 89.604c.645-2.636 1.549-5.25 1.782-7.922.072-.829-1.571-2.343-2.624-2.552-.728-.144-2.388 1.281-2.601 2.236-.803 3.595-.566 7.191-3.926 10.207-1.388 1.247-.179 5.395-.152 8.223 1.593-1.825 3.165-3.67 4.788-5.469.865-.959 1.819-1.838 2.733-4.723Zm43.265-47.264c1.802 1.392 3.732 1.992 3.858-1.105.252-6.171.214-12.365-.015-18.539-.063-1.702-1.215-3.366-1.88-5.042-.222-.559-.486-1.1-.731-1.649-.41.639-1.172 1.274-1.179 1.917-.083 7.483-.053 14.966-.053 24.418Zm-47.198 17.724c.656 4.025 1.287 8.054 1.986 12.071.152.875.543 1.707.824 2.559.911-.819 2.557-1.601 2.601-2.464.155-3.033-.166-6.103-.467-9.142-.116-1.169-.788-2.274-.985-3.446-.472-2.801 5.484-5.623-.022-8.44-.985 2.626-1.969 5.252-3.937 8.862Zm50.148-6.892c.327 2.131.526 4.296 1.061 6.374.162.625 1.265 1.401 1.927 1.391.65-.009 1.755-.854 1.854-1.463.788-4.889 1.521-9.799 1.915-14.731.071-.888-1.495-1.909-2.306-2.868-.5.742-1.086 1.441-1.486 2.234-1.352 2.674-2.638 5.383-2.965 9.063Zm14.749-2.954c-.617-2.665-2.31-5.701-1.555-7.891.789-2.289 2.122-2.859-1.313-3.019-2.92-.137-3.354 1.309-3.009 3.524.572 3.677 1.056 7.396 2.025 10.975.656 2.424 2.08 4.64 3.16 6.95.231-2.529.465-5.057.688-7.586.029-.326.004-.656.004-2.953Zm-17.699-80.743c-.925 4.209-1.957 8.398-2.728 12.635-.356 1.957-.203 4.007-.281 6.015 1.003-1.841 2.103-3.637 2.979-5.536.76-1.647 1.359-3.384 1.861-5.129.828-2.875-.143-7.807-1.831-7.985Zm10.816-12.8c2.645-1.792 3.618-4.429 2.847-7.349-.426-1.615-1.897-2.954-2.896-4.418-.312 1.464-.689 2.917-.92 4.393-.382 2.45-.67 4.915.969 7.374Zm-68.83 149.668c-.328 2.13-.888 4.257-.912 6.39-.02 1.803.58 3.614.906 5.42.908-1.561 1.998-3.048 2.672-4.705.677-1.663 1.398-3.544 1.216-5.234-.113-1.044-1.876-1.91-3.882-1.871Zm68.83-21.662c-.421-2.391-.783-4.795-1.326-7.157-.079-.342-1.118-.789-1.544-.653-.751.239-1.828.779-1.973 1.384-.997 4.162 2.07 9.193 6.198 10.29.182.048.967-1.032.9-1.507-.071-.507-.819-.919-2.255-2.357Zm-63.913-16.739c0-1.619.053-3.24-.029-4.854-.029-.57-.39-1.122-.599-1.683-.446.225-1.153.341-1.299.692-1.379 3.312-2.75 6.633-3.9 10.028-.232.686.475 1.69.749 2.547.685-.578 1.545-1.042 2.018-1.761.819-1.245 1.397-2.648 3.06-4.969Zm55.063 25.601c.663 1.977 1.181 4.024 2.075 5.889.281.586 1.559.838 2.416.935.403.046.888-.637 1.336-.989-4.173-2.405.069-4.754-.084-7.075-.084-1.266-1.776-2.425-2.743-3.633-.672 1.296-1.344 2.592-3 4.873Zm63.914-14.77c.983 2.189 1.904 4.411 3.009 6.537.192.371 1.163.336 1.774.488-.589-1.991-1.463-3.949-1.701-5.982-.358-3.072-1.254-4.262-3.082-1.043ZM275.57 405.894c-.328-2.153-.603-4.316-1.022-6.451-.096-.493-.68-.89-1.039-1.331-.231.231-.504.433-.687.698-1.66 2.407.344 9.445 3.044 10.726.229-.886.458-1.772-.296-3.642Zm-58.013-158.531c0 1.299-.079 2.604.027 3.894.073.897.401 1.772.615 2.658.441-.888.874-1.781 1.326-2.663.687-1.339 1.434-2.65 2.065-4.014.406-.877.649-1.829.964-2.747-1.338.629-2.676 1.258-4.997 2.872Zm13.766-33.478 1.874-6.001c-.461-.133-1.297-.441-1.328-.374-.887 1.913-1.764 3.84-2.449 5.831-.124.361.591 1.012 1.903.544Zm43.264 175.27-.626-6.535c-.447 2.164-1.082 4.311-1.276 6.498-.133 1.503.346 3.059.551 4.592.45-.215 1.163-.33 1.292-.668.216-.564.059-1.271.059-3.887Zm-78.663-133.914c1.119-.465 2.585-.652 3.246-1.482.512-.642.357-2.85-.088-3.05-2.352-1.055-3.45.032-3.158 4.532Zm84.563-106.344c.379 2.902.759 5.803 1.14 8.705.171-3.006.356-6.012.483-9.02.009-.214-.417-.446-1.623.315Zm-37.365 41.356 3.933-.811-1.066-4.03c-.628 1.286-1.256 2.571-2.867 4.841Zm29.498 84.681 1.255 2.682 2.644-2.648c-1.299-.668-2.599-1.336-3.899-.034Zm-1.966 139.822-1.967.984c.656.329 1.311.657 1.967-.984Zm0-159.515-1.967.984c.656.328 1.311.657 1.967-.984Zm-36.382-6.893-2.486.52c.116.425.304 1.227.336 1.221 1.054-.204 2.093-.486 2.15-1.741Zm89.479-38.402 1.967-.985c-.656-.328-1.312-.656-1.967.985Zm-35.398-64.988-.52-2.489c-.424.115-1.225.304-1.219.336.204 1.055.485 2.095 1.739 2.153Zm-11.8-1.969 1.967-.985c-.656-.328-1.311-.656-1.967.985Zm7.867-15.755 1.179.788c-.065-.591-.131-1.181-1.179-.788Zm-23.599 41.356a807 807 0 0 0 1.18.788c-.066-.591-.131-1.181-1.18-.788Zm67.846 58.095-.786 1.182c.59-.066 1.18-.132.786-1.182Zm8.85 42.341 1.18.788c-.066-.591-.131-1.182-1.18-.788Z" fill="#000"/></svg>