<svg width="534" height="534" viewBox="0 0 534 534" fill="none" xmlns="http://www.w3.org/2000/svg">
<path d="M313.362 199.87C316.688 190.057 320.018 180.916 323.331 171.77C323.6 171.029 323.752 170.245 323.958 169.481C322.908 169.312 321.61 168.66 320.846 169.05C313.992 172.548 307.308 176.381 300.422 179.81C294.866 182.576 289.134 185.005 283.385 187.349C282.602 187.668 281.046 186.851 280.273 186.116C279.904 185.764 280.251 184.151 280.765 183.492C281.852 182.102 283.071 180.223 284.57 179.837C297.037 176.629 298.464 166 301.31 156.057C306.72 137.157 309.43 117.934 309.362 98.2892C309.352 95.408 309.718 92.5109 310.096 89.6455C311.824 76.5322 316.108 77.8555 325.687 81.4397C352.283 91.3918 376.758 105.311 399.579 122.298C402.708 124.628 408.459 123.445 412.996 123.891C415.423 124.13 418.039 123.889 420.224 124.745C422.528 125.648 422.731 128.264 420 128.515C414.252 129.042 417.161 131.926 417.914 134.334C418.396 135.874 418.947 137.393 419.467 138.921C417.744 139.088 416.02 139.258 414.296 139.42C414.074 139.44 413.757 139.52 413.637 139.409C401.184 127.75 390.867 140.304 379.673 142.506C377.532 142.927 375.731 145.355 373.622 145.611C359.489 147.326 358.442 158.08 356.24 168.873C353.658 181.526 350.29 194.077 346.355 206.382C341.693 220.961 336.399 235.365 330.739 249.59C326.537 260.151 321.845 270.592 316.437 280.582C305.727 300.367 295.794 320.808 282.868 339.094C270.689 356.323 255.11 371.161 240.964 386.997C220.83 409.536 196.102 426.13 169.299 439.284C155.972 445.824 141.89 451.919 126.366 452.519C122.899 452.653 119.52 454.414 116.028 454.977C114.797 455.176 113.349 454.035 112 453.505C112.666 452.556 113.189 451.452 114.021 450.681C122.322 442.985 132.704 438.801 142.371 433.279C164.641 420.556 186.701 407.317 204.157 387.717C218.613 371.487 231.409 354.14 243.482 336.142C250.234 326.076 258.633 317.028 264.67 306.587C273.586 291.165 281.208 274.985 289.094 258.986C294.124 248.781 298.914 238.437 303.291 227.939C307.033 218.967 310.034 209.686 313.362 199.87ZM188.253 411.437C178.389 417.93 168.582 424.51 158.637 430.875C154.072 433.796 149.184 436.209 144.565 439.052C143.603 439.644 143.184 441.116 142.514 442.182C143.561 442.082 144.688 442.198 145.642 441.848C151.474 439.703 157.516 437.937 163.018 435.128C172.485 430.295 182.113 425.505 190.759 419.404C204.942 409.397 218.731 398.758 232.019 387.593C239.418 381.376 245.777 373.82 252.053 366.402C261.094 355.714 270.365 345.101 278.22 333.561C291.359 314.261 303.516 294.32 312.083 272.395C319.385 253.709 327.121 235.187 334.926 216.703C342.868 197.894 346.054 177.823 351.092 158.238C352.353 153.335 351.883 147.258 357.952 144.818C369.289 140.26 380.686 135.85 392.045 131.348C393.214 130.885 394.299 130.211 395.423 129.635C394.677 128.42 394.203 126.822 393.133 126.061C389.889 123.754 386.451 121.71 383.024 119.672C372.059 113.152 361.24 106.357 350.021 100.303C342.204 96.0856 333.84 92.8699 325.679 89.301C323.628 88.404 321.416 87.8713 319.279 87.1713C318.652 89.3744 317.686 91.5425 317.453 93.7863C315.998 107.769 315.111 121.823 313.216 135.743C312.004 144.651 309.326 153.356 307.444 162.182C307.072 163.928 307.333 165.808 307.303 167.626C308.834 166.996 310.372 166.385 311.894 165.735C318.179 163.052 324.424 160.264 330.811 157.851C331.298 157.667 333.882 160.427 333.634 161.28C330.206 173.039 326.846 184.845 322.685 196.357C316.778 212.698 310.474 228.909 303.858 244.977C299.368 255.878 294.407 266.622 289.013 277.107C282.255 290.242 275.905 303.785 267.476 315.824C251.19 339.082 234.041 361.786 216.288 383.952C208.365 393.846 198.118 401.885 188.253 411.437Z" fill="black"/>
</svg>
