<svg width="602" height="602" viewBox="0 0 602 602" fill="none" xmlns="http://www.w3.org/2000/svg">
<path d="M155.845 423.447C181.981 423.667 207.455 423.221 232.93 422.792C236.017 422.741 239.107 422.851 242.193 422.775C277.554 421.909 312.911 420.648 348.277 420.375C358.466 420.296 358.737 411.772 359.904 407.09C366.214 381.768 370.551 355.963 376.393 330.514C382.008 306.057 387.438 281.434 395.363 257.688C398.761 247.504 397.496 243.108 388.292 240.449C377.612 237.364 366.707 235.065 355.946 232.252C350.357 230.791 346.73 228.182 352.734 222.794C358.793 217.356 365.82 212.814 371.106 206.737C382.519 193.617 393.119 179.789 403.986 166.198C407.356 161.983 410.291 159.564 414.35 165.74C427.122 185.171 439.693 204.761 453.249 223.638C459.738 232.675 468.462 240.082 475.771 248.573C478.167 251.356 479.293 255.229 481 258.604C476.458 258.652 471.507 259.874 467.469 258.472C461.362 256.35 456.144 251.755 450.09 249.377C440.975 245.798 431.61 242.044 422.044 240.872C418.732 240.466 412.526 246.876 411.048 251.307C405.73 267.25 401.385 283.566 397.619 299.958C394.996 311.371 394.711 323.327 392.008 334.715C384.498 366.348 376.577 397.896 367.862 429.212C366.974 432.401 359.671 435.555 355.239 435.711C335.415 436.409 315.548 435.709 295.707 436.083C262.105 436.716 228.515 437.909 194.915 438.603C178.892 438.934 162.852 438.43 146.83 438.782C141.005 438.909 135.164 441.276 129.417 440.973C126.187 440.803 123.133 437.271 120 435.253C121.809 433.072 123.4 430.656 125.463 428.749C134.112 420.757 144.02 418.523 155.845 423.447ZM380.243 219.059C379.145 221.49 378.048 223.921 376.95 226.352C384.403 227.449 391.93 229.577 399.264 229.043C401.605 228.873 403.59 221.712 405.424 217.609C406.29 215.669 406.416 213.399 406.877 211.278C404.755 212.412 402.092 213.074 400.608 214.767C395.345 220.769 389.691 224.485 380.243 219.059ZM418.636 223.028C420.146 226.115 421.656 229.201 423.166 232.288C424.304 229.263 426.495 226.182 426.339 223.224C426.087 218.445 424.292 213.748 423.148 209.016C421.644 212.805 420.14 216.593 418.636 223.028Z" fill="black"/>
</svg>
