<svg width="602" height="602" viewBox="0 0 602 602" fill="none" xmlns="http://www.w3.org/2000/svg">
<path d="M381.965 306.431C389.372 311.296 396.379 315.809 403.437 320.242C405.023 321.238 406.727 322.126 408.493 322.716C409.25 322.969 410.304 322.333 411.224 322.101C410.908 321.235 410.742 320.274 410.256 319.517C401.233 305.466 390.794 292.569 379.121 280.608C375.246 276.638 372.084 271.932 368.921 267.339C368.162 266.236 368.056 263.395 368.781 262.847C370.031 261.903 372.666 261.289 373.855 261.993C387.13 269.861 400.602 277.484 413.276 286.249C422.931 292.926 431.579 301.074 440.567 308.695C461.243 326.228 481.954 343.722 502.386 361.535C505.721 364.442 509.338 368.673 509.897 372.699C510.618 377.885 507.547 381.582 500.761 382.443C489.458 383.879 478.38 387.059 467.199 389.469C454.845 392.132 442.515 394.926 430.113 397.345C418.558 399.6 406.99 402.15 395.303 403.272C381.632 404.584 367.827 404.517 354.079 404.994C348.715 405.18 351.049 401.007 352.07 399.802C354.57 396.85 357.681 394.203 361.009 392.204C371.953 385.63 383.114 379.42 394.148 372.995C394.961 372.522 396.121 371.132 395.93 370.727C395.275 369.333 394.274 367.328 393.083 367.075C373.669 362.957 356.946 352.582 339.164 344.589C312.651 332.671 285.568 322.025 258.837 310.581C227.577 297.198 194.578 287.945 164.807 271.035C144.928 259.743 124.198 250.361 102.453 243.253C102.237 243.183 102.12 242.811 101.905 242.743C98.9838 241.825 93.7869 241.346 93.5367 239.964C92.6795 235.233 92.8713 230.029 93.9667 225.307C95.0606 220.593 97.5421 216.152 99.7434 211.756C102.235 206.779 99.5344 204.686 95.5627 202.794C94.1854 202.137 93.1769 200.708 92 199.632C94.0535 199.074 96.4112 197.572 98.1098 198.117C107.042 200.988 116.41 203.291 124.522 207.783C152.41 223.225 183.032 230.876 212.918 240.826C233.574 247.703 253.389 257.066 273.748 264.88C295.656 273.288 317.813 281.045 339.76 289.354C353.797 294.668 367.649 300.468 381.965 306.431ZM451.658 385.216C465.924 381.664 480.181 378.077 494.462 374.589C497.156 373.931 499.945 373.661 502.689 373.211C500.249 370.968 497.865 368.658 495.342 366.512C494.277 365.607 492.762 365.223 491.715 364.303C474.218 348.916 456.938 333.278 439.242 318.125C425.866 306.67 412.007 295.774 398.264 284.752C396.288 283.167 393.759 282.27 391.486 281.054C392.95 283.492 393.944 286.446 395.958 288.28C406.749 298.111 414.695 309.724 418.89 323.719C419.32 325.152 417.743 328.685 417.286 328.652C412.237 328.283 406.738 328.48 402.288 326.472C382.391 317.493 363.104 307.113 342.997 298.661C325.712 291.395 307.344 286.73 289.936 279.723C254.89 265.615 221.159 248.128 184.018 239.51C160.012 233.94 138.54 221.898 115.944 212.715C106.077 208.705 105.833 209.136 103.575 218.724C100.778 230.604 103.822 236.033 114.178 239.892C125.595 244.147 136.987 248.618 147.946 253.912C161.299 260.363 173.911 268.37 187.356 274.599C201.592 281.192 216.149 287.35 231.057 292.186C274.958 306.429 316 327.316 358.172 345.582C370.647 350.986 383.311 355.974 396.025 360.793C405.26 364.294 407.126 370.627 400.202 377.173C398.132 379.131 395.636 380.718 393.141 382.134C385.758 386.326 378.234 390.272 370.883 394.518C369.806 395.141 369.369 396.872 368.636 398.09C369.994 398.277 371.395 398.773 372.704 398.597C378.682 397.792 384.614 396.639 390.6 395.909C400.06 394.757 409.649 394.386 419.001 392.683C429.484 390.775 439.765 387.753 451.658 385.216Z" fill="currentColor"/>
</svg>
