<svg width="534" height="534" viewBox="0 0 534 534" fill="none" xmlns="http://www.w3.org/2000/svg">
<path d="M319.11 129.689C315.482 135.479 313.917 142.096 306.416 144.172C304.206 144.785 302.291 147.859 301.02 150.221C288.349 173.769 276.996 197.857 271.58 224.28C264.889 256.929 258.228 289.584 251.422 322.209C250.752 325.423 248.978 328.394 248.06 331.577C247.488 333.559 247.561 335.726 247.345 337.811C248.895 337.39 250.538 337.172 251.979 336.514C258.071 333.729 264.075 331.362 271.103 333.3C273.163 333.869 275.757 332.238 278.146 331.992C279.939 331.807 282.416 331.584 283.434 332.567C284.314 333.417 284.292 336.481 283.424 337.637C277.644 345.333 271.422 352.698 265.544 360.324C249.151 381.588 227.85 398.995 215.652 423.614C214.437 426.067 210.613 427.235 208 429C207.04 426.17 205.323 423.359 205.251 420.506C204.942 408.365 204.919 396.208 205.179 384.065C205.41 373.237 206.264 362.424 206.623 351.597C206.847 344.844 206.128 338.016 206.907 331.347C207.261 328.324 210.177 325.568 212.131 322.834C212.251 322.666 214.512 323.483 215.092 324.316C215.771 325.292 216.057 326.833 215.9 328.05C214.323 340.22 223.278 347.249 234.751 342.633C235.921 342.162 237.211 340.719 237.494 339.506C242.248 319.122 247.577 298.835 251.342 278.266C260.04 230.755 270.768 184.094 295.821 141.825C303.37 129.088 312.832 118.225 322.863 107.658C324.04 106.418 326.639 106.52 328.579 106C328.646 108.115 329.449 110.576 328.644 112.283C325.901 118.1 322.591 123.651 319.11 129.689ZM263.081 345.794C260.539 349.355 257.917 352.863 255.523 356.519C255.026 357.278 255.376 358.588 255.335 359.644C256.213 359.294 257.398 359.193 257.918 358.554C261.012 354.75 264.069 350.902 266.865 346.879C267.588 345.839 267.327 344.119 267.518 342.712C266.296 343.482 265.075 344.253 263.081 345.794ZM232.941 377.381C232.449 379.973 231.957 382.564 231.466 385.156C232.01 385.08 233 385.087 233.032 384.916C233.515 382.342 233.882 379.746 234.232 377.15C234.252 376.996 233.895 376.792 232.941 377.381ZM231.395 354.268C232.923 354.286 234.452 354.303 235.98 354.32C235.503 353.297 235.026 352.273 234.549 351.249C233.498 351.742 232.446 352.235 231.395 354.268Z" fill="black"/>
</svg>
