<svg width="534" height="534" viewBox="0 0 534 534" fill="none" xmlns="http://www.w3.org/2000/svg"><path d="M429.848 406.197c-13.827-.284-26.746-2.121-39.714-2.624-10.437-.404-20.929 1.018-31.404 1.149-2.669.034-5.365-1.755-8.048-2.707 1.283-2.422 2.073-5.344 3.934-7.18 7.585-7.48 15.829-14.31 23.199-21.985 7.486-7.798 5.931-14.503-3.416-19.245-2.965-1.505-5.767-3.421-8.41-5.453-8.871-6.818-14.574-16.964-24.713-22.645-6.395-3.582-7.438-12.023-11.93-17.023-4.078-4.54-13.617-4.743-16.71-9.486-5.927-9.09-16.76-14.36-19.522-25.836-.5-2.076-3.739-4.148-6.14-4.968-3.474-1.187-8.957.094-10.702-2.035-3.765-4.593-7.011-10.471-7.977-16.235-.837-4.993-3.173-9.861-6.5-10.085-6.141-.413-6.064-3.523-5.959-7.543.129-4.919-.42-8.1-7.047-7.546-8.094.677-15.997-.105-18.889-10.478-.767-2.751-4.74-5.503-7.791-6.425-2.089-.632-5.101 1.974-7.75 3.007-3.902 1.521-8.501-1.533-8.441-5.92.063-4.61.914-9.204 1.042-13.817.079-2.824 1.237-7.636-4.643-3.363-2.872 2.088-6.614 3.151-10.111 4.174-6.485 1.897-10.335-1.792-9.92-9.006.125-2.183-.145-4.394-.296-6.587-.291-4.198-1.512-5.763-5.55-2.556-1.814 1.44-4.492 2.277-6.85 2.456-7.131.542-8.507-1.396-6.716-8.683.952-3.877 1.972-7.737 2.962-11.605l-11.452 4.278c-1.909.713-3.767 1.659-5.738 2.086-3.07.664-6.217.974-9.332 1.435.084-4.03-.131-8.102.411-12.069.197-1.438 3.166-2.621 3.168-3.926.004-2.127 2.372-6.736-3.498-5.539-2.083.425-4.258.424-6.324.9-9.428 2.173-11.056 1.328-9.766-8.565.621-4.755-2.121-2.766-3.095-2.507-5.943 1.58-11.767 3.596-17.688 5.263-1.306.368-2.846-.086-4.277-.162.435-1.448.501-3.178 1.36-4.302 10.233-13.384 24.819-16.562 40.527-16.741 3.43-.039 4.075 1.496 2.46 5.006-1.389 3.02-2.736 8.038 4.375 4.163 2.596-1.414 6.318-4.208 9.87.627 2.796 3.805 3.539 6.496.547 10.218-.942 1.171-1.254 3.044-1.359 4.63-.075 1.138.465 3.165 1.1 3.325 1.266.322 3.366.131 4.103-.725 3.863-4.488 8.78-5.952 14.458-6.688 5.717-.74 7.09 1.807 6.505 6.59-.246 2.003-.689 4.104-1.591 5.881-2.97 5.851-3.381 8.564 4.886 6.126 4.852-1.431 7.885 2.621 8.832 7.249.61 2.982.502 6.133.513 9.209.015 4.148.604 3.913 3.969 1.628 3.586-2.434 8.324-4.196 12.619-4.32 5.995-.174 10.698 5.281 8.961 11.199-2.051 6.985 1.548 10.711 6.243 11.8 7.505 1.742 11.268 7.102 12.378 12.803 1.516 7.794 6.437 5.935 10.922 6.174 4.864.26 9.762-.083 14.618.249 1.476.101 3.981 1.418 4.117 2.43 1.578 11.664 14.961 18.736 12.26 32.141-.885 4.391 2.009 6.363 6.671 7.433 8.414 1.93 13.322 8.273 19.163 14.704 9.114 10.035 14.673 24.249 29.619 28.862 3.134.966 5.184 6.221 7.244 9.783 4.059 7.019 9.316 11.95 16.524 16.407 9.321 5.763 16.577 14.897 24.618 22.686 1.458 1.412 2.138 3.667 3.661 4.963 5.469 4.652 12.313 2.271 13.092-4.754.464-4.19-.932-10.31 4.606-9.973 3.05.186 5.76 6.37 8.576 9.889.223.278-.113 1.036.118 1.27 7.653 7.785 8.339 18.589 12.047 28.046 2.991 7.631 5.207 15.613 7.065 23.6.423 1.822-2.048 4.31-4.074 7.468Z" fill="#000"/></svg>