<svg width="534" height="534" viewBox="0 0 534 534" fill="none" xmlns="http://www.w3.org/2000/svg">
<path d="M288.634 285.163C278.33 281.222 269.596 275.219 261.081 268.877C249.648 260.361 238.545 251.373 226.83 243.27C215.196 235.223 203.047 227.91 191 220.477C176.925 211.794 161.586 207.606 144.999 207.285C137.828 207.146 130.656 204.574 123.537 204.799C111.529 205.178 99.7568 207.704 88.4214 212.059C85.2859 213.263 81.7563 213.491 78.3795 213.97C77.648 214.073 76.7964 213.326 76 212.97C76.5441 212.191 76.9322 210.958 77.6584 210.707C81.6569 209.325 85.8614 208.487 89.768 206.901C102.017 201.928 114.833 199.637 127.882 200.047C137.766 200.357 147.597 202.378 157.452 203.64C169.665 205.202 181.255 208.965 191.844 215.092C202.82 221.442 213.529 228.325 223.916 235.604C235.583 243.781 246.63 252.842 258.184 261.188C270.106 269.799 282.519 277.445 296.061 283.585C307.882 288.944 319.595 294.338 331.946 298.349C342.96 301.926 353.919 305.564 365.682 305.74C381.902 305.982 398.121 306.353 414.341 306.664C415.441 306.685 416.706 306.316 417.608 306.741C419.447 307.607 421.09 308.89 422.814 310.001C421.119 310.465 419.428 311.316 417.729 311.331C405.311 311.446 392.88 311.065 380.474 311.472C362.784 312.052 345.91 308.518 329.474 302.411C319.259 298.615 309.109 294.637 299.007 290.548C295.507 289.131 292.242 287.133 288.634 285.163Z" fill="black"/>
<path d="M457.984 321.554C458.036 322.42 457.971 323.533 457.652 323.611C445.946 326.489 434.235 329.357 422.478 332.021C418.264 332.976 413.947 333.577 409.643 333.985C408.152 334.127 406.559 333.199 405.013 332.759C406.363 331.623 407.555 329.852 409.092 329.469C414.123 328.213 419.302 327.57 424.381 326.49C431.293 325.021 438.108 322.984 445.076 321.918C450.094 321.151 448.385 318.651 446.6 316.971C443.811 314.346 440.262 312.553 437.23 310.159C431.869 305.927 426.592 301.584 421.401 297.145C417.645 293.933 413.975 290.601 410.515 287.078C409.62 286.168 409.659 284.336 409.27 282.927C410.473 283.26 411.94 283.261 412.838 283.979C421.366 290.791 429.847 297.666 438.24 304.644C444.817 310.113 451.251 315.754 457.984 321.554Z" fill="black"/>
</svg>
