<svg width="534" height="534" viewBox="0 0 534 534" fill="none" xmlns="http://www.w3.org/2000/svg"><path d="M472.713 426.391c-8.515 4.173-16.456 7.861-20.614 16.587-.767 1.61-3.492 2.208-5.136 3.5-1.455 1.143-3.287 2.373-3.863 3.962-1.768 4.873-6.532 5.767-10.156 7.807-3.705 2.086-5.677-.326-4.824-5.202 1.448-8.276 2.469-16.6 5.631-24.544 1.757-4.415-.772-6.411-5.411-8.484-12.986-5.805-26.834-10.005-38.008-19.413-1.837-1.546-4.051-2.636-5.947-4.121-4.709-3.684-10.304-6.409-12.052-13.09-.565-2.159-3.199-3.744-4.783-5.676-1.795-2.189-3.155-2.055-5.385-.155-9.584 8.168-21.599 9.71-33.399 11.943-6.265 1.185-12.248 3.099-18.608.018-4.141-2.007-10.776-10.492-10.532-14.727.208-3.614 7.994-9.464 12.94-10.401 8.841-1.676 17.542-4.14 26.413-5.583 8.041-1.308 16.135.046 23.09 4.199 3.189 1.904 4.551 1.225 6.066-.981 2.02-2.944 4.162-5.962 5.383-9.27 3.722-10.078 9.879-19.536 8.558-31.006-.207-1.796-.365-3.682-1.037-5.325-3.299-8.057-4.631-8.085-10.852-2.563-15.772 14.001-33.557 23.984-54.698 27.75-7.148 1.273-12.675.382-17.64-4.818-4.952-5.189-5.72-14.469-1.159-20.221 7.641-9.635 17.687-14.86 30.009-15.471 13.796-.685 27.591-1.544 41.396-1.77 3.934-.064 6.5-2.052 7.618-4.58 5.019-11.348 10.457-22.68 13.757-34.571 3.177-11.451-8.309-20.652-19.434-16.575-1.405.514-2.527 2.535-3.235 4.104-6.931 15.356-17.988 26.825-33.051 34.072-9.195 4.423-18.345 9.909-29.371 7.788-6.934 4.189-13.019.21-18.142-3.178-10.651-7.042-10.701-21.605-1.637-32.505 6.526-7.849 16.113-11.48 24.869-16.218 8.989-4.864 18.628-3.697 28.165-3.775 7.03-.057 14.064-.104 21.093.023 4.437.08 6.534-.653 8.444-6.019 3.922-11.017 3.276-22.01 3.345-33.12.021-3.396-6.8-9.925-10.471-10.846-2.006-.503-3.927-1.346-5.928-1.88-9.504-2.536-8.849-2.105-13.934 6.076-3.902 6.276-9.079 12.188-14.876 16.75-8.216 6.465-17.364 11.811-26.411 17.13-8.543 5.022-18.196 4.187-27.079 1.919-8.203-2.093-11.72-16.498-5.502-22.614 10.588-10.413 21.278-20.525 37.25-23.522 9.751-1.83 19.037-5.947 29.34-5.459 4.251.201 6.401-2.112 7.564-6.862 1.7-6.941 5.352-13.273 5.373-20.846.013-4.315-2.309-7.644-4.985-8.297-6.701-1.633-13.003-5.361-20.377-4.337-2.86.397-4.665 1.198-5.517 3.952-6.455 20.867-21.597 33.725-39.478 44.772-7.819 4.831-16.402 6.854-24.507 10.434-5.057 2.233-9.377-.949-13.039-4.596-3.549-3.535-1.174-6.658.254-10.096 2.154-5.186 3.449-10.764 5.909-15.782 5.036-10.276 10.972-19.597 23.289-22.944 9.391-2.552 18.39-6.516 27.654-9.578 3.126-1.033 6.649-.865 9.774-1.902 3.263-1.083 7.546-1.57 8.139-6.036.43-3.237-4.354-8.349-7.87-9.232-12.715-3.196-25.667-1.638-38.52-1.77-1.756-.018-4.618 1.548-5.124 3.016-3.478 10.108-12.693 14.859-19.549 21.785-.62.627-1.638.873-2.223 1.52-9.954 11.026-23.853 14.697-37.018 19.467-7.31 2.65-10.061-.305-10.516-8.313-.358-6.297 2.245-10.903 5.64-15.994 6.216-9.319 12.732-18.08 23.299-22.498 5.448-2.277 11.37-3.518 17.17-4.817 4.449-.997 9.096-1.125 13.527-2.18.902-.214 2.153-3.407 1.641-4.241-1.248-2.032-3.247-3.769-5.278-5.12-6.852-4.558-14.795-6.782-22.7-7.463-7.297-.628-14.836.718-22.153 1.906-1.403.228-3.738 4.523-3.155 5.642 4.777 9.163-.44 17.263-4.47 23.562-9.419 14.723-22.799 26.126-37.429 35.824-7.019 4.652-14.044 9.295-21.117 13.863-1.991 1.285-4.04 2.824-6.27 3.33-9.065 2.058-17.131-7.747-14.666-16.986 4.148-15.559 13.72-27.87 23.118-40.347 7.239-9.61 16.721-16.078 27.891-20.267 2.208-.829 4.351-1.871 6.417-3.01.637-.352 1.3-1.38 1.251-2.046-.046-.616-1.054-1.687-1.593-1.66-5.274.268-10.561.536-15.798 1.181-5.101.63-10.239 1.353-15.198 2.653-9.48 2.486-19.123 4.726-28.158 8.4-5.736 2.334-10.486 7.086-15.698 10.725-11.814 8.247-22.6 17.604-30.645 29.691-2.44 3.667-4.506 7.767-5.803 11.959-1.214 3.928-4.134 5.828-6.691 4.052-1.989-1.381-4.623-5.127-2.46-8.815 3.78-6.444 6.948-13.421 11.656-19.109 10.167-12.279 21.196-23.487 35.57-31.496 13.138-7.32 26.902-12.894 41.161-16.329 14.61-3.52 29.925-4.655 44.95-.137 3.18.956 6.961 2.043 9.929 1.194 12.794-3.66 25.902-2.356 38.529-1.237 11.517 1.02 23.241 5.626 28.413 18.006 1.531 3.664 3.388 4.632 6.834 4.574 6.391-.108 12.797-.28 19.173.037 6.782.338 13.568.99 20.294 1.925 5.106.709 11.1 7.302 11.403 11.822.619 9.222.56 10.332 8.789 10.772 5.831.312 10.44 2.923 15.621 4.324 4.997 1.351 7.64 6.077 8.282 11.004 1.12 8.581-1.734 16.434-4.159 24.268-.722 2.334-2.883 4.45-.833 6.546 1.81 1.85 4.395 3.2 6.884 4.046 2.277.774 4.946.305 7.333.858 8.914 2.062 15.364 6.785 16.569 16.578.237 1.922-.007 3.919-.173 5.869-.075.865-.863 1.763-.723 2.538 1.879 10.458-3.177 19.979-4.249 30.061-.512 4.817.174 6.105 4.256 5.576 5.842-.757 10.727 1.499 15.69 3.904 2.551 1.236 3.783 3.031 3.448 5.948-.705 6.127-.383 12.545-2.136 18.342-3.247 10.734-5.486 21.996-12.263 31.365-2.239 3.096-.767 5.086 1.413 7.276 6.532 6.562 7.648 13.661 5.713 23.167-2.968 14.586-8.428 27.838-14.875 40.974-.781 1.592-.073 5.025 1.223 6.357 9.549 9.81 17.496 21.5 30.716 27.161 6.788 2.906 13.489 6.028 20.345 8.763 4.34 1.731 5.804.68 6.278-3.741.658-6.133 1.46-12.259 1.836-18.41.15-2.448.728-3.235 3.235-3.231 5.611.01 10.852.133 15.624 4.179 3.054 2.588 7.192 4.288 11.123 5.355 6.173 1.674 10.098 6.072 13.819 10.503 3.803 4.529 3.054 9.814-.898 14.944-1.853 2.406-3.614 4.885-5.897 7.81Zm-143.36-150.259c9.252-3.754 17.123-9.091 22.134-18.147 1.758-3.178 4.461-5.823 6.642-8.779 1.064-1.442 1.919-3.037 2.869-4.562-2.094-1.025-4.154-2.841-6.289-2.935-7.972-.353-16.008.365-23.949-.248-15.702-1.213-27.217 6.687-38.545 15.965-5.566 4.558-5.193 10.712-3.65 15.507 1.458 4.529 6.431 8.613 12.104 8.847 9.499.393 19.225 1.217 28.684-5.648ZM189.349 91.789c-.956 0-2.096-.345-2.843.051-14.062 7.456-30.219 11.65-40.114 25.648-.545.771-1.397 1.316-2.003 2.052-8.046 9.773-14.484 20.548-18.718 32.454-.815 2.294 1.108 5.564 1.768 8.385 2.179-.542 4.401-.956 6.513-1.69.814-.282 1.294-1.406 2.064-1.95 13.783-9.738 28.693-17.738 39.638-31.472 5.518-6.923 11.709-13.063 15.21-21.424 1.677-4.006 2.762-7.542-1.515-12.054Zm67.125 65.288c-5.823 5.529-5.945 13.496-8.52 20.387-1.291 3.454.63 5.325 4.44 4.57 1.759-.349 3.505-.761 5.251-1.169 10.227-2.384 17.73-9.592 26.414-14.748 10.516-6.244 16.161-16.259 22.038-26.197.836-1.413.681-3.413.985-5.141-1.726-.048-3.584-.538-5.158-.072-9.634 2.856-19.399 5.431-28.726 9.104-6.22 2.449-13.185 4.802-16.724 13.266Zm55.618 26.884c-3.552.64-7.396.62-10.6 2.044-9.68 4.302-19.475 8.648-26.15 17.496-3.198 4.241-2.358 9.507 2.364 11.041 6.912 2.245 14.16 3.862 21.166-.088 3.106-1.752 6.098-3.706 9.167-5.526 10.971-6.505 20.24-14.869 27.389-25.461.406-.602-.633-3.183-1.068-3.201-7.034-.294-13.906.597-22.268 3.695Zm45.07 131.536c1.762-1.124 3.681-2.07 5.233-3.434 1.075-.945 1.643-2.466 2.438-3.729-1.604-.493-3.234-1.476-4.81-1.397-9.608.479-19.229 1.93-28.796 1.603-7.342-.251-13.644 2.567-20.35 4.187-3.513.849-10.052 9.683-8.761 11.893 1.69 2.896 4.973 4.877 7.622 7.192 3.773 3.295 8.344 2.518 12.338 1.338a121.9 121.9 0 0 0 18.885-7.362c5.328-2.603 10.18-6.183 16.201-10.291ZM237.296 112.912c-15.249 1.869-24.943 11.071-31.743 24.098-1.232 2.361-2.69 4.632-3.632 7.102-.335.881.428 2.297.986 3.304.105.19 1.681-.261 2.463-.649 15.209-7.557 31.085-14.153 41.762-28.376 1.585-2.111 2.907-4.42 4.35-6.637-3.001-.064-6.008-.252-9.001-.126-1.105.047-2.179.834-5.185 1.284Zm113.153 255.392c-4.884-1.921-9.828-.404-14.639.127-7.168.791-14.281 2.26-21.321 3.865-1.348.308-2.842 2.466-3.141 3.992-.189.968 1.552 3.175 2.7 3.394 5.086.971 10.407 2.47 15.389 1.82 7.607-.991 15.056-3.421 22.454-5.634 1.977-.592 3.526-2.615 5.271-3.981-1.598-1.195-3.196-2.389-6.713-3.583Z" fill="#000"/></svg>