<svg width="534" height="534" viewBox="0 0 534 534" fill="none" xmlns="http://www.w3.org/2000/svg">
<path d="M328.264 301.462C313.759 334.646 300.164 367.099 286.15 399.374C284.59 402.966 280.098 408.391 277.93 407.978C273.638 407.158 268.539 403.682 266.361 399.851C251.265 373.297 237.1 346.222 222.091 319.617C212.988 303.481 202.263 288.22 193.718 271.819C191.547 267.652 194.913 260.635 195.735 254.927C199.75 256.06 205.895 255.934 207.443 258.523C220.145 279.77 232.127 301.448 244.051 323.145C252.212 337.996 259.302 353.462 268.069 367.936C273.737 377.295 280.863 376.773 284.932 365.969C296.663 334.827 308.031 303.549 319.664 272.37C321.176 268.318 322.662 263.835 325.517 260.822C328.227 257.961 332.718 256.769 336.426 254.843C337.675 260.182 340.884 265.972 339.768 270.766C337.383 281.011 332.758 290.74 328.264 301.462Z" fill="black"/>
<path d="M281.068 204.508C285.001 206.508 291.3 210.201 290.795 211.929C286.746 225.782 282.374 239.724 276.098 252.68C272.57 259.962 265.621 262.308 259.747 252.742C251.291 238.968 242.012 225.688 233.789 211.785C232.591 209.759 234.756 205.103 236.514 202.402C237.064 201.558 242.402 202.223 243.806 203.764C250.524 211.14 256.623 219.071 262.996 226.76C264.071 228.056 265.413 229.132 266.632 230.31C268.56 227.663 270.848 225.201 272.338 222.33C275.223 216.772 277.659 210.983 281.068 204.508Z" fill="black"/>
<path d="M291.291 127.101C294.163 128.938 297.004 131.674 296.531 132.477C288.364 146.31 280.446 160.399 270.762 173.147C268.766 175.776 255.719 174.916 254.818 172.756C250.009 161.231 246.906 148.885 244.535 136.571C244.047 134.041 249.184 130.439 251.729 127.332C254.316 129.749 257.372 131.849 259.32 134.698C260.58 136.54 259.709 139.707 260.697 141.874C262.333 145.462 264.698 148.723 266.756 152.121C268.641 148.405 271.963 144.756 272.146 140.958C272.719 129.07 279.639 126.411 291.291 127.101Z" fill="black"/>
</svg>
