<svg width="534" height="534" viewBox="0 0 534 534" fill="none" xmlns="http://www.w3.org/2000/svg"><path d="M284.98 348.866c-.182 5.431-.871 10.255-1.962 15.075-.795 3.518-.989 7.217-1.064 10.843-.119 5.789-.896 11.448-2.009 17.124-.627 3.202.346 6.625-1.018 9.86-.221.527.774 1.701 1.417 2.375.185.194 1.223-.166 1.671-.523 4.588-3.654 10.142-4.114 15.592-4.384 5.91-.293 11.605-1.377 17.326-2.765 3.639-.882 7.462-1.099 11.22-1.335.937-.059 2.469.756 2.769 1.538.302.785-.326 2.268-1.009 3.031-2.141 2.396-4.448 4.653-6.785 6.865-7.715 7.302-13.53 16.091-19.608 24.699-3.495 4.952-7.209 9.795-11.253 14.301-4.561 5.082-9.74 9.602-14.399 14.602-5.115 5.491-10.151 11.085-14.827 16.949-3.298 4.136-5.752 8.938-8.926 13.185-2.975 3.982-6.281 7.737-9.674 11.376-2.036 2.185-4.116 1.594-5.634-1.33-1.384-2.667-2.53-5.459-3.941-8.11-2.093-3.931-4.39-7.753-6.478-11.686-1.109-2.089-2.316-4.229-2.863-6.495-1.744-7.227-5.859-13.113-10.254-18.831-1.635-2.128-3.734-3.912-5.702-5.766-3.574-3.367-3.396-6.116.391-9.294 2.239-1.879 4.537-3.86 6.188-6.229 2.27-3.256 5.627-4.878 8.703-6.954 3.859-2.606 7.898-4.954 11.672-7.675 3.598-2.593 6.874-5.631 10.441-8.271 3.131-2.317 3.182-5.974 4.01-9.116 1.506-5.715 2.889-11.582 2.131-17.584-.642-5.086 1.875-9.611 2.198-14.512.128-1.934.859-3.844.867-5.766.019-4.965.805-9.749 1.756-14.631.739-3.794 1.498-8.077-1.16-12.162-1.2-1.845-.61-5.23-.076-7.756 1.319-6.241 3.146-12.373 4.621-18.584.562-2.371.653-4.85 1.074-7.26 1.057-6.05 2.178-12.09 3.278-18.134.607-3.338.975-6.746 1.896-9.996 1.261-4.449.139-9.183 1.928-13.558.42-1.025.102-2.37.055-3.566-.154-3.975.536-7.802 1.9-11.528.165-.45.126-.98.156-1.475.345-5.672.749-11.343 1.003-17.02.155-3.441-.356-6.96 1.735-10.069.25-.372.304-.92.33-1.393.357-6.699.831-13.395.992-20.098.131-5.453.528-10.829 2.069-16.087.185-.63-.007-1.363.03-2.045.334-6.187.119-12.472 1.191-18.528.922-5.213.416-10.363.916-15.504.423-4.349 1.35-8.65 2.119-12.961.135-.759.832-1.451.859-2.189.395-10.802 1.226-21.622.894-32.405-.243-7.916-1.486-15.822-2.012-23.773-.563-8.493-2.546-16.845-3.169-25.396-.275-3.775-.679-7.581-.798-11.392-.077-2.434.485-5.198 2.887-5.545 1.161-.168 3.301 2.476 4.061 4.25 2.366 5.513 4.229 11.241 6.433 16.828.355.899 1.338 1.874 2.241 2.172 3.378 1.115 4.612 2.302 4.856 5.9.475 6.978 2.183 13.654 3.951 20.405 1.525 5.824 1.41 12.062 2.268 18.081.636 4.458.394 9.087 2.567 13.297.563 1.091.443 2.591.448 3.905.035 8.722-.027 17.444.064 26.165.015 1.401.235 3.125 1.056 4.131 2.366 2.899 1.961 6.194 1.97 9.473.015 5.644.136 11.292-.031 16.93-.193 6.533-.463 13.074-1.037 19.582-.734 8.326-2.435 16.527-3.178 24.881-.656 7.364-2.664 14.6-3.917 21.92-.555 3.242-.758 6.548-1.054 9.831-.906 10.04-1.88 20.025-4.922 29.759-1.439 4.608-1.657 9.618-2.233 14.47-.624 5.252-1.045 10.529-1.476 15.802-.048.582.252 1.511.679 1.741.672.361 1.608.189 2.401.376 3.026.713 4.06 3.229 2.347 5.726-.38.555-.865 1.208-1.448 1.426-5.432 2.029-5.341 7.321-6.519 11.589-1.499 5.43-2.178 11.088-3.174 16.653-.119.664-.017 1.367-.017 2.565Zm2.564-158.047-.076.951c.196-.317.392-.634 1.101-.951l.075-.951c-.196.317-.392.634-1.1.951ZM275.24 454.573l-1.306.28.205.671c.538-.317 1.076-.634 2.126-.951l.075-.951c-.196.317-.392.634-1.1.951Zm31.272-284.792c.043-2.432-.409-4.848-.181-7.299.04-.423-.89-.937-1.372-1.409-.166.442-.457.88-.477 1.329-.112 2.527.279 5.173-.349 7.555-.655 2.482.141 4.851-.094 6.919-.271 2.382-.298 4.862-.58 7.276-.341 2.928.356 5.868-.913 8.839-.74 1.73-.15 4.036-.118 6.082.005.289.244.574.374.861.361-.28.847-.491 1.055-.858.306-.538.552-1.182.583-1.793.375-7.36.688-14.724 1.06-22.085.083-1.639.329-3.27 1.012-5.417Zm-10.253 69.787c-.342 2.413-.712 4.824-.999 7.244-.052.434.239.909.372 1.365.24-.506.594-.989.699-1.522.406-2.057.757-4.126 1.084-6.198.656-4.162 1.322-8.323 1.88-12.499.092-.69-.345-1.452-.538-2.18-.491.648-1.324 1.252-1.415 1.952-.466 3.59-.741 7.205-1.083 11.838Zm-35.887 138.547c0 1.18-.106 2.376.057 3.533.058.41.774.726 1.19 1.085.268-.338.737-.655.773-1.016A417.82 417.82 0 0 0 263.414 370c.035-.487-.389-1.007-.601-1.512-.472.479-1.253.897-1.362 1.448-.467 2.363-.737 4.765-1.079 8.179Zm30.76 49.261c-.35-2.868-2.563-1.607-3.702-1.278-1.75.506-3.187 2.243-4.929 2.588-2.131.423-1.604 1.608-1.57 2.848.812-.164 1.625-.321 2.436-.492 2.633-.553 4.147-3.686 7.765-3.666Zm-22.557-67.734c1.562-3.132.918-6.497 1.008-9.781.007-.284-.236-.575-.363-.863-.215.333-.552.641-.626 1.003a340.64 340.64 0 0 0-1.855 9.807c-.007.038.863.228 1.836-.166Zm7.177 84.155c-1.736.329-2.33 1.375-2.1 3.094.059.442-.363.948-.563 1.424.659.033 1.614.358 1.921.045.918-.936 1.213-2.676 3.147-1.998.083-.996.464-2.094.17-2.962-.342-1.009-1.291-1.452-2.575.397Zm15.38-279.148c0-1.867.033-3.736-.014-5.602-.022-.892.449-2.392-1.226-2.003-.731.169-1.867 1.516-1.725 2.019.591 2.097 1.598 4.077 2.965 5.586Zm1.026 47.209 2.05.922c.342-2.031.716-4.057.999-6.095.06-.426-.194-1.273-.342-1.282-.562-.034-1.565.075-1.643.347-.471 1.661-.733 3.381-1.064 6.108Zm-6.152 0c0 .17-.074.407.011.501 1.292 1.433-2.751 2.651-.163 4.117.734-1.438 1.796-2.812 2.093-4.336.217-1.111-.558-2.424-.925-3.636-.128-.424-.361-.816-.545-1.223-.361.361-1.026.727-1.021 1.083.011.825.346 1.645.55 3.494Zm-7.178 29.762c-.933-.72-1.874-1.045-2.017.567-.149 1.677-.074 3.379-.02 5.067.041 1.31.2 2.616.307 3.923.235-1.126.099-2.621.779-3.305 1.629-1.642.641-3.502.951-6.252Zm0 102.628c3.281-.178 1.703-2.701 2.037-4.279.235-1.115.335-2.258.496-3.388-.724 1.067-1.649 2.054-2.112 3.225-.408 1.032-.301 2.269-.421 4.442ZM254.22 446.876c.811-.128 2.118.003 2.342-.429.77-1.483 1.166-3.161 1.677-4.773.023-.073-.219-.231-.337-.35-.886 1.248-1.792 2.481-2.644 3.751-.253.377-.354.855-1.038 1.801Zm18.456-84.155c0 .501-.038 1.006.01 1.503.061.63.193 1.254.295 1.88.348-.552.846-1.062 1.014-1.665.339-1.211.684-2.478.64-3.709-.017-.489-1.061-.941-1.638-1.409-.107.791-.214 1.582-.321 3.4Zm18.456-194.993-.337-1.364c-.23.122-.653.238-.658.368-.049 1.336-.105 2.679-.003 4.008.065.849.393 1.678.603 2.516.473-.974 1.098-1.911 1.347-2.939.102-.419-.61-1.036-.952-2.589Zm-7.69 56.959c-.171 1.099-.426 2.195-.479 3.3-.028.593.29 1.202.452 1.804.522-.602 1.402-1.159 1.484-1.816.132-1.061-.26-2.189-1.457-3.288Zm-35.887 242.201c-.512 1.432-1.062 2.853-1.488 4.31-.05.171.567.747.897.766.355.021 1.033-.368 1.054-.621.108-1.306.05-2.626-.463-4.455Zm30.248-232.452c.641 1.327-2.514 2.36-.296 3.802.335.218.709.375 1.065.56-.293-1.614 2.241-3.377-.769-4.362Zm-3.076 109.812.334 1.36c.23-.118.598-.183.668-.363.39-1.006.838-2.018 1.004-3.07.12-.752-.172-1.569-.28-2.357-.575.635-1.244 1.212-1.687 1.929-.224.361-.039.975-.039 2.501Zm45.627 59.011c.952-1.27.882-1.994-.945-2.078-1.275-.059-1.702.368-1.644 1.645.085 1.829.808 1.899 2.589.433Zm-39.475-148.297c-.319-.886.858-2.561-1.154-2.458-.336.017-.669 1.437-.869 2.243-.106.428.076.929.128 1.396.46-.222.921-.445 1.895-1.181Zm9.741-74.405c.175-.777 2.059-.736.929-2.194-1.115-1.437-1.576-.179-2.185.396-.442.418-.775.953-1.156 1.436.462.121.924.241 2.412.362Zm2.563 46.695c-.219.562-.508 1.108-.638 1.689-.12.541-.118 1.124-.057 1.676.012.106.714.307.816.199.366-.39.852-.893.853-1.354.002-.907-.291-1.815-.974-2.21Zm-27.172 186.27-1.325 1.751 2.351.301c0-.684 0-1.368-1.026-2.052Zm14.868-51.827c0-.851.03-1.703-.016-2.551-.016-.297-.216-.585-.332-.877-.226.137-.633.256-.649.414-.12 1.206-1.599 2.628.997 3.014Zm21.019-205.769c-.113.114-.253.213-.332.347-.05.085-.015.322-.009.322.882.044 1.769.119 2.643.042.109-.01.148-.825.219-1.267-.67.014-1.339.028-2.521.556ZM290.62 431.995l-1.538 1.177.874.875c.392-.513.784-1.026.664-2.052Zm-6.152-161.126-1.538 1.177.874.876c.392-.514.784-1.027.664-2.053Zm-8.203-48.235c.513-.376 1.047-.728 1.512-1.156.063-.059-.226-.499-.352-.762-.558.468-1.115.936-1.16 1.918Zm16.918 206.795-.278-1.305-1.538 1.539c.434.093.869.186 1.816-.234Zm-34.862-92.365c0-.322.069-.663-.015-.962-.145-.52-.383-1.014-.583-1.518-.142.424-.422.858-.394 1.27.04.583.309 1.15.992 1.21Zm-10.766 126.745c-.111.112-.246.209-.326.34-.051.084-.023.218-.03.33l1.894-.267c-.341-.306-.683-.611-1.538-.403Zm37.425-137.008c0-.322.069-.663-.015-.962-.145-.52-.384-1.013-.583-1.518-.142.424-.422.858-.394 1.271.04.582.309 1.149.992 1.209Zm-18.456 36.946.332 1.358c.231-.281.701-.759.656-.814-.398-.485 1.07-2.202-.988-.544Zm14.355-48.235c.543.141 1.084.288 1.634.394.016.004.115-.414.175-.636-.432-.09-.864-.181-1.809.242Zm1.538-10.776c-.141.543-.288 1.086-.394 1.635-.003.017.414.115.636.176.09-.433.18-.865-.242-1.811Zm7.69-244.767.271 1.297c.221-.06.639-.158.635-.175-.106-.55-.253-1.092-.906-1.122Zm-13.842 271.45c-.141.544-.288 1.086-.394 1.636-.003.016.414.115.636.175.09-.433.18-.865-.242-1.811Zm25.121-194.479.271 1.297c.221-.06.639-.158.635-.175-.106-.55-.253-1.092-.906-1.122Zm-35.375 201.663 1.297-.271c-.06-.221-.159-.639-.175-.636-.55.106-1.091.253-1.122.907Zm18.457-45.156.41-.616c-.308.035-.615.069-.41.616Zm10.766-42.59.615.41c-.034-.308-.069-.616-.615-.41Zm-10.254-2.053.616.411c-.035-.308-.069-.616-.616-.411Zm-1.025-3.079.615.411c-.034-.308-.068-.616-.615-.411Zm8.715-7.697.41-.616c-.307.035-.615.069-.41.616Zm-10.766-35.406-.615-.411c.034.308.068.616.615.411Zm3.076-50.288.615.411c-.034-.308-.068-.616-.615-.411Zm-10.253 196.019.615.41c-.034-.307-.068-.615-.615-.41Zm-8.203 114.943.615.411c-.034-.308-.068-.616-.615-.411Zm-3.076-3.079-.615-.41c.034.308.068.615.615.41Z" fill="#000"/></svg>