<svg width="534" height="534" viewBox="0 0 534 534" fill="none" xmlns="http://www.w3.org/2000/svg">
<defs><filter id="a" x="-20%" y="-20%" width="140%" height="140%"><feTurbulence baseFrequency="0.002 0.002" numOctaves="20" seed="3" stitchTiles="stitch" x="0%" y="0%" width="100%" height="100%" result="turbulence"/><feDisplacementMap in="SourceGraphic" in2="turbulence" scale="7" xChannelSelector="R" yChannelSelector="B" x="0%" y="0%" width="100%" height="100%" result="displacementMap"/><feGaussianBlur stdDeviation="3" x="0%" y="0%" width="100%" height="100%" in="displacementMap" result="blur"/><feColorMatrix values="1 0 0 0 0 0 1 0 0 0 0 0 1 0 0 0 0 0 7 -4" x="0%" y="0%" width="100%" height="100%" in="blur" result="colormatrix"/></filter></defs>
<path fill-rule="evenodd" clip-rule="evenodd" d="M345.634 77.6076C347.034 75.2995 346.737 72.2513 344.743 70.2574C342.399 67.9142 338.601 67.9142 336.257 70.2574L102.757 303.757C100.629 305.886 100.434 309.217 102.173 311.565C101.472 314.398 102.927 317.394 105.706 318.544C111.599 320.983 117.6 323.051 123.652 324.863L118.757 329.757C116.629 331.886 116.434 335.217 118.173 337.565C117.472 340.398 118.927 343.394 121.706 344.544C136.378 350.615 151.716 354.395 166.859 357.614C171.33 358.564 175.76 359.462 180.154 360.352C190.814 362.512 201.265 364.63 211.578 367.356C213.562 367.881 215.55 368.409 217.541 368.937C229.472 372.104 241.523 375.303 253.666 378.072C254.651 378.297 255.734 378.811 257.443 379.773C257.639 379.883 257.849 380.003 258.072 380.13C259.526 380.96 261.503 382.088 263.605 382.857C266.116 383.776 268.598 384.841 271.236 385.984L271.682 386.177C274.143 387.244 276.753 388.376 279.432 389.389C283.298 390.852 287.127 392.429 291.05 394.045L292.087 394.472C296.342 396.223 300.708 398.007 305.162 399.635C316.615 403.822 327.578 410.187 336.486 418.409L336.864 418.758C338.917 420.651 341.342 422.889 343.574 425.225C346.031 427.797 347.813 430.042 348.633 431.683C350.115 434.647 353.719 435.849 356.683 434.367C356.997 434.21 357.292 434.029 357.565 433.827C358.025 433.94 358.505 434 359 434C362.314 434 365 431.314 365 428V109C365 106.631 363.627 104.583 361.634 103.608C363.034 101.299 362.737 98.2513 360.743 96.2574C358.399 93.9142 354.601 93.9142 352.257 96.2574L349 99.5147V83C349 80.6313 347.627 78.5832 345.634 77.6076ZM353 417.73V112.485L349 116.485V402C349 405.314 346.314 408 343 408C342.951 408 342.903 407.999 342.854 407.998C343.452 408.522 344.042 409.053 344.625 409.591L345.045 409.978C347.061 411.838 349.746 414.314 352.251 416.936C352.499 417.195 352.749 417.46 353 417.73ZM322.286 394.073C321.798 393.619 321.322 393.18 320.864 392.758L320.486 392.409C311.578 384.187 300.615 377.822 289.162 373.635C284.708 372.007 280.342 370.223 276.087 368.472L275.05 368.045C271.127 366.429 267.298 364.852 263.432 363.389C260.753 362.376 258.143 361.244 255.682 360.177L255.236 359.984C252.598 358.841 250.116 357.776 247.605 356.857C245.503 356.088 243.526 354.96 242.072 354.13C241.849 354.003 241.639 353.883 241.443 353.773C239.734 352.811 238.651 352.297 237.666 352.072C225.523 349.303 213.472 346.104 201.541 342.937C199.55 342.409 197.562 341.881 195.578 341.356C185.265 338.63 174.814 336.512 164.154 334.352C159.76 333.462 155.33 332.564 150.859 331.614C146.254 330.635 141.63 329.604 137.013 328.473L130.4 335.085C142.818 339.811 155.887 343.013 169.355 345.876C173.577 346.774 177.862 347.642 182.177 348.517C192.979 350.706 203.973 352.933 214.645 355.755C216.651 356.285 218.652 356.816 220.651 357.347L220.655 357.348C232.595 360.517 244.416 363.654 256.334 366.372C259.172 367.02 261.581 368.332 263.328 369.315C263.603 369.47 263.863 369.617 264.109 369.756C265.629 370.617 266.642 371.19 267.728 371.587C270.611 372.642 273.392 373.84 276.008 374.973L276.382 375.136C278.906 376.229 281.274 377.256 283.679 378.166C287.716 379.694 291.703 381.336 295.597 382.94L296.655 383.375C300.916 385.129 305.08 386.828 309.282 388.365C313.687 389.975 318.046 391.88 322.286 394.073ZM337 111.515V86.4853L114.4 309.085C120.572 311.434 126.904 313.406 133.367 315.148L337 111.515ZM146.997 318.488C149.106 318.962 151.225 319.424 153.355 319.876C157.576 320.774 161.86 321.642 166.175 322.516L166.177 322.517C176.979 324.706 187.973 326.933 198.645 329.755C200.625 330.278 202.602 330.803 204.575 331.327L204.621 331.339L204.645 331.345L204.651 331.347L204.654 331.348C216.595 334.517 228.416 337.654 240.334 340.372C243.172 341.02 245.581 342.332 247.328 343.315C247.534 343.431 247.731 343.542 247.92 343.649L248.109 343.756C249.629 344.617 250.642 345.19 251.728 345.587C254.611 346.642 257.392 347.84 260.008 348.973L260.382 349.136C262.906 350.229 265.274 351.256 267.679 352.166C271.716 353.694 275.703 355.336 279.597 356.94L280.655 357.375C284.916 359.129 289.08 360.828 293.282 362.365C306.041 367.029 318.418 374.169 328.625 383.591L329.045 383.978C331.061 385.838 333.746 388.314 336.251 390.936C336.499 391.195 336.749 391.46 337 391.73V128.485L146.997 318.488Z" filter="url(#a)" fill="currentColor"/>
</svg>
