<svg width="534" height="534" viewBox="0 0 534 534" fill="none" xmlns="http://www.w3.org/2000/svg">
<path d="M361.155 78.0799C333.343 81.0551 306.531 84.2275 282.025 97.0331C262.593 107.187 242.82 116.73 223.761 127.541C207.04 137.026 195.655 151.976 186.551 168.743C183.875 173.671 180.884 178.455 177.648 183.028C176.657 184.428 174.367 184.903 172.672 185.801C171.846 183.932 169.928 181.72 170.386 180.256C172.212 174.426 174.105 168.429 177.185 163.214C191.901 138.29 212.814 119.319 238.433 106.871C263.793 94.5495 290.052 83.597 316.842 74.9177C332.375 69.885 349.746 68.8816 366.266 69.0105C387.204 69.1742 403.463 80.6774 413.874 98.486C424.699 117.002 430.434 137.737 427.013 159.161C423.137 183.426 420.381 208.863 410.713 230.964C397.569 261.007 381.811 290.751 357.368 313.992C339.969 330.535 319.309 342.015 297.179 351.233C264.14 364.994 231.82 380.29 202.548 401.264C199.766 403.257 196.634 405.721 195.425 408.687C194.224 411.636 193.915 416.423 195.547 418.775C199.918 425.072 205.38 430.65 210.727 436.204C213.525 439.111 214.636 441.684 209.663 442.02C177.113 444.221 147.202 457.101 116.009 464.751C112.916 465.51 109.348 464.319 106 464.033C106.831 461.244 107.174 458.177 108.569 455.708C119.569 436.243 130.5 416.728 142.017 397.571C148.11 387.433 153.385 386.714 164.245 392.861C167.327 394.606 170.36 396.482 173.23 398.555C181.698 404.671 187.383 401.59 195.557 395.699C213.658 382.654 233.072 371.164 252.906 360.898C270.439 351.823 289.454 345.673 307.437 337.404C315.158 333.854 322.071 328.423 329.094 323.481C351.237 307.901 369.251 288.44 381.862 264.388C391.49 246.026 403.21 228.492 406.933 207.52C409.5 193.058 410.985 178.363 414.302 164.087C417.6 149.892 416.346 136.155 411.951 122.876C408.58 112.69 404.867 101.401 397.79 93.9718C388.764 84.4976 377.021 76.4712 361.155 78.0799ZM171.139 408.007C168.466 406.111 166.023 403.622 163.062 402.463C158.993 400.869 154.454 395.16 150.268 402.407C141.756 417.145 133.233 431.878 124.899 446.717C123.871 448.548 123.971 451.017 123.548 453.19C125.473 452.74 127.431 452.399 129.317 451.824C149.862 445.557 169.821 436.935 191.781 436.264C192.285 436.249 193.44 433.18 192.99 432.063C192.34 430.45 190.103 429.535 189.237 427.942C186.25 422.448 183.718 416.615 175.605 421.008C175.32 421.162 172.328 417.473 171.597 415.246C170.993 413.402 171.866 411.071 171.139 408.007Z" fill="black"/>
</svg>
