<svg width="534" height="534" viewBox="0 0 534 534" fill="none" xmlns="http://www.w3.org/2000/svg"><path d="M118.547 231.741c-.808-5.603-1.617-10.522-2.426-15.44-.106-.642-.274-1.279-.31-1.924-.471-8.489-.92-16.979-1.384-25.467-.451-8.262-.529-16.567-1.492-24.769-.773-6.582-2.657-13.032-3.966-19.557-.221-1.098-.374-2.415.022-3.398 3.718-9.25-.223-18.493-.502-27.649-.231-7.527-3.399-15.193-6.183-22.613-2.092-5.576-2.397-11.919-2.881-17.97-.454-5.673.078-11.418-.152-17.118-.186-4.618-1.03-9.207-1.263-13.825-.179-3.569 2.024-5.1 4.933-3.17 7.586 5.032 15.745 2.177 23.546 1.779 5.352-.274 10.628-2.476 16.202-2.112 4.118.27 4.35.925 4.765 5.675a245.572 245.572 0 0 0 2.731 20.785c1.063 6.11 2.683 12.122 4.053 18.178 2.125 9.398 4.719 18.722 6.243 28.218 1.642 10.227 6.787 19.71 6.207 30.397-.084 1.545 1.122 3.148 1.68 4.742 1.256 3.592 3.166 7.12 3.577 10.811.912 8.19 3.322 15.989 5.096 23.958 1.41 6.334 2.185 12.807 3.3 19.208.255 1.462.863 2.863 1.116 4.325 1.035 5.978 1.976 11.972 2.99 17.954.758 4.474 1.768 8.916 2.293 13.416.302 2.587-.54 5.321-.154 7.881.636 4.217 1.844 8.348 2.832 12.511.095.403.567.834.48 1.146-3.001 10.784 3.604 21.142 1.406 31.879 2.465 6.758.096 13.972 1.604 20.619 1.635 7.209 1.025 14.294 1.034 21.41.01 8.032-.78 16.066-1.282 24.096-.145 2.317.005 3.983 3.132 3.514 3.173-.476 3.825 3.461 3.535 4.171-3.381 8.261.498 15.898 1.626 23.73.706 4.904 2.707 9.801 2.456 14.615-.264 5.065 2.737 6.649 6.016 7.542a103.11 103.11 0 0 0 17.867 3.194c3.63.324 7.422-.583 11.079-1.267 6.551-1.225 13.014-2.985 19.598-3.94 2.951-.429 6.103.75 9.171.812 2.042.041 4.086-.702 6.148-.923 4.838-.518 9.678-1.129 14.533-1.315 2.876-.111 1.386-.832 1.076-2.404-2.238-11.331-8.264-21.337-11.128-32.426-.101-.388-.513-.713-.823-1.025-1.584-1.59-3.984-4.025-2-5.489 2.15-1.586 5.003-3.899 8.779-1.649 4.141 2.467 8.742 5.251 13.333 5.635 7.722.648 14.469 3.963 21.716 5.798 8.468 2.144 16.92 4.381 25.29 6.875 5.263 1.568 10.297 3.897 15.55 5.506 10.736 3.289 21.466 6.029 32.853 7.118 13.372 1.279 26.656.426 39.961 1.02 2.742.123 4.351 2.342 3.186 4.685-.481.968-1.515 1.667-2.314 2.472-8.59 8.658-18.295 15.932-28.163 23.056-7.293 5.264-14.15 11.128-21.252 16.66-4.651 3.622-9.699 6.796-14.021 10.764-6.241 5.73-11.993 11.99-17.933 18.045-1.095 1.116-2.076 2.342-3.136 3.494a7866.898 7866.898 0 0 1-15.936 17.272c-.931 1.005-1.828 2.092-2.929 2.881-2.328 1.667-4.798.858-6.028-1.923-5.037-11.391-10.068-22.785-15.028-34.21-.923-2.127-1.403-4.445-2.312-6.579-.318-.747-1.457-1.828-1.976-1.707-9.159 2.132-18.239 4.617-27.428 6.6-4.05.874-8.252.114-12.469 1.377-8.33 2.497-17.37.881-25.763 4.11-3.574 1.375-7.787 1.265-11.729 1.484-9.147.509-17.961 2.542-26.691 5.168-1.668.502-3.571.173-5.349.371-3.479.386-7.054-.902-10.501 1.214-1.261.773-3.751.472-5.236-.249-2.449-1.188-4.188-1.012-6.701.121-1.84.828-4.455.306-6.984-.837-3.055-1.382-2.695-3.279-3.4-5.59-1.347-4.414-3.771-8.491-5.292-12.865-2.291-6.59-3.911-13.351-6.672-19.858-2.219-5.228-5.113-9.812-8.182-14.432-1.698-2.557-4.727-4.661-1.874-8.573.982-1.346.583-4.083.122-6.02-1.575-6.623-3.826-13.102-5.125-19.771-1.416-7.275-1.327-14.895-3.227-22.01-2.273-8.511.002-17.182-2.347-25.694-1.566-5.672-1.31-11.889-1.522-17.875-.156-4.407.138-9.062-.478-13.189-.663-4.439.319-9.126-1.14-13.13-2.753-7.551-1.997-15.241-2.711-22.898-.677-7.262-2.724-14.387-3.921-21.614-.719-4.337-.963-8.753-1.421-13.818Zm245.047 164.442c-2.801-.969-5.639-1.845-8.396-2.927-5.507-2.162-10.868-4.743-16.473-6.596-9.072-2.999-18.251-5.696-27.462-8.246-7.414-2.053-14.935-3.729-22.43-5.483-.778-.182-1.699.247-2.554.392.32.485.758.929.941 1.46a6825.445 6825.445 0 0 1 10.677 31.209c.534 1.572-2.943 8.444-3.501 7.908-3.468-3.33-6.629.352-9.943.218-12.73-.517-25.335 1.117-38.009 2.267-12.704 1.152-25.671-.505-38.516-1.068-2.343-.102-4.658-.855-6.983-1.322-3.013-.604-5.255-4.288-5.533-8.825-.408-6.664.047-13.564-1.569-19.933-2.869-11.304-3.626-22.715-3.818-34.21-.096-5.741-.759-11.508 1.065-17.31.82-2.608-1.482-6.092-.961-8.92.673-3.651-.57-7.018-.275-10.554.341-4.082.107-8.214.067-12.324-.018-1.789.125-3.657-.329-5.349-.955-3.555-3.096-6.877-1.1-10.795.463-.907.302-2.308.031-3.381-1.949-7.732-2.748-15.582-2.719-23.537.006-1.57.218-3.254-.257-4.69-1.662-5.023-2.717-10.1-2.488-15.413.068-1.595.504-3.407-.076-4.758-2.403-5.608-2.711-11.448-2.71-17.398 0-1.458-.613-2.92-.972-4.374-1.024-4.142-2.7-8.243-2.949-12.429-.392-6.578-3.005-12.626-3.72-19.03-.464-4.163-3.065-7.848-3.076-11.693-.022-8.494-2.421-16.169-5.676-23.774-.664-1.55-1.325-3.26-1.336-4.901-.044-6.606-2.258-12.64-4.019-18.895-2.9-10.301-3.966-21.146-7.225-31.307-4.137-12.895-6.324-26.16-9.392-39.254-.92-3.929-2.241-4.942-5.945-4.214-2.767.544-5.553 1.207-8.352 1.327-5.024.214-10.064-.001-15.096.08-4.229.067-5.022 1.144-5.023 5.267 0 1.645-.813 3.288-1.243 4.936-.484 1.856-1.427 3.738-1.34 5.57.253 5.343-1.593 10.635-.123 16.005 1.352 4.944 1.802 10.221 3.745 14.898 4.635 11.156 6.346 22.843 7.173 34.68.523 7.499-.427 15.111.231 22.589.818 9.3 2.89 18.485 3.89 27.777.688 6.399.285 12.837 1.231 19.324 1.22 8.358-.331 16.975 1.499 25.454 1.065 4.933.831 10.129 1.526 15.16 1.219 8.816 2.773 17.586 4.046 26.395.629 4.353.6 8.822 1.474 13.115 1.862 9.143 2.782 18.339 2.676 27.653-.011.913-.175 1.866.025 2.734 1.998 8.648 2.587 17.421 2.781 26.272.145 6.669.854 13.325 1.309 19.986.015.228-.05.471.009.683 1.78 6.352 2.805 12.802 2.777 19.419-.006 1.261.543 2.515.736 3.788.907 5.973 3.233 11.59 3.557 17.791.26 4.974 1.247 10.252 4.244 14.602 5.481 7.958 9.263 16.599 12.164 25.822 2.142 6.81 4.106 13.74 7.561 20.168 1.951 3.629 4.043 5.074 8.163 5.211 14.288.475 28.269-1.316 42.241-4.116 9.394-1.883 18.98-2.801 28.47-4.22a1963.283 1963.283 0 0 0 26.432-4.114c11.624-1.899 23.24-3.78 34.026-8.966 4.108-1.975 7.846-.484 10.171 3.624.352.622-.029 2.458-.287 2.503-2.691.472-2.225 1.462-.909 3.149.882 1.131 1.316 2.635 1.848 4.011 3.352 8.667 6.1 17.589 10.983 25.604.819 1.345 1.513 2.766 2.264 4.152.809-1.264 1.513-2.613 2.455-3.769 1.006-1.233 2.256-2.265 3.365-3.418 2.354-2.445 4.64-4.956 7.035-7.36 6.957-6.983 13.685-14.225 21.018-20.793 6.009-5.384 12.825-9.86 19.156-14.898 5.71-4.545 11.132-9.454 16.891-13.932 6.052-4.706 13.052-8.19 18.151-14.128.734-.855 1.628-1.574 2.446-2.357.652-.625 1.302-1.252 1.953-1.878-.761-.288-1.519-.816-2.284-.826-8.069-.107-16.088-.205-24.163-1.201-7.178-.886-14.397-1.305-21.497-2.894-3.403-.762-6.93-.966-11.774-1.423Zm-47.362 67.832c0-.43.092-.886-.02-1.285-.194-.694-.514-1.353-.781-2.026-.19.566-.565 1.145-.527 1.696.054.778.413 1.535 1.328 1.615Z" fill="#000"/></svg>