<svg width="534" height="534" viewBox="0 0 534 534" fill="none" xmlns="http://www.w3.org/2000/svg"><path d="M261.808 205.779c.9-9.063 2.588-15.837 2.501-22.588-.108-8.439 8.594-16.289 15.54-11.963 26.632 16.587 59.308 15.043 86.615 29.723 11.141 5.99 23.852 8.983 35.492 14.145 12.58 5.579 14.447 11.561 5.424 21.819-11.616 13.204-24.496 25.338-37.288 37.452-5.813 5.505-12.929 9.606-19.091 14.777-20.508 17.214-41.033 34.418-61.142 52.091-5.489 4.825-9.054 11.808-14.425 16.811-3.485 3.246-8.643 4.698-13.051 6.954-1.725-3.882-5.305-7.999-4.85-11.606 1.814-14.342 5.206-28.479 7.333-42.793.822-5.534.783-11.57-.551-16.961-1.891-7.648-5.712-11.454-15.567-8.539-34.378 10.165-69.342 17.822-105.55 17.214-4.475-.075-9.689.748-13.22-1.234-4.098-2.301-6.717-7.237-9.978-11.029 3.756-2.033 7.322-4.634 11.312-5.967 6.094-2.037 12.792-5.258 18.688-4.367 22.951 3.471 42.696-9.721 64.695-11.116 10.52-.666 20.803-4.998 31.202-7.637 10.761-2.73 16.533-8.98 16.011-20.715-.476-10.705-.1-21.446-.1-34.471Zm94.304 9.197c-4.141-1.074-8.304-2.071-12.419-3.234-17.785-5.027-35.492-10.348-53.364-15.041-7.31-1.92-9.095 1.299-10.779 9.277-2.619 12.409 3.582 25.066-1.946 36.489-3.595 7.429-1.85 7.484 5.162 9.71 18.174 5.77 18.139 9.683 3.188 24.029-2.877 2.76-4.845 7.299-5.563 11.316-2.054 11.496-3.463 23.124-4.611 34.751-.241 2.444 1.383 5.342 2.909 7.49.364.512 4.323-.587 5.723-1.906 8.864-8.354 17.129-17.363 26.233-25.433 21.717-19.252 43.612-38.314 65.816-57 8.153-6.862 4.164-15.42 4.289-23.246.013-.792-9.211-1.64-14.112-2.639-2.78-.568-5.487-1.497-10.526-4.563Zm41.401 13.795 2.3 4.599c.767-1.533 1.534-3.066-2.3-4.599Z" fill="#000"/></svg>