<svg width="534" height="534" viewBox="0 0 534 534" fill="none" xmlns="http://www.w3.org/2000/svg">
<path d="M377.518 261.105C384.927 251.661 392.168 242.534 399.79 233.741C407.352 225.017 417.371 219.325 426.745 212.877C430.956 209.98 431.415 208.917 428.31 204.684C426.164 201.759 423.397 199.297 420.967 196.574C420.387 195.924 419.518 194.553 419.682 194.382C420.459 193.571 421.483 192.681 422.536 192.501C435.648 190.247 448.756 187.942 461.926 186.08C464.829 185.67 467.969 186.939 471 187.435C470.044 189.281 469.156 191.167 468.121 192.968C460.613 206.028 454.033 219.511 449.453 233.914C449.237 234.594 449.02 235.285 448.702 235.92C448.052 237.22 447.333 238.485 446.643 239.764C445.484 238.464 443.922 237.348 443.237 235.832C440.299 229.329 437.708 222.667 434.719 216.189C434.387 215.469 431.822 214.869 431.129 215.373C422.321 221.774 412.897 227.598 405.181 235.162C396.95 243.232 390.302 252.944 383.083 262.035C374.516 272.825 366.277 283.884 357.513 294.509C351.406 301.914 342.325 305.075 334.081 309.309C330.543 311.126 326.856 312.81 323.053 313.913C316.69 315.757 310.253 317.674 303.714 318.512C289.703 320.309 275.394 321.004 261.896 316.523C250.947 312.887 239.698 308.564 231.29 300.176C220.52 289.434 208.855 279.932 196.605 271.012C192.799 268.24 190.259 263.416 186.216 261.345C180.184 258.256 173.389 256.588 166.819 254.657C158.228 252.133 149.666 254.148 141.213 255.67C127.309 258.173 115.203 264.884 104.221 273.427C97.139 278.937 92.0614 286.315 87.696 294.303C80.2515 307.926 73.6756 321.851 69.4881 336.845C69.2972 337.528 68.7358 338.173 68.7416 338.832C68.7532 340.142 69.0401 341.449 69.2132 342.758C70.0605 341.889 70.8731 340.981 71.7661 340.162C72.4739 339.513 73.2803 338.972 74.043 338.383C74.6966 339.348 75.5978 340.242 75.9058 341.307C76.0756 341.895 75.4299 343.013 74.8315 343.467C73.7045 344.321 72.4062 345.047 71.069 345.499C69.1219 346.156 65.7323 347.447 65.321 346.844C63.9632 344.853 62.5357 341.795 63.1445 339.748C67.4762 325.188 72.4521 310.976 80.3232 297.691C85.3848 289.147 89.8206 280.513 97.2349 273.666C108.904 262.89 122.117 255.034 137.723 251.935C145.537 250.384 153.611 248.98 161.504 249.266C174.723 249.743 186.788 253.578 196.756 263.557C204.148 270.957 213.064 276.821 221.294 283.378C222.23 284.124 223.248 284.816 224.017 285.715C233.135 296.383 244.098 304.247 257.19 309.524C263.705 312.149 270.087 313.954 277.067 314.041C281.103 314.091 285.167 315.111 289.158 314.832C303.412 313.835 317.772 313.245 330.662 305.694C336.328 302.375 343.274 300.659 347.946 296.362C355.746 289.188 362.252 280.581 369.165 272.461C372.127 268.982 374.744 265.209 377.518 261.105ZM450.101 217.496C453.814 209.534 456.555 201.043 462.786 194.454C463.313 193.897 463.309 192.559 463.106 191.688C462.994 191.209 461.884 190.55 461.343 190.646C451.313 192.422 441.292 194.252 431.31 196.274C430.728 196.392 429.857 198.827 430.192 199.191C437.424 207.05 440.789 216.989 445.028 226.458C445.231 226.912 445.605 227.289 445.9 227.702C446.222 227.316 446.69 226.98 446.841 226.536C447.813 223.69 448.714 220.821 450.101 217.496Z" fill="black"/>
</svg>
