<svg width="534" height="534" viewBox="0 0 534 534" fill="none" xmlns="http://www.w3.org/2000/svg">
<path d="M236.366 289.784C247.946 267.694 259.219 246.198 271.194 225.102C282.169 205.769 294.073 186.967 305.234 167.737C311.796 156.432 317.683 144.735 323.93 133.245C325.188 130.932 326.54 128.635 328.13 126.545C331.382 122.273 334.366 120.987 336.256 127.678C336.503 128.55 337.673 129.916 338.224 129.83C344.88 128.792 352.551 133.094 358.156 125.89C359.088 124.693 361.873 124.94 363.802 124.52C363.815 126.651 364.056 128.813 363.768 130.902C363.548 132.501 362.635 133.999 362.079 135.559C361.708 136.598 361.423 137.667 361.099 138.723C362.304 138.835 363.509 139.039 364.713 139.041C367.666 139.045 371.382 137.779 373.436 139.113C381.746 144.513 381.021 149.936 371.897 154.924C363.616 159.452 363.572 161.504 371.435 166.861C373.478 168.252 375.367 169.933 377.086 171.714C378.272 172.941 379.043 174.569 380 176.018C377.741 176.339 375.483 176.673 373.219 176.956C373.063 176.975 372.893 176.539 372.674 176.451C368.1 174.611 362.212 170.157 359.261 171.622C355.405 173.536 353.737 180.068 351.362 184.732C343.18 200.798 335.448 217.103 326.906 232.972C311.227 262.103 295.159 291.025 279.097 319.947C275.533 326.366 279.211 329.75 283.752 332.782C296.563 341.337 309.625 349.523 322.26 358.326C325.043 360.265 327.803 363.962 328.268 367.183C329.684 376.994 328.879 376.731 318.996 377.59C310.406 378.336 301.988 380.931 293.447 382.446C289.557 383.136 285.541 383.591 281.604 383.462C270.591 383.103 260.039 383.878 249.76 388.909C245.756 390.869 239.993 388.835 235.282 389.819C222.399 392.508 209.61 395.685 196.874 399.014C193.739 399.833 190.941 401.957 188.004 403.51C186.111 404.51 184.212 406.493 182.376 406.424C175.931 406.185 169.584 405.354 164.582 410.99C164.405 411.189 158.976 408.31 158.918 406.757C158.617 398.628 159.275 390.464 159.57 382.311C160.094 367.838 160.62 353.366 161.093 338.892C161.205 335.479 161.725 331.902 160.91 328.692C160.287 326.243 158.165 322.787 156.161 322.359C151.699 321.407 152.547 319.321 155.104 318.352C159.835 316.559 159.603 313.205 159.598 309.414C159.582 294.585 168.447 287.65 183.145 291.381C196.071 294.662 208.77 298.893 221.771 301.804C226.747 302.918 234.006 304.581 233.778 294.806C233.746 293.409 235.46 291.971 236.366 289.784ZM327.749 151.457C326.488 153.745 325.474 156.219 323.916 158.283C319.948 163.54 315.325 168.349 311.767 173.856C309.384 177.546 309.068 182.588 306.636 186.229C292.026 208.105 284.661 233.369 273.284 256.744C272.537 258.278 272.608 260.211 272.299 261.959C273.201 260.651 274.259 259.423 274.981 258.023C285.174 238.237 295.272 218.402 305.499 198.633C311.272 187.475 317.379 176.488 323.048 165.279C325.275 160.876 326.718 156.077 329.286 151.458C329.743 149.354 330.27 147.261 330.579 145.135C330.621 144.845 329.577 144.397 329.037 144.022C328.864 145.99 328.682 147.958 328.524 149.928C328.483 150.435 328.518 150.948 327.749 151.457ZM283.21 289.784C291.897 274.942 300.568 260.092 309.279 245.264C313.034 238.873 317.567 232.835 320.523 226.099C325.939 213.757 330.499 201.035 335.272 188.418C335.927 186.686 335.761 184.642 335.975 182.743C334.889 183.978 333.66 185.117 332.755 186.472C331.706 188.046 330.897 189.787 330.06 191.494C323.904 204.053 318.068 216.782 311.541 229.145C304.642 242.208 297.135 254.951 289.811 267.787C283.542 278.775 276.923 289.57 270.934 300.706C268.493 305.244 267.251 310.44 265.633 315.392C265.474 315.878 266.437 316.832 267.047 317.381C267.163 317.485 268.304 316.827 268.585 316.31C273.241 307.744 277.834 299.144 283.21 289.784ZM210.257 330.513C204.587 328.208 198.906 325.929 193.255 323.579C191.71 322.937 190.253 322.08 188.755 321.322C189.659 323.242 190.047 326.091 191.553 326.929C201.042 332.215 210.709 337.197 220.468 341.971C224.468 343.927 228.808 345.225 233.075 346.563C233.992 346.85 235.26 346.016 236.366 345.698C235.649 344.991 235.047 344.07 234.196 343.611C226.497 339.455 218.755 335.38 210.257 330.513ZM191.827 347.42C192.007 348.113 192.009 349.285 192.395 349.43C202.364 353.18 212.356 356.87 222.405 360.398C223.257 360.697 224.535 359.784 225.615 359.435C225.006 358.407 224.646 356.914 223.745 356.432C220.203 354.536 216.419 353.095 212.857 351.233C206.112 347.707 196.994 348.164 193.11 339.656C193.095 339.623 190.45 340.384 190.433 340.828C190.358 342.758 190.803 344.708 191.827 347.42ZM312.391 360.484C304.836 355.997 297.33 351.42 289.659 347.141C288.738 346.627 286.917 347.727 285.514 348.079C286.127 349.653 286.6 352.52 287.374 352.604C297.976 353.754 303.684 363.358 312.759 367.015C314.377 367.666 315.942 368.45 317.531 369.173C316.793 367.253 316.17 365.276 315.267 363.437C314.842 362.572 313.879 361.972 312.391 360.484ZM260.172 354.336C265.206 356.385 270.217 358.496 275.302 360.407C275.945 360.649 276.981 359.845 277.834 359.525C277.428 358.67 277.245 357.345 276.582 357.03C268.038 352.974 259.46 348.981 250.768 345.257C250.008 344.932 248.385 346.621 247.162 347.375C248.005 348.249 248.703 349.388 249.719 349.945C252.622 351.536 255.655 352.889 260.172 354.336ZM243.278 374.316C241.486 374.711 239.694 375.105 237.902 375.5C239.501 376.642 241.106 378.758 242.697 378.748C247.833 378.717 252.97 377.948 258.078 377.253C258.324 377.219 258.821 374.723 258.319 374.153C253.843 369.068 249.322 373.028 243.278 374.316ZM187.987 312.838C189.209 313.152 190.431 313.466 191.654 313.78C191.147 312.954 190.827 311.668 190.104 311.375C184.912 309.263 179.68 307.221 174.349 305.501C173.406 305.197 171.411 306.195 170.869 307.144C170.298 308.144 170.42 310.147 171.101 311.086C171.808 312.06 173.524 312.689 174.838 312.762C178.699 312.976 182.579 312.838 187.987 312.838ZM287.817 363.558C286.538 364.513 285.258 365.469 283.978 366.425C285.16 367.421 286.223 369.042 287.548 369.298C291.783 370.116 296.117 370.428 300.412 370.934C300.541 369.732 301.042 367.588 300.743 367.47C297.014 365.995 293.169 364.814 287.817 363.558ZM369.986 144.541C367.022 144.285 363.895 143.347 361.15 144.005C359.218 144.469 357.7 147.02 356.271 148.853C356.038 149.151 357.219 151.33 357.765 151.337C362.561 151.402 367.719 151.985 369.986 144.541ZM258.636 292.858C255.972 294.614 250.628 307.991 251.774 310.294C252.019 310.788 253.243 311.373 253.401 311.23C254.003 310.69 254.528 309.922 254.768 309.143C256.359 303.985 257.868 298.801 258.636 292.858ZM338.501 142.236C340.752 142.236 343.093 142.593 345.207 142.055C346.016 141.849 346.304 139.595 346.829 138.275C344.418 138.058 341.965 137.514 339.619 137.811C338.848 137.909 338.353 140.187 338.501 142.236ZM179.54 338.198C179.718 339.401 179.897 340.605 180.076 341.808C180.409 341.079 181.191 340.191 181 339.647C180.06 336.981 178.972 334.352 177.72 331.816C176.617 329.581 175.23 327.487 173.968 325.331C174.666 328.46 175.197 331.643 176.154 334.691C176.493 335.772 177.869 336.526 179.54 338.198ZM198.738 372.779C200.977 372.459 203.216 372.138 205.455 371.817C202.957 370.601 200.459 369.385 197.961 368.169C197.708 369.706 197.455 371.243 198.738 372.779ZM200.274 308.227C202.066 307.609 203.857 306.99 205.649 306.372C203.606 305.454 201.563 304.535 199.52 303.616C199.26 305.153 198.999 306.69 200.274 308.227ZM185.683 384.307C184.966 382.564 184.248 380.822 183.531 379.079C182.712 380.168 181.894 381.258 181.076 382.348C182.356 383.257 183.635 384.166 185.683 384.307ZM244.046 307.459C244.395 305.759 244.745 304.06 245.094 302.36C243.721 303.83 242.347 305.3 240.974 306.769C241.998 307.511 243.022 308.254 244.046 307.459ZM221.776 382.001C222.544 381.345 223.311 380.688 224.08 380.032C223.108 379.867 221.887 379.259 221.218 379.635C219.956 380.342 219.012 381.617 217.936 382.655C218.96 382.693 219.984 382.732 221.776 382.001ZM347.716 174.512C348.484 171.768 349.252 169.025 350.02 166.281C349.531 166.183 348.618 165.987 348.614 166.003C348.016 168.573 347.483 171.158 347.716 174.512ZM199.506 387.381C198.588 387.637 197.629 387.798 196.761 388.17C195.102 388.88 193.493 389.711 191.864 390.492C193.776 390.223 195.695 389.996 197.595 389.664C198.255 389.548 198.87 389.174 199.506 387.381ZM240.206 328.208C241.358 328.079 242.511 327.951 243.663 327.822C243.066 326.969 242.468 326.116 241.871 325.263C241.06 325.988 240.249 326.714 240.206 328.208Z" fill="black"/>
</svg>
