<svg width="534" height="534" viewBox="0 0 534 534" fill="none" xmlns="http://www.w3.org/2000/svg"><path d="M387.696 77.71c-.88-1.366-1.292-2.439-1.928-3.357-3.035-4.384-1.731-9.673 3.068-11.513.937-.36 2.823-.138 3.299.52 2.109 2.914 5.05 2.174 7.854 2.333 7.82.445 15.643.866 23.45 1.476 5.546.433 6.701 2.642 4.267 7.697-.589 1.22-1.208 2.482-2.074 3.504-3.37 3.978-6.551 8.182-10.344 11.723-7.612 7.108-13.552 15.372-18.533 24.432-.562 1.023-1.613 1.82-2.549 2.585-2.65 2.164-5.625 1.021-6.118-2.371-.172-1.19-.229-2.467.01-3.633.759-3.711-1.851-3.482-3.878-3.052-3.068.651-6.151 1.57-8.99 2.887-8.662 4.016-17.658 6.885-27.013 8.715-1.77.347-3.53.844-5.21 1.493-.658.254-1.57 1.147-1.534 1.693.267 3.969.727 7.927 1.164 11.884.539 4.873 1.011 9.757 1.698 14.61 1.179 8.322 2.22 16.665 3.255 24.992.73 5.879 2.939 11.631 2.603 17.792-.127 2.331-.633 3.76-3.016 4.938-2.836 1.401-3.99 1.592-5.914-1.571-6.7-11.016-15.713-19.85-27.525-25.346-3.028-1.409-6.586-1.792-9.95-2.337-4.143-.67-8.328-1.22-12.514-1.429-2.727-.137-3.069.767-2.63 4.088 2.106 15.927 6.988 30.957 12.959 45.729 1.01 2.497 2.15 4.945 3.067 7.476 1.304 3.598.167 6.614-2.843 8.273-1.387.766-2.258 1.216-3.838-.263-11.529-10.788-25.946-10.245-40.303-10.032-2.852.042-2.646 1.735-2.259 3.251.721 2.82 1.86 5.535 2.847 8.286 4.332 12.071 8.242 24.292 15.152 35.309 1.287 2.053.784 5.495.377 8.187-.125.826-2.791 1.978-4.095 1.766-2.615-.427-5.155-1.553-7.619-2.634-9.434-4.142-19.333-5.045-29.478-4.537-2.014.101-2.541.773-1.656 2.617 5.084 10.578 8.898 21.782 16.341 31.196 1.422 1.799 4.013 4.145 2.589 7.436-1.621 3.747-4.273 5.227-8.404 3.874-3.398-1.113-6.791-2.502-9.854-4.326-8.328-4.958-17.341-6.94-26.901-7.292-3.143-.116-3.389.576-1.901 3.138 6.119 10.533 10.422 21.905 15.086 33.109 1.779 4.275 1.449 7.302-1.682 9.355-1.12.735-3.56 1.161-4.3.5-5.094-4.558-11.919-4.329-17.817-6.337-5.847-1.991-12.603-1.339-18.966-1.773-3.476-.237-3.372.478-1.73 3.585 5.879 11.128 11.141 22.582 16.643 33.91.492 1.013.928 2.073 1.562 2.993 1.952 2.836 1.441 5.18-.987 7.511-2.269 2.177-4.385 2.135-7.002.628-7.966-4.586-16.963-5.154-25.79-6.372-2.491-.344-4.928-1.105-7.423-1.389-2.012-.228-3.666-.572-2.346 2.96 4.646 12.425 8.737 25.059 13.013 37.622 2.253 6.621 1.311 9.626-3.731 11.347-1.166.398-2.734.323-3.902-.112-4.206-1.564-8.252-3.565-12.482-5.05-7.374-2.59-15.082-1.43-22.664-1.501-.397-.004-1.318 1.678-1.136 2.338 2.713 9.795 5.738 19.506 8.288 29.342.708 2.732.408 5.851-.043 8.696-.175 1.107-2.069 2.745-3.132 2.71-1.362-.046-3.393-1.259-3.86-2.464-.978-2.524-1.213-5.359-1.586-8.088-.568-4.162-.356-8.546-1.612-12.472-2.598-8.117-3.297-16.976-8.817-24.04-1.645-2.105.214-4.183.833-5.91.383-1.07 3.56-2.241 4.771-1.718 4.876 2.106 9.898.678 14.768 1.355 6.365.885 12.821 1.716 18.936 3.568 3.618 1.096 4.117-.289 4.635-2.859 1.122-5.571-1.425-10.541-3.033-15.517-2.691-8.321-6.115-16.407-9.309-24.562-2.005-5.117.614-9.203 5.939-8.763 2.955.245 6.207.4 8.727 1.729 6.311 3.329 13.36 4.096 19.911 6.515 3.59 1.326 5.436-.069 5.399-3.914-.017-1.747-.851-3.499-1.386-5.226-2.966-9.57-7.666-18.266-13.056-26.679-3.473-5.42-.68-10.125 5.612-10.419 10.155-.476 20.049.703 29.705 3.975 1.517.514 3.344.637 4.917.345 2.457-.455 3.748-1 2.672-4.696-1.834-6.299-3.934-12.135-8.495-16.935-.446-.469-.929-1.212-.884-1.787.354-4.545-2.326-7.477-5.335-10.196-2.524-2.281-2.129-4.471-1.123-7.546 1.172-3.584 3.58-2.733 5.547-2.425 11.03 1.722 22.254 2.693 32.572 7.543 3.036 1.427 4.958.358 4.641-2.954-.254-2.64-1.139-5.353-2.326-7.745-3.607-7.267-7.449-14.42-11.298-21.564-1.572-2.917 1.108-8.882 4.418-8.81a78.06 78.06 0 0 1 13.235 1.432c6.011 1.176 11.909 2.924 17.889 4.278 4.123.933 7.245-2.65 5.468-6.835-4.036-9.504-6.668-19.563-12.111-28.548-2.414-3.983-4.055-8.981-1.961-13.916.541-1.276 1.964-2.847 3.185-3.047 4.85-.794 9.956-2.138 14.643-1.351 7.812 1.311 16.117.928 23.306 5.204.517.308 1.297.174 1.955.245.042-.829.226-1.682.095-2.484-.219-1.337-1.014-2.671-.915-3.957.768-9.972-3.142-19.055-5.251-28.473-1.439-6.43-1.947-13.04-4.418-19.302-.712-1.802.852-4.604 1.66-6.843.245-.679 1.573-1.552 2.209-1.416 10.257 2.188 21.034 2.143 30.723 6.735 5.293 2.509 10.653 5.054 15.46 8.345 3.163 2.166 6.492 4.896 6.861 9.47.045.553.967 1.036 1.483 1.551.265-.574.763-1.15.761-1.723-.038-9.539 1.531-19.456-1.765-28.429-2.044-5.562-1.356-11.835-5.025-16.887-.826-1.139-.571-3.247-.421-4.873.341-3.7.602-7.457 1.489-11.044 1.317-5.33 6.621-6.513 10.549-6.698 9.164-.431 17.561-3.335 25.953-6.245 5.482-1.902 10.555-5.022 15.707-7.79.835-.448 1.491-1.862 1.61-2.9.618-5.372 1.034-10.767 1.155-16.519Zm20.781 10.573-.396-1.855-2.187 2.188c.618.132 1.236.264 2.583-.333Z" fill="#000"/></svg>