<svg width="534" height="534" viewBox="0 0 534 534" fill="none" xmlns="http://www.w3.org/2000/svg"><g clip-path="url(#a)"><path d="M335.888 213.505c2.952-3.079 5.803-5.727 8.345-8.644 2.23-2.558 4.005-5.508 6.176-8.123 2.422-2.917 4.6-6.084 7.938-8.159.828-.515 1.287-1.627 1.909-2.47 3.014-4.085 6.327-7.889 10.242-11.153.427-.356.493-1.117.808-1.641.636-1.058 1.247-2.149 2.024-3.099.614-.749 1.469-1.298 2.202-1.951 1.014-.902 1.991-1.846 3.029-2.719.648-.545 1.428-.934 2.062-1.491 5.445-4.784 9.703-10.709 15.28-15.428 4.259-3.604 8.398-7.44 12.042-11.797 3.844-4.597 8.22-8.765 12.534-12.944 2.453-2.376 5.255-4.392 7.888-6.583 1.697-1.412 3.498-2.726 5.03-4.301 3.426-3.523 6.6-7.296 10.095-10.747 2.341-2.311 5.104-4.19 7.594-6.359 3.068-2.673 5.965-5.55 9.099-8.14 1.853-1.534 3.99-2.738 6.074-3.966.444-.262 1.207.017 1.823.047-.121.54-.072 1.232-.394 1.593a63.515 63.515 0 0 1-3.935 4.01c-4.24 3.976-8.597 7.832-12.744 11.903-3.32 3.258-6.28 6.885-9.617 10.123-4.252 4.126-8.616 8.15-13.135 11.978-3.033 2.569-5.98 5.173-8.706 8.08-3.488 3.717-7.285 7.143-10.887 10.755-4.152 4.162-8.179 8.451-12.373 12.57-2.993 2.94-6.264 5.601-9.233 8.565-1.596 1.593-2.903 3.425-4.615 4.989-2.805 2.563-5.112 5.681-7.556 8.626-3.56 4.289-7.048 8.638-11.211 12.379-.096.086-.155.211-.238.312-3.432 4.163-6.833 8.352-10.314 12.474-1.626 1.926-3.411 3.718-5.117 5.577-1.618 1.763-2.454 4.223-4.879 5.29-.521.23-.795 1.012-1.195 1.53-3.614 4.689-7.752 8.848-12.303 12.646-2.019 1.684-3.665 3.831-5.395 5.841-2.924 3.394-5.61 7.012-8.71 10.233-4.049 4.207-7.912 8.551-11.697 12.999-4.055 4.764-8.592 9.124-12.995 13.587a447.089 447.089 0 0 1-10.941 10.702c-1.502 1.422-3.261 2.567-4.834 3.92-2.891 2.486-5.705 5.063-8.601 7.545-3.068 2.631-6.108 5.305-9.312 7.764-7.294 5.601-10.003 16.784-7.505 24.508.384 1.186 1.639 2.116 2.568 3.092 1.142 1.199 2.222 1.068 3.708.22.849-.485 2.379.085 3.548.388.319.083.733 1.02.605 1.397-.775 2.281 1.169 2.173 2.164 2.152 4.308-.09 8.608-.482 12.916-.668 2.746-.119 5.5-.089 8.25-.09 3.737-.002 7.492-.192 11.208.099 5.837.457 11.65 1.226 17.467 1.915 1.454.172 2.989 1.149 4.135 2.099.539.446 1.271.737 1.963.907 2.453.6 3.662 2.693 4.871 4.474 1.479 2.179.22 4.041-2.449 4.156-.984.042-1.992.033-2.957-.135-4.674-.817-9.295-.252-13.937.337-3.822.484-7.69.614-11.5 1.165-8.775 1.268-17.173 4.091-25.655 6.536-3.916 1.129-7.749 2.556-11.599 3.906-6.746 2.366-13.501 4.714-20.199 7.213-1.791.668-3.565 1.644-5.027 2.861-1.41 1.174-2.461 2.451-4.4.995-.284-.214-1.081-.012-1.487.243-4.404 2.776-9.606 3.623-14.209 5.914-.875.436-2.416.462-2.663 1.074-1.074 2.663-3.633 2.757-5.656 3.351-6.179 1.816-11.268 5.721-16.907 8.538-5.815 2.906-11.168 6.756-16.648 10.308-9.344 6.057-18.718 12.075-27.908 18.36-5.716 3.91-11.105 8.298-16.662 12.442-7.211 5.376-14.536 10.604-21.629 16.132-3.498 2.725-6.602 5.959-9.849 8.999-2.357 2.207-4.572 4.572-7.014 6.678-1.463 1.261-3.443.733-5.219.723-.084-.001-.362-.875-.215-1.184 2.147-4.536 2.213-4.466 7.221-8.63 1.822-1.514 3.174-3.597 5.008-5.093 2.935-2.396 4.541-6.053 7.87-8.039.312-.186.469-.622.717-.926 3.588-4.374 6.78-9.177 10.897-12.977 3.183-2.938 5.195-6.765 8.602-9.532 1.997-1.621 4.146-3.883 4.554-6.963.09-.68.764-1.389 1.342-1.882 2.19-1.87 3.761-4.378 4.818-6.814 1.148-2.647 3.501-4.229 4.567-6.908 1.155-2.902 3.805-5.241 4.806-8.166 1.788-5.221 5.066-9.628 7.133-14.651.36-.873.187-1.956.499-2.86.477-1.387 1.095-2.737 1.776-4.039.764-1.46 2.75-2.481.989-4.679-.407-.507.512-2.287 1.087-3.334 2.551-4.64 4.501-9.647 5.507-14.693 1.144-5.734 3.064-11.214 4.263-16.892.378-1.789.175-3.696.28-5.546.324-5.734 2.27-11.262 2.014-17.089-.203-4.61-.473-9.28.022-13.844.799-7.361-1.949-14.371-1.588-21.649.04-.814-.478-1.657-.747-2.484-.624-1.92-.008-3.759 1.4-4.159 1.664-.473 3.016.49 3.84 2.349 1.821 4.109 3.763 8.166 5.689 12.228.256.538.617 1.103 1.082 1.452 1.442 1.082 3.093 1.966 2.014 4.27-.164.351.054 1.135.367 1.414 2.355 2.099 3.35 5.045 4.976 7.6 3.316 5.209 6.971 10.203 10.484 15.286.206.299.341.676.608.899 3.833 3.213 7.383 6.893 11.6 9.485 5.957 3.662 12.423 4.943 19.535 2.474 6.633-2.302 13.156-4.752 18.671-9.078 4.61-3.616 9.63-6.687 13.804-10.929 3.235-3.288 7.307-5.736 10.716-8.873 4.725-4.348 9.931-8.081 14.432-12.784 4.766-4.979 9.074-10.557 14.919-14.521 1.321-.896 1.756-2.818 3.317-3.889 2.218-1.521 4.246-3.416 6.03-5.438 1.209-1.371 1.743-3.312 2.784-4.86 1.902-2.829 4.929-4.658 7.026-7.186 1.754-2.112 4.422-3.435 5.359-6.527.577-1.904 2.943-3.291 4.564-4.849 1.871-1.798 3.883-3.454 5.694-5.308 2.032-2.08 3.908-4.313 6.086-6.794ZM223.136 362.586c-4.547.308-8.236 3.122-12.484 4.317-.335.094-.494.821-.734 1.254.435.029.93.21 1.295.065a844.779 844.779 0 0 0 11.766-4.794c.205-.085.316-.4.786-.372.684-.26 1.372-.51 2.041-.805.041-.018-.073-.39-.115-.597-.747.389-1.494.778-2.555.932Zm-31.782-29.604c-.314-.234-.599-.541-.95-.687-.516-.213-1.079-.312-1.623-.46.142.502.135 1.141.451 1.481 1.497 1.611 1.603 3.487 1.202 5.475-.167.827-.522 1.619-.648 2.449-.037.246.415.566.643.852.154-.231.345-.444.456-.694 1.133-2.541 1.277-5.222.469-8.416Zm38.875 5.009c2.468-.618 3.904-2.474 5.233-4.428.151-.223.009-.645.003-.975-.419.024-1.009-.122-1.229.099-1.657 1.665-3.249 3.394-4.82 5.14-.081.089.22.521.813.164Zm7.215-4.416c.028.511.048 1.023.098 1.532.004.04.255.123.326.08 2.03-1.244 4.069-2.475 6.049-3.795.214-.142.075-.814.099-1.241-.412.072-.895.03-1.225.234-1.622 1.001-3.203 2.067-5.347 3.19Zm-116.566 89.883c.173-.098.365-.176.507-.308.044-.042-.007-.28-.084-.344-1.848-1.539-2.669.664-3.779 1.256-.978.522-1.464 1.967-2.167 3.005.944-.512 1.943-.945 2.815-1.557.791-.556 1.445-1.307 2.708-2.052Zm154.183-85.813c-1.768.257-3.539.498-5.302.789-.248.041-.456.329-.682.503.177.173.38.515.528.492 2.128-.318 4.248-.685 6.37-1.04-.121-.275-.243-.55-.914-.744Zm-19.445 12.925-.914.569c.135.209.335.618.396.599 1.857-.607 3.71-1.231 5.54-1.914.528-.198.984-.588 1.473-.89-.649-.049-1.362-.294-1.934-.108-1.372.447-2.679 1.097-4.561 1.744Zm-24.088 7.991-1.975 1.853c.967-.156 1.95-.247 2.894-.491.567-.147 1.2-.427 1.55-.855.162-.197-.161-1.13-.487-1.299-.375-.194-.997.088-1.982.792Zm5.495-.799c.018.128.012.268.065.38.031.068.182.152.23.129 1.723-.848 3.446-1.696 5.15-2.583.174-.091.225-.422.332-.641-.281-.082-.574-.261-.843-.231-1.775.204-3.405.72-4.934 2.946Zm48.637-20.536c.152-.204.261-.506.464-.593.696-.3 1.425-.524 2.142-.776-.794-.116-1.617-.418-2.374-.299-.919.145-1.806.597-2.65 1.027-.221.113-.232.639-.339.975.359-.03.718-.051 1.075-.092.379-.044.755-.107 1.682-.242Zm-114.386 42.999c-.883 1.094-.493 1.73.772 1.506.738-.13 1.43-.817 2.015-1.385.259-.251.201-.828.287-1.257-.419.004-.85-.055-1.252.027-.464.095-.903.314-1.822 1.109Zm-3.509-101.602c-.312.418-.724.8-.891 1.27-.076.212.286.648.541.883.127.116.642.076.673-.009.423-1.13.809-2.276 1.13-3.439.018-.065-.822-.502-.883-.432-.289.329-.446.774-.57 1.727Zm-25.356 115.336c.546-.732 1.106-1.454 1.628-2.203.13-.185.134-.458.196-.691-.202-.017-.541-.115-.586-.039a78.68 78.68 0 0 0-2.183 3.925c-.03.06.477.396.734.603.097-.349.193-.697.211-1.595Zm55.475-54.633c.238.852.647 1.49 1.473.584.334-.367.331-1.041.481-1.575-.495.121-.99.241-1.954.991Zm22.582-14.504-.892 1.587c.418-.253.83-.516 1.256-.754.307-.172.715-.237.932-.48.299-.336.46-.795.68-1.201-.502.073-1.004.146-1.976.848Zm-.198 17.983c.441-.372.908-.719 1.308-1.131.129-.134.081-.439.115-.665-.28.119-.608.182-.827.372-.272.237-.454.578-.596 1.424Zm-10.717 18.951.418-.985c-.271.067-.778.145-.775.199.022.48-1.665.86.357.786Zm71.004-24.91-.155.864c.262-.131.523-.263.155-.864Zm-73.815 32.612.864.155c-.131-.261-.263-.523-.864-.155Zm104.991-30.412c-.269-.335-.534-.673-.822-.99-.009-.009-.261.202-.399.31.224.254.447.507 1.221.68Zm-46.464 8.438.19.534c.12-.205.24-.409-.19-.534Zm3.217-1.028-.533.189c.204.12.408.24.533-.189Z" fill="#000"/></g><defs><clipPath id="a"><path fill="#fff" d="M0 0h534v534H0z"/></clipPath></defs></svg>