<svg width="534" height="534" viewBox="0 0 534 534" fill="none" xmlns="http://www.w3.org/2000/svg">
<path d="M250.668 241.345C259.838 227.688 269.489 215.132 278.016 201.857C284.092 192.398 289.908 182.409 293.6 171.873C298.924 156.679 301.443 141.081 295.361 124.797C288.391 106.135 279.484 98.45 260.003 98.607C248.747 98.6975 237.492 99.502 226.25 100.197C224.387 100.312 222.152 101.049 220.831 102.288C203.979 118.104 189.767 135.39 187.039 159.681C184.84 179.259 181.868 198.753 179.116 218.266C178.925 219.625 177.982 221.472 176.9 221.924C176.036 222.285 173.934 221.202 173.237 220.178C170.594 216.293 168.03 213.025 169.365 207.067C173.839 187.091 177.237 166.866 180.718 146.679C183.123 132.731 191.071 122.033 200.054 111.842C202.148 109.465 204.745 107.514 206.733 105.062C220.5 88.089 238.719 87.1911 258.203 90.5801C265.627 91.8714 273.237 92.4184 280.481 94.355C294.087 97.9928 300.01 109.66 304.458 121.186C314.9 148.242 306.46 172.919 291.963 195.958C278.975 216.6 264.856 236.531 251.831 257.151C248.657 262.175 247.057 268.566 246.239 274.534C245.859 277.309 249.499 280.434 250.597 283.646C255.775 298.795 269.121 302.512 282.248 306.359C301.627 312.039 319.183 320.521 329.943 338.547C334.039 345.411 336.312 353.344 339.756 360.629C340.325 361.833 342.98 363.176 344.095 362.791C347.538 361.601 350.612 359.392 353.994 357.97C360.255 355.338 366.066 358.553 364.833 364.769C360.263 387.807 361.315 412.245 348.419 433.289C347.512 434.769 346.733 436.382 345.586 437.655C338.731 445.265 334.792 449.176 326.503 438.228C320.099 429.77 315.107 420.25 309.428 411.239C306.909 407.24 304.795 402.774 301.498 399.536C297.945 396.048 298.707 393.607 301.768 391.107C309.245 385.002 316.431 378.346 324.629 373.386C330.032 370.118 331.135 366.111 329.965 361.336C325.36 342.536 314.835 328.162 296.45 320.817C289.174 317.911 280.822 317.487 273.825 314.131C257.883 306.486 241.864 298.1 238.021 278.433C237.117 273.806 238.018 268.272 239.762 263.807C242.691 256.309 246.962 249.333 250.668 241.345ZM316.59 387.336C313.878 390.678 308.417 392.786 312.12 398.827C315.185 403.831 317.536 409.273 320.621 414.263C324.278 420.181 328.127 426.03 332.506 431.411C333.386 432.493 338.42 432.21 339.131 431.065C341.934 426.55 344.586 421.636 345.823 416.516C349.431 401.594 352.369 386.508 355.445 371.462C355.733 370.051 355.144 368.462 354.963 366.955C353.633 367.401 352.207 367.667 350.99 368.322C339.768 374.357 328.581 380.459 316.59 387.336Z" fill="black"/>
</svg>
