<svg width="534" height="534" viewBox="0 0 534 534" fill="none" xmlns="http://www.w3.org/2000/svg">
<path d="M276.347 155.07C280.731 158.919 285.708 161.842 288.678 166.15C293.197 172.704 293.302 178.827 282.728 188.292C273.564 196.495 263.157 203.025 251.182 206.528C242.985 208.926 227.305 207.735 221.547 197.127C220.124 194.505 218.772 195.027 217.9 197.808C215.525 205.384 211.835 212.779 210.906 220.514C209.894 228.946 211.238 237.693 211.923 246.273C212.092 248.392 213.689 250.398 214.63 252.456C216.335 251.316 218.393 250.481 219.69 248.987C230.154 236.93 243.575 230.963 259.235 230.853C267.035 230.799 273.404 235.388 276.585 242.615C277.474 244.634 275.887 249.038 273.993 250.768C265.025 258.96 255.195 265.79 243.489 269.995C233.451 273.601 224.984 272.867 217.438 265.092C216.992 264.632 216.302 264.408 215.725 264.074C215.235 265.503 214.334 266.929 214.324 268.361C214.278 275.01 213.258 281.546 215.285 288.315C218.116 297.769 219.66 307.569 225.415 315.975C227.917 319.629 228.741 319.768 231.415 316.382C240.182 305.278 250.531 296.07 263.813 290.677C270.877 287.808 277.226 290.502 281.547 297.842C288.649 309.906 287.833 312.308 278.168 323.049C270.752 331.291 261.238 335.247 251.332 338.147C243.601 340.41 236.329 336.831 230.352 331.689C227.616 329.335 227.076 329.878 226.438 333.001C225.407 338.041 223.745 342.963 222.902 348.027C222.039 353.207 223.265 357.996 226.533 362.406C231.112 368.584 235.172 375.144 239.595 381.442C243.087 386.415 249.027 387.901 254.888 385.194C260.03 382.819 264.93 379.909 270.117 377.647C272.351 376.672 275.186 376.067 277.466 376.571C278.903 376.888 281.15 380.07 280.759 381.117C276.805 391.703 272.274 402.072 268.121 412.587C264.636 421.41 260.658 429.867 253.732 436.616C248.847 441.377 246.115 441.211 242.417 435.502C239.097 430.375 236.126 425.018 232.715 419.956C227.966 412.909 222.868 406.097 218.132 399.042C217.365 397.901 217.011 395.457 217.693 394.633C218.498 393.663 220.626 393.722 222.204 393.485C223.199 393.336 224.297 393.685 225.243 393.425C228.525 392.523 231.76 391.452 235.014 390.445C233.599 387.371 232.842 383.68 230.648 381.337C223.764 373.983 218.882 365.3 216.895 355.844C215.57 349.537 216.832 342.006 219.076 335.796C221.967 327.792 221.822 321.156 216.736 314.38C210.761 306.418 210.095 296.67 208.103 287.366C206.302 278.95 206.223 270.752 209.212 262.512C209.829 260.81 208.996 258.183 208.065 256.379C201.063 242.8 202.566 228.791 205.196 214.527C207.147 203.946 213.159 195.38 217.604 185.98C221.531 177.673 222.957 168.209 226.618 159.745C235.388 139.466 250.705 124.812 269.893 114.731C282.515 108.099 296.146 103.332 309.502 98.1912C314.269 96.3564 319.521 95.4204 324.627 95.0083C326.666 94.8436 328.927 97.1736 330.993 98.5118C331.083 98.5702 330.258 100.788 329.827 100.8C313.593 101.248 298.581 106.959 284.299 113.511C272.923 118.729 262.889 126.993 252.541 134.306C240.416 142.874 235.755 156.776 228.879 169.039C228.084 170.455 228.519 172.562 228.383 174.349C229.362 173.351 230.262 172.257 231.331 171.368C242.249 162.289 254.051 154.968 268.602 153.628C271.027 153.405 273.559 154.356 276.347 155.07ZM239.336 200.056C242.767 200.296 246.425 201.424 249.586 200.613C260.115 197.911 269.203 192.117 277.31 185.069C280.228 182.532 282.779 178.721 283.798 175.023C286.171 166.412 273.887 156.823 263.587 160.015C250.259 164.145 238.436 171.257 228.216 180.777C226.581 182.3 225.576 185.136 225.389 187.455C224.873 193.84 229.667 198.336 239.336 200.056ZM265.03 326.139C268.175 323.4 271.505 320.844 274.428 317.885C280.777 311.458 280.737 305.068 274.146 298.707C272.481 297.1 269.379 295.255 267.639 295.793C263.194 297.166 258.675 299.225 255.042 302.095C248.943 306.916 243.41 312.478 237.84 317.934C235.381 320.342 231.217 322.296 232.974 326.597C233.231 327.225 238.399 325.687 241.318 325.465C242.409 325.383 243.676 326.035 244.649 326.677C245.114 326.983 245.327 328.086 245.219 328.759C245.033 329.919 244.507 331.025 244.124 332.153C245.491 332.081 246.936 332.27 248.211 331.89C253.641 330.269 259.02 328.479 265.03 326.139ZM226.489 250.856C224.764 252.582 222.792 254.136 221.421 256.108C220.752 257.07 220.585 259.454 221.251 260.098C225.232 263.947 230.098 268.281 235.634 265.861C246.322 261.19 256.569 255.427 266.701 249.599C270.602 247.355 270.443 242.475 266.597 239.789C264.226 238.134 260.939 236.824 258.127 236.938C246.199 237.423 235.376 240.993 226.489 250.856ZM243.618 422.232C244.741 422.74 245.864 423.249 246.987 423.758C246.333 421.679 245.806 419.546 244.963 417.546C244.63 416.755 243.593 416.26 242.876 415.63C243.124 417.422 243.371 419.215 243.618 422.232Z" fill="black"/>
</svg>
