<svg width="534" height="534" viewBox="0 0 534 534" fill="none" xmlns="http://www.w3.org/2000/svg"><path d="M217.645 142.093c4.166-6.429 8.155-11.661 12.58-16.495 1.98-2.163 4.607-4.3 7.336-5.099 5.882-1.721 9.255 1.121 7.069 6.805-5.417 14.087-.216 27.006 2.535 40.34.802 3.89.493 8.053.366 12.081-.168 5.289 1.474 8.858 7.435 8.559 5.916-.297 10.447 2.839 15.646 4.933 25.564 10.299 49.124 24.135 72.373 38.636 4.357 2.718 8.785 5.463 12.642 8.814 16.047 13.943 32.103 27.888 47.741 42.282 14.549 13.393 15.323 31.162 12.026 48.666-3.91 20.756-9.979 41.105-15.037 61.648-.28 1.137-.368 2.874.278 3.6 5.617 6.308.165 9.687-3.628 13.087-2.11 1.892-5.162 2.735-7.79 4.05-1.108-2.418-1.841-5.113-3.391-7.204-5.834-7.872-7.473-18.031-14.309-25.377-6.93-7.446-13.873-14.933-20.17-22.907-22.233-28.155-47.78-53.19-73.143-78.411-2.249-2.237-4.604-4.381-6.701-6.752-2.376-2.684-4.517-5.576-6.761-8.378-.28 3.961-.678 7.917-.819 11.883-.498 14.04 2.816 27.563 4.82 41.318 1.934 13.267 2.947 27.574-2.267 40.854-.941 2.397-4.25 6.006-5.706 5.679-5.342-1.201-10.266-1.015-15.563.062-1.567.318-5.568-2.885-5.527-4.396.415-15.456-12.475-21.802-21.053-30.723-10.483-10.902-22.272-20.541-33.29-30.942-7.016-6.623-13.044-12.798-24.3-14.106-11.204-1.301-21.74-8.289-32.592-12.729-1.938-.794-4.028-1.989-5.969-1.854-5.317.368-4.5.384-5.671-3.763-2.664-9.433 1.62-15.938 7.931-21.732 7.494-6.882 15.668-13.069 22.798-20.295 19.823-20.09 38.092-41.575 55.707-63.621 4.659-5.831 9.595-11.441 14.404-18.513Z" fill="#000"/></svg>