<svg width="534" height="534" viewBox="0 0 534 534" fill="none" xmlns="http://www.w3.org/2000/svg">
<path d="M152.154 334.284C146.837 337.024 141.169 338.834 136.788 342.277C132.312 345.795 128.887 350.758 125.406 355.391C123.021 358.564 120.284 362.051 119.562 365.76C118.394 371.759 118.49 378.058 118.564 384.224C118.609 387.996 119.879 391.738 120.132 395.525C120.85 406.284 121.255 417.064 121.962 427.824C122.099 429.903 123.104 431.915 123.579 433.987C123.721 434.607 123.544 435.849 123.303 435.905C122.593 436.069 121.571 436.047 121.038 435.63C118.446 433.603 116.713 431.059 116.74 427.573C116.779 422.427 117.125 417.248 116.669 412.143C115.803 402.444 114.498 392.782 113.307 383.113C111.915 371.809 115.369 362.208 121.45 352.55C128.49 341.368 139.319 336.492 149.986 330.452C160.649 324.413 171.631 324.606 182.752 326.548C189.235 327.679 193.224 333.447 197.413 338.239C199.496 340.622 201.199 343.369 203.448 345.568C207.701 349.725 212.825 348.824 218.105 347.86C230.526 345.593 238.985 338.812 242.087 326.542C243.255 321.924 243.581 316.576 242.469 312.002C239.649 300.411 235.398 289.169 232.529 277.587C231.081 271.738 231.688 265.411 230.832 259.376C229.547 250.322 231.913 242.113 236.108 234.366C240.551 226.161 247.662 220.498 255.782 216.292C259.972 214.121 265.079 214.452 268.951 216.724C275.477 220.553 282.023 224.776 287.423 230.006C297.319 239.589 315.055 238.592 321.962 226.416C324.806 221.402 329.001 217.023 331.137 211.769C334.601 203.244 333.46 194.313 330.828 185.599C328.37 177.463 325.694 169.373 323.709 161.121C322.443 155.854 326.103 145.573 332.723 142.734C338.428 140.287 344.148 137.667 350.121 136.132C353.428 135.282 357.496 135.823 360.818 136.937C366.54 138.856 371.486 135.901 376.797 135.566C383.058 135.171 384.853 129.413 388.682 126.123C390.337 124.701 391.654 122.839 392.922 121.034C393.47 120.255 393.504 119.115 393.771 118.139C392.879 118.025 391.988 117.84 391.092 117.814C389.967 117.78 388.837 117.859 387.71 117.92C386.365 117.993 385.022 118.099 383.678 118.19C384.624 117.01 385.335 115.424 386.556 114.715C394.262 110.241 402.104 106.002 409.848 101.591C411.838 100.458 413.528 98.7706 415.562 97.7509C416.81 97.1255 418.67 96.736 419.869 97.2118C422.055 98.0786 420.489 99.5774 419.984 101C417.534 107.894 417.816 114.948 419.113 122.025C419.625 124.82 420.358 127.619 420.393 130.424C420.402 131.1 417.761 132.663 416.803 132.358C410.67 130.412 404.368 128.625 399.917 123.432C397.209 120.273 396.273 123.896 395.2 125.001C392.625 127.655 390.375 130.647 388.162 133.627C384.31 138.815 378.474 140.343 372.768 140.895C365.209 141.626 357.526 141.075 349.897 141.075C339.916 141.075 331.624 146.847 329.459 156.49C328.637 160.152 329.734 164.475 330.768 168.276C332.959 176.33 336.51 184.093 337.942 192.249C339.218 199.518 338.551 207.156 335.629 214.301C331.864 223.506 325.218 230.532 317.979 236.924C315.663 238.97 312.01 239.868 308.813 240.491C297.456 242.704 288.609 237.897 280.819 230.089C278.019 227.283 274.874 224.661 271.477 222.642C263.932 218.155 257.817 219.159 250.804 224.417C243.045 230.235 238.36 238.293 236.412 247.096C234.767 254.529 235.756 262.701 236.478 270.463C237.534 281.836 243.03 292.038 246.076 302.863C248.768 312.432 250.608 322.408 245.645 332.533C238.191 347.738 223.322 354.014 208.561 352.87C202.005 352.362 198.428 347.295 194.844 342.498C190.98 337.326 187.143 331.748 180.361 330.481C175.436 329.562 170.182 329.394 165.215 330.013C160.832 330.559 156.643 332.657 152.154 334.284Z" fill="black"/>
</svg>
