<svg width="534" height="534" viewBox="0 0 534 534" fill="none" xmlns="http://www.w3.org/2000/svg"><path d="M386.274 444.947c-.972-5.43-2.471-10.095-2.788-14.839-.437-6.516-1.932-12.683-3.809-18.868-.538-1.774-.64-4.908.393-5.719 4.499-3.535 8.223-8.301 14.04-9.944 2.409-.68 4.907-1.659 7.325-1.558 4.93.207 4.98-2.554 5.391-6.335.846-7.774 2.715-15.432 3.69-23.198 1.178-9.383 5.116-18.246 4.997-27.87-.022-1.736.935-3.475 1.376-5.229.446-1.773 2.957-3.312.16-5.539-.657-.523.466-3.43.94-5.195 1.361-5.059-.158-7.444-5.457-6.843-8.468.961-16.854 2.646-25.278 4.01-3.649.591-7.285 1.406-10.959 1.661-9.265.642-18.553.954-27.823 1.537-5.397.339-10.769 1.196-16.167 1.371-7.467.241-9.588-3.192-6.322-10.308 3.377-7.359 6.627-14.849 10.814-21.747 8.38-13.808 14.199-28.563 19.106-43.89 1.792-5.595 1.649-11.124 2.514-16.643.729-4.66.202-4.323-4.943-3.705-13.213 1.587-25.699 6.194-38.652 8.794-4.338.872-8.866.779-13.224 1.578-6.727 1.235-13.45 2.608-20.053 4.377-9.14 2.448-18.576 3.907-27.163 8.361-1.709.886-4.829.325-6.702-.68-2.893-1.552-.628-3.809-.051-6.02 2.854-10.928 6.634-21.555 10.848-31.975 3.994-9.878 7.257-19.97 9.505-30.292 1.889-8.678 5.007-16.971 6.875-25.62.092-.426.488-.789.571-1.215.968-4.988-1.095-6.918-6.126-5.972-5.656 1.063-11.39 1.747-17.001 2.996-6.408 1.426-12.683 3.449-19.084 4.917-4.485 1.028-9.058 1.921-13.635 2.244-10.232.72-20.533.633-30.725 1.664-7.727.782-15.329 2.788-22.991 4.23-.469.088-.971-.016-1.455.016-10.576.696-11.14-.535-7.175-10.518 6.305-15.87 13.062-31.607 17.53-48.138 2.254-8.342 6.097-16.298 6.125-25.25.004-1.215 1.892-1.87-.848-2.224-4.053-.523-7.504 1.338-10.325 3.25-11.523 7.813-23.888 13.58-37.057 18.016-7.416 2.498-14.367 6.356-21.61 9.406-4.344 1.829-8.836 3.311-13.286 4.881-1.279.451-2.658.982-3.96.912-1.691-.092-4.766-.698-4.783-1.17-.078-2.219-.012-5.049 1.278-6.599 4.266-5.127 10.525-6.096 16.784-6.625.662-.056 1.842.807 1.99.619 4.386-5.558 11.508-5.217 17.212-7.857 9.999-4.628 20.425-8.104 29.94-14.044 8.718-5.444 18.521-9.154 27.867-13.581.599-.284 1.385-.175 2.084-.247 7.606-.777 7.965-.754 7.48 6.669-.342 5.227-.769 10.904-3.027 15.451-3.992 8.037-5.059 16.841-8.205 25.051-3.378 8.816-6.28 17.815-9.314 26.761-.582 1.717-.714 3.582-1.225 5.328-1.977 6.771-2.002 6.724 4.981 6.799 2.818.03 5.634.394 8.451.388 3.099-.005 6.203-.183 9.294-.421 12.236-.939 24.477-1.834 36.695-2.979 2.646-.248 5.344-1.157 7.773-2.289 7.469-3.482 15.37-4.419 23.467-5.056 4.709-.371 9.802-1.158 13.837-3.372 4.327-2.374 8.506-2.135 12.915-2.38 2.275-.127 2.471 1.14 2.148 2.659-.662 3.102-.927 6.508-2.444 9.168-4.301 7.541-6.912 15.641-9.191 23.914-2.402 8.722-4.627 17.501-7.342 26.125-3.513 11.158-7.408 22.196-11.194 33.267-1.425 4.164 1.552 7.884 6.07 6.907 4.386-.948 8.616-2.621 12.908-3.995 6.985-2.235 14.14-3.673 21.395-4.67 15.884-2.184 31.75-4.435 47.011-9.694 1.728-.596 3.757-.262 5.622-.533 2.727-.396 5.419-1.053 8.152-1.396 1.675-.209 3.406-.147 5.097-.016 3.725.288 4.819 1.996 4.169 6.099-.656 4.144-.845 8.117-3.733 11.919-1.94 2.553-2.219 6.865-3.018 10.263-2.243 9.54-6.905 18.126-9.545 27.487-1.488 5.278-5.642 9.761-8.271 14.772-3.446 6.571-6.749 13.232-9.765 20.01-1.58 3.55-.249 5.777 3.391 5.579 8.79-.477 17.662 1.54 26.416-1.232 2.65-.839 5.794-.212 8.706-.112 5.183.179 10.097-.714 15.072-2.322 4.127-1.335 8.661-1.396 13.005-2.078 8.107-1.273 16.103-2.031 24.362-.235 3.161.688 3.488 1.759 3.125 4.01-.951 5.896-1.656 11.881-3.233 17.618-3.323 12.091-6.397 24.194-8.561 36.577-1.331 7.612-2.868 15.093-2.858 22.878.004 3.324 1.189 4.08 4.084 3.757 4.895-.545 9.8-1.011 14.705-1.458 1.205-.11 2.518-.301 3.624.047 1.866.589 4.827 1.254 5.148 2.465.677 2.558 1.264 6.026-2.023 7.707-6.405 3.278-8.837 9.806-12.087 15.343-5.454 9.294-9.965 19.162-14.525 28.95-1.81 3.886-3.803 7.934-3.189 12.522.3 2.237-.747 4.121-2.725 4.282-3.407.278-4.932 2.151-6.075 4.949-.339.83-1.293 1.386-1.818 2.167-1.698 2.525-4.468 2.201-6.506 1.549-1.423-.455-2.924-2.759-3.176-4.421-1.03-6.801-3.323-13.155-5.956-20.161Zm5.104-26.25c2.796.412 2.278-1.641 2.094-3.104-.061-.494-1.21-.851-1.861-1.271-.321 1.216-.641 2.431-.233 4.375Z" fill="#000"/></svg>