<svg width="534" height="534" viewBox="0 0 534 534" fill="none" xmlns="http://www.w3.org/2000/svg">
<defs><filter id="a" x="-20%" y="-20%" width="140%" height="140%"><feTurbulence baseFrequency="0.002 0.002" numOctaves="20" seed="3" stitchTiles="stitch" x="0%" y="0%" width="100%" height="100%" result="turbulence"/><feDisplacementMap in="SourceGraphic" in2="turbulence" scale="27" xChannelSelector="R" yChannelSelector="B" x="0%" y="0%" width="100%" height="100%" result="displacementMap"/><feGaussianBlur stdDeviation="3" x="0%" y="0%" width="100%" height="100%" in="displacementMap" result="blur"/><feColorMatrix values="1 0 0 0 0 0 1 0 0 0 0 0 1 0 0 0 0 0 7 -4" x="0%" y="0%" width="100%" height="100%" in="blur" result="colormatrix"/></filter></defs>
<path d="M434.795 79C325.072 79 215.35 79 105.628 79C91.0829 79 104.839 127.687 106.017 135.444C112.166 175.928 116.875 217.192 117.85 258.167C118.288 276.573 118.795 294.909 118.795 313.333C118.795 321.003 119.009 329.456 117.295 337C116.131 342.121 113.65 346.714 111.739 351.611C108.399 360.169 106.939 369.652 106.017 378.778C103.511 403.586 104.795 428.842 104.795 453.778C104.795 459.134 117.829 456.916 120.517 456.944C139.273 457.143 158.037 457 176.795 457C205.609 457 234.424 457 263.239 457C295.498 457 327.758 457 360.017 457C381.535 457 403.054 457 424.572 457C440.938 457 411.671 379.696 407.406 371.333C403.314 363.311 400.101 355.252 396.795 346.889C394.994 342.335 392.323 337.576 391.85 332.611C390.854 322.156 395.763 313.063 400.295 304C407.907 288.775 415.72 272.684 421.739 256.778C429.551 236.133 428.669 214.338 429.572 192.667C430.108 179.825 429.782 167.037 429.017 154.222C428.211 140.725 429.795 127.322 429.795 113.833C429.795 101.677 430.795 88.8258 430.795 77" filter="url(#a)" stroke="currentColor" stroke-width="7" stroke-linecap="round"/>
</svg>
