<svg width="534" height="534" viewBox="0 0 534 534" fill="none" xmlns="http://www.w3.org/2000/svg">
<defs><filter id="a" x="-20%" y="-20%" width="140%" height="140%"><feTurbulence baseFrequency="0.002 0.002" numOctaves="20" seed="3" stitchTiles="stitch" x="0%" y="0%" width="100%" height="100%" result="turbulence"/><feDisplacementMap in="SourceGraphic" in2="turbulence" scale="27" xChannelSelector="R" yChannelSelector="B" x="0%" y="0%" width="100%" height="100%" result="displacementMap"/><feGaussianBlur stdDeviation="3" x="0%" y="0%" width="100%" height="100%" in="displacementMap" result="blur"/><feColorMatrix values="1 0 0 0 0 0 1 0 0 0 0 0 1 0 0 0 0 0 7 -4" x="0%" y="0%" width="100%" height="100%" in="blur" result="colormatrix"/></filter></defs>
<path d="M371.454 95C338.935 95 306.417 95 273.898 95C240.334 95 206.821 97 173.232 97C151.986 97 130.448 95.8769 109.232 97.0556C101.514 97.4843 95.5716 97.5137 87.8984 96.4444C81.3258 95.5286 71.7076 92.8579 65.1206 94.0556C62.6009 94.5137 65.1081 118.193 65.1762 119.167C66.4292 137.094 69.1198 154.814 71.5095 172.611C76.5038 209.806 80.8782 247.21 84.565 284.556C88.3456 322.851 90.7406 362.23 86.2317 400.556C84.802 412.708 85.4539 425.133 85.4539 437.389C85.4539 446.672 86.3485 455.834 86.4539 465.111C86.5006 469.214 85.9118 473.341 90.565 471.556C97.0259 469.076 103.812 467.937 110.676 467.222C132.506 464.95 154.765 465.042 176.676 465.167C250.784 465.589 324.614 473 398.787 473C419.677 473 440.622 472.353 461.454 473.778C470.584 474.402 471.532 475.002 469.676 466.222C468.015 458.362 467.298 450.216 466.676 442.222C464.275 411.379 464.644 380.241 464.509 349.333C464.269 294.088 466.402 239.095 467.232 183.889C467.681 153.954 465.454 124.139 465.454 94.2222C465.454 91.3148 465.454 88.4074 465.454 85.5C465.454 79.8173 458.201 80.6237 453.565 80C408.242 73.902 362.741 69.6073 317.287 64.6667C304.653 63.2933 291.189 60 278.454 60" stroke="currentColor" stroke-width="7" stroke-linecap="round" filter="url(#a)"/>
</svg>
