<svg width="534" height="534" viewBox="0 0 534 534" fill="none" xmlns="http://www.w3.org/2000/svg">
<defs><filter id="a" x="-20%" y="-20%" width="140%" height="140%"><feTurbulence baseFrequency="0.002 0.002" numOctaves="20" seed="3" stitchTiles="stitch" x="0%" y="0%" width="100%" height="100%" result="turbulence"/><feDisplacementMap in="SourceGraphic" in2="turbulence" scale="27" xChannelSelector="R" yChannelSelector="B" x="0%" y="0%" width="100%" height="100%" result="displacementMap"/><feGaussianBlur stdDeviation="3" x="0%" y="0%" width="100%" height="100%" in="displacementMap" result="blur"/><feColorMatrix values="1 0 0 0 0 0 1 0 0 0 0 0 1 0 0 0 0 0 7 -4" x="0%" y="0%" width="100%" height="100%" in="blur" result="colormatrix"/></filter></defs>
<path d="M351.512 65.8986C343.685 66.1782 336.062 68.0196 328.29 68.8986C317.212 70.1515 306.084 70.6547 295.012 71.8986C270.097 74.6982 244.747 71.8838 219.846 70.1209C208.803 69.3391 197.705 69.333 186.679 68.3986C178.248 67.6842 169.823 67.3341 161.401 66.4542C160.804 66.3918 152.41 64.5131 151.735 65.1209C150.638 66.1076 152.146 70.8035 152.29 71.8986C153.679 82.4553 156.38 92.6775 158.401 103.121C163.827 131.155 167.254 160.233 167.512 188.788C168.018 244.678 156.512 299.868 156.512 355.788C156.512 366.255 153.986 377.161 153.29 387.676C152.614 397.9 152.512 408.05 152.512 418.288C152.512 431.46 150.38 443.128 148.29 455.899C147.716 459.405 147.572 462.677 147.512 466.232C147.482 468.083 146.097 470.314 148.012 468.399C150.809 465.602 152.692 462.077 155.957 459.676C158.728 457.639 162.203 455.004 165.235 453.399C171.585 450.037 181.503 445.977 188.512 444.899C207.153 442.031 225.588 445.284 244.124 447.343C261.434 449.266 278.623 450.056 295.846 452.899C304.349 454.302 313.356 453.621 321.735 455.454C340.465 459.551 359.266 460.85 378.124 463.399C380.637 463.738 384.311 464.567 386.846 463.843C387.365 463.695 385.888 458.565 385.735 457.899C384.313 451.737 383.351 445.512 381.512 439.454C377.442 426.044 378.747 409.877 378.012 396.065C376.62 369.895 372.716 343.92 372.512 317.676C372.31 291.605 369.641 265.765 367.957 239.788C366.461 216.711 362.512 194.219 362.512 171.065C362.512 145.195 362.512 119.325 362.512 93.4542C362.512 85.4155 359.015 77.4063 356.512 69.8986" stroke="currentColor" stroke-width="7" stroke-linecap="round" filter="url(#a)"/>
</svg>
