<svg width="534" height="534" viewBox="0 0 534 534" fill="none" xmlns="http://www.w3.org/2000/svg">
<defs><filter id="a" x="-20%" y="-20%" width="140%" height="140%"><feTurbulence baseFrequency="0.002 0.002" numOctaves="20" seed="3" stitchTiles="stitch" x="0%" y="0%" width="100%" height="100%" result="turbulence"/><feDisplacementMap in="SourceGraphic" in2="turbulence" scale="27" xChannelSelector="R" yChannelSelector="B" x="0%" y="0%" width="100%" height="100%" result="displacementMap"/><feGaussianBlur stdDeviation="3" x="0%" y="0%" width="100%" height="100%" in="displacementMap" result="blur"/><feColorMatrix values="1 0 0 0 0 0 1 0 0 0 0 0 1 0 0 0 0 0 7 -4" x="0%" y="0%" width="100%" height="100%" in="blur" result="colormatrix"/></filter></defs>
<path d="M72.1702 128.055C95.3329 128.055 118.493 127.587 141.615 129.055C154.468 129.871 166.83 131.055 179.781 131.055C196.795 131.055 213.739 130.164 230.726 130.055C275.537 129.768 319.97 135.266 364.726 135.999C392.58 136.456 419.561 135.178 447.17 132.111C455.19 131.219 463.383 131.582 471.392 130.555C475.003 130.092 478.467 130.055 482.115 130.055C487.628 130.055 488.522 129.979 487.948 135.722C484.324 171.958 477.17 207.084 477.17 243.722C477.17 265.841 478.059 287.96 478.059 310.055C478.059 330.132 475.132 350.499 473.392 370.499C472.897 376.197 473.17 382.002 473.17 387.722C473.17 397 472.035 406.967 473.948 416.055C475.021 421.15 466.83 418.108 463.392 418.055C455.84 417.939 448.45 415.837 441.059 414.499C425.796 411.738 410.41 409.444 395.004 407.666C365.142 404.22 334.545 403.562 304.504 402.277C281.928 401.311 259.304 402.686 236.726 401.611C209.822 400.329 183.267 397.957 156.448 395.611C126.979 393.032 97.4795 388.055 67.8924 388.055C65.8548 388.055 60.9071 389.025 59.7258 386.999C58.7271 385.287 59.1702 382.755 59.1702 380.888C59.1702 374.073 57.9521 367.371 57.1702 360.611C55.5347 346.469 55.826 332.057 54.948 317.833C53.4689 293.872 50.3685 269.914 47.7813 246.055C46.2791 232.201 47.8463 218.21 46.6702 204.333C45.2003 186.988 46.054 168.99 50.1702 152.055C52.9153 140.761 56.5979 129.97 60.6702 119.111C61.5318 116.813 62.1702 110.89 62.1702 116.055" stroke="currentColor" stroke-width="7" stroke-linecap="round" filter="url(#a)"/>
</svg>
