<svg width="534" height="534" viewBox="0 0 534 534" fill="none" xmlns="http://www.w3.org/2000/svg">
<defs><filter id="a" x="-20%" y="-20%" width="140%" height="140%"><feTurbulence baseFrequency="0.001 0.001" numOctaves="20" seed="3" stitchTiles="stitch" x="0%" y="0%" width="100%" height="100%" result="turbulence"/><feDisplacementMap in="SourceGraphic" in2="turbulence" scale="7" xChannelSelector="R" yChannelSelector="B" x="0%" y="0%" width="100%" height="100%" result="displacementMap"/><feGaussianBlur stdDeviation="1" x="0%" y="0%" width="100%" height="100%" in="displacementMap" result="blur"/><feColorMatrix values="1 0 0 0 0 0 1 0 0 0 0 0 1 0 0 0 0 0 7 -4" x="0%" y="0%" width="100%" height="100%" in="blur" result="colormatrix"/></filter></defs>
<path d="M52.1702 118.055C75.3329 118.055 98.493 117.587 121.615 119.055C134.468 119.871 146.83 121.055 159.781 121.055C176.795 121.055 193.739 120.164 210.726 120.055C255.537 119.768 299.97 125.266 344.726 125.999C372.58 126.456 399.561 125.178 427.17 122.111C435.19 121.219 443.383 121.582 451.392 120.555C455.003 120.092 458.467 120.055 462.115 120.055L462.327 120.055C467.651 120.054 468.515 120.054 467.948 125.722C464.324 161.958 457.17 197.084 457.17 233.722C457.17 255.841 458.059 277.96 458.059 300.055C458.059 320.132 455.132 340.499 453.392 360.499C452.897 366.197 453.17 372.002 453.17 377.722C453.17 387 452.035 396.967 453.948 406.055C455.021 411.15 446.83 408.108 443.392 408.055C435.84 407.939 428.45 405.837 421.059 404.499C405.796 401.738 390.41 399.444 375.004 397.666C345.142 394.22 314.545 393.562 284.504 392.277C261.928 391.311 239.304 392.686 216.726 391.611C189.822 390.329 163.267 387.957 136.448 385.611C106.979 383.032 77.4795 378.055 47.8924 378.055C45.8548 378.055 40.9071 379.025 39.7258 376.999C38.7271 375.287 39.1702 372.755 39.1702 370.888C39.1702 364.073 37.9521 357.372 37.1702 350.611C35.5347 336.469 35.826 322.057 34.948 307.833C33.4689 283.872 30.3685 259.914 27.7813 236.055C26.2791 222.201 27.8463 208.21 26.6702 194.333C25.2003 176.988 26.054 158.99 30.1702 142.055C32.9153 130.761 36.5979 119.97 40.6702 109.111C41.5318 106.813 42.1702 100.89 42.1702 106.055M72.17 128.055C95.3327 128.055 118.493 127.587 141.614 129.055C154.467 129.871 166.83 131.055 179.781 131.055C196.795 131.055 213.738 130.164 230.726 130.055C275.537 129.768 319.97 135.266 364.726 135.999C392.579 136.456 419.561 135.178 447.17 132.111C455.19 131.219 463.383 131.582 471.392 130.555C475.003 130.092 478.467 130.055 482.114 130.055L482.327 130.055C487.651 130.054 488.515 130.054 487.948 135.722C484.324 171.958 477.17 207.084 477.17 243.722C477.17 265.841 478.059 287.96 478.059 310.055C478.059 330.132 475.131 350.499 473.392 370.499C472.897 376.197 473.17 382.002 473.17 387.722C473.17 397 472.035 406.967 473.948 416.055C475.02 421.15 466.83 418.108 463.392 418.055C455.839 417.939 448.45 415.837 441.059 414.499C425.796 411.738 410.41 409.444 395.003 407.666C365.141 404.22 334.545 403.562 304.503 402.277C281.928 401.311 259.303 402.686 236.726 401.611C209.822 400.329 183.267 397.957 156.448 395.611C126.979 393.032 97.4793 388.055 67.8922 388.055C65.8546 388.055 60.9069 389.025 59.7256 386.999C58.7269 385.287 59.17 382.755 59.17 380.888C59.17 374.073 57.9519 367.372 57.17 360.611C55.5345 346.469 55.8258 332.057 54.9478 317.833C53.4687 293.872 50.3683 269.914 47.7811 246.055C46.2789 232.201 47.8461 218.21 46.67 204.333C45.2001 186.988 46.0538 168.99 50.17 152.055C52.9151 140.761 56.5977 129.97 60.67 119.111C61.5316 116.813 62.17 110.89 62.17 116.055M92.17 138.055C115.333 138.055 138.493 137.587 161.614 139.055C174.467 139.871 186.83 141.055 199.781 141.055C216.795 141.055 233.738 140.164 250.726 140.055C295.537 139.768 339.97 145.266 384.726 145.999C412.579 146.456 439.561 145.178 467.17 142.111C475.19 141.219 483.383 141.582 491.392 140.555C495.003 140.092 498.467 140.055 502.114 140.055L502.327 140.055C507.651 140.054 508.515 140.054 507.948 145.722C504.324 181.958 497.17 217.084 497.17 253.722C497.17 275.841 498.059 297.96 498.059 320.055C498.059 340.132 495.131 360.499 493.392 380.499C492.897 386.197 493.17 392.002 493.17 397.722C493.17 407 492.035 416.967 493.948 426.055C495.02 431.15 486.83 428.108 483.392 428.055C475.839 427.939 468.45 425.837 461.059 424.499C445.796 421.738 430.41 419.444 415.003 417.666C385.141 414.22 354.545 413.562 324.503 412.277C301.928 411.311 279.303 412.686 256.726 411.611C229.822 410.329 203.267 407.957 176.448 405.611C146.979 403.032 117.479 398.055 87.8922 398.055C85.8546 398.055 80.9069 399.025 79.7256 396.999C78.7269 395.287 79.17 392.755 79.17 390.888C79.17 384.073 77.9519 377.372 77.17 370.611C75.5345 356.469 75.8258 342.057 74.9478 327.833C73.4687 303.872 70.3683 279.914 67.7811 256.055C66.2789 242.201 67.8461 228.21 66.67 214.333C65.2001 196.988 66.0538 178.99 70.17 162.055C72.9151 150.761 76.5977 139.97 80.67 129.111C81.5316 126.813 82.17 120.89 82.17 126.055" stroke="currentColor" stroke-width="7" stroke-linecap="round" filter="url(#a)"/>
</svg>
