<svg width="534" height="534" viewBox="0 0 534 534" fill="none" xmlns="http://www.w3.org/2000/svg">
<defs><filter id="a" x="-20%" y="-20%" width="140%" height="140%"><feTurbulence baseFrequency="0.002 0.002" numOctaves="20" seed="3" stitchTiles="stitch" x="0%" y="0%" width="100%" height="100%" result="turbulence"/><feDisplacementMap in="SourceGraphic" in2="turbulence" scale="27" xChannelSelector="R" yChannelSelector="B" x="0%" y="0%" width="100%" height="100%" result="displacementMap"/><feGaussianBlur stdDeviation="3" x="0%" y="0%" width="100%" height="100%" in="displacementMap" result="blur"/><feColorMatrix values="1 0 0 0 0 0 1 0 0 0 0 0 1 0 0 0 0 0 7 -4" x="0%" y="0%" width="100%" height="100%" in="blur" result="colormatrix"/></filter></defs>
<path d="M292.068 195.465C291.838 180.115 281.506 169.053 272.734 157.132C264.183 145.511 255.028 134.375 244.012 124.965C221.361 105.617 196.68 91.5298 167.068 86.6875C154.126 84.5714 137.146 83.2578 124.623 87.5209C111.263 92.0691 97.8797 99.7958 87.012 108.688C68.6182 123.737 57.8541 146.586 50.8453 168.799C45.3846 186.105 45.9653 203.565 46.0676 221.465C46.2568 254.577 50.6694 288.772 64.5676 319.021C69.6923 330.175 75.7117 340.818 80.9564 351.91C85.956 362.482 91.1829 373.278 98.512 382.465C126.92 418.076 167.426 436.509 209.623 450.41C251.601 464.238 300.327 470.9 344.012 461.799C398.12 450.526 434.058 395.637 456.068 349.021C468.942 321.752 481.794 291.015 485.456 260.854C489.09 230.928 491.162 197.436 480.956 168.521C467.842 131.364 449.026 97.8926 413.845 77.4653C403.326 71.3574 390.119 65.6769 377.623 68.9653C372.884 70.2124 368.197 70.4242 363.845 73.132C357.369 77.1618 351.789 84.0488 347.623 90.3542C334.04 110.912 327.073 136.582 321.568 160.299C318.602 173.076 312.678 185.406 306.623 196.91C300.997 207.599 292.226 215.921 285.068 225.465" filter="url(#a)" stroke="currentColor" stroke-width="11" stroke-linecap="round"/>
</svg>
