<svg width="534" height="534" viewBox="0 0 534 534" fill="none" xmlns="http://www.w3.org/2000/svg"><path d="M453.562 333.169c-.917 3.84-1.217 7.339-2.005 10.725-2.551 10.971-3.051 22.43-7.804 32.881-1.902 4.183-3.813 8.367-5.539 12.624-1.273 3.138-2.035 6.492-3.401 9.584-6.311 14.29-14.686 27.488-22.721 40.797-3.715 6.152-6.691 13.386-14.22 17.001-2.634 1.265-4.5 5.314-5.538 8.479-2.229 6.798-7.498 10.224-13.053 13.61-1.28.78-2.961 1.629-3.452 2.851-2.302 5.725-7.624 7.281-12.406 9.725-4.118 2.105-8.338 4.163-12.049 6.877-5.837 4.269-12.513 6.592-19.198 8.652-6.126 1.887-12.649 2.494-18.039 6.425-8.465-1.795-16.5 3.252-25.542.477-6.374-1.956-13.709-2.092-20.546-3.583-6.216-1.355-12.444-2.218-18.535-4.543-7.708-2.942-16.087-4.076-23.976-6.613-4.332-1.392-8.282-4.006-12.351-6.168-8.8-4.675-17.836-8.981-26.261-14.259-6.969-4.365-13.313-9.768-19.726-14.967-7.103-5.758-14.118-11.644-20.874-17.802-3.159-2.879-5.734-6.436-8.37-9.845-6.732-8.703-13.898-17.14-19.863-26.348-6.466-9.984-13.121-19.846-17.628-31.144-3.923-9.834-8.91-19.332-13.438-28.969-5.53-11.77-8.724-24.193-12.287-36.525-2.582-8.938-4.638-18.067-6.257-27.23-1.145-6.478-.61-13.258-1.801-19.723-2.944-15.983-1.073-32.044-1.331-48.056-.171-10.601 1.1-21.179 2.955-31.686 5.176-29.314 11.295-49.443 21.374-73.607 2.793-6.696 5.308-13.61 8.981-19.815 7.395-12.491 17.008-23.008 28.43-32.266 6.655-5.394 13.274-10.687 20.494-15.25 2.259-1.428 4.566-2.876 7.033-3.862 11.007-4.399 20.718-11.76 32.695-13.995 5.5-1.027 10.785-3.245 16.294-4.172 11.762-1.98 23.528-4.063 35.592-3.28 12.184.79 23.967 3.25 35.197 7.957 9.368 3.927 18.726 7.959 27.757 12.59 16.692 8.561 32.032 19.167 44.096 33.717 9.87 11.903 20.299 23.518 27.736 37.176 6.949 12.763 13.487 25.796 19.365 39.082 5.277 11.93 10.862 24.053 13.588 36.679 2.168 10.041 5.033 20.925.751 31.514-.273.675-.242 1.599-.041 2.32 2.728 9.749-1.146 19.14-1.913 28.654-.465 5.782-2.175 12.087-6.62 16.77-.557.586-1.716 1.363-2.141 1.149-.812-.41-1.798-1.458-1.815-2.261-.036-1.699.12-3.605.87-5.085 5.323-10.488 7.094-21.659 6.895-33.277-.09-5.233-.269-10.484.034-15.701.783-13.503-2.094-26.27-6.95-38.76-4.477-11.518-9.672-22.7-14.683-33.975-6.212-13.979-14.422-26.564-22.421-39.38-2.095-3.358-4.208-6.79-6.843-9.709-10.239-11.34-19.544-23.73-33.085-31.575C304.9 49.9 291.022 41.55 275.664 35.598c-10.365-4.017-20.96-6.859-31.628-8.69-7.245-1.244-15.225-1.756-22.903.976-4.387 1.562-9.438 1.312-14.203 1.742-8.888.803-17.082 4.172-25.352 7.065-14.028 4.908-27.116 11.88-39.717 19.71-3.393 2.11-6.397 4.864-9.492 7.428-3.723 3.083-7.955 5.804-10.886 9.532-4.771 6.069-10.926 10.969-14.182 18.412-2.915 6.663-7.958 12.407-10.776 19.098-4.693 11.139-8.4 22.696-12.43 34.109-1.213 3.434-2.204 6.953-3.146 10.474-1.138 4.253-2.116 8.549-3.163 12.827-2.094 8.555-4.194 17.109-6.267 25.669-.12.495-.003 1.044-.017 1.567-.521 19.413-2.34 38.899-1.264 58.224 1.596 28.656 6.95 56.943 17.157 83.875 7.47 19.712 16.497 38.845 27.68 56.85 2.821 4.542 4.845 9.607 7.892 13.974 4.865 6.974 10.154 13.666 15.503 20.284 3.856 4.769 7.78 9.568 12.249 13.738 6.679 6.234 13.827 11.969 20.844 17.834 5.617 4.695 11.027 9.727 17.072 13.803 14.559 9.817 29.876 18.724 46.89 23.122 14.222 3.677 28.077 9.241 43.052 10.021 4.581.239 9.041 2.519 13.635 2.887 6.764.541 13.258-.616 19.976-2.736 14.371-4.536 28.808-8.811 42.039-16.077 11.761-6.458 21.496-15.271 30.229-25.724 7.113-8.513 13.592-17.401 19.58-26.585 11.039-16.932 21.172-34.474 29.47-52.937 5.22-11.613 8.385-23.896 10.396-36.562 1.569-9.88 4.646-19.515 6.878-29.299 1.969-8.632 3.709-17.317 5.526-25.984a4322.83 4322.83 0 0 0 4.483-21.698c.151-.738.197-1.505.228-2.261.531-13.132 1.986-26.317 1.243-39.377-.485-8.53-1.119-17.304-3.824-25.765-2.9-9.07-4.348-18.594-6.935-27.778-1.566-5.563-3.913-10.934-6.225-16.253-3.858-8.875-7.976-17.636-11.958-26.457-.297-.658-.528-1.411-.527-2.12.001-.709.332-1.417.518-2.125.555.404 1.285.693 1.638 1.229 2.972 4.516 6.512 8.793 8.681 13.676 7.094 15.963 14.152 31.924 17.565 49.293 1.723 8.763 3.008 17.589 4.754 26.308 2.012 10.048.966 20.02 1.273 30.018.09 2.941 2.064 6.302-.079 8.787-2.683 3.112-.81 6.461-1.502 9.624-1.686 7.71-2.801 15.552-4.687 23.208-2.708 10.996-2.806 22.312-4.698 33.391-.4 2.346-1.514 4.571-2.692 7.244Z" fill="#000"/></svg>