<svg width="534" height="534" viewBox="0 0 534 534" fill="none" xmlns="http://www.w3.org/2000/svg">
<defs><filter id="a" x="-20%" y="-20%" width="140%" height="140%"><feTurbulence baseFrequency="0.002 0.002" numOctaves="20" seed="3" stitchTiles="stitch" x="0%" y="0%" width="100%" height="100%" result="turbulence"/><feDisplacementMap in="SourceGraphic" in2="turbulence" scale="27" xChannelSelector="R" yChannelSelector="B" x="0%" y="0%" width="100%" height="100%" result="displacementMap"/><feGaussianBlur stdDeviation="3" x="0%" y="0%" width="100%" height="100%" in="displacementMap" result="blur"/><feColorMatrix values="1 0 0 0 0 0 1 0 0 0 0 0 1 0 0 0 0 0 7 -4" x="0%" y="0%" width="100%" height="100%" in="blur" result="colormatrix"/></filter></defs>
<path d="M385.343 153C375.268 137.384 355.78 129.594 339.454 122.111C321.224 113.756 302.458 109.725 282.454 110.056C256.872 110.478 231.501 113.669 206.01 115.5C184.137 117.071 162.437 120.681 141.287 126.556C115.366 133.756 86.4446 149.568 78.343 177.056C71.6921 199.621 73.9759 225.373 74.843 248.611C75.2645 259.907 75.1738 271.052 74.343 282.333C73.4549 294.392 70.807 306.277 70.1208 318.333C67.3068 367.779 114.217 400.593 152.232 422.889C167.021 431.563 183.458 437.463 199.454 443.444C219.184 450.823 239.006 457.351 259.565 462C290.576 469.013 327.889 474.713 358.343 462.222C374.391 455.64 387.177 440.691 397.843 427.667C417.334 403.868 435.842 377.073 447.232 348.333C465.813 301.451 465.08 247.732 464.899 198.111C464.828 178.929 464.743 158.154 459.343 139.556C454.213 121.886 442.841 105.216 429.787 92.4444C411.614 74.6639 392.019 66.2432 367.343 64" stroke="currentColor" filter="url(#a)" stroke-width="7" stroke-linecap="round"/>
</svg>
