<svg width="534" height="534" viewBox="0 0 534 534" fill="none" xmlns="http://www.w3.org/2000/svg">
<defs><filter id="a" x="-20%" y="-20%" width="140%" height="140%"><feTurbulence baseFrequency="0.002 0.002" numOctaves="20" seed="3" stitchTiles="stitch" x="0%" y="0%" width="100%" height="100%" result="turbulence"/><feDisplacementMap in="SourceGraphic" in2="turbulence" scale="27" xChannelSelector="R" yChannelSelector="B" x="0%" y="0%" width="100%" height="100%" result="displacementMap"/><feGaussianBlur stdDeviation="3" x="0%" y="0%" width="100%" height="100%" in="displacementMap" result="blur"/><feColorMatrix values="1 0 0 0 0 0 1 0 0 0 0 0 1 0 0 0 0 0 7 -4" x="0%" y="0%" width="100%" height="100%" in="blur" result="colormatrix"/></filter></defs>
<path d="M266 162.593C222.664 156.837 181.786 164.505 144 186.371C131.151 193.806 116.548 199.764 104.444 208.371C93.2706 216.317 90.1164 233.523 87.5 245.926C85.1549 257.044 82.6024 268.381 83.4444 279.815C84.5709 295.112 88.9425 309.612 94.9444 323.649C106.623 350.96 124.966 374.782 149.333 392.037C173.591 409.215 203.831 418.79 232.444 425.704C265.739 433.749 302.022 439.851 336.389 439.426C369.517 439.017 404.066 432.868 436.056 424.426C447.088 421.515 459.722 417.675 466.667 407.815C473.61 397.958 473.011 382.132 473.944 370.76C476.851 335.331 476.199 299.106 468.222 264.315C460.14 229.061 439.132 194.813 413.778 169.26C390.567 145.867 359.695 130.353 329.222 118.704C291.54 104.3 253.533 97.7501 213.5 94.7041C182.982 92.3821 152.118 96.3191 121.722 99.0375C98.9179 101.077 78.2172 104.221 58 115.593" filter="url(#a)" stroke="currentColor" stroke-width="9" stroke-linecap="round"/>
</svg>
