<svg width="534" height="534" viewBox="0 0 534 534" fill="none" xmlns="http://www.w3.org/2000/svg"><path d="M444.178 354.947c10.166-12.536 18.508-25.588 22.981-40.739a104.626 104.626 0 0 0 3.237-15.008c.798-5.672 1.037-11.425 1.428-17.15.269-3.927.516-7.82 1.07-11.748.71-5.035-.705-10.406-1.465-15.595-.556-3.798-1.889-7.501-2.255-11.305-1.217-12.631-3.877-24.917-8.864-36.576-4.544-10.623-9.475-21.088-14.494-31.498-1.655-3.435-3.852-6.698-6.265-9.664-5.298-6.514-10.542-13.136-16.467-19.058-5.432-5.429-11.204-10.894-17.778-14.712-7.939-4.611-16.845-7.591-25.405-11.1-3.892-1.595-7.997-2.664-11.938-4.15-9.462-3.57-19.259-5.606-29.275-6.819-11.721-1.42-23.286-3.722-35.162-4.437-6.628-.399-13.307-.522-19.943-1.032-3.242-.248-6.444-1.153-9.683-1.274-8.836-.331-17.581.466-26.2 2.612-1.715.427-3.627.075-5.448.059-6.813-.058-13.413 1.221-20.068 2.597-5.367 1.11-10.971 1.283-16.483 1.433-6.365.174-12.511 1.226-18.718 2.588-2.967.651-6.388-.752-9.599-1.252-.182-.028-.482-.42-.462-.447.221-.297.448-.703.761-.801 1.616-.508 3.235-1.195 4.894-1.342 6.404-.569 12.855-.694 19.228-1.477 7.72-.948 15.378-2.393 23.062-3.626 3.628-.583 7.236-1.351 10.884-1.721 5.943-.604 11.908-1.02 17.871-1.387 8.458-.52 16.975-1.722 25.373-1.181 10.779.693 21.657.345 32.362 2.448 4.726.928 9.622 1.006 14.444 1.44 8.192.736 16.213 2.597 24.298 3.807 9.621 1.439 18.777 3.973 27.855 7.121 12.193 4.228 24.345 8.751 34.805 16.443 8.858 6.515 17.674 12.927 24.182 22.458 4.356 6.38 10.068 12.046 14.092 18.816 2.248 3.781 3.886 7.925 5.778 11.916 2.612 5.509 5.401 10.945 7.76 16.561 4.118 9.804 7.823 19.64 8.829 30.497.906 9.784 4.146 19.356 5.013 29.14.534 6.022 1.319 12.285-.866 18.584-1.447 4.171-.906 9.125-1.306 13.694-.761 8.697-2.505 17.125-4.472 25.531-1.601 6.845-5.546 12.762-9.079 18.711-3.724 6.269-8.279 12.045-12.442 18.056-.722 1.043-1.142 2.324-1.969 3.261-4.127 4.683-8.034 9.622-12.604 13.839-6.301 5.814-13.002 11.218-19.751 16.521-14.468 11.369-31.334 18.665-47.451 27.193-4.785 2.533-10.181 4.074-15.452 5.5a1186.307 1186.307 0 0 1-37.7 9.533c-4.021.947-8.514.256-12.336 1.601-6.836 2.405-13.902.658-20.862 2.197-5.311 1.175-11.537 1.751-17.18-.831-1.13-.517-2.674-.167-4.027-.158-17.317.112-34.109-2.784-50.623-8.009-10.306-3.261-21.024-5.226-31.334-8.479-8.201-2.587-16.056-6.265-24.08-9.42-14.106-5.547-27.026-13.224-39.43-21.829-2.662-1.846-5.535-3.499-7.845-5.723-10.492-10.1-21.561-19.769-27.957-33.288-4.133-8.739-8.256-17.489-12.119-26.349-3.693-8.471-7.846-16.779-10.106-25.815-.31-1.239-.762-2.479-.831-3.736-.279-5.056-.266-10.059-1.115-15.159-.842-5.051-.68-11.088 1.41-15.599 2.675-5.774 1.07-12.495 5.1-17.689 1.15-1.484 1.836-3.321 2.772-4.976 8.945-15.809 21.22-28.933 34.722-40.748 7.007-6.132 14.432-12.109 23.433-15.749 5.843-2.363 10.93-6.535 16.695-9.15 10.717-4.863 21.567-9.489 32.577-13.644 11.822-4.46 23.807-8.537 35.876-12.284 14-4.346 28.034-8.535 42.514-11.3 4.569-.872 8.42-.471 12.578.372.424.086.979.896.967 1.357-.012.448-.624 1.186-1.061 1.258-1.108.181-2.281.178-3.402.042-7.599-.923-14.949 1.166-22.036 2.962-15.141 3.838-30.095 8.523-44.901 13.523-13.345 4.507-26.617 9.385-39.503 15.046-11.761 5.167-23.022 11.493-34.378 17.542-4.138 2.204-8.186 4.752-11.808 7.713-13.085 10.696-25.205 22.363-34.23 36.823-5.987 9.591-10.732 19.557-12.423 31.065-.818 5.565-1.45 11.088-.934 16.504 1.034 10.815 2.694 21.492 7.904 31.465 4.753 9.099 8.058 18.941 12.497 28.218 6.913 14.447 21.578 32.504 31.613 40.122 13.119 9.96 27.247 18.163 42.244 24.944 14.08 6.365 28.496 11.618 43.615 15.087 11.137 2.555 22.02 6.2 33.101 9.029 4.189 1.069 8.647 1.039 12.928 1.813 9.782 1.768 19.718.576 29.458 1.633 4.371.474 8.34-.79 12.573-.468 4.312.327 8.704-.278 13.122-.909 13.861-1.979 27.289-5.768 40.977-8.36 7.393-1.4 14.067-4.542 21.095-6.802 11.016-3.541 20.451-10.021 30.686-14.978 13.283-6.434 24.645-15.139 35.413-25.053 6.3-5.8 11.526-12.417 17.508-19.071Z" fill="#000"/></svg>