<svg width="534" height="534" viewBox="0 0 534 534" fill="none" xmlns="http://www.w3.org/2000/svg">
<defs><filter id="a" x="-20%" y="-20%" width="140%" height="140%"><feTurbulence baseFrequency="0.002 0.002" numOctaves="20" seed="3" stitchTiles="stitch" x="0%" y="0%" width="100%" height="100%" result="turbulence"/><feDisplacementMap in="SourceGraphic" in2="turbulence" scale="7" xChannelSelector="R" yChannelSelector="B" x="0%" y="0%" width="100%" height="100%" result="displacementMap"/><feGaussianBlur stdDeviation="3" x="0%" y="0%" width="100%" height="100%" in="displacementMap" result="blur"/><feColorMatrix values="1 0 0 0 0 0 1 0 0 0 0 0 1 0 0 0 0 0 7 -4" x="0%" y="0%" width="100%" height="100%" in="blur" result="colormatrix"/></filter></defs>
<path d="M245.031 201.641C243.02 177.514 221.431 152.541 201.031 140.863C183.823 131.012 167.043 126.304 147.142 124.419C126.937 122.505 105.341 127.232 87.142 136.086C75.9911 141.51 64.4088 145.57 57.8087 156.641C52.881 164.907 51.7455 174.582 51.2531 184.086C50.1632 205.122 52.1517 229.455 66.0309 246.419C73.665 255.75 84.3856 261.379 95.5864 265.419C105.488 268.99 116.927 273.388 127.586 270.863C128.577 270.629 132.172 270.147 132.809 269.419C133.33 268.823 125.555 267.722 124.586 267.863C116.098 269.098 112.233 272.499 105.586 276.863C93.9788 284.486 85.0739 291.165 80.2531 304.641C62.0613 355.496 83.4499 414.378 118.809 452.197C136.561 471.184 162.592 474.55 187.364 475.419C199.475 475.844 213.127 477.737 224.031 471.419C231.635 467.013 238.227 461.546 244.364 455.308C249.725 449.86 250.031 444.945 250.031 437.641C250.031 434.651 249.176 437.707 248.475 439.197C247.457 441.361 247.707 445.507 248.642 447.586C253.386 458.127 269.506 464.572 279.364 468.197C302.193 476.589 330.901 479.249 354.92 475.03C366.855 472.933 378.084 467.269 389.142 462.53C403.311 456.458 418.124 447.451 428.92 436.363C441.569 423.372 446.277 407.953 453.142 391.752C459.118 377.649 466.763 364.554 468.253 348.974C470.548 324.981 462.124 298.253 446.753 279.808C446.601 279.625 449.541 279.596 449.698 279.586C452.393 279.4 455.133 278.894 457.475 277.474C463.687 273.71 467.417 266.685 470.642 260.474C482.638 237.37 483.947 212.663 482.92 186.974C481.558 152.925 471.665 124.656 448.309 99.53C436.446 86.7691 416.329 76.6411 398.586 76.6411C397.556 76.6411 395.741 76.2528 395.031 77.1411C394.738 77.5066 390.563 69.7409 389.475 68.6967C381.753 61.2834 369.368 60.4924 359.309 59.1411C348.156 57.643 337.123 57.925 325.92 57.5856C313.797 57.2182 301.937 56.42 289.809 57.6967C267.527 60.0421 247.153 73.6303 231.698 89.0856C222.595 98.1885 220.078 110.574 219.086 122.974C218.327 132.463 220.031 142.093 220.031 151.641" filter="url(#a)" stroke="currentColor" stroke-width="7" stroke-linecap="round"/>
</svg>
