<svg width="534" height="534" viewBox="0 0 534 534" fill="none" xmlns="http://www.w3.org/2000/svg">
<defs><filter id="a" x="-20%" y="-20%" width="140%" height="140%"><feTurbulence baseFrequency="0.002 0.002" numOctaves="20" seed="3" stitchTiles="stitch" x="0%" y="0%" width="100%" height="100%" result="turbulence"/><feDisplacementMap in="SourceGraphic" in2="turbulence" scale="27" xChannelSelector="R" yChannelSelector="B" x="0%" y="0%" width="100%" height="100%" result="displacementMap"/><feGaussianBlur stdDeviation="3" x="0%" y="0%" width="100%" height="100%" in="displacementMap" result="blur"/><feColorMatrix values="1 0 0 0 0 0 1 0 0 0 0 0 1 0 0 0 0 0 7 -4" x="0%" y="0%" width="100%" height="100%" in="blur" result="colormatrix"/></filter></defs>
<path d="M315.823 83.1662C294.541 78.7808 274.494 76.4401 252.823 75.6662C234.236 75.0024 215.34 74.3345 197.101 78.6662C168.701 85.4111 139.701 89.7429 111.268 96.5551C100.592 99.1128 86.0985 99.5606 76.5454 105.222C69.6817 109.289 69.06 123.909 68.4343 130.444C66.1166 154.651 77.7829 176.535 99.6009 187.444C100.269 187.778 111.379 191.969 111.379 192.166C111.379 192.855 96.7414 199.529 96.1009 199.888C76.6885 210.796 56.394 225.843 60.5454 251.166C63.1185 266.862 75.3604 281.602 85.0454 293.5C94.6372 305.283 104.944 316.326 113.323 329.055C120.132 339.399 116.69 346.37 110.712 356.333C102.653 369.765 99.3301 378.68 108.268 392.888C111.874 398.621 127.398 407.684 123.712 415.055C120.517 421.446 98.0307 427.894 104.212 437.166C108.485 443.576 119.817 445.886 126.601 447.722C145.544 452.849 165.43 454.596 184.879 456.611C204.181 458.61 223.549 460.13 242.823 462.388C248.408 463.043 257.01 462.788 260.712 467.944C266.743 476.344 260.849 484.182 274.712 482.5C305.13 478.808 337.539 473.125 366.379 462.611C368.699 461.765 376.52 459.984 373.656 456.166C372.579 454.729 369.959 453.405 371.712 451.5C378.183 444.466 387.857 439.944 395.101 433.666C410.604 420.23 425.083 405.223 437.712 389.055C446.545 377.747 458.738 362.693 455.101 347.166C452.458 335.885 440.901 330.263 433.379 322.611C423.909 312.977 426.477 304.782 433.268 294.111C441.601 281.015 452.984 270.186 461.268 257.055C468.195 246.074 470.116 236.364 464.212 224.555C460.074 216.278 455.308 210.363 456.156 200.5C457.481 185.105 465.316 170.377 470.379 156C473.792 146.304 476.045 137.274 470.823 127.722C460.199 108.29 435.462 96.989 429.49 74.8328C429.215 73.8143 429.449 68.6363 428.156 68.1662C423.088 66.3231 418.052 64.4172 413.045 62.3884C407.2 60.0196 402.376 57.8304 397.934 53.3884C395.097 50.5516 387.043 52.8961 383.712 53.1662C377.307 53.6855 371.04 54.0639 364.712 52.7217C362.635 52.2812 361.834 51.914 360.601 53.8328C358.457 57.1684 353.79 66.2846 349.823 67.1662C348.232 67.5197 347.406 70.1803 346.601 71.3884C343.159 76.5506 339.098 81.4471 334.712 85.8328C329.034 91.5104 326.056 90.2437 319.823 88.1662" stroke="currentColor" stroke-width="11" stroke-linecap="round" filter="url(#a)"/>
</svg>
