<svg width="534" height="534" viewBox="0 0 534 534" fill="none" xmlns="http://www.w3.org/2000/svg">
<defs><filter id="a" x="-20%" y="-20%" width="140%" height="140%"><feTurbulence baseFrequency="0.002 0.002" numOctaves="20" seed="3" stitchTiles="stitch" x="0%" y="0%" width="100%" height="100%" result="turbulence"/><feDisplacementMap in="SourceGraphic" in2="turbulence" scale="27" xChannelSelector="R" yChannelSelector="B" x="0%" y="0%" width="100%" height="100%" result="displacementMap"/><feGaussianBlur stdDeviation="3" x="0%" y="0%" width="100%" height="100%" in="displacementMap" result="blur"/><feColorMatrix values="1 0 0 0 0 0 1 0 0 0 0 0 1 0 0 0 0 0 7 -4" x="0%" y="0%" width="100%" height="100%" in="blur" result="colormatrix"/></filter></defs>
<path d="M404 96.2835C385.218 93.7285 366.057 92.7429 347.12 92.3434C329.801 91.978 311.397 91.052 294.46 95.3401C283.21 98.1883 271.568 99.31 260.376 102.332C248.557 105.524 237.602 109.87 226.128 114.208C213.459 118.998 199.631 122.74 187.77 129.414C178.809 134.455 167.996 138.28 160.81 145.951C142.113 165.909 136.891 193.729 133.356 219.981C129.628 247.668 128.457 275.628 132.699 303.278C135.446 321.187 140.22 338.834 147.22 355.554C153.487 370.522 161.221 387.586 172.975 399.117C186.656 412.539 203.99 421.701 221.799 427.974C232.831 431.86 244.979 433.816 256.595 434.911C269.182 436.097 281.45 439.183 294.131 439.794C329.311 441.491 364.256 442.465 398.849 435.133C404.877 433.855 402.027 403.938 402.027 396.398C402.027 381.784 402.027 367.171 402.027 352.557C402.027 266.467 402.027 180.376 402.027 94.2857" stroke="currentColor" stroke-width="7" stroke-linecap="round" filter="url(#a)"/>
</svg>
