<svg width="534" height="534" viewBox="0 0 534 534" fill="none" xmlns="http://www.w3.org/2000/svg">
<path d="M189.912 192.156C176.964 175.371 152.965 154.58 132.134 172.156C125.523 177.734 122.614 184.44 124.69 192.933C125.028 194.315 125.717 195.752 126.66 197.158M126.66 197.158C130.149 202.366 137.1 207.156 142.468 207.156C145.352 207.156 142.489 202.513 141.69 201.156C139.28 197.058 131.154 197.153 126.66 197.158ZM126.66 197.158C126.313 197.159 125.989 197.158 125.69 197.156C116.528 197.074 100.387 194.513 92.3566 199.933C81.4568 207.291 78.9121 218.708 78.9121 231.045C78.9121 238.607 79.5543 247.456 83.1275 254.57M83.1275 254.57C84.4494 257.202 86.1723 259.596 88.4121 261.6C94.1781 266.759 108.588 265.156 115.69 265.156C119.445 265.156 123.895 263.329 122.857 258.656C122.291 256.111 118.425 255.534 116.468 254.933C109.006 252.644 101.565 250.279 93.6899 250.156C89.0617 250.083 86.1926 251.967 83.1275 254.57ZM83.1275 254.57C82.1021 255.441 81.0547 256.392 79.9121 257.378C68.9898 266.801 65.9839 284.365 64.6899 297.822C63.3986 311.252 59.8826 339.038 74.6986 346.895M74.6986 346.895C76.2324 347.708 77.9626 348.308 79.9121 348.656C80.9839 348.847 87.3063 347.915 84.801 347.378C81.6565 346.704 78.155 346.746 74.6986 346.895ZM74.6986 346.895C72.2755 346.999 69.8746 347.156 67.6344 347.156C64.1883 347.156 57.9285 345.913 55.8566 349.711C49.7218 360.958 54.6697 373.46 59.4677 384.545C65.5425 398.58 74.9034 409.515 86.7455 418.989C95.5506 426.033 113.573 424.135 123.745 422.1C130.048 420.84 138.801 417.802 142.785 412.013M142.785 412.013C144.114 410.083 144.912 407.846 144.912 405.267C144.912 402.501 137.656 399.302 136.968 401.711C135.781 405.866 139.332 409.496 142.785 412.013ZM142.785 412.013C143.803 412.755 144.813 413.4 145.69 413.933C159.797 422.508 177.635 428.682 193.912 431.378C215.478 434.949 243.206 438.007 263.468 427.378C269.649 424.135 284.403 413.454 286.276 403.587M286.276 403.587C286.838 400.629 286.242 397.745 283.912 395.156C281.865 392.882 273.825 391.797 272.968 395.656C272.164 399.273 280.487 402.086 286.276 403.587ZM286.276 403.587C288.523 404.169 290.389 404.554 291.19 404.711C309.04 408.217 326.173 411.338 344.357 412.656C363.249 414.025 388.419 406.619 401.023 391.822C409.419 381.966 407.807 369.121 401.143 359.431M401.143 359.431C399.81 357.493 398.276 355.681 396.579 354.045C394.92 352.445 378.415 340.209 378.912 349.156C379.28 355.78 395.779 358.137 401.143 359.431ZM401.143 359.431C401.386 359.489 401.606 359.546 401.801 359.6C412.353 362.555 427.663 365.941 437.468 358.378C440.138 356.318 442.06 351.251 443.523 348.378L443.795 347.845C448.372 338.865 452.524 330.719 451.245 320.267C450.454 313.795 448.443 307.692 445.992 301.737M445.992 301.737C444.176 297.325 442.118 292.994 440.134 288.656C438.18 284.382 436.237 278.43 432.134 275.6C428.523 273.11 421.185 278.433 420.134 281.933C417.719 289.984 426.79 296.368 432.912 298.933C437.664 300.925 441.945 301.844 445.992 301.737ZM445.992 301.737C452.314 301.569 458.063 298.893 464.134 293.878C470.379 288.719 477.041 281.409 479.245 273.378C481.906 263.687 479.403 250.879 477.801 241.267C475.443 227.118 469.576 214.776 460.632 204.794M460.632 204.794C454.497 197.948 446.915 192.213 438.023 187.767C418.823 178.167 411.425 209.351 430.912 214.156C440.058 216.411 456.079 214.69 460.632 204.794ZM460.632 204.794C460.981 204.037 461.262 203.232 461.468 202.378C463.458 194.118 462.339 182.811 460.69 174.656C457.892 160.822 449.958 151.041 440.134 141.267C424.14 125.353 407.466 112.896 384.023 115.378C382.79 115.509 381.554 115.708 380.332 115.976M380.332 115.976C371.828 117.838 363.962 123.012 361.857 131.433C360.028 138.747 358.916 147.014 361.134 154.378C361.533 155.701 363.528 163.105 365.69 162.878C371.703 162.245 381.358 157.599 386.357 154.267C392.145 150.408 397.46 144.722 394.69 137.489C391.691 129.658 386.645 122.189 380.332 115.976ZM380.332 115.976C371.723 107.502 360.757 101.363 349.412 99.8224C333.235 97.6255 312.598 99.6844 298.19 107.767C292.174 111.141 287.279 115.239 283.83 120.261M283.83 120.261C280.164 125.6 278.134 131.985 278.134 139.656C278.134 143.392 280.499 163.156 286.412 163.156C294.946 163.156 295.779 143.266 294.801 138.378C293.311 130.926 289.255 124.887 283.83 120.261ZM283.83 120.261C277.611 114.958 269.593 111.514 261.579 109.933L261.077 109.834C246.249 106.907 225.297 102.771 213.357 114.711C200.343 127.725 197.772 143.057 197.912 160.6C197.956 166.02 197.668 170.849 199.423 173.614M199.423 173.614C200.748 175.702 203.237 176.613 207.912 175.711C213.102 174.711 217.912 173.058 217.912 167.156C217.912 161.595 215.256 163.016 210.412 164.156C205.89 165.22 204.88 166.758 201.968 170.156C201.109 171.157 200.244 172.335 199.423 173.614ZM199.423 173.614C197.417 176.737 195.679 180.457 194.968 183.656C194.345 186.458 191.858 188.317 190.912 191.156M199.912 192.156C186.964 175.371 162.965 154.58 142.134 172.156C135.523 177.734 132.614 184.44 134.69 192.933C135.028 194.315 135.717 195.752 136.66 197.158M136.66 197.158C140.149 202.366 147.101 207.156 152.468 207.156C155.352 207.156 152.489 202.513 151.69 201.156C149.28 197.058 141.154 197.153 136.66 197.158ZM136.66 197.158C136.313 197.159 135.989 197.158 135.69 197.156C126.528 197.074 110.387 194.513 102.357 199.933C91.4568 207.291 88.9122 218.708 88.9122 231.045C88.9122 238.607 89.5544 247.456 93.1276 254.57M93.1276 254.57C94.4494 257.202 96.1723 259.596 98.4122 261.6C104.178 266.759 118.588 265.156 125.69 265.156C129.445 265.156 133.895 263.329 132.857 258.656C132.291 256.111 128.425 255.534 126.468 254.933C119.006 252.644 111.565 250.279 103.69 250.156C99.0617 250.083 96.1926 251.967 93.1276 254.57ZM93.1276 254.57C92.1021 255.441 91.0547 256.392 89.9122 257.378C78.9898 266.801 75.9839 284.365 74.6899 297.822C73.3986 311.252 69.8826 339.038 84.6986 346.895M84.6986 346.895C86.2324 347.708 87.9626 348.308 89.9122 348.656C90.984 348.847 97.3063 347.915 94.8011 347.378C91.6566 346.704 88.155 346.746 84.6986 346.895ZM84.6986 346.895C82.2755 346.999 79.8746 347.156 77.6344 347.156C74.1883 347.156 67.9285 345.913 65.8566 349.711C59.7218 360.958 64.6697 373.46 69.4677 384.545C75.5425 398.58 84.9034 409.515 96.7455 418.989C105.551 426.033 123.573 424.135 133.745 422.1C140.048 420.84 148.801 417.802 152.785 412.013M152.785 412.013C154.114 410.083 154.912 407.846 154.912 405.267C154.912 402.501 147.656 399.302 146.968 401.711C145.781 405.866 149.332 409.496 152.785 412.013ZM152.785 412.013C153.803 412.755 154.813 413.4 155.69 413.933C169.797 422.508 187.635 428.682 203.912 431.378C225.478 434.949 253.206 438.007 273.468 427.378C279.649 424.135 294.403 413.454 296.276 403.587M296.276 403.587C296.838 400.629 296.242 397.745 293.912 395.156C291.865 392.882 283.825 391.797 282.968 395.656C282.164 399.273 290.487 402.086 296.276 403.587ZM296.276 403.587C298.523 404.169 300.389 404.554 301.19 404.711C319.04 408.217 336.173 411.338 354.357 412.656C373.249 414.025 398.419 406.619 411.023 391.822C419.419 381.966 417.807 369.121 411.143 359.431M411.143 359.431C409.81 357.493 408.276 355.681 406.579 354.045C404.92 352.445 388.415 340.209 388.912 349.156C389.28 355.78 405.779 358.137 411.143 359.431ZM411.143 359.431C411.386 359.489 411.606 359.546 411.801 359.6C422.353 362.555 437.663 365.941 447.468 358.378C450.138 356.318 452.06 351.251 453.523 348.378L453.795 347.845C458.372 338.865 462.524 330.719 461.246 320.267C460.454 313.795 458.443 307.692 455.992 301.737M455.992 301.737C454.176 297.325 452.118 292.994 450.134 288.656C448.18 284.382 446.237 278.43 442.134 275.6C438.523 273.11 431.185 278.433 430.134 281.933C427.719 289.984 436.79 296.368 442.912 298.933C447.664 300.925 451.945 301.844 455.992 301.737ZM455.992 301.737C462.314 301.569 468.063 298.893 474.134 293.878C480.379 288.719 487.041 281.409 489.246 273.378C491.906 263.687 489.403 250.879 487.801 241.267C485.443 227.118 479.576 214.776 470.632 204.794M470.632 204.794C464.497 197.948 456.915 192.213 448.023 187.767C428.823 178.167 421.425 209.351 440.912 214.156C450.058 216.411 466.079 214.69 470.632 204.794ZM470.632 204.794C470.981 204.037 471.262 203.232 471.468 202.378C473.458 194.118 472.339 182.811 470.69 174.656C467.892 160.822 459.958 151.041 450.134 141.267C434.14 125.353 417.466 112.896 394.023 115.378C392.79 115.509 391.554 115.708 390.332 115.976M390.332 115.976C381.828 117.838 373.962 123.012 371.857 131.433C370.028 138.747 368.916 147.014 371.134 154.378C371.533 155.701 373.528 163.105 375.69 162.878C381.703 162.245 391.358 157.599 396.357 154.267C402.145 150.408 407.46 144.722 404.69 137.489C401.691 129.658 396.645 122.189 390.332 115.976ZM390.332 115.976C381.723 107.502 370.757 101.363 359.412 99.8224C343.235 97.6255 322.598 99.6844 308.19 107.767C302.174 111.141 297.279 115.239 293.83 120.261M293.83 120.261C290.164 125.6 288.134 131.985 288.134 139.656C288.134 143.392 290.499 163.156 296.412 163.156C304.946 163.156 305.779 143.266 304.801 138.378C303.311 130.926 299.255 124.887 293.83 120.261ZM293.83 120.261C287.611 114.958 279.593 111.514 271.579 109.933L271.077 109.834C256.249 106.907 235.297 102.771 223.357 114.711C210.343 127.725 207.772 143.057 207.912 160.6C207.956 166.02 207.669 170.849 209.423 173.614M209.423 173.614C210.748 175.702 213.237 176.613 217.912 175.711C223.102 174.711 227.912 173.058 227.912 167.156C227.912 161.595 225.256 163.016 220.412 164.156C215.89 165.22 214.88 166.758 211.968 170.156C211.109 171.157 210.244 172.335 209.423 173.614ZM209.423 173.614C207.417 176.737 205.679 180.457 204.968 183.656C204.345 186.458 201.858 188.317 200.912 191.156" stroke="currentColor" stroke-width="7" stroke-linecap="round"/>
</svg>
