<svg width="534" height="534" viewBox="0 0 534 534" fill="none" xmlns="http://www.w3.org/2000/svg"><path d="M81.012 319.897c4.298-6.889 7.92-13.699 12.314-19.97 10.859-15.5 24.919-28.156 38.618-40.955 10.295-9.619 20.997-18.992 32.894-26.786 7.595-4.975 15.705-8.976 23.736-13.143.711-.369 1.167-1.23 1.741-1.863-.796.2-1.591.405-2.389.601-5.299 1.298-10.584 2.656-15.912 3.817-.707.154-1.632-.693-2.456-1.076.726-.481 1.389-1.181 2.187-1.41 7.734-2.217 15.571-4.112 23.215-6.601 5.298-1.725 10.316-4.299 15.504-6.383 5.559-2.234 11.421-3.863 16.696-6.624 6.264-3.278 12.122-7.364 18.016-11.31a3150.3 3150.3 0 0 0 36.428-24.753c3.91-2.697 7.489-5.87 11.344-8.653 6.934-5.006 12.248-11.865 19.799-16.288 4.832-2.829 8.882-7.18 12.833-11.281 8.282-8.596 18.563-14.402 28.331-20.923 6.232-4.16 13.006-7.577 18.923-12.125 8.84-6.795 18.992-10.371 29.307-13.875 11.742-3.989 23.75-5.956 36.118-5.097 6.743.468 13.615 2.148 18.54 6.642 6.271 5.723 13.453 10.924 16.465 19.656 1.14 3.306 2.445 6.381 2.545 9.984.147 5.23 1.056 10.44 1.169 15.669.235 10.857-1.456 21.443-3.522 32.151-2.161 11.195-5.675 21.886-9.017 32.646-3.551 11.432-8.188 22.517-13.598 33.246-2.429 4.816-4.244 9.972-6.974 14.598-5.936 10.056-11.259 20.459-17.056 30.589-7.049 12.318-15.024 23.997-22.605 35.927-4.993 7.858-11.418 14.868-17.629 21.879-9.726 10.979-19.455 21.999-29.854 32.326-9.739 9.673-20.361 18.382-31.95 25.96-10.312 6.742-19.831 14.681-29.94 21.749-8.419 5.887-17.056 11.387-26.717 15.297-9.806 3.968-19.172 9.012-28.824 13.377-12.212 5.522-24.611 10.6-37.527 14.281-8.644 2.463-17.537 3.742-26.316 5.51-11.796 2.375-23.522 2.553-35.297 2.14-9.834-.345-19.77-.935-29.184-4.555-3.734-1.436-7.73-2.217-11.412-3.759-6.097-2.554-11.835-5.676-16.291-10.876-2.146-2.504-5.047-4.37-7.649-6.472-4.47-3.614-5.933-9.547-9.942-13.327-5.98-5.639-6.659-13.115-7.456-20.237-.692-6.176.42-12.602 1.14-18.871.46-4.01 2.435-7.953 2.343-11.894-.155-6.63 2.627-12.459 4.582-18.293 3.284-9.796 8.266-19.026 12.6-28.463.339-.74 1.191-1.244 2.13-2.182Zm231.256 72.291c3.618-2.752 7.007-5.894 10.896-8.185 13.484-7.945 24.407-18.995 35.652-29.537 8.467-7.937 15.858-17.048 23.471-25.858 6.264-7.249 12.992-14.302 18.004-22.378 7.457-12.015 16.095-23.276 22.494-35.999 5.236-10.411 11.719-20.189 17.224-30.475 3.765-7.033 6.939-14.396 10.122-21.722 3.499-8.053 7.153-16.084 9.912-24.399 2.849-8.583 5.021-17.406 7.266-26.194 2.356-9.224 4.185-18.43 4.488-27.904.235-7.337.063-14.687.033-22.031-.006-1.471-.009-2.98-.318-4.405-1.881-8.683-5.897-15.947-12.704-22.023-7.576-6.763-15.951-10.42-26.071-10.811-9.899-.383-19.485 1.52-28.813 4.136-8.222 2.305-16.477 5.337-23.875 9.533-10.769 6.108-20.588 13.866-31.175 20.327-9.602 5.859-17.966 13.215-26.566 20.295-9.241 7.607-18.225 15.527-27.302 23.332-3.516 3.023-6.724 6.48-10.524 9.082-8.027 5.496-16.341 10.574-24.557 15.792-4.785 3.04-9.931 5.611-14.345 9.111-8.981 7.12-18.731 12.464-29.891 15.577-1.524.426-2.88 1.454-4.314 2.202 1.502.548 3.001 1.104 4.509 1.635.192.068.584-.061.621.02.383.845.987 1.733.934 2.571-.025.39-1.558 1.179-2.056.966-3.459-1.474-6.536-.872-10.16.11-8.476 2.297-15.878 6.742-23.435 10.75-8.388 4.449-16.563 9.511-24.137 15.225a302.876 302.876 0 0 0-26.373 22.406c-14.711 14.005-29.279 28.195-40.451 45.408-9 13.866-16.782 28.31-21.938 44.06-1.251 3.822-2.122 7.77-3.114 11.674-1.583 6.237-3.15 12.477-2.639 19.016.041.525-.66 1.093-.657 1.64.026 6.507-.28 13.051.311 19.512.57 6.239 4.179 11.15 7.918 16.197 3.336 4.503 6.303 8.915 11.074 12.153 4.623 3.138 7.226 8.795 13.178 10.534 2.444.714 4.492 2.678 6.872 3.731 8.022 3.55 16.188 6.082 25.155 6.796 6.529.519 13.101 1.959 19.698 2.234 9.225.384 18.325-1.239 27.466-2.391 8.541-1.076 16.821-2.878 25.088-5.232 21.081-6.003 40.762-15.279 60.52-24.538 10.947-5.13 21.934-10.025 31.834-17.034 6.688-4.736 13.352-9.506 20.675-14.909Z" fill="#000"/></svg>