<svg width="534" height="534" viewBox="0 0 534 534" fill="none" xmlns="http://www.w3.org/2000/svg"><path d="M79.15 234.449c1.701-7.87 4.279-14.801 8.068-21.311 3.211-5.518 5.814-11.403 9.204-16.8 3.655-5.819 7.504-11.615 12.003-16.782 7.052-8.099 14.932-15.475 22.046-23.524 4.023-4.551 9.14-7.705 13.48-11.847 4.075-3.891 9.566-6.269 14.313-9.492 12.297-8.349 26.162-13.356 39.902-18.526 5.995-2.256 12.21-3.943 18.803-4.59 7.708-.756 15.415-1.574 23.115-2.37 4.643-.48 9.268-.883 13.883-.783 6.955.151 13.981.312 20.824 1.416 6.829 1.102 13.48 3.333 20.192 5.136 6.355 1.707 12.841 3.085 18.987 5.367 7.104 2.638 13.866 6.181 20.843 9.175 2.755 1.183 5.689 1.946 8.541 2.902 1.175.394 2.429.639 3.507 1.214 7.047 3.758 14.396 7.085 20.983 11.534 7.035 4.751 13.523 10.299 16.57 18.917 1.109 3.138 3.121 5.975 3.538 9.425.059.493.607.918.699 1.417.33 1.783-.613 3.153-2.219 3.193-.759.018-2.25-1.645-2.226-2.514.121-4.379-1.623-8.322-3.772-11.639-4.955-7.652-11.708-13.653-19.946-17.778-6.642-3.326-13.245-6.754-20.034-9.754-9.039-3.994-18.134-7.912-27.406-11.316-8.806-3.232-17.784-6.09-26.854-8.474-5.603-1.473-11.562-1.533-17.287-2.62-7.842-1.49-15.756-1.451-23.602-.977-9.5.575-18.967 1.422-28.445 2.975-9.326 1.528-18.147 4.161-26.865 7.321-8.646 3.134-16.896 7.189-24.943 11.785-7.192 4.107-13.995 8.713-20.812 13.348-.608.413-1.177.893-1.714 1.396-6.334 5.937-12.708 11.833-18.951 17.863-1.703 1.644-2.918 3.78-4.506 5.558-8.87 9.926-16.638 20.584-23.208 32.218-3.95 6.993-7.165 14.218-10.008 21.666-2.11 5.529-3.346 11.285-4.421 17.086-1.05 5.668-2.326 11.298-3.237 16.987-.668 4.178-.963 8.42-1.323 12.642-.394 4.617.604 9.276-1.011 13.906-.563 1.614.842 3.823.945 5.781.181 3.429.02 6.875.056 10.314.114 10.815 1.564 21.367 5.187 31.659 1.083 3.074 1.875 6.044 3.874 8.755 1.302 1.765 1.34 4.408 2.397 6.419 2.4 4.565 4.9 9.099 7.689 13.434 4.578 7.118 8.953 14.442 14.244 21.01 9.929 12.323 20.887 23.727 34.932 31.52 12.085 6.705 24.466 12.742 37.926 16.386 7.788 2.109 15.567 4.058 23.499 5.613 6.026 1.181 11.947.576 17.902.973 2.731.183 5.52-.603 8.183 1.041.968.597 2.745.458 3.931.034 5.885-2.102 11.933-.944 17.89-1.014 8.866-.105 17.437-1.867 26.136-3.185 6.699-1.015 12.821-3.953 19.289-4.623 6.134-.636 11.272-3.491 16.978-4.907 5.52-1.371 11.136-2.598 16.41-4.656 7.064-2.755 13.8-6.341 20.75-9.403 9.302-4.097 18.048-9.204 26.604-14.62 4.895-3.099 9.538-6.619 14.139-10.153 6.815-5.234 13.176-10.976 19.427-16.899 8.533-8.085 15.171-17.594 21.229-27.409 6.022-9.755 11.673-19.967 14.241-31.306 2.056-9.072 5.702-17.668 6.868-27.06.675-5.442 1.191-10.866.715-16.168-.885-9.86-2.213-19.684-5.489-29.194-3.809-11.058-6.665-22.446-10.495-33.496-3.279-9.46-8.44-18.035-14.311-26.168-12.885-17.849-29.183-32.53-44.682-47.926-5.321-5.285-11.663-9.543-17.536-14.274-7.88-6.348-15.738-12.724-23.645-19.037-3.138-2.505-6.399-4.855-9.561-7.33-.488-.381-.745-1.058-1.108-1.599.899-.07 2.033-.524 2.657-.143 2.617 1.597 5.118 3.396 7.595 5.212 4.551 3.34 9.095 6.693 13.57 10.134 6.967 5.359 13.814 10.876 20.819 16.184 14.538 11.013 26.855 24.393 39.471 37.399 9.524 9.819 17.815 20.67 24.69 32.682 5.295 9.252 8.012 19.276 11.246 29.18 3.029 9.278 5.651 18.691 8.3 28.088.924 3.279 1.494 6.671 2.042 10.041.395 2.425.707 4.903.67 7.351-.085 5.515-.071 11.066-.725 16.527-.772 6.448-1.753 12.94-3.452 19.193-2.876 10.579-6.295 21.043-11.415 30.79-4.051 7.712-8.332 15.329-12.973 22.696-2.258 3.584-5.545 6.528-8.419 9.715-4.001 4.437-7.933 8.947-12.123 13.202-2.87 2.913-5.937 5.708-9.249 8.095-8.644 6.231-17.56 12.088-26.195 18.331-5.981 4.324-12.907 6.701-19.347 10.068-9.874 5.162-20.039 9.623-30.508 13.532-10.152 3.791-20.672 6.285-30.893 9.795-3.394 1.166-7.313.708-10.94 1.308-6.98 1.155-14.163.999-20.971 3.307-1.028.348-2.266.04-3.404.101-7.483.397-14.948.108-22.481.846-8.89.871-18.096.227-26.984-1.036-10.227-1.453-20.25-4.232-30.259-7.03-12.415-3.471-23.869-8.991-35.084-14.939-7.139-3.786-13.621-8.971-19.962-14.07-15.485-12.451-25.633-29.376-36.21-45.678-6.383-9.837-11.394-20.852-14.117-32.478-1.412-6.028-1.21-12.425-2.509-18.49-1.89-8.824-.698-17.665-.999-26.488-.264-7.781.96-15.458 2.21-23.129 1.318-8.095 2.315-16.242 3.518-24.357.067-.454.723-.82 1.106-1.801Z" fill="#000"/></svg>