<svg width="534" height="534" viewBox="0 0 534 534" fill="none" xmlns="http://www.w3.org/2000/svg"><path d="M369.232 162.061c5.632 3.537 11.332 6.122 15.993 9.966 5.993 4.943 11.151 10.898 16.671 16.415 5.405 5.402 6.8 12.189 6.101 19.395-.333 3.426 1.182 4.738 3.754 6.257 13.105 7.745 24.511 17.192 31.447 31.262 3.324 6.746 4.739 13.958 5.549 21.195.519 4.638-.607 9.531-1.455 14.227-.645 3.563-2.349 6.942-2.918 10.509-.275 1.729.469 4.122 1.613 5.495 8.657 10.382 13.28 22.689 17 35.367 1.592 5.424 3.919 11.489 2.883 16.656-2.391 11.929-1.174 24.307-8.278 35.834-6.987 11.337-14.1 21.36-26.027 27.619-3.914 2.054-6.354 5.032-6.417 10.344-.078 6.57-3.015 12.347-8.905 16.353-4.528 3.08-9.191 6.304-12.706 10.398-2.024 2.357-6.532.314-6.783 4.708-.04.698-1.382 1.321-2.122 1.979.113-1.078.234-2.156.336-3.236.035-.367.022-.739.031-1.109-.709.022-1.738-.252-2.076.113-3.697 3.996-8.63 6.946-11.295 11.678-.996 1.77-1.858 2.62-3.119 2.005-3.578-1.744-5.835.041-8.001 2.373-3.886 4.185-7.832 8.141-14.322 7.209-.557-.08-1.203.799-1.869 1.091-6.408 2.812-16.397 1.135-20.72-4.48-2.639-3.427-6.607-6.115-7.283-11.088-.341-2.51-2.761-1.532-3.217-.167-2.326 6.963-9.697 7.091-14.314 10.894-.818.674-2.436.334-3.666.558-2.668.487-5.308 1.164-7.992 1.515-1.8.235-3.744.403-5.473-.017-8.062-1.956-16.536-3.111-23.97-6.507-7.447-3.401-14.933-7.007-21.897-11.715-10.562-7.141-15.573-17.632-19.751-28.71-3.165-8.392-5.329-17.174-7.686-25.851-.593-2.184.086-4.694-.385-6.936-.386-1.838-1.46-3.596-2.503-5.214-1.309-2.029-2.974-.19-4.291-.267-5.858-.344-11.685-1.578-17.467-2.765-3.808-.781-7.493-2.761-11.283-2.909-6.549-.255-12.533-2.679-16.811-6.676-9.788-9.145-20.507-17.549-26.354-30.417-3.563-7.842-6.156-15.586-6.025-24.204.079-5.232-.044-10.467.037-15.698.048-3.097-1.033-4.944-4.412-4.844-6.001.176-10.244-2.871-14.467-6.884-7.566-7.189-15.776-13.694-23.53-20.691-2.2-1.985-3.683-4.747-5.616-7.051-8.811-10.498-15.075-22.439-17.725-35.782-1.346-6.777.082-13.775 2.66-20.719 4.053-10.919 6.51-22.429 9.684-33.677.392-1.391.764-2.91 1.6-4.029 2.943-3.934 2.391-7.281.144-11.66-3.801-7.407-5.61-15.516-6.778-23.944-.984-7.098-.17-13.903.48-20.702 1.107-11.554 3.626-22.887 11.907-31.902.53-.578 1.122-1.099 1.66-1.67 2.331-2.481 4.316-6.505 7.057-7.11 4.497-.992 9.629-1.272 14.198 1.203 2.124 1.15 4.315 2.227 6.579 3.055 2.047.749 4.234 1.113 6.359 1.647.251-1.99.575-3.972.74-5.969.436-5.283 3.592-9.208 8.443-9.662 12.636-1.18 25.297-2.095 37.94-3.201 8.404-.736 14.976 3.002 20.846 8.394 1.749 1.606 3.375 3.55 5.912 2.413 2.071-.928 2.203-3.028 2.357-5.273.568-8.272 7.145-12.318 15.414-9.622 13.714 4.47 25.726 11.652 36.955 20.875 11.894 9.77 21.406 21.116 29.292 34.154 2.545 4.209 6.865 6.758 11.84 7.108 6.546.46 12.125 3.514 18.109 5.594 7.973 2.771 14.845 7.32 21.789 11.816 2.296 1.486 4.481 3.355 6.208 5.466 3.802 4.645 9.133 6.735 14.174 9.443 5.38 2.889 10.514 6.236 16.147 9.775ZM75.13 238.63c.003 1.05-.33 2.25.06 3.128 7.162 16.141 19.354 28.277 32.085 39.956 1.44 1.322 3.639 1.938 4.801 3.419 3.526 4.491 8.06 7.385 13.067 9.935 3.383 1.723 4.721.507 6.689-2.119 1.187-1.584.077-5.671 3.484-4.592 1.34.424 2.014 3.612 2.563 5.656.394 1.465.077 3.121.077 4.691 0 6.806.037 13.611-.01 20.417-.062 9.079 2.48 17.646 5.945 25.81 4.857 11.445 13.999 19.377 23.926 26.38 2.982 2.103 5.636 4.541 9.411 5.724 8.637 2.708 18.229 1.72 26.214 6.844.321.206.968-.107 1.465-.163 4.089-.46 8.171-1.111 12.27-1.255 1.247-.044 3.231 1.027 3.678 2.091 1.03 2.45 1.406 5.194 1.897 7.847.949 5.118 1.789 10.255 2.684 15.383 1.518 8.695 4.667 16.77 8.07 24.927 3.242 7.772 7.724 14.019 14.399 18.683 8.616 6.021 18.058 10.564 28.232 13.298 6.168 1.657 12.576 4.056 18.732 3.692 7.379-.437 15.194-2.312 21.067-7.466 3.25-2.853 7.972-5.131 7.48-11.015-.205-2.45 1.701-1.842 3.09-.733 3.965 3.164 4.661 7.977 6.198 12.353 1.796 5.112 10.441 11.128 15.07 10.177 11.12-2.285 21.269-6.496 30.744-13.102 8.005-5.581 15.309-12.669 24.869-15.631 7.822-2.423 11.457-8.542 14.649-14.971 2.544-5.123 3.688-10.523-1.967-15.135-1.925-1.571-2.897-4.48-3.888-6.946-.412-1.024.268-2.488.451-3.751 1.22.2 2.558.154 3.626.668 1.086.522 1.924 1.577 2.836 2.435.752.708 1.419 2.062 2.184 2.107 3.501.207 7.019.409 10.154-1.946 2.742-2.059 5.774-3.728 8.657-5.602 1.657-1.076 3.925-1.844 4.8-3.386 5.261-9.277 12.731-17 13.992-28.898.986-9.306 1.158-18.546.707-27.656-.35-7.071-3.687-14.038-5.996-20.952-1.22-3.654-2.294-7.884-4.852-10.429-3.062-3.047-3.17-8.72-8.861-9.492-5.184-.702-7.237-7.092-3.756-11.378 5.749-7.082 7.511-15.637 6.258-23.962-1.767-11.746-6.075-22.907-15.372-31.244-3.599-3.226-7.244-6.412-11.022-9.423-3.92-3.123-7.649-6.678-13.566-4.118-2.751 1.191-4.414-.516-3.7-3.62.266-1.154 1.093-2.167 1.478-3.306 3.269-9.687 1.23-17.847-6.131-25.216-10.193-10.203-21.96-18.039-34.491-24.902-4.475-2.452-8.823-5.277-13.556-7.066-3.195-1.208-7.235-.208-10.402-1.454-3.554-1.397-2.341-6.579-4.653-8.826-3.515-3.415-7.663-6.486-12.07-8.606-7.393-3.557-15.17-6.333-22.856-9.252-2.178-.827-4.601-1.008-6.912-1.485.393 2.085.837 4.162 1.169 6.256.761 4.792-1.806 8.765-5.797 9.056-4.15.303-5.052-.947-5.187-7.187-.145-6.716-5.82-13.304-12.229-14.868-5.179-1.264-10.275-2.957-15.269-4.828-1.084-.406-1.578-2.383-2.344-3.637 1.392-.214 2.994-.986 4.14-.552 6.385 2.415 13.607 2.001 19.566 5.876.735.479 2.265.421 3.034-.042.667-.401 1.358-2.141 1.044-2.583-3.185-4.483-6.191-9.188-9.98-13.127-9.538-9.915-18.905-20.123-31.296-26.712-6.849-3.642-12.764-9.05-21.266-9.468-5.217-.256-8.037.06-9.133 4.405-1.522 6.035-3.172 12.106-.421 18.45.705 1.626-.389 4.33-1.275 6.255-.722 1.567-2.368 2.71-3.604 4.04-.88-1.674-2.567-3.385-2.492-5.015.247-5.376-2.103-9.211-5.905-12.553-1.57-1.38-2.961-2.96-4.46-4.423-4.296-4.192-9.222-6.691-15.459-6.312-10.508.639-21.032 1.015-31.54 1.66-1.902.117-3.908 1.711-5.603 1.36-3.308-.688-3.769 1.99-3.886 3.42-.343 4.183-1.035 8.867.445 12.532 1.721 4.262 1.75 8.32 1.851 12.574.036 1.481.503 3.147-2.12 3.11-2.046-.029-2.429-.688-2.67-2.651-.611-4.97-3.394-8.82-7.298-11.867-2.168-1.693-4.17-3.788-6.612-4.898-3.731-1.695-7.792-3.692-11.687-3.64-2.584.035-5.55 3.047-7.606 5.379-7.092 8.05-12.539 16.581-14.194 27.949-1.65 11.329-1.481 22.309.576 33.266.957 5.098 1.862 10.643 6.64 14.587 2.472 2.04 3.867 5.483 1.083 9.224-4.27 5.741-5.754 12.779-7.928 19.463-2.627 8.074-5.443 16.094-7.797 24.248-2.257 7.816-2.803 15.691 1.512 24.73Zm210.466-108.374c-.536-3.696-2.868-6.271-5.535-8.563-.32-.276-1.607.066-1.984.512-.344.408-.257 1.883-.025 1.968 3.55 1.296 4.358 4.053 4.499 7.437.032.781 1.271 1.513 1.954 2.267.364-.683.727-1.367 1.091-3.621Z" fill="#000"/></svg>