<svg width="534" height="534" viewBox="0 0 534 534" fill="none" xmlns="http://www.w3.org/2000/svg"><path d="M275.947 142.581c6.319 4.042 12.917 6.99 19.494 10.036 4.615 2.138 8.899 5.061 13.122 7.938 2.541 1.732 5.205 3.134 7.907 4.554 3.65 1.919 7.039 4.343 10.723 6.185 7.158 3.579 12.883 9.174 19.553 13.453 6.16 3.953 11.845 8.665 17.585 13.236a291.326 291.326 0 0 1 14.207 12.074 438.925 438.925 0 0 1 15.777 15.032c4.598 4.607 8.522 9.796 12.256 15.13 3.42 4.886 7.03 9.641 10.501 14.493 1.398 1.954 2.738 3.962 3.951 6.034 3.826 6.535 8.682 12.38 12.611 18.84 2.705 4.446 5.772 8.663 7.973 13.432 1.715 3.718 3.998 7.171 5.854 10.831 2.21 4.357 3.629 8.97 4.622 13.787 1.287 6.24 2.233 12.543 3.54 18.761 1.353 6.437 1.647 12.887 1.151 19.302-.429 5.567-1.384 11.127-2.54 16.656-1.606 7.681-3.701 15.175-7.221 22.128-2.549 5.035-5.923 9.675-9.13 14.354-3.882 5.664-8.073 11.128-13.096 15.844-7.034 6.605-14.641 12.508-23.759 15.978-5.254 2-10.563 3.965-16.226 4.733-3.47.471-6.884 1.355-10.325 2.044-.224.045-.465.004-.698.006-3.181.027-6.357.397-9.506.533-4.198.181-8.469-.668-12.667-1.332-2.672-.422-5.239-1.489-7.908-1.95-4.632-.802-9.036-2.308-13.412-3.922-8.139-3.001-15.972-6.697-23.165-11.518-5.35-3.586-10.45-7.579-15.422-11.678-5.51-4.543-11.21-8.876-16.247-13.982-2.32-2.352-4.898-4.452-7.348-6.678-5.332-4.842-10.49-9.891-16.029-14.485-6.186-5.13-12.659-9.907-19.753-13.812-5.522-3.04-10.829-6.466-16.278-9.64-7.688-4.477-15.382-8.946-23.145-13.292-4.806-2.691-9.907-4.884-14.586-7.767-8.036-4.95-16.677-8.718-24.907-13.26-6.203-3.422-12.208-7.266-17.982-11.368-3.089-2.194-5.504-5.33-8.223-8.041-2.293-2.285-4.56-4.598-6.884-6.852-5.098-4.944-8.935-10.884-13.041-16.591-2.203-3.063-3.867-6.516-5.733-9.815-1.862-3.293-3.83-6.539-5.475-9.939-4.223-8.722-7.779-17.715-10.528-27.018-2.049-6.933-4.29-13.813-6.184-20.787-.835-3.075-1.038-6.323-1.499-9.496-1.566-10.794-.48-21.649-.614-32.473-.059-4.796.523-9.663 1.4-14.39.883-4.761 2.077-9.462 3.918-14.044 2.729-6.79 6.653-12.644 11.728-17.807 3.887-3.955 7.726-7.968 11.815-11.706 2.611-2.386 5.658-4.296 8.478-6.459 4.442-3.407 9.231-6.26 13.984-9.209 5.672-3.518 11.584-6.317 17.948-8.167a102.855 102.855 0 0 1 13.489-2.984 46.469 46.469 0 0 1 9.17-.458c3.768.181 7.523.844 11.255 1.467 3.129.522 6.206 1.345 9.327 1.928 5.567 1.04 10.982 2.556 16.235 4.684 7.395 2.997 14.101 7.182 20.728 11.554 3.068 2.024 6.388 3.67 9.612 5.454 5.56 3.077 10.982 6.303 15.351 11.061 1.836 1.999 4.106 3.596 6.08 5.477.875.833 1.517 1.912 2.245 2.893 1.726 2.33 4.408 3.357 6.708 4.899 2.998 2.01 6.037 3.959 9.233 6.109ZM117.717 292.31c2.14 2.365 4.228 4.781 6.434 7.084 2.494 2.604 5.095 5.107 7.65 7.653 1.401 1.397 2.618 3.068 4.235 4.141 5.914 3.925 11.816 7.905 17.992 11.388 8.278 4.669 16.81 8.89 25.227 13.313 3.254 1.709 6.532 3.378 9.732 5.184 6.331 3.573 12.605 7.247 18.927 10.836 1.592.904 3.342 1.537 4.908 2.478 5.139 3.084 10.22 6.261 15.335 9.386 7.684 4.695 15.702 8.867 22.459 14.972 5.214 4.711 10.729 9.094 15.887 13.863 4.509 4.169 8.937 8.402 13.714 12.29 6.036 4.914 11.552 10.453 17.914 14.991 3.422 2.441 6.854 4.87 10.208 7.401 6.383 4.818 13.942 7.403 20.941 11.047 1.322.689 2.839 1.041 4.299 1.422 4.946 1.292 9.88 2.648 14.871 3.745 3.667.806 7.396 1.519 11.132 1.791 8.611.625 17.027-.747 25.426-2.66 6.59-1.501 13.059-3.326 19.005-6.44 4.446-2.327 8.804-5.089 12.557-8.387 3.791-3.331 8.314-5.93 10.988-10.58 1.656-2.879 4.125-5.315 6.358-7.837 2.205-2.49 5.058-4.456 5.92-7.969.142-.579.943-.995 1.433-1.493.323-.327.897-.658.909-1.002.114-3.434 2.574-5.925 3.729-8.939 1.509-3.938 2.765-7.932 3.961-11.947.962-3.23 1.619-6.559 2.256-9.874.749-3.895 1.743-7.806 1.895-11.738.286-7.375.407-14.788-1.284-22.081-.449-1.937-.491-3.965-.888-5.917-.563-2.77-1.568-5.477-1.874-8.266-.578-5.274-2.657-10.054-4.601-14.85-1.45-3.58-3.425-6.973-5.397-10.314-2.932-4.967-5.999-9.86-9.135-14.703-3.631-5.606-7.386-11.132-11.11-16.677a3224.498 3224.498 0 0 0-10.138-14.985c-.622-.915-1.3-1.793-1.974-2.671-2.915-3.794-5.799-7.613-8.772-11.362-2.374-2.993-4.621-6.142-7.345-8.793-5.743-5.588-11.75-10.907-17.671-16.312-2.762-2.522-5.338-5.344-8.419-7.402-5.709-3.811-10.569-8.768-16.655-12.038a14.222 14.222 0 0 1-1.933-1.233c-4.245-3.26-8.471-6.545-12.71-9.811-1.231-.949-2.408-2.002-3.749-2.766-4.42-2.52-8.929-4.884-13.355-7.393-3.498-1.984-6.933-4.082-10.382-6.152-2.428-1.457-4.769-3.074-7.264-4.405a311.792 311.792 0 0 0-12.716-6.416c-5.847-2.787-11.77-5.393-16.46-10.084-.873-.873-2.255-1.248-3.42-1.814-.145-.07-.408.102-.616.162.051.164.055.375.162.485.81.835 1.731 1.581 2.445 2.488 1.226 1.558 2.438 3.15 3.433 4.857.484.83.054 1.856-.878 2.335-1.343.69-1.063-.754-1.407-1.244-3.248-4.629-6.236-9.451-10.167-13.568a311.046 311.046 0 0 0-6.352-6.44c-3.628-3.585-6.954-7.59-11.026-10.582-4.236-3.114-9.234-5.186-13.843-7.812-3.028-1.725-6.084-3.448-8.899-5.487-4.085-2.959-8.722-4.809-13.174-7.033-4.474-2.236-9.287-3.606-14.125-4.675-4.41-.975-8.741-2.626-13.391-2.325-.544.036-1.104-.121-1.65-.22-3.466-.63-6.817-1.44-10.482-1.317-4.875.163-9.462 1.305-14.183 2.113-5.795.992-11.09 3.08-16.208 5.656-4.554 2.292-8.997 4.891-13.188 7.785-6.026 4.162-12.044 8.41-17.576 13.185-5.673 4.898-10.46 10.682-15.01 16.717-6.087 8.072-8.784 17.029-9.275 26.877-.047.926.23 1.94-.057 2.77-1.08 3.11-1.25 6.412-1.232 9.548.055 9.662-.885 19.354.57 28.994.548 3.629.571 7.378 1.488 10.903 2.091 8.046 4.468 16.024 6.951 23.961 2.473 7.901 5.35 15.673 9.08 23.084 2.729 5.42 5.553 10.764 8.911 15.88 2.287 3.486 4.322 7.111 7.062 10.302 1.213 1.412 2.166 3.045 3.587 4.927Z" fill="#000"/></svg>