<svg width="534" height="534" viewBox="0 0 534 534" fill="none" xmlns="http://www.w3.org/2000/svg"><defs><filter id="a" x="-20%" y="-20%" width="140%" height="140%"><feTurbulence baseFrequency="0.002 0.002" numOctaves="20" seed="3" stitchTiles="stitch" x="0%" y="0%" width="100%" height="100%" result="turbulence"/><feDisplacementMap in="SourceGraphic" in2="turbulence" scale="27" xChannelSelector="R" yChannelSelector="B" x="0%" y="0%" width="100%" height="100%" result="displacementMap"/><feGaussianBlur stdDeviation="3" x="0%" y="0%" width="100%" height="100%" in="displacementMap" result="blur"/><feColorMatrix values="1 0 0 0 0 0 1 0 0 0 0 0 1 0 0 0 0 0 7 -4" x="0%" y="0%" width="100%" height="100%" in="blur" result="colormatrix"/></filter></defs><path d="M174.562 207.42c-11.108 13.293-21.834 27.176-29.334 42.889-13.324 27.919-13.883 58.792-8.889 88.945 4.416 26.656 13.925 53.135 32.723 73.055 19.987 21.181 46.828 30.016 74.611 36.223 24.496 5.472 49.731 6.953 74.778 6 32.372-1.233 69.297-4.728 96.222-24.5 22.429-16.472 39.12-40.735 44.222-68.334 8.126-43.953-1.865-93.349-12.222-136.055-12.621-52.042-49.496-98.159-95.778-124.889-46.412-26.805-101.909-28.079-151.333-8-22.339 9.075-41.88 23.702-59.556 39.889-19.098 17.488-39.202 37.275-51.778 60.166-17.054 31.044-18.494 64.693-10.666 98.611" stroke-width="12" stroke-linecap="round" filter="url(#a)" stroke="currentColor"/></svg>