<svg width="534" height="534" viewBox="0 0 534 534" fill="none" xmlns="http://www.w3.org/2000/svg">
<path d="M189.912 192.156C176.964 175.371 152.965 154.58 132.134 172.156C125.523 177.734 122.614 184.44 124.69 192.933C126.278 199.429 135.651 207.156 142.468 207.156C145.352 207.156 142.489 202.513 141.69 201.156C139.094 196.743 129.869 197.193 125.69 197.156C116.528 197.074 100.387 194.513 92.3566 199.933C81.4568 207.291 78.9121 218.708 78.9121 231.045C78.9121 241.404 80.1174 254.179 88.4121 261.6C94.1781 266.759 108.588 265.156 115.69 265.156C119.445 265.156 123.895 263.329 122.857 258.656C122.291 256.111 118.425 255.534 116.468 254.933C109.006 252.644 101.565 250.279 93.6899 250.156C87.5132 250.059 84.4696 253.446 79.9121 257.378C68.9898 266.801 65.9839 284.365 64.6899 297.822C63.2649 312.643 59.1307 344.945 79.9121 348.656C80.9839 348.847 87.3063 347.915 84.801 347.378C79.4522 346.232 73.0703 347.156 67.6344 347.156C64.1883 347.156 57.9285 345.913 55.8566 349.711C49.7218 360.958 54.6697 373.46 59.4677 384.545C65.5425 398.58 74.9034 409.515 86.7455 418.989C95.5506 426.033 113.573 424.135 123.745 422.1C132.15 420.419 144.912 415.579 144.912 405.267C144.912 402.501 137.656 399.302 136.968 401.711C135.431 407.09 141.836 411.591 145.69 413.933C159.797 422.508 177.635 428.682 193.912 431.378C215.478 434.949 243.206 438.007 263.468 427.378C271.502 423.163 294.017 406.383 283.912 395.156C281.865 392.882 273.825 391.797 272.968 395.656C271.852 400.677 288.324 404.148 291.19 404.711C309.04 408.217 326.173 411.338 344.357 412.656C363.249 414.025 388.419 406.619 401.023 391.822C411.099 379.995 406.762 363.864 396.579 354.045C394.92 352.445 378.415 340.209 378.912 349.156C379.297 356.08 397.307 358.342 401.801 359.6C412.353 362.555 427.663 365.941 437.468 358.378C440.138 356.318 442.06 351.251 443.523 348.378C448.206 339.186 452.549 330.926 451.245 320.267C449.867 308.999 444.794 298.849 440.134 288.656C438.18 284.382 436.237 278.43 432.134 275.6C428.523 273.11 421.185 278.433 420.134 281.933C417.719 289.984 426.79 296.368 432.912 298.933C445.088 304.036 454.177 302.103 464.134 293.878C470.379 288.719 477.041 281.409 479.245 273.378C481.906 263.687 479.403 250.879 477.801 241.267C473.826 217.414 459.878 198.694 438.023 187.767C418.823 178.167 411.425 209.351 430.912 214.156C440.757 216.583 458.57 214.403 461.468 202.378C463.458 194.118 462.339 182.811 460.69 174.656C457.892 160.822 449.958 151.041 440.134 141.267C424.14 125.353 407.466 112.896 384.023 115.378C374.209 116.417 364.265 121.801 361.857 131.433C360.028 138.747 358.916 147.014 361.134 154.378C361.533 155.701 363.528 163.105 365.69 162.878C371.703 162.245 381.358 157.599 386.357 154.267C392.145 150.408 397.46 144.722 394.69 137.489C387.601 118.98 369.077 102.493 349.412 99.8224C333.235 97.6255 312.598 99.6844 298.19 107.767C285.779 114.729 278.134 124.769 278.134 139.656C278.134 143.392 280.499 163.156 286.412 163.156C294.946 163.156 295.779 143.266 294.801 138.378C291.602 122.383 276.583 112.893 261.579 109.933C246.726 107.003 225.432 102.636 213.357 114.711C200.343 127.725 197.772 143.057 197.912 160.6C197.988 170.113 197.047 177.806 207.912 175.711C213.102 174.711 217.912 173.058 217.912 167.156C217.912 161.595 215.256 163.016 210.412 164.156C205.89 165.22 204.88 166.758 201.968 170.156C199.013 173.603 195.969 179.148 194.968 183.656C194.345 186.458 191.858 188.317 190.912 191.156" stroke="currentColor" stroke-width="7" stroke-linecap="round"/>
</svg>
