<svg width="534" height="534" viewBox="0 0 534 534" fill="none" xmlns="http://www.w3.org/2000/svg"><path d="M178.535 92.434c6.843-5.428 14.315-7.766 22.018-9.369 6.315-1.314 12.712-2.838 19.106-3.01 7.049-.19 14.407.048 21.159 1.859 23.684 6.353 45.449 17.277 65.506 31.179 6.572 4.555 11.774 11.5 16.574 18.1 7.224 9.931 14.029 20.244 20.088 30.919 4.512 7.952 8.031 16.572 11.013 25.232 1.085 3.15-.142 7.48-1.439 10.837-.395 1.024-4.539.708-6.972.756-.544.011-1.138-1.001-1.658-1.588-1.133-1.278-2.233-2.585-3.347-3.881 1.602.213 3.224.332 4.802.662 2.207.463 4.943-2.902 4.27-5.869-.527-2.324-1.604-4.574-2.723-6.706-7.292-13.89-13.722-28.263-24.308-40.227-3.895-4.402-6.934-9.61-10.043-14.649-5.193-8.419-13.281-13.674-21.53-17.962-10.712-5.567-21.092-11.89-32.658-15.89-13.413-4.64-26.974-8.165-41.18-6.536-10.184 1.168-20.809 2.85-29.543 8.044-8.565 5.094-17.152 10.339-23.746 19.022-6.644 8.749-13.265 17.712-20.517 26.086-2.739 3.163-4.994 6.777-7.234 10.334-2.203 3.5-3.99 7.262-6.172 10.777-2.918 4.704-3.198 10.196-4.782 15.29-1.453 4.674-2.563 9.529-3.137 14.385-.867 7.333-.75 14.788-1.735 22.098-2.649 19.641-1.636 39.369-1.242 59.026.211 10.56 2.076 21.147 4.945 31.577 2.402 8.735 5.262 17.178 8.977 25.366 2.402 5.294 4.899 10.589 7.877 15.57 5.536 9.264 11.373 18.351 17.25 27.404 2.571 3.961 5.337 7.835 8.383 11.436 7.084 8.377 14.025 16.926 21.7 24.74 10.189 10.375 22.393 18.548 35.046 25.295 11.854 6.321 24.9 10.987 37.951 14.29 9.513 2.407 19.889 1.368 29.876 1.952 9.417.551 18.494-.695 27.1-4.725 1.534-.718 3.043-1.502 4.615-2.126 3.596-1.429 7.17-3.753 10.851-3.959 8.308-.463 13.789-5.243 19.169-10.554.269-.266-.12-1.17.145-1.476 1.745-2.01 7.401 1.61 6.512-4.953-.227-1.67 3.799-3.894 5.84-5.896 10.264-10.069 17.725-22.229 25.166-34.34 7.645-12.441 12.32-26.272 17.619-39.799 1.843-4.704 2.837-9.439 2.952-14.514.107-4.765 1.406-9.514 1.401-14.269-.015-17.862-3.223-35.222-7.329-52.619-2.596-11-5.393-21.868-10.07-31.993-4.585-9.923-10.616-19.211-16.4-28.537-5.838-9.413-11.177-19.418-18.535-27.53-7.362-8.117-12.863-17.536-20.235-25.531-.618-.67-.791-1.75-1.171-2.64.916.378 2.134.5 2.701 1.172 7.84 9.286 15.972 18.361 23.265 28.064 8.921 11.87 17.471 24.055 25.544 36.516 9.559 14.757 17.411 30.248 20.975 47.871 2.257 11.16 5.047 22.167 6.126 33.555.608 6.412 2.654 12.726 2.888 19.126.25 6.821-.121 13.859-1.587 20.5-1.822 8.252-4.761 16.299-7.724 24.246-5.346 14.338-11.443 28.362-19.847 41.236-4.319 6.615-8.71 13.196-13.394 19.552-1.412 1.917-3.949 2.986-5.914 4.516-13.824 10.76-28.617 20.109-44.148 28.063-6.121 3.135-12.972 6.211-20.364 5.696-6.851-.477-13.769 1.299-20.631-1.315-2.151-.819-5.305 1.483-7.895 1.239-7.45-.701-15.21-.898-22.184-3.257a276.639 276.639 0 0 1-35.442-14.812c-8.306-4.172-16.092-9.669-23.389-15.481-7.845-6.251-15.1-13.314-22.129-20.495-4.55-4.65-8.244-10.139-12.301-15.269-6.775-8.567-13.457-17.2-18.882-26.723-3.259-5.721-6.435-11.494-9.883-17.1-4.733-7.697-8.042-16.047-11.094-24.456-2.074-5.713-3.061-11.818-4.585-17.735-6.496-25.221-4.556-50.961-4.631-76.565-.013-4.492.445-9.147 1.739-13.407.559-1.842-.149-2.862-.188-4.271-.2-7.317 1.062-14.428 3.02-21.484 1.38-4.97 1.951-10.163 3.284-15.149.803-3.007 2.278-5.855 3.624-8.692 1.558-3.287 3.1-6.612 5.015-9.693 3.766-6.06 7.24-12.426 11.82-17.83 8.36-9.864 14.393-21.655 24.76-29.852 3.582-2.831 6.979-5.896 11.246-8.853Zm228.528 260.727-.628 2.513 1.026.23c.129-.915.258-1.829 1.173-2.743l.115-1.456c-.3.485-.601.97-1.686 1.456Zm-25.916 47.904c-3.873 4.397-7.782 8.763-11.58 13.224-.55.647-.564 1.749-.827 2.641 1.076-.135 2.634.14 3.151-.468 3.727-4.395 7.366-8.879 10.785-13.517 2.316-3.143 4.254-6.569 6.291-9.911.215-.354-.038-.994-.074-1.501-.554.102-1.343.005-1.623.338-2.097 2.493-4.094 5.072-6.123 9.194Z" fill="#000"/></svg>