<svg width="534" height="534" viewBox="0 0 534 534" fill="none" xmlns="http://www.w3.org/2000/svg">
<defs><filter id="a" x="-20%" y="-20%" width="140%" height="140%"><feTurbulence baseFrequency="0.002 0.002" numOctaves="20" seed="3" stitchTiles="stitch" x="0%" y="0%" width="100%" height="100%" result="turbulence"/><feDisplacementMap in="SourceGraphic" in2="turbulence" scale="7" xChannelSelector="R" yChannelSelector="B" x="0%" y="0%" width="100%" height="100%" result="displacementMap"/><feGaussianBlur stdDeviation="3" x="0%" y="0%" width="100%" height="100%" in="displacementMap" result="blur"/><feColorMatrix values="1 0 0 0 0 0 1 0 0 0 0 0 1 0 0 0 0 0 7 -4" x="0%" y="0%" width="100%" height="100%" in="blur" result="colormatrix"/></filter></defs>
<path d="M216.063 194.475C211.3 185.368 204.852 177.029 198.26 169.175C188.486 157.53 179.592 145.296 170.271 133.304C162.527 123.341 153.876 114.134 146.046 104.245C145.103 103.053 139.986 94.3333 139.581 98.5832C137.215 123.388 152.526 148.873 161.502 170.856C166.833 183.909 170.758 197.507 174.434 211.106C175.185 213.883 175.408 216.318 175.408 219.155C175.408 220.607 173.157 217.25 171.821 216.679C155.58 209.727 136.219 207.163 118.988 204.161C110.266 202.642 101.448 201.632 92.6816 200.402C89.9153 200.014 86.1562 199.065 88.6073 202.923C93.961 211.348 102.38 217.947 109.776 224.463C122.423 235.606 135.302 246.484 148.571 256.884C155.769 262.526 163.093 267.96 170.005 273.957C173.272 276.792 178.73 280.244 180.811 284.263C182.912 288.319 168.417 292.266 165.754 293.374C140.989 303.68 115.046 310.775 90.4673 321.505C82.7317 324.882 75.1409 328.488 67.5271 332.12C67.3524 332.203 59.8568 335.289 61.1498 336.189C64.8349 338.754 70.8914 339.986 74.9671 341.497C87.2186 346.039 99.5108 350.468 111.636 355.341C126.192 361.191 140.457 367.727 155.037 373.52C165.863 377.821 176.919 381.54 187.631 386.126C189.742 387.029 192.187 387.283 191.971 389.974C191.632 394.212 190.425 398.441 189.713 402.623C187.973 412.83 185.771 422.544 185.771 432.921C185.771 436.726 185.17 439.958 184.974 443.669C184.861 445.821 184.156 452.005 182.76 453.4C182.187 453.972 180.442 454.537 180.235 455.258C179.754 456.941 179.828 459.036 179.438 460.787C179.264 461.571 178.947 465.231 180.103 464.988C189.943 462.919 201.902 456.028 209.021 449.198C214.602 443.845 219.073 437.377 223.724 431.241C230.275 422.598 237.488 414.331 243.343 405.189C247.978 397.952 251.801 390.211 256.452 382.985C258.463 379.861 258.901 380.865 259.906 383.516C266.81 401.718 280.627 416.798 294.361 430.135C303.911 439.408 313.644 448.725 324.52 456.452C327.367 458.475 332.778 463.994 336.256 464.812C337.348 465.068 336.384 462.563 336.256 461.45C335.751 457.086 334.902 452.771 334.396 448.402C331.68 424.981 329.706 401.622 329.303 378.031C329.291 377.357 328.192 367.273 330.498 368.124C335.421 369.939 339.938 373.924 344.271 376.793C368.851 393.063 394.785 407.401 420.931 420.979C423.908 422.525 426.738 423.867 429.699 425.181C433.121 426.7 426.402 410.099 426.068 409.17C416.317 382.002 401.102 358.069 383.376 335.393C376.38 326.444 369.111 317.668 361.942 308.855C361.321 308.092 354.345 301.662 358.31 301.513C366.749 301.195 375.371 301.936 383.819 301.955C403.366 301.998 422.87 302.111 442.41 302.751C449.412 302.98 457.351 303.281 464.464 303.459C466.179 303.502 471.808 304.237 473.897 303.193C475.207 302.539 463.594 295.07 463.091 294.745C436.395 277.525 407.748 262.796 378.859 249.63C364.246 242.971 349.365 236.852 334.661 230.39C334.42 230.284 321.663 224.907 322.881 224.33C326.179 222.77 331.171 223.027 334.661 222.65C347.374 221.274 360.045 219.48 372.659 217.386C398.516 213.094 424.44 209.126 450.248 204.559C451.021 204.423 464.907 201.729 464.331 201.154C459.981 196.809 447.519 195.648 442.011 194.652C427.353 192.002 412.45 190.721 397.681 188.858C379.887 186.613 362.117 184.258 344.227 182.886C320.306 181.052 296.002 180.144 271.996 180.144C266.548 180.144 273.862 177.886 275.318 177.313C282.678 174.418 290.274 172.257 297.594 169.219C320.619 159.665 340.921 146.359 362.384 133.879C370.87 128.945 379.767 124.856 388.69 120.787C391.902 119.322 396.956 118.224 399.806 116.01C402.15 114.19 400.255 113.762 397.636 113.445C386.416 112.086 371.952 117.074 361.322 119.814C332.992 127.115 304.905 136.558 277.709 147.325C269.124 150.724 260.722 154.524 252.599 158.914C249.972 160.333 246.644 161.524 244.317 163.425C243.434 164.147 244.679 158.557 244.76 157.587C246.106 141.463 246.293 124.803 243.077 108.889C240.415 95.7164 236.959 81.0561 230.146 69.3026C228.892 67.139 226.906 77.2333 226.426 78.8121C222.038 93.236 222.722 108.556 221.643 123.441C220.765 135.556 220.618 147.689 219.872 159.798C218.962 174.565 217.657 189.23 217.657 204.029" filter="url(#a)" stroke="currentColor" stroke-width="7" stroke-linecap="round"/>
</svg>
