<svg width="534" height="534" viewBox="0 0 534 534" fill="none" xmlns="http://www.w3.org/2000/svg"><path d="M105.067 213.796c.962-1.344 1.456-2.595 2.345-3.423 2.859-2.662 5.91-5.116 8.803-7.744 8.869-8.054 17.32-16.621 26.642-24.107 10.593-8.506 21.469-16.866 33.102-23.816 13.494-8.063 27.741-14.968 42.047-21.533 10.244-4.7 21.091-8.103 31.726-11.925 11.967-4.301 24.044-8.233 35.8-13.18 9.442-3.974 18.936-7.799 28.129-12.323 4.765-2.346 9.321-5.167 14.208-7.203 7.493-3.12 15.195-5.74 22.8-8.592 2.975-1.116 5.852-2.585 8.908-3.369 5.387-1.38 10.842-2.578 16.333-3.437 4.565-.714 9.231-1.22 13.839-1.135 10.186.19 20.097 2.078 29.551 6.052 6.514 2.739 13.708 4.156 19.237 8.832 5.321 4.5 10.493 9.245 15.228 14.35 3.427 3.695 5.909 8.248 9.031 12.248 4.898 6.278 8.022 13.68 10.121 20.982 1.855 6.454 4.408 12.878 5.203 19.657.187 1.594-.291 3.262-.139 4.865.151 1.583.775 3.115 1.084 4.69.8 4.069 2.169 8.16 2.109 12.224-.049 3.337.702 6.324 1.22 9.486.548 3.348-.037 6.866.181 10.29.135 2.142-.828 4.363.93 6.534.611.756-.657 2.983-.976 4.556-.432 2.124-1.647 4.614-.963 6.321 1.137 2.836.667 4.983-.055 7.76-2.037 7.837-2.027 16.113-4.726 23.85 2.03 4.697-.041 9.113-1.238 13.449-1.502 5.438-3.547 10.739-5.587 16.011-2.041 5.275-3.694 10.809-6.049 15.815-3.991 8.481-7.921 17.115-13.676 24.75-4.189 5.559-7.54 11.748-11.295 17.636-.493.773-1.155 1.44-1.761 2.138-4.755 5.481-9.189 11.291-14.35 16.359-8.124 7.977-16.73 15.463-25.151 23.137-3.71 3.381-7.297 6.926-11.235 10.022-9.618 7.558-19.319 15.018-29.154 22.292-9.508 7.03-19.974 12.569-30.089 18.646-5.333 3.204-10.607 6.632-16.272 9.131-11.783 5.198-23.283 10.977-35.419 15.502-8.778 3.273-17.621 5.468-26.6 7.786-8.132 2.1-16.208 2.561-24.4 3.446-5.612.606-11.293-.057-16.716 1.021-8.652 1.72-17.286.594-25.914.987-6.482.295-12.767-.905-19.147-2.042-4.982-.887-10.09-1.084-15.072-2.459-6.548-1.808-13.375-2.681-19.821-4.762-9.07-2.927-18.102-6.143-26.301-11.179-8.985-5.519-18.266-10.61-24.443-19.725-2.986-4.406-6.849-8.206-10.029-12.493-7.087-9.552-11.38-20.452-14.355-31.848-.966-3.7-.537-7.747-1.305-11.521-1.52-7.459-.596-14.992-1.186-22.451-.513-6.475-.004-12.898.266-19.304.225-5.348 1.999-10.614 2.809-15.959 1.424-9.399 5.126-18.168 7.622-27.26 1.11-4.042 1.997-8.693 5.284-12.146 1.1-1.154 1.158-3.292 1.71-4.974 2.481-7.556 6.84-14.213 11.496-20.399 7.9-10.5 15.702-21.177 25.66-30.516Zm90.278-66.204c-1.626 1.146-3.162 2.459-4.897 3.407-4.507 2.461-9.347 4.394-13.605 7.216-6.211 4.117-11.816 9.156-18.062 13.213-11.702 7.601-21.771 17.094-32.058 26.375-3.395 3.064-7.67 5.263-10.674 8.632-8.248 9.25-16.066 18.884-23.995 28.416C85 243.33 78.147 251.962 73.82 262.253c-2.532 6.019-5.235 11.986-7.377 18.145-2.792 8.031-5.15 16.215-7.61 24.359-2.155 7.133-3.56 14.496-3.794 21.879-.394 12.444-.662 24.939 1.035 37.343.788 5.761.914 11.788 2.792 17.19 4.146 11.928 8.286 24.051 17.281 33.505 5.638 5.926 11.269 11.909 17.393 17.309 9.096 8.02 20.332 12.36 31.479 16.615 5.455 2.082 11.141 3.645 16.826 5.016 5.95 1.435 12.016 2.407 18.048 3.483 3.051.544 6.146.832 9.211 1.302 4.482.688 8.935 1.654 13.44 2.061 2.083.187 4.256-.977 6.394-.999 14.239-.149 28.43-.035 42.636-2.138 9.856-1.458 19.648-2.796 29.111-5.95 11.738-3.912 23.524-7.662 34.448-13.697 10.08-5.569 20.435-10.639 30.564-16.122 14.422-7.807 28.04-16.756 41.188-26.666 11.162-8.413 22.164-17.053 32.461-26.361 14.634-13.228 28.669-27.237 40.293-43.363 12.351-17.133 21.229-36.119 28.998-55.611 2.683-6.733 4.339-13.956 5.74-21.097 1.303-6.645 1.246-13.555 2.505-20.214 1.667-8.815 1.151-17.74 2.091-26.588 1.089-10.248-.935-20.427-2.367-30.534-.468-3.299-.066-6.857-1.139-9.804-2.437-6.69-2.828-13.709-4.376-20.523-2.472-10.875-7.905-20.228-14.612-28.895-3.085-3.986-6.667-7.592-10.091-11.307-4.274-4.637-8.397-9.5-14.38-12.074-3.728-1.604-7.55-2.986-11.325-4.48-9.529-3.775-19.371-6.435-29.558-7.453-7.573-.756-15.009 1.002-22.218 3.032-9.707 2.735-19.148 6.415-28.855 9.148-10.855 3.056-20.137 9.454-30.495 13.573-9.016 3.584-17.536 8.374-26.994 10.953-2.154.588-3.963 2.373-6 3.481-.918.498-1.99.742-3.018 1.002-1.563.396-3.179.603-4.718 1.07-6.275 1.903-12.585 3.714-18.778 5.86-8.343 2.892-16.744 5.706-24.838 9.204-9.728 4.204-19.16 9.093-29.866 13.685Z" fill="#000"/></svg>