<svg width="534" height="534" viewBox="0 0 534 534" fill="none" xmlns="http://www.w3.org/2000/svg"><path d="M484.884 288.34c-.239 1.205-1.039 2.424-1.884 3.611-.599.843-1.259 1.643-1.892 2.462 1.037.293 2.056.716 3.113.857 6.002.806 10.802-1.47 15.126-5.535.859-.808 3.067-.18 4.653-.214-.619 1.151-1.145 2.365-1.872 3.444-5.437 8.08-13.517 10.409-22.742 11.847-8.784 1.369-17.117 5.453-25.876 7.198-13.892 2.766-26.886 8.358-41.516 9.431-13.615.998-27.254 2.061-40.76 1.301-9.369-.528-19.21-.322-28.244-4.201-.652-.28-1.534-.173-2.281-.06-12.166 1.837-23.438-3.151-35.101-4.928-6.52-.993-12.802-4.405-18.864-7.392-17.967-8.853-35.598-18.403-53.696-26.97-13.849-6.556-28.071-12.39-42.377-17.897-17.989-6.925-36.168-13.374-54.411-19.603-4.454-1.522-9.695-2.607-14.191-1.79a303.217 303.217 0 0 1-45.593 4.791c-6.421.189-13.5 2.827-18.327 8.608-2.711 3.247-5.512 6.938-9.117 8.727-2.243 1.112-4.599 5.507-8.65 1.958-3.416-2.993-7.56-5.156-11.382-7.687 3.135-2.882 5.796-7.046 9.491-8.41 12.197-4.503 19.013-15.91 30.22-21.989 10.06-5.458 20.342-9.714 31.162-11.369 14.137-2.162 28.641-2.306 42.999-2.525 11.478-.176 21.806 4.616 31.711 9.965a771.596 771.596 0 0 1 27.196 15.424c13.652 8.104 27.079 16.59 40.793 24.586 6.473 3.773 13.379 6.809 20.115 10.125 2.239 1.102 4.674 1.847 6.795 3.127 1.032.623 1.547 2.103 2.297 3.195-1.455.215-3.117.997-4.333.555-9.386-3.42-19.462-4.801-27.757-11.375-10.236-8.113-23.037-11.342-34.899-16.291-6.253-2.609-12.708-4.748-19.127-6.933-.899-.305-2.122.342-3.195.547.949.567 1.951 1.061 2.838 1.711 19.336 14.157 42.846 19.735 63.659 30.898 6.862 3.681 14.966 5.198 22.659 3.611 5.936-1.224 10.697.454 15.695 2.568 12.154 5.141 24.124 10.773 36.491 15.332 5.737 2.115 12.216 2.257 18.376 3.178 8.23 1.23 16.476 4.662 24.715.016 10.995 4.65 22.837 3.402 33.715 1.842 17.564-2.518 35.659-.422 52.825-6.341 4.446-1.533 9.664-.772 14.174-2.189 5.751-1.808 11.143-4.758 17.269-7.216Zm-381.738-59.089c2.06.386 4.107.925 6.185 1.09.941.075 1.941-.591 2.914-.92-1.183-.443-2.338-1.127-3.556-1.272-1.824-.218-3.693-.057-5.543-1.215-1.786-.916-2.604-5.371-5.778-1.336-.997 1.267-4.1 2.73-4.498 2.337-7.157-7.056-9.94 3.419-15.183 3.718-.79.045-1.5 1.518-2.248 2.33 1.386.354 3.29 1.472 4.076.94 6.364-4.314 13.644-4.519 20.848-5.273.972-.101 1.858-1.018 2.783-.399Zm52.134 1.159c1.204-.381 5.037.496 2.106-2.304-8.828-8.432-20.637-7.87-31.687-9.081-1.906-.209-4.103 2.228-6.165 3.442 2.158.33 4.314.676 6.475.988 5.416.781 10.923 1.177 16.221 2.446 3.724.892 7.166 2.964 13.05 4.509Zm35.915 10.427 6.189.763c-1.328-1.064-2.589-2.23-4.002-3.167-1.765-1.172-3.539-2.645-5.517-3.116-4.044-.965-8.227-1.347-12.353-1.968.886 5.95 7.669 2.454 10.122 6.231.45.693 2.884.099 5.561 1.257ZM46.378 258.216c1.59-.818 3.512-1.316 4.687-2.535 1.463-1.517 2.31-3.628 3.423-5.482-1.804.355-3.638.603-5.406 1.092-2.41.667-4.84 1.354-7.123 2.352-1.368.599-2.47 1.807-3.69 2.742 1.93.611 3.861 1.221 8.109 1.831Zm118.171-13.903c2.746-7.297-4.157-5.099-6.93-6.859-.629-.399-1.992.36-3.017.586 2.016 1.564 4.044 3.111 6.039 4.701.58.462 1.063 1.045 3.908 1.572Zm2.317-18.538c-2.735 3.448-1.226 6.11 1.579 8.531.264.228.531.453.797.679.246-2.804.514-5.607.701-8.415.016-.247-.494-.529-3.077-.795Zm-25.488 6.952c-.672 4.799 2.618 4.736 5.789 4.565.67-.036 1.291-.961 1.935-1.476-1.008-.257-2.128-.322-2.993-.824-.929-.541-1.619-1.493-4.731-2.265Z" fill="#000"/><path d="M486.043 288.34c-.322-.643-.247-1.508.222-1.894 3.053-2.516 6.186-4.936 9.349-7.313.054-.04.805.847 1.231 1.301-3.408 2.636-6.815 5.271-10.802 7.906Z" fill="#000"/></svg>