<svg width="534" height="534" viewBox="0 0 534 534" fill="none" xmlns="http://www.w3.org/2000/svg">
<defs><filter id="a" x="-20%" y="-20%" width="140%" height="140%"><feTurbulence baseFrequency="0.002 0.002" numOctaves="20" seed="3" stitchTiles="stitch" x="0%" y="0%" width="100%" height="100%" result="turbulence"/><feDisplacementMap in="SourceGraphic" in2="turbulence" scale="27" xChannelSelector="R" yChannelSelector="B" x="0%" y="0%" width="100%" height="100%" result="displacementMap"/><feGaussianBlur stdDeviation="3" x="0%" y="0%" width="100%" height="100%" in="displacementMap" result="blur"/><feColorMatrix values="1 0 0 0 0 0 1 0 0 0 0 0 1 0 0 0 0 0 7 -4" x="0%" y="0%" width="100%" height="100%" in="blur" result="colormatrix"/></filter></defs>
<path d="M49 118C70.44 140.352 95.6362 148.854 124.056 159.056C136.431 163.498 148.902 168.07 160.444 174.444C168.888 179.108 180.009 185.37 180.556 196.222C180.927 203.6 178.105 211.186 180.556 218.444C185.053 231.763 202.345 240.116 214.056 245.389C232.565 253.723 252.537 257.613 271.389 264.944C283.572 269.682 289.334 276.824 294.056 288.833C299.377 302.369 304.814 315.959 312.778 328.222C322.61 343.362 337.233 354.522 352.556 363.667C353.967 364.509 360.235 366.726 361.056 368.778C364.785 378.1 375.116 382.862 383.444 387.278C391.369 391.479 401.155 394.455 408.444 399.778C410.878 401.554 408.759 403.529 409.222 405.889C411.718 418.597 424.306 427.009 435 432M29 140C35.6428 145.969 41.5287 152.859 48.7778 158.111C66.4562 170.92 85.6004 182.034 104.389 193.111C109.995 196.416 115.622 199.684 121.222 203C123.326 204.246 129.13 206.453 130 209.222C132.415 216.908 133.827 220.558 141.333 225.222C157.093 235.015 174.806 239.029 191.444 246.667C203.562 252.229 207.462 259.199 210.056 271.778C215.579 298.567 225.392 325.499 250.333 340C260.309 345.8 271.663 348.72 281.444 354.833C286.528 358.011 288.737 362.865 293.333 366.444C305.144 375.642 321.889 379.063 335.722 384.111L335.91 384.18C350.448 389.485 364.978 394.788 376.111 406C384.146 414.091 388.692 424.562 393.444 434.722C395.018 438.087 398.24 445.749 401.667 447.778C407.059 450.969 416.336 451.526 422.389 453.111C431.973 455.621 441.328 458.928 451 461M61 96C91.4172 98.8427 122.254 104.094 149.222 119.222C160.142 125.348 168.066 134.605 177.556 142.556C182.918 147.049 188.66 151.028 194.167 155.333C198.21 158.494 201.199 162.932 205.722 165.444C211.587 168.703 221.63 168.853 226.444 173.667C232.745 179.968 233.859 194.695 234 202.778C234.103 208.724 232.759 215.716 236.556 220.778C238.43 223.277 243.319 223.818 246 224.667C257.933 228.443 270.018 231.458 282.111 234.667C303.005 240.21 326.316 243.067 345.5 253.5C357.197 259.862 367.633 266.135 372.444 279.222C380.156 300.198 371.165 330.765 393.667 343C409.123 351.404 425.529 356.95 439.444 368C446.629 373.705 454.629 377.956 462.889 381.889C467.944 384.296 478.128 386.356 481.278 391.444C484.317 396.354 483.308 405.214 484.5 410.778C486.226 418.833 488.802 419.59 496.69 421.909L497 422M77 73C84.5283 76.245 91.1238 81.3149 98.5556 84.5C105.372 87.4214 111.349 86.3779 118.611 87.6111C132.605 89.9874 147.561 94.2156 160.889 99C173.377 103.483 189.027 108.008 196.944 119.389C202.366 127.183 211.119 132.135 217.056 139.556C225.064 149.566 236.99 153.547 247.889 159.556C259.829 166.138 269.973 174.175 276.611 185.889C283.215 197.543 300.74 200.298 311.444 206.611C317.214 210.014 319.291 216.814 325.111 220C339.028 227.618 359.728 225.268 370.778 238C379.221 247.729 388.388 255.027 399.111 262.444C406.329 267.437 413.773 272.904 418.111 280.778C420.617 285.325 419.952 290.572 420 295.556C420.125 308.585 426.199 314.532 437.444 321C443.492 324.478 450.343 327.457 455.556 332.222C459.809 336.111 461.689 342.031 465.556 346.333C471.41 352.848 480.77 351.195 486.667 357.222C493.051 363.748 500.417 369.821 506 377" stroke="currentColor" stroke-width="7" stroke-linecap="round" filter="url(#a)"/>
</svg>
