<svg width="534" height="534" viewBox="0 0 534 534" fill="none" xmlns="http://www.w3.org/2000/svg"><path d="M409.728 248.253c-7.129 4.155-13.805 9.699-21.472 12.2-22.286 7.271-43.073 17.78-64.449 27.077-11.783 5.125-23.756 10.313-36.522 13.839-11.45 3.162-22.455 9.916-34.348 12.48-14.824 3.197-28.504 11.982-44.636 9.376-2.214-.357-4.86 1.961-7.306 3.041 1.079.582 2.158 1.164 3.86 1.746.331.707.082 2.011-.259 2.036-18.013 1.316-34.957 6.992-52.105 12.112-9.682 2.891-19.857 4.71-29.928 5.479-5.526.423-11.567-1.66-16.895-3.808-9.57-3.857-18.618-9.051-28.276-12.628-1.935-.717-5.895 3.002-8.284 5.331-.542.529 1.124 5.055 2.541 5.552 4.732 1.66 9.777 2.571 14.771 3.286 3.245.464 6.611.022 9.918.142.675.024 1.326.746 1.988 1.147-.62.43-1.243 1.238-1.86 1.234-8.22-.052-16.57.577-24.597-.741-3.26-.535-5.805-5.375-8.69-8.242-5.95-5.911 2.006-7.052 3.541-10.399.638-1.39 1.176-2.825 2.382-4.863 1.751-1.987 2.879-3.35 4.007-4.714-.647-.298-1.818-.923-1.866-.846-.997 1.598-1.868 3.275-2.763 4.937-1.661-.657-4.33-.95-4.733-2.063-.53-1.467.192-4.738 1.284-5.235 10.86-4.938 19.51-13.192 29.435-19.279 11.296-6.928 24.505-10.766 36.959-15.756 6.764-2.71 13.663-5.093 20.566-7.432.913-.309 2.211.521 3.331.823-.385 1.36-.413 3.627-1.209 3.941-11.062 4.357-22.688 7.534-33.252 12.84-12.059 6.057-26.063 9.143-35.018 20.643-.81 1.039-3.057.936-3.911 1.966-1.43 1.723-2.275 3.932-3.365 5.937 2.003-.426 4-1.155 6.011-1.202 2.777-.065 6.738-.695 8.13.817 4.307 4.679 6.302-2.472 9.599-1.185-.231-1.595.016-4.196-.791-4.58-1.788-.85-4.814-.511-1.36-3.138 3.402-2.588 6.899-5.363 10.807-6.913 11.411-4.527 21.7-11.572 34.581-12.969 6.913-.75 13.4-5.432 20.079-8.964 3.801-1.453 7.579-2.408 11.406-3.093 14.496-2.597 27.091-11.52 42.071-12.664 1.165-.089 2.137-2.723 3.199-4.174-1.415.165-2.86.201-4.242.514-15.803 3.577-31.63 7.066-46.541 13.718-.778.347-2.146-.631-3.24-.993.525-1.3.746-3.452 1.624-3.767 7.588-2.724 15.183-5.571 22.993-7.505 11.715-2.9 23.611-5.07 35.421-7.59a5455.607 5455.607 0 0 0 29.664-6.434c1.122-.246 2.184-.925 3.301-1.002 30.603-2.087 59.166-12.877 88.301-21.045 21.78-6.106 42.807-14.486 63.804-23.019 7.295-2.965 15.121-5.422 22.674-8.301 10.038-3.828 20.405-6.82 30.726-9.844 1.462-.428 3.464.991 5.216 1.554-1.218 1.098-2.922 1.963-3.578 3.331-5.064 10.565-16.551 11.824-25.066 17.252-12.682 8.085-26.181 14.874-39.046 22.686-7.038 4.273-13.493 9.507-20.19 14.337-.663.479-1.182 1.159-1.768 1.745 1.053.423 2.195 1.344 3.141 1.174 2.641-.473 5.469-.931 7.743-2.233 6.731-3.857 13.164-8.232 19.84-12.189 7.636-4.526 15.402-8.832 23.127-13.205 1.671-.946 3.736-1.433 5.053-2.715 2.816-2.742 6.288-3.236 8.095-.248 1.959 3.237-1.077 4.779-4.102 6.719-7.651 4.906-14.594 10.919-22.444 15.866-7.833-2.046-12.3 3.178-17.597 6.392l4.52 1.708Zm-212.969 72.282 3.172-.681-.498-1.629c-1.307.77-2.613 1.54-5.165 2.31l-3.171.681.498 1.629c1.306-.77 2.613-1.54 5.164-2.31Zm226.669-109.668c-3.31 0-6.696-.423-9.905.148-2.141.38-4.03 2.175-6.032 3.336 2.107.501 4.454 1.844 6.27 1.325 3.786-1.082 7.292-3.148 12.158-4.809l.182-2.311c-.476.771-.952 1.54-2.673 2.311Zm-219.196 67.296c5.067-1.662 10.113-3.391 15.209-4.957 2.562-.787 5.215-1.277 7.827-1.902-3.203-.206-6.734-1.371-9.538-.41-5.141 1.761-9.853 4.776-15.989 7.269l-3.171.681.498 1.629c1.306-.77 2.612-1.54 5.164-2.31Zm72.235 7.477c-9.746 2.493-19.428 5.286-29.256 7.392-9.591 2.055-19.947 1.925-28.792 5.593-5.879 2.438-10.788.335-16.052 1.257-12.033 2.108-24.165 5.438-36.201 5.218-10.812-.198-20.011 4.778-30.272 5.549-4.789.359-3.257 5.131-2.044 6.332 2.661 2.632 6.404 5.627 9.822 5.776 13.163.573 26.487 1.229 38.983-4.673 5.62-2.654 10.894-5.941 17.838-5.272 4.488.433 9.345-1.046 13.795-2.44a3292.602 3292.602 0 0 0 61.403-19.914c1.089-.365 1.366-3.156 3.267-4.818.586-.586 1.144-1.652 1.763-1.689 13.227-.788 24.615-6.334 35.643-13.164 4.201-2.602 9.027-4.192 13.568-6.244-5.202-4.591-9.586.968-14.403 1.266-2.207.137-4.304 1.573-6.515 2.19-12.271 3.427-24.417 8.53-36.894 9.566-8.686.72-15.562 5.338-23.711 6.402-1.003.131-1.752 2.205-2.619 3.378 1.135.263 2.349.926 3.392.72 5.337-1.054 10.662-2.207 15.928-3.571 4.395-1.139 8.796-3.67 11.357 1.146Zm51.063-38.633c-20.955 5.401-42.05 10.315-62.818 16.359-15.804 4.6-31.132 10.814-46.788 15.959-9.141 3.004-18.502 5.344-27.779 7.931-3.097.863-6.239 1.564-9.361 2.338 2.442-1.756 4.93-3.453 7.302-5.3.884-.688 1.496-1.727 2.232-2.606-1.099-.344-2.436-1.277-3.263-.944-12.068 4.856-24.102 9.801-36.049 14.949-1.864.802-3.254 2.708-4.863 4.103 1.961.266 4.077 1.145 5.854.691 7.079-1.804 14.03-4.107 21.079-6.04 2.156-.591 5.456-1.664 6.542-.669 4.147 3.801 7.171.797 10.761-.575 3.229-1.235 6.734-1.747 10.117-1.332-.016 1.254-5.091 3.15-.296 3.536 13.182 1.062 25.424-4.038 37.904-7.341.878-.233 2.215-1.511 2.135-2.154-.8-6.489 4.768-6.402 8.288-7.63 13.19-4.602 26.164-9.309 40.497-10.65 14.984-1.402 29.813-5.571 44.408-9.619 8.784-2.436 18.029-3.936 25.726-10.002 7.002-5.518 14.511-12.733 22.573-13.919 8.388-1.234 13.362-8.804 21.658-8.271.016-1.683.744-3.93-.069-4.957-4.919-6.216-9.88-1.1-13.289 1.484-4.324 3.276-8.098 5.269-13.721 6.338-16.303 3.102-32.278 7.935-48.38 12.091-1.872.483-3.829.779-5.57 1.558-.853.382-1.299 1.673-1.93 2.553 1.123.291 2.232.704 3.373.84 1.226.146 2.483.033 3.727 1.279Zm2.491 29.91c1.558-1.246 2.935-2.925 4.705-3.669 12.016-5.05 24.134-9.857 36.164-14.876 1.49-.622 2.652-2.032 3.966-3.076-2.047-.686-4.673-2.554-6.053-1.877-15.54 7.618-30.664 16.112-46.357 23.382-13.201 6.115-26.927 11.132-40.562 16.257-12.936 4.862-26.068 9.198-39.068 13.89-.942.34-1.52 1.69-2.266 2.571 1.1.349 2.358 1.235 3.277.965 14.418-4.23 29.091-7.821 43.091-13.172 14.302-5.467 27.933-12.693 43.103-20.395ZM181.814 325.52c-2.776.285-5.598.35-8.32.902-6.077 1.232-12.052 3.032-18.164 3.999-7.458 1.181-15.027 1.646-22.523 2.61-5.056.65-10.052 1.765-15.112 2.369-1.379.164-2.89-.768-4.34-1.196 1.413-.583 3.641-.85 4.023-1.833.433-1.119-.555-4.016-1.321-4.17-4.166-.837-7.187.946-7.669 5.413-.49 4.54 2.003 7.084 6.433 6.788 8.771-.586 17.589-1.122 26.249-2.531 12.685-2.063 25.287-4.705 37.826-7.535 2.06-.465 3.619-3.155 2.918-4.816Zm-44.836 0c-3.405-2.577-7.259-4.741-10.105-7.832-3.779-4.105-5.158.376-5.89 1.79-1.846 3.566 1.194 8.194 5.566 8.408 3.864.188 7.781-.705 10.429-2.366Zm-54.799 2.492c3.794.831 7.566 1.881 11.404 2.268.612.062 2.203-2.922 2.06-4.372-.097-.992-2.594-2.685-3.711-2.47-3.74.723-7.343 2.163-9.753 4.574Zm141.98-14.955c-1.73.831-3.437 1.716-5.199 2.472-1.056.453-2.197.705-3.3 1.047.896.489 1.948 1.563 2.662 1.373 5.207-1.39 10.358-2.995 15.488-4.651.57-.184.898-1.12 1.338-1.707-.688-.342-1.502-1.111-2.042-.951-2.198.651-4.312 1.586-8.947 2.417Zm17.436-54.834c1.197 0 2.486.289 3.573-.057 2.562-.817 8.007 2.356 7.259-2.577-.807-5.319-3.949 2.595-6.752.321-.898-.728-3.502.652-4.08 2.313Zm-132.016 59.819c-.342 1.32-.699 2.636-.957 3.972-.008.041 1.006.279 1.544.426.219-1.051.439-2.101-.587-4.398Zm225.423-56.08-1.494-.997c.083.748.166 1.495 1.494.997Zm43.591-11.216.996-1.496c-.747.083-1.495.166-.996 1.496Zm57.29-47.357-.997 1.496c.747-.083 1.495-.167.997-1.496ZM419.692 243.268c-1.245.831-2.491 1.662-4.359 1.87 1.038-1.039 2.698-1.454 4.359-1.87Z" fill="#000"/><path d="M414.711 245.761c-1.245.831-2.491 1.661-4.359 1.869 1.038-1.038 2.699-1.454 4.359-1.869ZM422.184 240.776c-.416.831-.831 1.662-1.869 1.869.208-1.038 1.038-1.454 1.869-1.869ZM201.119 290.625c7.153-2.492 14.901-5.077 22.736-7.367 1.041-.305 2.519.885 3.795 1.382-1.096.333-2.287.493-3.274 1.028-7.078 3.836-14.694 5.116-23.257 4.957ZM344.344 242.645c2.089-1.038 3.55-1.467 5.02-1.866 2.446-.664 4.896-1.309 7.345-1.963-2.374 2.02-4.481 4.602-7.201 5.889-2.356 1.114-5.403.812-8.154.98-.29.017-.644-1.023-.967-1.572 1.111-.282 2.223-.563 3.957-1.468ZM328.153 245.761c-.147-.77.329-1.54.805-2.31-.061.77-.121 1.54-.805 2.31Z" fill="#000"/></svg>