<svg width="534" height="534" viewBox="0 0 534 534" fill="none" xmlns="http://www.w3.org/2000/svg"><path d="M457.615 218.888c-7.671 2.055-14.27 3.934-20.927 5.575-6.201 1.53-12.144 1.331-17.887-2.248-7.655-4.769-15.701-8.909-23.375-13.648-8.125-5.018-15.484-3.498-23.509.714-14.438 7.578-27.681 17.866-43.832 21.643-6.771 1.583-14.144 1.052-21.219.793-15.136-.553-26.36-9.286-36.973-18.833-6.191-5.567-13.316-6.324-21.043-5.356-10.316 1.293-18.818 6.958-27.394 11.998-11.807 6.941-22.318 16.473-34.679 21.995-18.663 8.338-38.009 16.022-59.366 14.048-18.612-1.72-37.36-2.525-55.788-5.402-7.82-1.22-15.312-1.932-23.056-1.18-1.462.142-2.877.741-4.326 1.073-.692.159-1.414.188-2.122.275.057-1.001-.036-2.842.192-2.883 7.18-1.282 13.56-5.108 21.579-4.071 17.19 2.223 34.313 5.13 51.76 5.534 18.536.43 37.028.183 54.272-7.004 15.225-6.346 29.64-14.475 43.401-23.849 10.542-7.182 22.047-13.048 33.488-18.771 5.526-2.763 11.656-.208 16.669 2.391 6.514 3.377 12.283 8.169 18.486 12.177 14.728 9.516 30.568 15.507 48.027 9.786 8.888-2.912 16.908-8.485 25.294-12.907 5.977-3.152 11.711-6.855 17.907-9.477 8.426-3.566 16.742-5.049 25.055 1.682 5.542 4.487 12.332 7.452 18.631 10.978 7.172 4.015 14.582 5.789 22.826 3.121 7.201-2.331 14.571-4.205 21.951-5.917 12.135-2.815 21.444-9.94 29.846-18.666a22.848 22.848 0 0 1 5.562-4.214c1.003-.539 2.572-.026 3.885.011-.541.938-.99 1.946-1.638 2.804-10.425 13.785-23.161 24.178-41.697 27.828ZM333.428 275.964c-8.112 3.669-14.961 7.655-22.294 10.304-10.704 3.867-19.85 1.068-26.412-8.223-10.606-15.016-13.243-15.802-28.607-6.014-11.847 7.546-24.097 14.6-35.187 23.146-7.79 6.003-16.641 9.656-25.309 12.836-20.027 7.346-40.709 12.931-61.197 18.986-14.689 4.34-29.853 4.742-45.049 5.84-11.38.821-22.754 4.861-32.972 10.847l-2.717 1.589c.184-1.321.165-2.717.617-3.938.33-.892 1.131-1.86 1.977-2.273 10.316-5.037 19.388-12.686 32.406-11.312 7.015.741 14.374-2.817 21.624-3.059 17.049-.57 32.582-7.292 48.802-11.15 6.708-1.595 13.023-4.837 19.523-7.313 6.5-2.477 13.225-4.915 19.656-6.923 21.071-6.578 36.782-21.223 54.741-32.473 4.89-3.064 10.414-5.371 15.935-7.113 8.772-2.769 13.156-.388 17.45 8.066 1.054 2.076 2.505 3.952 3.791 5.908 5.95 9.059 12.214 10.661 21.081 5.364 1.432-.856 2.67-2.173 4.197-2.714 9.945-3.527 20.503-5.807 29.799-10.568 15.135-7.751 30.654-6.926 46.632-5.582 10.053.846 18.799 5.489 28.191 8.224 8.013 2.334 15.791 4.726 24.546 5.343 9.832.693 15.191-5.049 19.823-9.857 7.701-7.991 16.459-16.115 18.705-28.124.251-1.338 1.188-2.698 2.16-3.705.834-.865 2.176-1.24 3.294-1.831.586 1.232 1.752 2.519 1.639 3.683-.256 2.644-.708 5.434-1.842 7.8-7.146 14.922-17.326 27.335-31.47 36.138-4.108 2.557-8.444 3.238-13.813 2.649-15.508-1.7-29.138-8.811-43.642-13.325-8.916-2.775-17.866-3.3-27.027-1.71-6.853 1.19-14.577.636-20.367 3.741-5.768 3.093-11.762 4.352-18.684 6.743Z" fill="#000"/></svg>