<svg width="534" height="534" viewBox="0 0 534 534" fill="none" xmlns="http://www.w3.org/2000/svg"><path d="M124.165 279.69c2.6-1.408 4.666-2.918 6.869-3.152 3.35-.357 6.816-1.53 7.428 4.751.558 5.719 6.464 7.678 12.508 5.489 9.293-3.365 18.832-6.327 27.625-10.727 15.764-7.887 24.761-1.792 31.07 7.928 5.066 7.806 8.83 8.733 16.943 4.674 3.643-1.823 7.336-3.547 11.005-5.319 10.027-4.84 19.589-5.825 28.269 2.911 3.808 3.833 8.226 3.727 12.881 1.285 7.225-3.791 14.335-7.891 21.845-11.03 16.811-7.028 32.776-4.779 46.831 6.677 4.286 3.493 7.478 3.086 11.406.719 2.782-1.677 5.73-3.218 8.142-5.338 7.883-6.933 15.935-13.74 23.217-21.269 10.364-10.713 23.668-13.599 37.45-16.942 9.006-2.184 18.378 1.041 26.902-3.288.541-.275 1.617.491 2.444.773-.606.663-1.106 1.742-1.834 1.922-4.299 1.07-8.61 2.234-12.992 2.806-12.344 1.61-24.72 3.088-35.72 9.489-5.105 2.97-10.348 5.943-14.777 9.774-9.598 8.3-18.908 16.957-27.949 25.855-5.359 5.275-12.713 6.621-18.476.856-7.937-7.938-18.13-11.911-29.617-10.154-8.995 1.376-17.542 4.493-25.477 9.057-3.05 1.753-5.965 3.786-9.146 5.255-7.041 3.251-13.313 3.237-19.46-2.913-6.397-6.4-13.137-5.986-23.445-.206-1.556.873-2.747 2.476-4.357 3.153-12.288 5.165-15.3 7.114-24.565-2.671-2.588-2.733-5.219-5.444-8.026-7.948-4.67-4.165-10.169-5.178-15.966-2.931-8.669 3.361-17.223 7.015-25.81 10.583-2.684 1.115-5.208 2.798-7.989 3.456-8.131 1.925-11.861.032-17.307-8.131-1.476-2.213-2.399-2.781-5.307-.915-5.84 3.75-12.274 6.69-18.706 9.395-5.686 2.392-8.464 1.219-11.882-3.678-4.922-7.051-4.923-7.053-10.993-1.613-.467.418-.882.893-1.34 1.322-2.38 2.228-5.256 6.405-8.164 2.548-2.421-3.21 2.077-5.876 4.45-8.134 1.465-1.395 3.431-2.27 5.177-3.371 5.506-3.472 7.414-3.726 11.556 1.359 5.837 7.168 10.798 7.955 19.595 1.5 1.661-1.219 3.476-2.231 5.692-3.807Z" fill="#000"/></svg>