<svg width="534" height="534" viewBox="0 0 534 534" fill="none" xmlns="http://www.w3.org/2000/svg"><path d="M69.375 190.708c13.356-.648 25.845-.542 38.07-2.283 5.604-.798 11.142-1.271 16.755-1.645 14.411-.959 28.918-.907 43.156-3.837.622-.128 1.295.003 1.943-.02 18.655-.645 37.394-2.701 55.946-1.609 27.112 1.597 54.27.235 81.253 2.109 13.727.953 27.512-.144 41.038 1.698 12.101 1.647 24.203.752 36.176 1.976 8.046.822 15.821 3.532 23.716-.28 12.021 5.277 24.859.798 37.443 3.202 11.454 2.188 24.214 2.802 36.175-.927.581-.182 1.22-.363 1.809-.305 3.052.299 6.097.675 9.145 1.025-2.851.947-5.801 1.671-8.533 2.885-7.336 3.26-15.046 1.924-22.566 1.81-26.982-.412-54.049-.1-80.901-2.292-14.719-1.202-29.48.184-43.95-1.807-12.774-1.758-25.517-.509-38.145-1.789-37.124-3.763-74.311-.766-111.449-1.802-11.437 4.477-23.939-.724-35.376 3.863-.559.224-1.287.002-1.934.032-14.004.644-28.113.459-41.978 2.201-11.451 1.44-22.823 1.445-34.256 1.771-2.99.085-5.974 1.834-8.922 1.73-5.91-.207-11.788-1.217-17.69-1.788-2.153-.209-4.567.629-4.276-3.212.366-4.844 4.469-3.044 5.673-2.447 6.78 3.363 13.846.995 21.678 1.741ZM155.084 237.401c-20.453 0-39.932.021-59.412-.031-2.178-.006-4.517-.027-6.469-.814-1.096-.442-1.552-2.469-2.297-3.783 1.086-.403 2.207-1.231 3.25-1.143 10.153.855 20.272-.968 30.584 1.162 7.072 1.461 14.887-1.046 22.38-1.17 46.154-.764 92.31-1.482 138.469-1.892 8.811-.078 17.709-1.4 26.547 1.586 3.177 1.073 7.309-.977 11.019-1.072 2.703-.069 5.421.793 8.147 1.12 1.583.189 3.318.56 4.774.134 12.482-3.655 24.87 1.106 37.377.255 12.603-.858 25.31-.189 37.972-.189 12.986 0 26.267 1.699 38.875-.48 12.509-2.162 25.291 1.031 37.464-3.309 1.216-.434 3.008.383 4.399.948.758.308 1.234 1.308 1.838 1.996-.533.281-1.035.677-1.603.825-2.641.693-5.277 1.738-7.958 1.888-8.514.475-16.973.639-25.528 1.666-15.814 1.897-31.882 2.009-47.85 2.143-7.246.061-14.694.482-21.728-.176-36.747-3.437-73.576.264-110.227-2.07-13.068-.832-25.749 1.51-38.696.665-13.901-.907-27.992-1.158-41.842.073-12.854 1.143-25.653 1.598-39.485 1.668ZM338.19 287.984c-36.006 0-71.039-.234-106.068.083-22.764.206-45.603.285-68.25 2.243-11.827 1.023-24.161.776-35.588 5.396-1.115.45-2.753.448-3.816-.05-1.052-.492-2.332-1.892-2.315-2.872.017-.965 1.44-2.614 2.412-2.746 10.792-1.469 21.75-2.027 32.4-4.15 18.203-3.63 36.487-.702 54.687-1.83 5.915-.367 12.074 1.518 17.719-1.852.717-.428 2.042-.363 2.864-.011 7.93 3.386 15.764-.871 23.721-.205 8.374.702 16.853.157 25.287.157 8.433 0 16.884-.351 25.297.066 25.131 1.248 50.279 1.612 75.419 2.297 9.382.255 19.007 2.358 28.372 1.302 13.62-1.537 27.884-.639 40.383-8.053.628-.372 1.369-.552 2.057-.822.002.877.364 2.256-.05 2.552-3.219 2.301-6.327 5.173-9.966 6.382-6.975 2.319-14.024 4.397-21.688 4.181-14.909-.419-29.843.127-44.757-.2-12.39-.271-24.765-1.22-38.12-1.868ZM324.554 336.623c9.127.859 17.541-1.867 25.526 1.854.873.407 2.325-.626 3.522-.676 3.931-.166 7.869-.283 11.802-.241 7.031.075 14.06.406 21.089.36 2.41-.016 4.823-1.269 7.221-1.227 13.498.235 26.697-1.207 39.487-5.806 1.159-.416 2.832.592 4.266.939-.918.917-1.673 2.214-2.781 2.689-6.996 3.001-14.05 5.388-21.841 6.129-40.274 3.833-80.655.181-120.902 2.183-13.038.649-26.265.042-39.082 1.928-13.796 2.031-27.866 1.523-41.508 5.271-6.856 1.883-14.342 1.421-21.525 2.195-4.295.463-8.539 1.477-12.838 1.776-1.229.084-2.571-1.469-3.862-2.271 1.226-.916 2.324-2.263 3.701-2.668 3.786-1.114 7.647-2.218 11.552-2.638 13.724-1.477 27.626-1.847 41.165-4.28 7.624-1.37 15.232-.434 22.585-1.809 14.333-2.68 28.839-.267 42.996-2.136 9.55-1.26 18.967-1.187 29.427-1.572Z" fill="#000"/></svg>