<svg width="534" height="534" viewBox="0 0 534 534" fill="none" xmlns="http://www.w3.org/2000/svg"><path d="M173.567 237.919c-2.194-.79-4.521-2.517-6.559-2.223-17.168 2.476-32.14-5.642-47.934-9.7-1.34-.344-2.611-1.575-3.542-2.704-.634-.77-1.119-2.326-.752-3.078.352-.721 2.023-1.392 2.883-1.171 9.926 2.546 19.813 5.248 29.692 7.979.667.185 1.237 1.409 1.759 1.348 12.334-1.445 23.847 3.311 35.776 4.609 14.901 1.622 30.282.124 44.865 3.002 17.139 3.381 35.009 2.05 51.639 8.826 5.391 2.196 11.81 1.98 17.788 2.55 9.871.94 19.913.807 29.621 2.576 21.629 3.941 43.387 1.008 65.019 2.367 10.011.628 19.912 3.009 29.869 4.56 1.136.177 2.794-.347 3.386.263 7.91 8.136 16.901 9.057 26.898 4.552.478-.215 1.341.433 2.025.68-.259.558-.434 1.538-.791 1.61-4.618.934-5.288 7.987-11.012 7.145-.769-.113-1.915-.36-2.304.035-10.224 10.381-23.63 8.166-36.19 9.534-4.317.47-8.451 2.79-12.761 3.148-7.074.587-14.226.42-21.338.266-4.554-.099-9.703-2.323-13.521-.836-9.152 3.567-18.322 1.784-27.422 1.91-14.861.207-29.584.286-44.052 4.683-4.318 1.312-9.368.114-14.074.289-.794.029-1.547 1.193-2.319 1.832.866.941 1.777 2.731 2.591 2.688 7.221-.384 14.425-1.085 21.633-1.713 1.502-.131 2.993-.459 4.495-.507 25.592-.813 51.182-1.767 76.78-2.318 13.672-.295 27.035-2.358 40.515-4.441 8.86-1.37 17.801-1.599 26.312-4.988 1.935-.77 4.827-.793 4.568 3.145-.082 1.243.711 2.766 1.557 3.777.607.725 1.969.812 2.993 1.184-.959.418-2.159 1.438-2.842 1.163-7.897-3.183-15.887-1.822-22.045 2.743-7.053 5.227-13.291 2.776-20.647 2.647-16.891-.296-34.105-3.539-50.86 1.782-.714.227-1.563-.003-2.347.034-16.954.783-33.901 1.901-50.863 2.269-15.612.338-31.002 1.751-46.387 4.628-10.075 1.884-20.585 1.286-30.778 2.693-15.411 2.129-31.018 1.365-46.456 4.118-5.193.927-10.53 1.106-15.918 2.549-5.5 1.473-11.714.02-17.58.406-6.765.445-13.483 1.604-20.245 2.167-.926.077-1.987-1.49-2.986-2.297 1.031-.773 1.965-1.983 3.112-2.243a166.38 166.38 0 0 1 13.149-2.406c3.021-.433 6.096-.481 9.147-.701-1.318-2.465-2.961-4.827-3.777-7.449-.285-.917 1.288-3.379 2.322-3.588 5.501-1.111 11.099-1.736 16.665-2.519 2.973-.418 5.984-.657 8.899-1.323.859-.196 1.451-1.576 2.165-2.413-.647-.335-1.33-1.017-1.937-.954-9.477.985-19.306-2.478-28.495 2.293-1.926 1-4.02 1.674-6.034 2.503-1.62.667-3.238 1.341-4.856 2.013.767-2.186 1.27-4.528 2.417-6.489.555-.95 2.321-1.184 3.539-1.742-1.04-.333-2.112-1.028-3.117-.941-6.623.574-12.21-2.668-18.043-4.896-.994-.38-1.498-2.054-2.228-3.131 1.264-.417 2.81-1.533 3.752-1.149 24.33 9.896 49.857 6.078 74.977 6.633 2.798.062 5.623-1.491 8.449-2.246 2.209-.59 4.439-1.103 6.66-1.65-2.681-.949-6.181-3.482-7.907-2.581-8.766 4.573-16.945.484-25.395-.419-8.406-.899-17.222-2.614-25.25-.969-6.972 1.428-12.614-1.791-18.938-1.591-1.304.041-2.645-1.095-3.969-1.689 1.896-.856 3.8-2.421 5.687-2.402 2.876.028 5.716 1.381 8.623 1.711 1.315.149 2.866-.616 4.098-1.333.824-.48 1.274-1.607 1.892-2.444-.668-.287-1.314-.755-2.005-.833-14.268-1.616-28.572-2.954-42.801-4.857-8.055-1.078-16-3.014-23.957-4.745-.694-.151-1.71-2.236-1.528-2.431.866-.926 2.92-2.27 3.075-2.101 3.897 4.259 8.982 2.411 13.267 2.073 13.506-1.066 26.013 4.307 39.181 5.337 7.309.572 14.442 3.809 21.733 4.152 26.357 1.237 52.748 1.775 79.129 2.478 1.158.031 2.342-.92 3.513-1.413-1.123-1.087-2.155-2.302-3.413-3.198-.523-.372-1.535.011-2.311-.073-7.139-.771-14.442-2.891-21.364-1.999-7.459.961-13.88-.567-20.713-2.612-7.047-2.108-14.418-3.097-21.56-4.918-4.928-1.257-9.66-3.276-14.568-4.634-6.368-1.761-12.965-2.781-19.205-4.893-7.33-2.482-14.931-4.556-20.175-11.309-1.889-2.431-5.625-3.347-8.334-5.222-1.582-1.096-2.801-2.721-4.184-4.108 2.127.172 4.552-.266 6.331.614 12.393 6.129 24.444 13.019 37.922 16.633 5.546 1.486 10.724 2.744 16.148-1.678 2.504-2.04 7.195-1.37 11.483-1.337 1.375 1.777 2.161 2.962 2.358 4.147-1.363 0-2.155-.11-2.905.02-2.655.462-5.295 1.006-7.941 1.519 2.652 1.067 5.268 2.245 7.975 3.144 1.046.347 2.3.057 3.46.649 9.465 7.367 20.915 6.529 31.546 8.793 1.051.224 2.377-.857 3.574-1.332-1.328-.545-2.611-1.309-3.992-1.599-6.805-1.431-13.641-2.708-20.454-4.096-3.57-.727-7.117-1.568-10.674-2.951 0-1.777 0-2.962.589-4.147 1.764 0 3.075-.348 4.092.053 12.574 4.963 26.031 6.69 38.879 11.003 12.561 4.216 26.626 3.974 40.052 5.497 8.658.981 17.348 2.124 26.036 2.235 6.319.08 12.643-1.58 18.994-2.137 3.885-.341 7.834.087 11.734-.154 1.174-.073 2.282-1.232 3.42-1.894-1.274-.918-2.52-2.593-3.827-2.642-21.989-.822-43.968.671-66.02-2.059-12.271-1.519-24.249-3.775-36.261-6.349-13.329-2.856-26.695-5.536-40.045-8.292Zm165.011 43.839 3.772.948.345-1.549c-1.372-.194-2.744-.389-4.117-1.768-3.666-.395-7.326-.954-11.003-1.114-1.759-.077-3.549.603-5.325.94 1.613.453 3.211 1.214 4.843 1.296 3.82.194 7.656.063 11.485 1.247Zm-173.262 20.143c11.914-.918 23.829-1.821 35.735-2.834.319-.027.538-1.244 1.982-1.905 5.493 1.103 10.903-.093 16.801 1.756 7.3 2.288 16.007.191 24.087-.316 1.657-.105 3.23-1.556 4.842-2.386-1.6-.475-3.193-1.33-4.802-1.361-8.969-.174-17.961.193-26.905-.332-4.723-.277-9.209-.181-16.38 2.639-15.271-3.986-28.09-.257-37.717 4.739-1.115 0-2.269-.178-3.333.057-.838.185-1.566.879-2.343 1.347.611.322 1.364 1.051 1.807.894 1.735-.614 3.373-1.508 6.226-2.298Zm124.938-30.806h24.634c1.955 0 5.294.66 5.653-.102 3.926-8.319 11.173-3.884 16.836-4.494 11.746-1.266 23.581-1.676 35.368-2.583 1.221-.095 2.369-1.162 3.55-1.778-1.226-.964-2.442-2.751-3.68-2.767-15.248-.192-30.498-.125-45.748-.125-1.173 0-2.552-.411-3.488.063-11.298 5.72-23.281 7.711-35.817 7.133-.803-.037-1.662 1.177-2.495 1.808 1.336.553 2.672 1.106 5.187 2.845Zm-48.325 3.554c.332-5.856-4.772-4.104-6.433-3.321-7.023 3.309-14.297 2.227-21.421 2.019-12.593-.368-25.159-1.591-37.749-2.163-3.196-.145-6.442.813-9.664 1.263 2.989.339 6.124.209 8.942 1.097 14.323 4.509 29.328 1.57 43.895 4.31 6.723 1.264 14.146-1.23 22.43-3.205Zm142.617-5.924c7.937-.198 15.846 1.313 23.829.13 2.058-.305 5.899-1.93 5.812 3.122-.009.474 2.531 1.598 3.698 1.382 5.025-.93 9.98-2.247 14.96-3.423-3.163-5.765-9.082-2.421-13.467-4.138-.333-.131-.545-.761-.838-.781-12.871-.865-25.812-3.323-38.489 1.192-2.094.745-6.98-1.645-5.804 2.79 1.135 4.28 4.286-2.385 6.792-.3.231.193.759.026 3.507.026Zm-104.9 5.924c-8.314-5.125-17.143-4.588-26.031-2.14-1.372.378-2.376 2.106-3.55 3.21 1.608.829 3.909 2.801 4.715 2.307 7.625-4.67 15.863-1.045 24.866-3.377Zm69.54-3.554c-1.67 2.179-2.373 4.571 1.332 4.649 11.696.245 23.4.117 35.101.022.693-.005 1.379-.987 2.067-1.514-.672-.263-1.342-.749-2.016-.753-8.58-.052-17.168.157-25.738-.144-2.819-.098-5.594-1.47-10.746-2.26Zm-49.503 9.478 10.222-1.572c-3.384-.266-6.764-.661-10.151-.745-1.832-.046-3.678.438-5.517.683.253.545.385 1.408.787 1.563.677.261 1.525.072 4.659.071Zm-41.253 8.295-6.876-.197.296 3.062c1.801-.56 3.601-1.121 6.58-2.865Zm-20.037-8.294-10.421 1.373c3.599.206 7.197.43 10.797.582.257.011.534-.501-.376-1.955Zm14.144 0c-1.154 0-2.352-.193-3.445.066-.764.18-1.384.979-2.068 1.501 1.453 1.721 5.565.902 5.513-1.567Z" fill="#000"/></svg>