<svg width="534" height="534" viewBox="0 0 534 534" fill="none" xmlns="http://www.w3.org/2000/svg"><path d="M310.718 286.987c3.558-.225 6.387-.028 9.215.169.118-3.899-3.512-4.393-5.716-5.948-16.783-11.837-34.147-22.904-50.429-35.386-19.575-15.005-40.666-28.126-58.199-45.717-1.983-1.99-3.718-4.479-4.742-7.064-.478-1.207 7.477-4.06 10.077-3.828 6.548.585 13.07 3.396 19.686.371 4.933 2.927 9.978-.618 14.99.186 1.003.16 2.255-1.234 3.392-1.911-.796-.878-1.467-1.928-2.407-2.608-17.261-12.487-34.569-24.91-51.835-37.391-7.578-5.478-14.835-11.445-22.692-16.48-8.598-5.509-17.883-9.936-26.575-15.308-11.515-7.115-23.828-12.971-34.049-22.18-4.014-3.617-8.878-6.465-13.732-8.915-3.397-1.715-1.877-3.854-.955-5.342.602-.975 2.364-3.027 4.677-.353 2.31 2.672 5.94 4.15 8.75 6.449 13.203 10.8 28.078 18.979 42.759 27.458 10.897 6.293 21.962 12.3 32.758 18.758 4.659 2.788 8.797 6.439 13.227 9.621 10.13 7.276 20.373 14.398 30.426 21.778 12.771 9.375 25.375 18.975 38.12 28.384 1.487 1.097 4.043 1.607.435 3.073-2.437.99-4.978 2.183-7.533 2.346-9.627.614-19.278.849-28.921 1.211-1.568.058-3.139.096-4.707.053-2.551-.071-5.101-.215-7.651-.328 1.378 2.68 2.151 6.038 4.251 7.907 5.416 4.823 11.478 8.913 17.177 13.427 18.137 14.366 36.349 28.579 55.914 41.055 11.807 7.529 23.532 15.342 33.454 25.539 2.059 2.115 5.876 2.461 7.21 5.989.458 1.214 1.938 2.042 2.951 3.046-1.909.862-3.875 2.548-5.716 2.422-4.594-.317-9.106-1.648-13.694-2.233-14.094-1.794-28.182-3.691-42.321-5.047-12.069-1.158-24.24-1.269-36.001-4.795-1.984-.595-4.235-.235-6.323-.566-2.159-.343-4.271-.989-6.403-1.503 1.005 2.225 1.926 4.494 3.051 6.657.615 1.183 1.371 2.468 2.413 3.225 10.098 7.32 20.225 14.602 30.432 21.771 15.317 10.758 30.879 21.174 46.012 32.183 15.327 11.151 30.413 22.649 45.315 34.363 11.845 9.313 23.079 19.405 34.95 28.682 4.291 3.354 9.714 5.227 14.49 8 3.142 1.823 6.327 3.755 8.947 6.218 1.276 1.199 2.39 4.587 1.682 5.479-1.666 2.097-4.409 3.188-7.35 1.291-3.949-2.547-8.082-4.812-12.005-7.397-10.53-6.941-21.841-11.281-34.563-12.469-7.63-.712-15.048-3.461-22.668-4.568-10.571-1.536-21.24-2.402-31.871-3.522-1.571-.165-3.261.179-4.723-.273-6.519-2.017-12.978-4.233-19.452-6.394-.7-.234-1.359-.586-2.038-.883.557-.555 1.039-1.221 1.682-1.647 3.767-2.493 8.079-2.407 11.624-.459 6.906 3.794 14.553 3.586 21.782 4.127 8.633.646 17.058 2.025 25.54 3.428 10.898 1.803 21.829 3.412 32.748 5.089.44.068.903-.013 1.355-.025-.223-.75-.202-1.819-.704-2.203-10.938-8.356-21.966-16.592-32.909-24.94-14.867-11.341-29.543-22.935-44.56-34.071-8.767-6.502-18.151-12.169-27.056-18.494-9.739-6.918-19.234-14.179-28.868-21.244-1.26-.924-2.67-1.685-4.095-2.336-9.626-4.398-17.078-11.871-25.472-18.004-1.252-.915-2.304-2.231-3.148-3.553-2.732-4.276-2.228-3.644 2.308-6.704 2.857-1.927 3.82-4.015 5.894.374.47.992 3.044 1.19 4.694 1.394 17.434 2.156 34.379 7.5 52.097 7.862 7.131.146 14.588-.381 21.263 1.567 4.692 1.369 9.11.893 14.335 1.137Z" fill="#000"/></svg>